<?xml version="1.0" encoding="UTF-8"?>
<!--Generator: Apple Native CoreSVG 123-->
<!DOCTYPE svg
PUBLIC "-//W3C//DTD SVG 1.1//EN"
       "http://www.w3.org/Graphics/SVG/1.1/DTD/svg11.dtd">
<svg version="1.1" xmlns="http://www.w3.org/2000/svg" xmlns:xlink="http://www.w3.org/1999/xlink" width="3300" height="2200">
 <!--glyph: "uni1001FA.medium", point size: 100.000000, font version: "Version 15.0d7e11", template writer version: "5"-->
 <g id="Notes">
  <rect height="2200" id="artboard" style="fill:white;opacity:1" width="3300" x="0" y="0"/>
  <line id="" style="fill:none;stroke:black;opacity:1;stroke-width:0.5;" x1="263" x2="3036" y1="292" y2="292"/>
  <text style="stroke:none;fill:black;font-family:-apple-system,&quot;SF Pro Display&quot;,&quot;SF Pro Text&quot;,Helvetica,sans-serif;font-weight:bold;" transform="matrix(1 0 0 1 263 322)">Weight/Scale Variations</text>
  <text style="stroke:none;fill:black;font-family:-apple-system,&quot;SF Pro Display&quot;,&quot;SF Pro Text&quot;,Helvetica,sans-serif;text-anchor:middle;" transform="matrix(1 0 0 1 559.711 322)">Ultralight</text>
  <text style="stroke:none;fill:black;font-family:-apple-system,&quot;SF Pro Display&quot;,&quot;SF Pro Text&quot;,Helvetica,sans-serif;text-anchor:middle;" transform="matrix(1 0 0 1 856.422 322)">Thin</text>
  <text style="stroke:none;fill:black;font-family:-apple-system,&quot;SF Pro Display&quot;,&quot;SF Pro Text&quot;,Helvetica,sans-serif;text-anchor:middle;" transform="matrix(1 0 0 1 1153.13 322)">Light</text>
  <text style="stroke:none;fill:black;font-family:-apple-system,&quot;SF Pro Display&quot;,&quot;SF Pro Text&quot;,Helvetica,sans-serif;text-anchor:middle;" transform="matrix(1 0 0 1 1449.84 322)">Regular</text>
  <text style="stroke:none;fill:black;font-family:-apple-system,&quot;SF Pro Display&quot;,&quot;SF Pro Text&quot;,Helvetica,sans-serif;text-anchor:middle;" transform="matrix(1 0 0 1 1746.56 322)">Medium</text>
  <text style="stroke:none;fill:black;font-family:-apple-system,&quot;SF Pro Display&quot;,&quot;SF Pro Text&quot;,Helvetica,sans-serif;text-anchor:middle;" transform="matrix(1 0 0 1 2043.27 322)">Semibold</text>
  <text style="stroke:none;fill:black;font-family:-apple-system,&quot;SF Pro Display&quot;,&quot;SF Pro Text&quot;,Helvetica,sans-serif;text-anchor:middle;" transform="matrix(1 0 0 1 2339.98 322)">Bold</text>
  <text style="stroke:none;fill:black;font-family:-apple-system,&quot;SF Pro Display&quot;,&quot;SF Pro Text&quot;,Helvetica,sans-serif;text-anchor:middle;" transform="matrix(1 0 0 1 2636.69 322)">Heavy</text>
  <text style="stroke:none;fill:black;font-family:-apple-system,&quot;SF Pro Display&quot;,&quot;SF Pro Text&quot;,Helvetica,sans-serif;text-anchor:middle;" transform="matrix(1 0 0 1 2933.4 322)">Black</text>
  <line id="" style="fill:none;stroke:black;opacity:1;stroke-width:0.5;" x1="263" x2="3036" y1="1903" y2="1903"/>
  <g id="" transform="matrix(1 0 0 1 263 1933)">
   <path d="M 9.24805 0.830078 C 13.5547 0.830078 17.1387 -2.74414 17.1387 -7.05078 C 17.1387 -11.3574 13.5449 -14.9316 9.23828 -14.9316 C 4.94141 -14.9316 1.36719 -11.3574 1.36719 -7.05078 C 1.36719 -2.74414 4.95117 0.830078 9.24805 0.830078 Z M 9.24805 -0.654297 C 5.70312 -0.654297 2.87109 -3.49609 2.87109 -7.05078 C 2.87109 -10.6055 5.69336 -13.4473 9.23828 -13.4473 C 12.793 -13.4473 15.6348 -10.6055 15.6445 -7.05078 C 15.6543 -3.49609 12.8027 -0.654297 9.24805 -0.654297 Z M 9.22852 -3.42773 C 9.69727 -3.42773 9.9707 -3.74023 9.9707 -4.25781 L 9.9707 -6.31836 L 12.1973 -6.31836 C 12.6953 -6.31836 13.0371 -6.57227 13.0371 -7.04102 C 13.0371 -7.51953 12.7148 -7.7832 12.1973 -7.7832 L 9.9707 -7.7832 L 9.9707 -10.0098 C 9.9707 -10.5273 9.69727 -10.8496 9.22852 -10.8496 C 8.75977 -10.8496 8.50586 -10.5078 8.50586 -10.0098 L 8.50586 -7.7832 L 6.29883 -7.7832 C 5.78125 -7.7832 5.44922 -7.51953 5.44922 -7.04102 C 5.44922 -6.57227 5.80078 -6.31836 6.29883 -6.31836 L 8.50586 -6.31836 L 8.50586 -4.25781 C 8.50586 -3.75977 8.75977 -3.42773 9.22852 -3.42773 Z"/>
  </g>
  <g id="" transform="matrix(1 0 0 1 281.506 1933)">
   <path d="M 11.709 2.91016 C 17.1582 2.91016 21.6699 -1.60156 21.6699 -7.05078 C 21.6699 -12.4902 17.1484 -17.0117 11.6992 -17.0117 C 6.25977 -17.0117 1.74805 -12.4902 1.74805 -7.05078 C 1.74805 -1.60156 6.26953 2.91016 11.709 2.91016 Z M 11.709 1.25 C 7.09961 1.25 3.41797 -2.44141 3.41797 -7.05078 C 3.41797 -11.6504 7.08984 -15.3516 11.6992 -15.3516 C 16.3086 -15.3516 20 -11.6504 20.0098 -7.05078 C 20.0195 -2.44141 16.3184 1.25 11.709 1.25 Z M 11.6895 -2.41211 C 12.207 -2.41211 12.5195 -2.77344 12.5195 -3.33984 L 12.5195 -6.23047 L 15.5762 -6.23047 C 16.123 -6.23047 16.5039 -6.51367 16.5039 -7.03125 C 16.5039 -7.55859 16.1426 -7.86133 15.5762 -7.86133 L 12.5195 -7.86133 L 12.5195 -10.9277 C 12.5195 -11.5039 12.207 -11.8555 11.6895 -11.8555 C 11.1719 -11.8555 10.8789 -11.4844 10.8789 -10.9277 L 10.8789 -7.86133 L 7.83203 -7.86133 C 7.26562 -7.86133 6.89453 -7.55859 6.89453 -7.03125 C 6.89453 -6.51367 7.28516 -6.23047 7.83203 -6.23047 L 10.8789 -6.23047 L 10.8789 -3.33984 C 10.8789 -2.79297 11.1719 -2.41211 11.6895 -2.41211 Z"/>
  </g>
  <g id="" transform="matrix(1 0 0 1 304.924 1933)">
   <path d="M 14.9707 5.67383 C 21.9336 5.67383 27.6953 -0.078125 27.6953 -7.04102 C 27.6953 -14.0039 21.9238 -19.7559 14.9609 -19.7559 C 8.00781 -19.7559 2.25586 -14.0039 2.25586 -7.04102 C 2.25586 -0.078125 8.01758 5.67383 14.9707 5.67383 Z M 14.9707 3.85742 C 8.93555 3.85742 4.08203 -1.00586 4.08203 -7.04102 C 4.08203 -13.0762 8.92578 -17.9395 14.9609 -17.9395 C 21.0059 -17.9395 25.8594 -13.0762 25.8691 -7.04102 C 25.8789 -1.00586 21.0156 3.85742 14.9707 3.85742 Z M 14.9512 -1.06445 C 15.5176 -1.06445 15.8691 -1.45508 15.8691 -2.06055 L 15.8691 -6.13281 L 20.1074 -6.13281 C 20.6934 -6.13281 21.1133 -6.46484 21.1133 -7.02148 C 21.1133 -7.59766 20.7227 -7.93945 20.1074 -7.93945 L 15.8691 -7.93945 L 15.8691 -12.1875 C 15.8691 -12.8027 15.5176 -13.1934 14.9512 -13.1934 C 14.3848 -13.1934 14.0625 -12.7832 14.0625 -12.1875 L 14.0625 -7.93945 L 9.83398 -7.93945 C 9.21875 -7.93945 8.80859 -7.59766 8.80859 -7.02148 C 8.80859 -6.46484 9.23828 -6.13281 9.83398 -6.13281 L 14.0625 -6.13281 L 14.0625 -2.06055 C 14.0625 -1.47461 14.3848 -1.06445 14.9512 -1.06445 Z"/>
  </g>
  <text style="stroke:none;fill:black;font-family:-apple-system,&quot;SF Pro Display&quot;,&quot;SF Pro Text&quot;,Helvetica,sans-serif;font-weight:bold;" transform="matrix(1 0 0 1 263 1953)">Design Variations</text>
  <text style="stroke:none;fill:black;font-family:-apple-system,&quot;SF Pro Display&quot;,&quot;SF Pro Text&quot;,Helvetica,sans-serif;" transform="matrix(1 0 0 1 263 1971)">Symbols are supported in up to nine weights and three scales.</text>
  <text style="stroke:none;fill:black;font-family:-apple-system,&quot;SF Pro Display&quot;,&quot;SF Pro Text&quot;,Helvetica,sans-serif;" transform="matrix(1 0 0 1 263 1989)">For optimal layout with text and other symbols, vertically align</text>
  <text style="stroke:none;fill:black;font-family:-apple-system,&quot;SF Pro Display&quot;,&quot;SF Pro Text&quot;,Helvetica,sans-serif;" transform="matrix(1 0 0 1 263 2007)">symbols with the adjacent text.</text>
  <rect height="14" id="" style="fill:#00AEEF;stroke:none;opacity:0.4;" width="3" x="776" y="1919"/>
  <g id="" transform="matrix(1 0 0 1 779 1933)">
   <path d="M 10.5273 0 L 12.373 0 L 7.17773 -14.0918 L 5.43945 -14.0918 L 0.244141 0 L 2.08984 0 L 3.50586 -4.0332 L 9.11133 -4.0332 Z M 6.2793 -11.9531 L 6.33789 -11.9531 L 8.59375 -5.52734 L 4.02344 -5.52734 Z"/>
  </g>
  <rect height="14" id="" style="fill:#00AEEF;stroke:none;opacity:0.4;" width="3" x="791.617" y="1919"/>
  <text style="stroke:none;fill:black;font-family:-apple-system,&quot;SF Pro Display&quot;,&quot;SF Pro Text&quot;,Helvetica,sans-serif;font-weight:bold;" transform="matrix(1 0 0 1 776 1953)">Margins</text>
  <text style="stroke:none;fill:black;font-family:-apple-system,&quot;SF Pro Display&quot;,&quot;SF Pro Text&quot;,Helvetica,sans-serif;" transform="matrix(1 0 0 1 776 1971)">Leading and trailing margins on the left and right side of each symbol</text>
  <text style="stroke:none;fill:black;font-family:-apple-system,&quot;SF Pro Display&quot;,&quot;SF Pro Text&quot;,Helvetica,sans-serif;" transform="matrix(1 0 0 1 776 1989)">can be adjusted by modifying the width of the blue rectangles.</text>
  <text style="stroke:none;fill:black;font-family:-apple-system,&quot;SF Pro Display&quot;,&quot;SF Pro Text&quot;,Helvetica,sans-serif;" transform="matrix(1 0 0 1 776 2007)">Modifications are automatically applied proportionally to all</text>
  <text style="stroke:none;fill:black;font-family:-apple-system,&quot;SF Pro Display&quot;,&quot;SF Pro Text&quot;,Helvetica,sans-serif;" transform="matrix(1 0 0 1 776 2025)">scales and weights.</text>
  <g id="" transform="matrix(1 0 0 1 1289 1933)">
   <path d="M 2.83203 3.11523 L 4.375 4.6582 C 5.22461 5.48828 6.19141 5.41992 7.06055 4.46289 L 17.2754 -6.66016 C 17.7051 -6.36719 18.0957 -6.37695 18.5645 -6.47461 L 19.6094 -6.68945 L 20.3027 -5.99609 L 20.2539 -5.47852 C 20.1855 -4.95117 20.3516 -4.53125 20.8496 -4.0332 L 21.6602 -3.22266 C 22.168 -2.71484 22.8223 -2.68555 23.3008 -3.16406 L 26.5527 -6.41602 C 27.0312 -6.89453 27.0117 -7.54883 26.5039 -8.05664 L 25.6836 -8.87695 C 25.1855 -9.375 24.7754 -9.55078 24.2383 -9.47266 L 23.7109 -9.41406 L 23.0566 -10.0781 L 23.3398 -11.2207 C 23.4863 -11.7871 23.3398 -12.2559 22.7148 -12.8613 L 20.3027 -15.2539 C 16.7578 -18.7793 12.2266 -18.6719 9.11133 -15.5371 C 8.69141 -15.1074 8.64258 -14.5215 8.91602 -14.0918 C 9.15039 -13.7207 9.62891 -13.4961 10.2734 -13.6621 C 11.7871 -14.043 13.3008 -13.9258 14.7852 -12.9199 L 14.1602 -11.3379 C 13.9258 -10.752 13.9453 -10.2734 14.1797 -9.83398 L 3.01758 0.439453 C 2.08008 1.30859 1.97266 2.25586 2.83203 3.11523 Z M 10.6738 -15.1465 C 13.3398 -17.1387 16.6504 -16.8262 19.0527 -14.4141 L 21.6797 -11.8066 C 21.9141 -11.5723 21.9434 -11.3867 21.8848 -11.0938 L 21.5039 -9.53125 L 23.0762 -7.95898 L 24.043 -8.04688 C 24.3262 -8.07617 24.4141 -8.05664 24.6387 -7.83203 L 25.2637 -7.20703 L 22.5098 -4.46289 L 21.8848 -5.07812 C 21.6602 -5.30273 21.6406 -5.40039 21.6699 -5.68359 L 21.7578 -6.64062 L 20.1953 -8.20312 L 18.5742 -7.89062 C 18.291 -7.83203 18.1445 -7.83203 17.9102 -8.07617 L 15.7324 -10.2539 C 15.5078 -10.4883 15.4785 -10.625 15.6055 -10.9473 L 16.5527 -13.2227 C 14.9512 -14.7559 12.8418 -15.6055 10.8008 -14.9512 C 10.7129 -14.9219 10.6445 -14.9414 10.6152 -14.9805 C 10.5859 -15.0293 10.5859 -15.0781 10.6738 -15.1465 Z M 4.10156 2.41211 C 3.61328 1.91406 3.78906 1.61133 4.12109 1.30859 L 15.0781 -8.80859 L 16.3086 -7.57812 L 6.15234 3.34961 C 5.84961 3.68164 5.46875 3.7793 5.06836 3.37891 Z"/>
  </g>
  <text style="stroke:none;fill:black;font-family:-apple-system,&quot;SF Pro Display&quot;,&quot;SF Pro Text&quot;,Helvetica,sans-serif;font-weight:bold;" transform="matrix(1 0 0 1 1289 1953)">Exporting</text>
  <text style="stroke:none;fill:black;font-family:-apple-system,&quot;SF Pro Display&quot;,&quot;SF Pro Text&quot;,Helvetica,sans-serif;" transform="matrix(1 0 0 1 1289 1971)">Symbols should be outlined when exporting to ensure the</text>
  <text style="stroke:none;fill:black;font-family:-apple-system,&quot;SF Pro Display&quot;,&quot;SF Pro Text&quot;,Helvetica,sans-serif;" transform="matrix(1 0 0 1 1289 1989)">design is preserved when submitting to Xcode.</text>
  <text id="template-version" style="stroke:none;fill:black;font-family:-apple-system,&quot;SF Pro Display&quot;,&quot;SF Pro Text&quot;,Helvetica,sans-serif;text-anchor:end;" transform="matrix(1 0 0 1 3036 1933)">Template v.1.0</text>
  <text style="stroke:none;fill:black;font-family:-apple-system,&quot;SF Pro Display&quot;,&quot;SF Pro Text&quot;,Helvetica,sans-serif;text-anchor:end;" transform="matrix(1 0 0 1 3036 1951)">Generated from checkmark.seal</text>
  <text style="stroke:none;fill:black;font-family:-apple-system,&quot;SF Pro Display&quot;,&quot;SF Pro Text&quot;,Helvetica,sans-serif;text-anchor:end;" transform="matrix(1 0 0 1 3036 1969)">Typeset at 100 points</text>
  <text style="stroke:none;fill:black;font-family:-apple-system,&quot;SF Pro Display&quot;,&quot;SF Pro Text&quot;,Helvetica,sans-serif;" transform="matrix(1 0 0 1 263 726)">Small</text>
  <text style="stroke:none;fill:black;font-family:-apple-system,&quot;SF Pro Display&quot;,&quot;SF Pro Text&quot;,Helvetica,sans-serif;" transform="matrix(1 0 0 1 263 1156)">Medium</text>
  <text style="stroke:none;fill:black;font-family:-apple-system,&quot;SF Pro Display&quot;,&quot;SF Pro Text&quot;,Helvetica,sans-serif;" transform="matrix(1 0 0 1 263 1586)">Large</text>
 </g>
 <g id="Guides">
  <g id="H-reference" style="fill:#27AAE1;stroke:none;" transform="matrix(1 0 0 1 339 696)">
   <path d="M 54.9316 0 L 57.666 0 L 30.5664 -70.459 L 28.0762 -70.459 L 0.976562 0 L 3.66211 0 L 12.9395 -24.4629 L 45.7031 -24.4629 Z M 29.1992 -67.0898 L 29.4434 -67.0898 L 44.8242 -26.709 L 13.8184 -26.709 Z"/>
  </g>
  <line id="Baseline-S" style="fill:none;stroke:#27AAE1;opacity:1;stroke-width:0.577;" x1="263" x2="3036" y1="696" y2="696"/>
  <line id="Capline-S" style="fill:none;stroke:#27AAE1;opacity:1;stroke-width:0.577;" x1="263" x2="3036" y1="625.541" y2="625.541"/>
  <g id="H-reference" style="fill:#27AAE1;stroke:none;" transform="matrix(1 0 0 1 339 1126)">
   <path d="M 54.9316 0 L 57.666 0 L 30.5664 -70.459 L 28.0762 -70.459 L 0.976562 0 L 3.66211 0 L 12.9395 -24.4629 L 45.7031 -24.4629 Z M 29.1992 -67.0898 L 29.4434 -67.0898 L 44.8242 -26.709 L 13.8184 -26.709 Z"/>
  </g>
  <line id="Baseline-M" style="fill:none;stroke:#27AAE1;opacity:1;stroke-width:0.577;" x1="263" x2="3036" y1="1126" y2="1126"/>
  <line id="Capline-M" style="fill:none;stroke:#27AAE1;opacity:1;stroke-width:0.577;" x1="263" x2="3036" y1="1055.54" y2="1055.54"/>
  <g id="H-reference" style="fill:#27AAE1;stroke:none;" transform="matrix(1 0 0 1 339 1556)">
   <path d="M 54.9316 0 L 57.666 0 L 30.5664 -70.459 L 28.0762 -70.459 L 0.976562 0 L 3.66211 0 L 12.9395 -24.4629 L 45.7031 -24.4629 Z M 29.1992 -67.0898 L 29.4434 -67.0898 L 44.8242 -26.709 L 13.8184 -26.709 Z"/>
  </g>
  <line id="Baseline-L" style="fill:none;stroke:#27AAE1;opacity:1;stroke-width:0.577;" x1="263" x2="3036" y1="1556" y2="1556"/>
  <line id="Capline-L" style="fill:none;stroke:#27AAE1;opacity:1;stroke-width:0.577;" x1="263" x2="3036" y1="1485.54" y2="1485.54"/>
  <rect height="119.336" id="left-margin" style="fill:#00AEEF;stroke:none;opacity:0.4;" width="8.74632" x="1385.66" y="1030.79"/>
  <rect height="119.336" id="right-margin" style="fill:#00AEEF;stroke:none;opacity:0.4;" width="8.74632" x="1505.28" y="1030.79"/>
 </g>
 <g id="Symbols">
  <g id="Black-L" transform="matrix(1 0 0 1 2848.32 1556)">
   <path d="M 71.4355 31.6895 C 80.5664 40.8203 89.5996 40.8203 98.7305 31.6895 L 107.764 22.6562 C 108.496 21.9727 109.082 21.7285 110.01 21.7285 L 122.803 21.7285 C 135.693 21.7285 142.09 15.332 142.09 2.44141 L 142.09 -10.3516 C 142.09 -11.2793 142.383 -11.9141 143.018 -12.5977 L 152.051 -21.6309 C 161.23 -30.7617 161.182 -39.7949 152.051 -48.9258 L 143.018 -57.959 C 142.334 -58.6914 142.09 -59.2773 142.09 -60.1562 L 142.09 -72.998 C 142.09 -85.8887 135.693 -92.2852 122.803 -92.2852 L 110.01 -92.2852 C 109.082 -92.2852 108.447 -92.5293 107.764 -93.2129 L 98.7305 -102.246 C 89.5508 -111.426 80.7129 -111.279 71.4355 -102.148 L 62.4023 -93.2129 C 61.7676 -92.5293 61.084 -92.2852 60.2051 -92.2852 L 47.3633 -92.2852 C 34.4727 -92.2852 28.0762 -85.9863 28.0762 -72.998 L 28.0762 -60.1562 C 28.0762 -59.2773 27.832 -58.5938 27.1484 -57.959 L 18.1152 -48.9258 C 8.98438 -39.7949 8.98438 -30.7617 18.1152 -21.6309 L 27.1484 -12.5977 C 27.832 -11.9141 28.0762 -11.2793 28.0762 -10.3516 L 28.0762 2.44141 C 28.0762 15.332 34.5215 21.7285 47.3633 21.7285 L 60.2051 21.7285 C 61.084 21.7285 61.6699 21.9727 62.4023 22.6562 Z M 80.7129 17.334 L 70.2148 6.78711 C 68.8477 5.41992 67.627 5.07812 65.8691 5.07812 L 51.0742 4.98047 C 45.7031 4.98047 44.8242 4.10156 44.8242 -1.2207 L 44.7754 -16.0156 C 44.7754 -17.8223 44.2871 -19.0918 43.0176 -20.3613 L 32.5195 -30.8594 C 28.7109 -34.7168 28.7109 -35.8398 32.5195 -39.6484 L 43.0176 -50.1465 C 44.2871 -51.416 44.7754 -52.7344 44.7754 -54.4922 L 44.8242 -69.2871 C 44.8242 -74.7559 45.6055 -75.5371 51.0742 -75.5371 L 65.8691 -75.5859 C 67.627 -75.5859 68.9941 -76.123 70.2148 -77.3438 L 80.7129 -87.8418 C 84.5215 -91.6504 85.5957 -91.6992 89.502 -87.8418 L 100 -77.3438 C 101.221 -76.123 102.539 -75.5859 104.346 -75.5859 L 119.141 -75.5371 C 124.463 -75.5371 125.342 -74.6582 125.342 -69.2871 L 125.439 -54.4922 C 125.439 -52.7344 125.879 -51.416 127.148 -50.1465 L 137.695 -39.6484 C 141.455 -35.8398 141.455 -34.7168 137.695 -30.8594 L 127.148 -20.3613 C 125.879 -19.0918 125.439 -17.8223 125.439 -16.0156 L 125.342 -1.2207 C 125.342 4.10156 124.463 4.98047 119.141 4.98047 L 104.346 5.07812 C 102.539 5.07812 101.318 5.41992 100 6.78711 L 89.502 17.334 C 85.6934 21.0938 84.5215 21.0938 80.7129 17.334 Z M 76.2695 -4.93164 C 79.0039 -4.93164 81.2988 -5.85938 83.1055 -8.25195 L 113.916 -51.5137 C 115.039 -53.0273 115.674 -54.9316 115.674 -56.3477 C 115.674 -60.6445 112.402 -63.7695 107.715 -63.7695 C 104.932 -63.7695 102.93 -62.6465 101.221 -60.2539 L 76.123 -23.877 L 64.1602 -37.2559 C 62.6465 -38.9648 60.6445 -39.8438 58.2031 -39.8438 C 53.6621 -39.8438 50.4395 -36.6211 50.4395 -32.1289 C 50.4395 -30.4199 51.1719 -28.5645 52.3926 -27.2461 L 69.873 -7.71484 C 71.582 -5.85938 73.877 -4.93164 76.2695 -4.93164 Z"/>
  </g>
  <g id="Heavy-L" transform="matrix(1 0 0 1 2552.31 1556)">
   <path d="M 71.4355 31.2988 C 80.1758 40.0391 88.623 39.9902 97.3633 31.2988 L 106.641 22.0215 C 107.422 21.2402 108.105 20.9961 109.131 20.9961 L 122.266 20.9961 C 134.619 20.9961 140.625 14.9414 140.625 2.63672 L 140.625 -10.498 C 140.625 -11.5234 140.918 -12.2559 141.65 -12.9883 L 150.928 -22.3145 C 159.668 -31.0547 159.668 -39.502 150.928 -48.2422 L 141.65 -57.5195 C 140.869 -58.3008 140.625 -58.9844 140.625 -60.0098 L 140.625 -73.1934 C 140.625 -85.498 134.619 -91.5527 122.266 -91.5527 L 109.131 -91.5527 C 108.105 -91.5527 107.373 -91.7969 106.641 -92.5293 L 97.3633 -101.807 C 88.5742 -110.645 80.2246 -110.498 71.3867 -101.758 L 62.1094 -92.5293 C 61.377 -91.7969 60.6445 -91.5527 59.6191 -91.5527 L 46.4844 -91.5527 C 34.1309 -91.5527 28.125 -85.5957 28.125 -73.1934 L 28.125 -60.0098 C 28.125 -58.9844 27.832 -58.3008 27.0996 -57.5195 L 17.8223 -48.2422 C 9.08203 -39.502 9.13086 -31.0547 17.8223 -22.3145 L 27.0996 -12.9883 C 27.832 -12.2559 28.125 -11.5234 28.125 -10.498 L 28.125 2.63672 C 28.125 14.9902 34.1797 20.9961 46.4844 20.9961 L 59.6191 20.9961 C 60.6445 20.9961 61.3281 21.2402 62.1094 22.0215 Z M 79.8828 18.8965 L 69.043 8.00781 C 67.7246 6.64062 66.4551 6.20117 64.6484 6.20117 L 49.3164 6.15234 C 43.8477 6.15234 42.9199 5.27344 42.9199 -0.195312 L 42.9199 -15.5273 C 42.9199 -17.334 42.3828 -18.6523 41.1133 -19.9219 L 30.2246 -30.7617 C 26.3672 -34.668 26.3672 -35.8887 30.2246 -39.7461 L 41.1133 -50.5859 C 42.3828 -51.9043 42.9199 -53.2227 42.9199 -55.0293 L 42.9199 -70.3613 C 42.9199 -75.8789 43.7988 -76.709 49.3164 -76.709 L 64.6484 -76.7578 C 66.4551 -76.7578 67.8223 -77.2461 69.043 -78.5156 L 79.8828 -89.4043 C 83.7891 -93.2617 84.9609 -93.3105 88.8672 -89.4043 L 99.707 -78.5156 C 100.977 -77.2461 102.344 -76.7578 104.102 -76.7578 L 119.482 -76.709 C 124.902 -76.709 125.83 -75.7812 125.83 -70.3613 L 125.879 -55.0293 C 125.879 -53.2227 126.367 -51.9043 127.637 -50.5859 L 138.525 -39.7461 C 142.383 -35.8887 142.383 -34.668 138.525 -30.7617 L 127.637 -19.9219 C 126.367 -18.6523 125.879 -17.334 125.879 -15.5273 L 125.83 -0.195312 C 125.83 5.27344 124.902 6.15234 119.482 6.15234 L 104.102 6.20117 C 102.344 6.20117 101.074 6.64062 99.707 8.00781 L 88.8672 18.8965 C 85.0098 22.7539 83.7891 22.7539 79.8828 18.8965 Z M 75.293 -4.98047 C 77.7344 -4.98047 79.7852 -5.81055 81.3477 -7.91016 L 113.33 -52.7832 C 114.307 -54.1504 114.941 -55.8594 114.941 -57.1777 C 114.941 -61.0352 111.963 -63.8184 107.764 -63.8184 C 105.225 -63.8184 103.467 -62.8418 101.904 -60.6445 L 75.0977 -22.1191 L 62.0117 -36.8164 C 60.5957 -38.3301 58.8379 -39.1113 56.6895 -39.1113 C 52.5879 -39.1113 49.6582 -36.1816 49.6582 -32.1777 C 49.6582 -30.6641 50.3418 -29.0039 51.416 -27.7832 L 69.6289 -7.42188 C 71.0938 -5.85938 73.0957 -4.98047 75.293 -4.98047 Z"/>
  </g>
  <g id="Bold-L" transform="matrix(1 0 0 1 2256.38 1556)">
   <path d="M 71.3867 30.8105 C 79.6875 39.1113 87.5 39.1113 95.8008 30.8105 L 105.371 21.2891 C 106.25 20.4102 107.031 20.166 108.154 20.166 L 121.68 20.166 C 133.398 20.166 139.014 14.5508 139.014 2.83203 L 139.014 -10.6934 C 139.014 -11.8164 139.307 -12.6465 140.137 -13.4766 L 149.658 -23.0469 C 158.008 -31.3477 157.959 -39.209 149.658 -47.4609 L 140.137 -57.0801 C 139.307 -57.9102 139.014 -58.7402 139.014 -59.8633 L 139.014 -73.3887 C 139.014 -85.1074 133.398 -90.6738 121.68 -90.6738 L 108.154 -90.6738 C 107.031 -90.6738 106.201 -90.9668 105.371 -91.7969 L 95.8008 -101.367 C 87.4512 -109.717 79.7363 -109.619 71.3867 -101.318 L 61.7676 -91.7969 C 60.9863 -91.0156 60.1562 -90.6738 58.9844 -90.6738 L 45.5078 -90.6738 C 33.7402 -90.6738 28.1738 -85.2051 28.1738 -73.3887 L 28.1738 -59.8633 C 28.1738 -58.7402 27.832 -57.9102 27.0508 -57.0801 L 17.4805 -47.4609 C 9.17969 -39.209 9.22852 -31.3477 17.4805 -23.0469 L 27.0508 -13.4766 C 27.832 -12.6465 28.1738 -11.8164 28.1738 -10.6934 L 28.1738 2.83203 C 28.1738 14.5508 33.7402 20.166 45.5078 20.166 L 58.9844 20.166 C 60.1562 20.166 60.9375 20.4102 61.7676 21.2891 Z M 79.0039 20.6055 L 67.7734 9.32617 C 66.4062 7.95898 65.0879 7.51953 63.2812 7.51953 L 47.3145 7.4707 C 41.7969 7.4707 40.8203 6.54297 40.8203 0.976562 L 40.8203 -14.9902 C 40.8203 -16.7969 40.2832 -18.1152 38.9648 -19.4336 L 27.6855 -30.6641 C 23.7793 -34.6191 23.7793 -35.8887 27.6855 -39.8438 L 38.9648 -51.123 C 40.2832 -52.3926 40.8203 -53.7598 40.8203 -55.5664 L 40.8203 -71.5332 C 40.8203 -77.1484 41.6992 -78.0273 47.3145 -78.0273 L 63.2812 -78.0762 C 65.0879 -78.0762 66.5039 -78.5645 67.7734 -79.8828 L 79.0039 -91.1621 C 82.959 -95.0684 84.1797 -95.1172 88.1836 -91.1621 L 99.4141 -79.8828 C 100.684 -78.5645 102.051 -78.0762 103.906 -78.0762 L 119.873 -78.0273 C 125.391 -78.0273 126.367 -77.0508 126.367 -71.5332 L 126.367 -55.5664 C 126.367 -53.7598 126.904 -52.3926 128.223 -51.123 L 139.502 -39.8438 C 143.408 -35.8887 143.408 -34.6191 139.502 -30.6641 L 128.223 -19.4336 C 126.904 -18.1152 126.367 -16.7969 126.367 -14.9902 L 126.367 0.976562 C 126.367 6.54297 125.391 7.4707 119.873 7.4707 L 103.906 7.51953 C 102.051 7.51953 100.732 7.95898 99.4141 9.32617 L 88.1836 20.6055 C 84.2285 24.5605 82.959 24.5605 79.0039 20.6055 Z M 74.1699 -5.0293 C 76.3184 -5.0293 78.0762 -5.81055 79.3945 -7.51953 L 112.695 -54.248 C 113.525 -55.4199 114.062 -56.8848 114.062 -58.1055 C 114.062 -61.4258 111.475 -63.916 107.861 -63.916 C 105.566 -63.916 104.102 -63.0371 102.734 -61.1328 L 74.0234 -20.166 L 59.5703 -36.2793 C 58.3496 -37.6465 56.8359 -38.2812 54.9316 -38.2812 C 51.3672 -38.2812 48.7793 -35.7422 48.7793 -32.2754 C 48.7793 -30.9082 49.3652 -29.4434 50.3418 -28.3691 L 69.2871 -7.12891 C 70.5566 -5.81055 72.2168 -5.0293 74.1699 -5.0293 Z"/>
  </g>
  <g id="Semibold-L" transform="matrix(1 0 0 1 1960.23 1556)">
   <path d="M 71.3379 30.5176 C 79.3457 38.5254 86.7676 38.4766 94.7266 30.5176 L 104.541 20.8008 C 105.42 19.873 106.299 19.5801 107.52 19.5801 L 121.289 19.5801 C 132.568 19.5801 137.891 14.3066 137.891 2.97852 L 137.891 -10.791 C 137.891 -12.0117 138.232 -12.8906 139.111 -13.7695 L 148.828 -23.584 C 156.836 -31.543 156.787 -38.9648 148.828 -46.9727 L 139.111 -56.7383 C 138.184 -57.666 137.891 -58.4961 137.891 -59.7168 L 137.891 -73.5352 C 137.891 -84.8145 132.617 -90.0879 121.289 -90.0879 L 107.52 -90.0879 C 106.299 -90.0879 105.42 -90.4297 104.541 -91.3086 L 94.7266 -101.025 C 86.7188 -109.082 79.3945 -109.033 71.3379 -101.025 L 61.5723 -91.3086 C 60.6934 -90.4297 59.8145 -90.0879 58.5938 -90.0879 L 44.7754 -90.0879 C 33.4473 -90.0879 28.2227 -84.9121 28.2227 -73.5352 L 28.2227 -59.7168 C 28.2227 -58.4961 27.8809 -57.666 27.002 -56.7383 L 17.2852 -46.9727 C 9.27734 -38.9648 9.32617 -31.543 17.2852 -23.584 L 27.002 -13.7695 C 27.8809 -12.8906 28.2227 -12.0117 28.2227 -10.791 L 28.2227 2.97852 C 28.2227 14.2578 33.4961 19.5801 44.7754 19.5801 L 58.5938 19.5801 C 59.8145 19.5801 60.6445 19.873 61.5723 20.8008 Z M 78.3691 21.8262 L 66.8457 10.2539 C 65.5273 8.88672 64.209 8.39844 62.3535 8.39844 L 45.9473 8.39844 C 40.3809 8.39844 39.3555 7.42188 39.3555 1.80664 L 39.3555 -14.5996 C 39.3555 -16.4062 38.8184 -17.7734 37.5 -19.0918 L 25.9277 -30.6152 C 21.9727 -34.6191 21.9727 -35.9375 25.9277 -39.9414 L 37.5 -51.4648 C 38.8184 -52.7344 39.3555 -54.1016 39.3555 -55.957 L 39.3555 -72.3633 C 39.3555 -78.0273 40.2832 -78.9551 45.9473 -78.9551 L 62.3535 -78.9551 C 64.209 -78.9551 65.5762 -79.4922 66.8457 -80.8105 L 78.3691 -92.3828 C 82.373 -96.3379 83.6914 -96.3379 87.6953 -92.3828 L 99.2188 -80.8105 C 100.488 -79.4922 101.904 -78.9551 103.711 -78.9551 L 120.117 -78.9551 C 125.732 -78.9551 126.709 -77.9297 126.709 -72.3633 L 126.709 -55.957 C 126.709 -54.1016 127.295 -52.7344 128.564 -51.4648 L 140.137 -39.9414 C 144.092 -35.9375 144.092 -34.6191 140.137 -30.6152 L 128.564 -19.0918 C 127.295 -17.7734 126.709 -16.4062 126.709 -14.5996 L 126.709 1.80664 C 126.709 7.42188 125.732 8.39844 120.117 8.39844 L 103.711 8.39844 C 101.904 8.39844 100.537 8.88672 99.2188 10.2539 L 87.6953 21.8262 C 83.6914 25.7812 82.373 25.7812 78.3691 21.8262 Z M 73.4375 -5.07812 C 75.3418 -5.07812 76.9531 -5.81055 78.0273 -7.27539 L 112.256 -55.2734 C 112.988 -56.3477 113.477 -57.6172 113.477 -58.6914 C 113.477 -61.7188 111.133 -64.0137 107.91 -64.0137 C 105.811 -64.0137 104.492 -63.1836 103.271 -61.4258 L 73.2422 -18.7988 L 57.9102 -35.9375 C 56.7871 -37.1582 55.4688 -37.7441 53.7598 -37.7441 C 50.4883 -37.7441 48.1934 -35.4492 48.1934 -32.3242 C 48.1934 -31.0547 48.6816 -29.7852 49.6094 -28.7598 L 69.0918 -6.93359 C 70.166 -5.76172 71.6309 -5.07812 73.4375 -5.07812 Z"/>
  </g>
  <g id="Medium-L" transform="matrix(1 0 0 1 1663.94 1556)">
   <path d="M 71.3379 30.2734 C 79.1016 38.0371 86.1816 37.9883 93.9453 30.2734 L 103.857 20.4102 C 104.834 19.4336 105.713 19.0918 106.982 19.0918 L 120.996 19.0918 C 131.934 19.0918 137.012 14.0625 137.012 3.07617 L 137.012 -10.8887 C 137.012 -12.1582 137.354 -13.0859 138.281 -14.0137 L 148.145 -23.9746 C 155.957 -31.7383 155.908 -38.8184 148.145 -46.582 L 138.281 -56.4941 C 137.354 -57.4707 137.012 -58.3496 137.012 -59.668 L 137.012 -73.6328 C 137.012 -84.5703 131.982 -89.6484 120.996 -89.6484 L 106.982 -89.6484 C 105.713 -89.6484 104.785 -89.9902 103.857 -90.918 L 93.9453 -100.781 C 86.1328 -108.594 79.1016 -108.594 71.2891 -100.781 L 61.377 -90.918 C 60.498 -90.0391 59.5215 -89.6484 58.252 -89.6484 L 44.2871 -89.6484 C 33.252 -89.6484 28.2227 -84.668 28.2227 -73.6328 L 28.2227 -59.668 C 28.2227 -58.3496 27.8809 -57.4707 26.9531 -56.4941 L 17.0898 -46.582 C 9.32617 -38.8184 9.375 -31.7383 17.0898 -23.9746 L 26.9531 -14.0137 C 27.8809 -13.0859 28.2227 -12.1582 28.2227 -10.8887 L 28.2227 3.07617 C 28.2227 14.0625 33.3008 19.0918 44.2871 19.0918 L 58.252 19.0918 C 59.5215 19.0918 60.4492 19.4336 61.377 20.4102 Z M 77.9297 22.7539 L 66.2109 10.9863 C 64.8438 9.61914 63.4766 9.08203 61.6699 9.08203 L 44.9219 9.08203 C 39.3066 9.08203 38.2812 8.05664 38.2812 2.44141 L 38.2812 -14.3066 C 38.2812 -16.1133 37.6953 -17.5293 36.377 -18.8477 L 24.6094 -30.5664 C 20.6055 -34.6191 20.6055 -35.9375 24.6094 -39.9902 L 36.377 -51.709 C 37.6953 -53.0273 38.2812 -54.3945 38.2812 -56.25 L 38.2812 -72.9492 C 38.2812 -78.7109 39.209 -79.6387 44.9219 -79.6387 L 61.6699 -79.6387 C 63.4766 -79.6387 64.8926 -80.1758 66.2109 -81.4941 L 77.9297 -93.3105 C 81.9824 -97.3145 83.3008 -97.3145 87.3535 -93.3105 L 99.0723 -81.4941 C 100.391 -80.1758 101.758 -79.6387 103.613 -79.6387 L 120.312 -79.6387 C 125.977 -79.6387 127.002 -78.6133 127.002 -72.9492 L 127.002 -56.25 C 127.002 -54.3945 127.539 -53.0273 128.857 -51.709 L 140.625 -39.9902 C 144.629 -35.9375 144.629 -34.6191 140.625 -30.5664 L 128.857 -18.8477 C 127.539 -17.5293 127.002 -16.1133 127.002 -14.3066 L 127.002 2.44141 C 127.002 8.05664 125.977 9.08203 120.312 9.08203 L 103.613 9.08203 C 101.758 9.08203 100.391 9.61914 99.0723 10.9863 L 87.3535 22.7539 C 83.3008 26.7578 81.9824 26.7578 77.9297 22.7539 Z M 72.8516 -5.12695 C 74.6094 -5.12695 76.0742 -5.81055 77.002 -7.08008 L 111.914 -56.0547 C 112.598 -56.9824 113.037 -58.1543 113.037 -59.1797 C 113.037 -61.9629 110.889 -64.0625 107.959 -64.0625 C 106.006 -64.0625 104.834 -63.3301 103.662 -61.6699 L 72.7051 -17.7734 L 56.6406 -35.6445 C 55.6152 -36.7676 54.3945 -37.3047 52.832 -37.3047 C 49.8535 -37.3047 47.7539 -35.2051 47.7539 -32.373 C 47.7539 -31.2012 48.1934 -30.0293 49.0723 -29.1016 L 68.8965 -6.78711 C 69.873 -5.76172 71.1914 -5.12695 72.8516 -5.12695 Z"/>
  </g>
  <g id="Regular-L" transform="matrix(1 0 0 1 1367.76 1556)">
   <path d="M 71.2891 29.9316 C 78.7598 37.4023 85.4004 37.3535 92.8711 29.9316 L 102.979 19.9219 C 104.004 18.8965 104.98 18.5547 106.348 18.5547 L 120.557 18.5547 C 131.104 18.5547 135.889 13.8184 135.889 3.22266 L 135.889 -10.9863 C 135.889 -12.3535 136.279 -13.3301 137.256 -14.3555 L 147.314 -24.4629 C 154.785 -31.9336 154.736 -38.5742 147.314 -46.0449 L 137.256 -56.2012 C 136.279 -57.1777 135.889 -58.1543 135.889 -59.5215 L 135.889 -73.7793 C 135.889 -84.2773 131.152 -89.0625 120.557 -89.0625 L 106.348 -89.0625 C 104.98 -89.0625 104.004 -89.4531 102.979 -90.4297 L 92.8711 -100.488 C 85.4004 -108.008 78.7598 -107.959 71.2891 -100.488 L 61.1816 -90.4297 C 60.2051 -89.4531 59.1797 -89.0625 57.8125 -89.0625 L 43.6035 -89.0625 C 33.0078 -89.0625 28.2715 -84.375 28.2715 -73.7793 L 28.2715 -59.5215 C 28.2715 -58.1543 27.8809 -57.1777 26.9043 -56.2012 L 16.8457 -46.0449 C 9.375 -38.5742 9.42383 -31.9336 16.8457 -24.4629 L 26.9043 -14.3555 C 27.8809 -13.3301 28.2715 -12.3535 28.2715 -10.9863 L 28.2715 3.22266 C 28.2715 13.7695 33.0078 18.5547 43.6035 18.5547 L 57.8125 18.5547 C 59.1797 18.5547 60.1562 18.8965 61.1816 19.9219 Z M 77.2949 23.9258 L 65.2832 11.9141 C 63.9648 10.498 62.5977 10.0098 60.7422 10.0098 L 43.6035 10.0098 C 37.8906 10.0098 36.8164 8.93555 36.8164 3.22266 L 36.8164 -13.916 C 36.8164 -15.7715 36.2305 -17.1875 34.9121 -18.5059 L 22.8516 -30.4688 C 18.8477 -34.5703 18.8477 -35.9375 22.8516 -40.0391 L 34.9121 -52.0508 C 36.2305 -53.3691 36.8164 -54.7852 36.8164 -56.6406 L 36.8164 -73.7793 C 36.8164 -79.541 37.793 -80.5176 43.6035 -80.5176 L 60.7422 -80.5176 C 62.5977 -80.5176 63.9648 -81.0547 65.2832 -82.4219 L 77.2949 -94.4824 C 81.3965 -98.5352 82.7637 -98.5352 86.8652 -94.4824 L 98.877 -82.4219 C 100.195 -81.0547 101.611 -80.5176 103.467 -80.5176 L 120.557 -80.5176 C 126.318 -80.5176 127.344 -79.4922 127.344 -73.7793 L 127.344 -56.6406 C 127.344 -54.7852 127.93 -53.3691 129.248 -52.0508 L 141.309 -40.0391 C 145.361 -35.9375 145.361 -34.5703 141.309 -30.4688 L 129.248 -18.5059 C 127.93 -17.1875 127.344 -15.7715 127.344 -13.916 L 127.344 3.22266 C 127.344 8.93555 126.318 10.0098 120.557 10.0098 L 103.467 10.0098 C 101.611 10.0098 100.195 10.498 98.877 11.9141 L 86.8652 23.9258 C 82.7637 27.9785 81.3965 27.9785 77.2949 23.9258 Z M 72.0703 -5.12695 C 73.6816 -5.12695 74.9023 -5.81055 75.6836 -6.83594 L 111.475 -57.0312 C 112.061 -57.8613 112.451 -58.8867 112.451 -59.8145 C 112.451 -62.2559 110.547 -64.1113 108.057 -64.1113 C 106.25 -64.1113 105.273 -63.4766 104.199 -62.0117 L 71.9238 -16.4062 L 54.9805 -35.3027 C 54.1016 -36.2793 53.0273 -36.7188 51.6602 -36.7188 C 49.0234 -36.7188 47.1191 -34.9121 47.1191 -32.4219 C 47.1191 -31.3477 47.5098 -30.3223 48.3398 -29.4922 L 68.7012 -6.5918 C 69.5312 -5.71289 70.5566 -5.12695 72.0703 -5.12695 Z"/>
  </g>
  <g id="Light-L" transform="matrix(1 0 0 1 1072.05 1556)">
   <path d="M 71.4355 29.4922 C 78.2227 36.2305 83.9355 36.1816 90.7227 29.4922 L 101.416 18.8477 C 102.49 17.7734 103.516 17.3828 104.98 17.3828 L 120.02 17.3828 C 129.59 17.3828 133.74 13.2812 133.74 3.66211 L 133.74 -11.377 C 133.74 -12.793 134.131 -13.8672 135.205 -14.9414 L 145.801 -25.6348 C 152.588 -32.4219 152.539 -38.1348 145.801 -44.9219 L 135.205 -55.6152 C 134.131 -56.6895 133.74 -57.7148 133.74 -59.1797 L 133.74 -74.2188 C 133.74 -83.7891 129.639 -87.9395 120.02 -87.9395 L 104.98 -87.9395 C 103.516 -87.9395 102.49 -88.2812 101.416 -89.4043 L 90.7227 -100 C 83.8867 -106.836 78.2227 -106.836 71.3867 -100 L 60.7422 -89.4043 C 59.7168 -88.3301 58.5938 -87.9395 57.1777 -87.9395 L 42.1387 -87.9395 C 32.5195 -87.9395 28.418 -83.8379 28.418 -74.2188 L 28.418 -59.1797 C 28.418 -57.7148 27.9785 -56.6895 26.9531 -55.6152 L 16.3574 -44.9219 C 9.57031 -38.1348 9.61914 -32.4219 16.3574 -25.6348 L 26.9531 -14.9414 C 27.9785 -13.8672 28.418 -12.793 28.418 -11.377 L 28.418 3.66211 C 28.418 13.2324 32.5195 17.3828 42.1387 17.3828 L 57.1777 17.3828 C 58.5938 17.3828 59.668 17.7734 60.7422 18.8477 Z M 76.0254 24.8535 L 63.8184 12.6465 C 62.5977 11.3281 61.2305 10.8398 59.4727 10.8398 L 42.1387 10.8398 C 36.2305 10.8398 34.9609 9.57031 34.9609 3.66211 L 34.9609 -13.6719 C 34.9609 -15.4297 34.4238 -16.7969 33.1543 -18.0176 L 20.9473 -30.2246 C 16.7969 -34.4238 16.7969 -36.1328 20.9473 -40.2832 L 33.1543 -52.4902 C 34.4238 -53.7598 34.9609 -55.0781 34.9609 -56.8359 L 34.9609 -74.2188 C 34.9609 -80.1758 36.1816 -81.3965 42.1387 -81.3965 L 59.4727 -81.3965 C 61.2305 -81.3965 62.5977 -81.8848 63.8184 -83.1543 L 76.0254 -95.4102 C 80.2246 -99.5605 81.9336 -99.5605 86.084 -95.4102 L 98.291 -83.1543 C 99.5605 -81.8848 100.879 -81.3965 102.637 -81.3965 L 120.02 -81.3965 C 125.879 -81.3965 127.197 -80.0781 127.197 -74.2188 L 127.197 -56.8359 C 127.197 -55.0781 127.734 -53.7598 128.955 -52.4902 L 141.211 -40.2832 C 145.361 -36.1328 145.361 -34.4238 141.211 -30.2246 L 128.955 -18.0176 C 127.734 -16.7969 127.197 -15.4297 127.197 -13.6719 L 127.197 3.66211 C 127.197 9.57031 125.879 10.8398 120.02 10.8398 L 102.637 10.8398 C 100.879 10.8398 99.5605 11.3281 98.291 12.6465 L 86.084 24.8535 C 81.9336 29.0039 80.2246 29.0039 76.0254 24.8535 Z M 70.8008 -5.22461 C 72.0215 -5.22461 73.0469 -5.81055 73.6328 -6.5918 L 110.547 -58.5938 C 111.035 -59.2285 111.377 -60.0586 111.377 -60.8398 C 111.377 -62.7441 109.863 -64.1602 107.861 -64.1602 C 106.445 -64.1602 105.664 -63.623 104.932 -62.5977 L 70.7031 -14.209 L 52.3926 -34.7656 C 51.709 -35.5469 50.9277 -35.8887 49.8047 -35.8887 C 47.7539 -35.8887 46.2891 -34.4238 46.2891 -32.4707 C 46.2891 -31.6406 46.582 -30.9082 47.2656 -30.127 L 68.1641 -6.39648 C 68.7988 -5.71289 69.6777 -5.22461 70.8008 -5.22461 Z"/>
  </g>
  <g id="Thin-L" transform="matrix(1 0 0 1 776.686 1556)">
   <path d="M 71.6309 28.8086 C 77.4902 34.6191 81.9824 34.6191 87.8418 28.8086 L 99.3164 17.4316 C 100.488 16.2598 101.611 15.8691 103.174 15.8691 L 119.287 15.8691 C 127.588 15.8691 130.859 12.5977 130.859 4.29688 L 130.859 -11.8164 C 130.859 -13.3789 131.348 -14.502 132.471 -15.6738 L 143.848 -27.1484 C 149.658 -33.0078 149.609 -37.5 143.848 -43.4082 L 132.471 -54.834 C 131.348 -56.0547 130.859 -57.1289 130.859 -58.6914 L 130.859 -74.8535 C 130.859 -83.1543 127.588 -86.4258 119.287 -86.4258 L 103.174 -86.4258 C 101.611 -86.4258 100.488 -86.8164 99.3164 -87.9883 L 87.8418 -99.3652 C 81.8848 -105.225 77.4902 -105.322 71.5332 -99.3652 L 60.1562 -87.9883 C 59.0332 -86.8652 57.8613 -86.4258 56.2988 -86.4258 L 40.1855 -86.4258 C 31.8359 -86.4258 28.5645 -83.1543 28.5645 -74.8535 L 28.5645 -58.6914 C 28.5645 -57.1289 28.125 -56.0547 27.002 -54.834 L 15.625 -43.4082 C 9.81445 -37.5 9.81445 -33.0078 15.625 -27.1484 L 27.002 -15.6738 C 28.125 -14.502 28.5645 -13.3789 28.5645 -11.8164 L 28.5645 4.29688 C 28.5645 12.5977 31.8359 15.8691 40.1855 15.8691 L 56.2988 15.8691 C 57.8613 15.8691 58.9844 16.2598 60.1562 17.4316 Z M 74.3652 26.0742 L 61.8652 13.623 C 60.7422 12.4512 59.4727 11.9629 57.8613 11.9629 L 40.1855 11.9629 C 34.082 11.9629 32.5195 10.3516 32.5195 4.29688 L 32.5195 -13.3789 C 32.5195 -15.0391 31.9824 -16.2598 30.8594 -17.4316 L 18.3594 -29.8828 C 14.0625 -34.1797 14.0625 -36.3281 18.3594 -40.625 L 30.8594 -53.125 C 31.9824 -54.2969 32.5195 -55.5176 32.5195 -57.1289 L 32.5195 -74.8535 C 32.5195 -80.957 34.0332 -82.5195 40.1855 -82.5195 L 57.8613 -82.5195 C 59.4727 -82.5195 60.7422 -83.0078 61.8652 -84.1309 L 74.3652 -96.6309 C 78.6621 -100.928 80.8105 -100.928 85.1074 -96.6309 L 97.5586 -84.1309 C 98.7305 -83.0078 99.9512 -82.5195 101.611 -82.5195 L 119.287 -82.5195 C 125.342 -82.5195 126.953 -80.9082 126.953 -74.8535 L 126.953 -57.1289 C 126.953 -55.5176 127.441 -54.2969 128.613 -53.125 L 141.064 -40.625 C 145.41 -36.3281 145.41 -34.1797 141.064 -29.8828 L 128.613 -17.4316 C 127.441 -16.2598 126.953 -15.0391 126.953 -13.3789 L 126.953 4.29688 C 126.953 10.3516 125.342 11.9629 119.287 11.9629 L 101.611 11.9629 C 99.9512 11.9629 98.7305 12.4512 97.5586 13.623 L 85.1074 26.0742 C 80.8105 30.3711 78.6621 30.3711 74.3652 26.0742 Z M 69.1406 -5.37109 C 69.873 -5.37109 70.6055 -5.76172 70.9961 -6.29883 L 109.375 -60.6934 C 109.668 -61.084 109.912 -61.6211 109.912 -62.1582 C 109.912 -63.3789 108.887 -64.2578 107.666 -64.2578 C 106.738 -64.2578 106.25 -63.8184 105.908 -63.3789 L 69.0918 -11.2793 L 48.9746 -34.082 C 48.584 -34.5703 48.0957 -34.7656 47.3633 -34.7656 C 46.1426 -34.7656 45.166 -33.8379 45.166 -32.5684 C 45.166 -32.0312 45.3125 -31.6406 45.8984 -30.957 L 67.4316 -6.15234 C 67.8223 -5.66406 68.457 -5.37109 69.1406 -5.37109 Z"/>
  </g>
  <g id="Ultralight-L" transform="matrix(1 0 0 1 480.658 1556)">
   <path d="M 71.6797 28.5156 C 77.0996 33.8379 81.0059 33.8379 86.377 28.5156 L 98.2422 16.748 C 99.4629 15.5273 100.635 15.0879 102.246 15.0879 L 118.945 15.0879 C 126.562 15.0879 129.395 12.2559 129.395 4.58984 L 129.395 -12.0605 C 129.395 -13.7207 129.932 -14.8438 131.055 -16.0645 L 142.822 -27.9297 C 148.145 -33.3496 148.145 -37.207 142.822 -42.627 L 131.055 -54.4434 C 129.932 -55.7129 129.395 -56.8359 129.395 -58.4961 L 129.395 -75.1465 C 129.395 -82.8125 126.562 -85.6445 118.945 -85.6445 L 102.246 -85.6445 C 100.635 -85.6445 99.4629 -86.0352 98.2422 -87.2559 L 86.377 -99.0234 C 80.9082 -104.443 77.0996 -104.541 71.6309 -99.0234 L 59.8633 -87.2559 C 58.6914 -86.1328 57.4707 -85.6445 55.8594 -85.6445 L 39.1602 -85.6445 C 31.543 -85.6445 28.6621 -82.7637 28.6621 -75.1465 L 28.6621 -58.4961 C 28.6621 -56.8359 28.1738 -55.7129 27.0508 -54.4434 L 15.2832 -42.627 C 9.96094 -37.207 9.96094 -33.3496 15.2832 -27.9297 L 27.0508 -16.0645 C 28.1738 -14.8438 28.6621 -13.7207 28.6621 -12.0605 L 28.6621 4.58984 C 28.6621 12.2559 31.543 15.0879 39.1602 15.0879 L 55.8594 15.0879 C 57.4707 15.0879 58.6426 15.5273 59.8633 16.748 Z M 73.4863 26.709 L 60.8887 14.1113 C 59.7656 13.0371 58.5938 12.5488 57.0312 12.5488 L 39.1602 12.5488 C 33.0078 12.5488 31.25 10.791 31.25 4.58984 L 31.25 -13.2324 C 31.25 -14.8438 30.7617 -16.0156 29.6875 -17.0898 L 17.041 -29.7363 C 12.6953 -34.082 12.6953 -36.4258 17.041 -40.8203 L 29.6875 -53.418 C 30.7617 -54.541 31.25 -55.7129 31.25 -57.2754 L 31.25 -75.1465 C 31.25 -81.3965 32.9102 -83.0566 39.1602 -83.0566 L 57.0312 -83.0566 C 58.5938 -83.0566 59.7656 -83.5449 60.8887 -84.668 L 73.4863 -97.2656 C 77.8809 -101.611 80.2246 -101.611 84.6191 -97.2656 L 97.2168 -84.668 C 98.291 -83.5449 99.5117 -83.0566 101.074 -83.0566 L 118.945 -83.0566 C 125.098 -83.0566 126.855 -81.2988 126.855 -75.1465 L 126.855 -57.2754 C 126.855 -55.7129 127.344 -54.541 128.418 -53.418 L 141.016 -40.8203 C 145.41 -36.4258 145.41 -34.082 141.016 -29.7363 L 128.418 -17.0898 C 127.344 -16.0156 126.855 -14.8438 126.855 -13.2324 L 126.855 4.58984 C 126.855 10.791 125.098 12.5488 118.945 12.5488 L 101.074 12.5488 C 99.5117 12.5488 98.291 13.0371 97.2168 14.1113 L 84.6191 26.709 C 80.2246 31.1035 77.8809 31.1035 73.4863 26.709 Z M 68.2617 -5.46875 C 68.7988 -5.46875 69.3848 -5.76172 69.6289 -6.15234 L 108.74 -61.7676 C 108.936 -62.0117 109.18 -62.4512 109.18 -62.8418 C 109.18 -63.7207 108.398 -64.3066 107.568 -64.3066 C 106.885 -64.3066 106.543 -63.9648 106.396 -63.7695 L 68.2617 -9.76562 L 47.2656 -33.7402 C 46.9727 -34.082 46.6797 -34.1797 46.1426 -34.1797 C 45.2637 -34.1797 44.5801 -33.4961 44.5801 -32.6172 C 44.5801 -32.2266 44.6289 -31.9824 45.166 -31.3965 L 67.041 -6.00586 C 67.334 -5.66406 67.8223 -5.46875 68.2617 -5.46875 Z"/>
  </g>
  <g id="Black-M" transform="matrix(1 0 0 1 2867.04 1126)">
   <path d="M 55.4688 16.9434 C 62.7441 24.1699 69.9707 24.1699 77.2461 16.9434 L 84.2285 9.96094 C 84.7168 9.47266 85.0586 9.32617 85.6934 9.32617 L 95.6055 9.32617 C 105.811 9.32617 110.938 4.15039 110.938 -6.05469 L 110.938 -15.918 C 110.938 -16.5527 111.133 -16.9922 111.572 -17.4316 L 118.555 -24.4141 C 125.781 -31.6406 125.781 -38.8672 118.555 -46.1426 L 111.572 -53.125 C 111.084 -53.6133 110.938 -53.9551 110.938 -54.5898 L 110.938 -64.502 C 110.938 -74.7559 105.762 -79.834 95.6055 -79.834 L 85.6934 -79.834 C 85.0586 -79.834 84.6191 -80.0293 84.2285 -80.4688 L 77.2461 -87.4512 C 69.9219 -94.7754 62.8418 -94.6289 55.4688 -87.4023 L 48.5352 -80.4688 C 48.0957 -80.0293 47.6562 -79.834 47.0215 -79.834 L 37.1094 -79.834 C 26.9043 -79.834 21.7773 -74.8047 21.7773 -64.502 L 21.7773 -54.5898 C 21.7773 -53.9551 21.582 -53.5156 21.1426 -53.125 L 14.1602 -46.1426 C 6.93359 -38.8672 6.93359 -31.6406 14.1602 -24.4141 L 21.1426 -17.4316 C 21.582 -16.9922 21.7773 -16.5527 21.7773 -15.918 L 21.7773 -6.05469 C 21.7773 4.19922 26.9531 9.32617 37.1094 9.32617 L 47.0215 9.32617 C 47.6562 9.32617 47.998 9.47266 48.5352 9.96094 Z M 62.9395 3.85742 L 55.1758 -3.90625 C 54.1992 -4.88281 53.3203 -5.12695 52.002 -5.12695 L 41.1621 -5.17578 C 37.0605 -5.17578 36.2793 -5.95703 36.2793 -10.0586 L 36.2305 -20.8984 C 36.2305 -22.2168 35.9375 -23.1445 35.0098 -24.0723 L 27.2461 -31.8359 C 24.3164 -34.7656 24.3164 -35.7422 27.2461 -38.6719 L 35.0098 -46.4355 C 35.9375 -47.3633 36.2305 -48.291 36.2305 -49.6094 L 36.2793 -60.4492 C 36.2793 -64.6484 36.9629 -65.332 41.1621 -65.332 L 52.002 -65.3809 C 53.3203 -65.3809 54.2969 -65.7715 55.1758 -66.6504 L 62.9395 -74.4141 C 65.8691 -77.3438 66.7969 -77.3926 69.7754 -74.4141 L 77.5391 -66.6504 C 78.418 -65.7715 79.3945 -65.3809 80.7129 -65.3809 L 91.5527 -65.332 C 95.7031 -65.332 96.4355 -64.5996 96.4355 -60.4492 L 96.4844 -49.6094 C 96.4844 -48.291 96.8262 -47.3633 97.7539 -46.4355 L 105.518 -38.6719 C 108.398 -35.7422 108.398 -34.7656 105.518 -31.8359 L 97.7539 -24.0723 C 96.8262 -23.1445 96.4844 -22.2168 96.4844 -20.8984 L 96.4355 -10.0586 C 96.4355 -5.95703 95.7031 -5.17578 91.5527 -5.17578 L 80.7129 -5.12695 C 79.3945 -5.12695 78.5645 -4.88281 77.5391 -3.90625 L 69.7754 3.85742 C 66.8457 6.78711 65.8691 6.78711 62.9395 3.85742 Z M 59.7656 -11.7676 C 62.0117 -11.7676 64.0625 -12.4512 65.6738 -14.6484 L 88.623 -46.9238 C 89.5508 -48.2422 90.0879 -49.8535 90.0879 -51.0254 C 90.0879 -54.6875 87.3047 -57.2754 83.252 -57.2754 C 81.0059 -57.2754 79.248 -56.2988 77.8809 -54.3945 L 59.668 -27.6367 L 51.2695 -37.1582 C 50 -38.623 48.291 -39.3555 46.2402 -39.3555 C 42.3828 -39.3555 39.6973 -36.5723 39.6973 -32.7637 C 39.6973 -31.3965 40.332 -29.834 41.3574 -28.6621 L 54.248 -14.1602 C 55.7617 -12.5 57.8125 -11.7676 59.7656 -11.7676 Z"/>
  </g>
  <g id="Heavy-M" transform="matrix(1 0 0 1 2570.84 1126)">
   <path d="M 55.4199 16.6016 C 62.4023 23.584 69.2871 23.584 76.2695 16.6016 L 83.3984 9.52148 C 83.9355 8.98438 84.375 8.78906 85.1074 8.78906 L 95.166 8.78906 C 105.029 8.78906 109.912 3.90625 109.912 -5.95703 L 109.912 -16.0156 C 109.912 -16.6992 110.107 -17.2363 110.645 -17.7246 L 117.725 -24.8535 C 124.707 -31.8359 124.707 -38.7207 117.725 -45.7031 L 110.645 -52.7832 C 110.059 -53.3691 109.912 -53.8086 109.912 -54.4922 L 109.912 -64.5508 C 109.912 -74.4629 104.98 -79.3457 95.166 -79.3457 L 85.1074 -79.3457 C 84.375 -79.3457 83.8867 -79.541 83.3984 -80.0293 L 76.2695 -87.1094 C 69.2383 -94.1895 62.5 -94.0918 55.4199 -87.0605 L 48.291 -80.0293 C 47.8027 -79.541 47.3145 -79.3457 46.582 -79.3457 L 36.5234 -79.3457 C 26.6602 -79.3457 21.7773 -74.5117 21.7773 -64.5508 L 21.7773 -54.4922 C 21.7773 -53.8086 21.582 -53.3203 21.0938 -52.7832 L 13.9648 -45.7031 C 6.98242 -38.7207 6.98242 -31.8359 13.9648 -24.8535 L 21.0938 -17.7246 C 21.582 -17.2363 21.7773 -16.6992 21.7773 -16.0156 L 21.7773 -5.95703 C 21.7773 3.90625 26.709 8.78906 36.5234 8.78906 L 46.582 8.78906 C 47.3145 8.78906 47.7539 8.98438 48.291 9.52148 Z M 62.4023 5.32227 L 54.2969 -2.7832 C 53.2715 -3.80859 52.3438 -4.05273 51.0254 -4.05273 L 39.5996 -4.10156 C 35.4492 -4.10156 34.7168 -4.83398 34.7168 -9.0332 L 34.668 -20.4102 C 34.668 -21.7773 34.3262 -22.7539 33.3496 -23.6816 L 25.2441 -31.7871 C 22.2656 -34.7656 22.2656 -35.7422 25.2441 -38.7207 L 33.3496 -46.8262 C 34.3262 -47.8027 34.668 -48.7793 34.668 -50.0977 L 34.7168 -61.4746 C 34.7168 -65.7227 35.4004 -66.4062 39.5996 -66.4062 L 51.0254 -66.4551 C 52.3438 -66.4551 53.3691 -66.8457 54.2969 -67.7734 L 62.4023 -75.8789 C 65.3809 -78.8086 66.3086 -78.8574 69.2871 -75.8789 L 77.3926 -67.7734 C 78.3203 -66.8457 79.3457 -66.4551 80.7129 -66.4551 L 92.0898 -66.4062 C 96.2402 -66.4062 96.9727 -65.6738 96.9727 -61.4746 L 97.0215 -50.0977 C 97.0215 -48.7793 97.3633 -47.8027 98.3398 -46.8262 L 106.445 -38.7207 C 109.424 -35.7422 109.424 -34.7656 106.445 -31.7871 L 98.3398 -23.6816 C 97.3633 -22.7539 97.0215 -21.7773 97.0215 -20.4102 L 96.9727 -9.0332 C 96.9727 -4.83398 96.2402 -4.10156 92.0898 -4.10156 L 80.7129 -4.05273 C 79.3457 -4.05273 78.418 -3.80859 77.3926 -2.7832 L 69.2871 5.32227 C 66.3574 8.30078 65.3809 8.30078 62.4023 5.32227 Z M 59.0332 -11.7676 C 61.084 -11.7676 62.8906 -12.4512 64.3066 -14.3555 L 88.1836 -47.9492 C 89.0625 -49.1211 89.5508 -50.5859 89.5508 -51.6602 C 89.5508 -54.9805 87.0117 -57.3242 83.3984 -57.3242 C 81.2988 -57.3242 79.7363 -56.4941 78.4668 -54.6875 L 58.8867 -26.2695 L 49.5605 -36.7676 C 48.3887 -38.0859 46.875 -38.7695 45.0195 -38.7695 C 41.5527 -38.7695 39.0625 -36.2793 39.0625 -32.8125 C 39.0625 -31.543 39.6484 -30.127 40.5762 -29.1016 L 54.1016 -13.916 C 55.4199 -12.5 57.2266 -11.7676 59.0332 -11.7676 Z"/>
  </g>
  <g id="Bold-M" transform="matrix(1 0 0 1 2274.69 1126)">
   <path d="M 55.3223 16.2598 C 62.0605 22.9492 68.5059 22.9492 75.1953 16.2598 L 82.4707 9.0332 C 83.1055 8.39844 83.6426 8.20312 84.4238 8.20312 L 94.6777 8.20312 C 104.15 8.20312 108.74 3.61328 108.74 -5.85938 L 108.74 -16.1133 C 108.74 -16.8945 108.984 -17.4805 109.57 -18.0664 L 116.797 -25.3418 C 123.486 -32.0312 123.486 -38.4766 116.797 -45.2148 L 109.57 -52.4414 C 108.936 -53.0762 108.74 -53.6133 108.74 -54.4434 L 108.74 -64.6484 C 108.74 -74.1211 104.15 -78.7109 94.6777 -78.7109 L 84.4238 -78.7109 C 83.6426 -78.7109 83.0566 -78.9551 82.4707 -79.541 L 75.1953 -86.7676 C 68.457 -93.5059 62.1094 -93.457 55.3223 -86.7188 L 48.0957 -79.541 C 47.5098 -78.9551 46.9238 -78.7109 46.0938 -78.7109 L 35.8887 -78.7109 C 26.3672 -78.7109 21.8262 -74.2188 21.8262 -64.6484 L 21.8262 -54.4434 C 21.8262 -53.6133 21.582 -53.0273 20.9961 -52.4414 L 13.7695 -45.2148 C 7.03125 -38.4766 7.08008 -32.0312 13.7695 -25.3418 L 20.9961 -18.0664 C 21.582 -17.4805 21.8262 -16.8945 21.8262 -16.1133 L 21.8262 -5.85938 C 21.8262 3.61328 26.416 8.20312 35.8887 8.20312 L 46.0938 8.20312 C 46.9238 8.20312 47.4609 8.39844 48.0957 9.0332 Z M 61.7676 6.98242 L 53.3203 -1.51367 C 52.2949 -2.58789 51.2695 -2.88086 49.9023 -2.88086 L 37.8906 -2.92969 C 33.6426 -2.92969 32.959 -3.66211 32.959 -7.86133 L 32.9102 -19.873 C 32.9102 -21.2891 32.5195 -22.3145 31.543 -23.291 L 23.0469 -31.7871 C 20.0195 -34.8145 20.0195 -35.7422 23.0469 -38.7695 L 31.543 -47.2168 C 32.5195 -48.2422 32.9102 -49.2676 32.9102 -50.6348 L 32.959 -62.6465 C 32.959 -66.9434 33.5938 -67.5781 37.8906 -67.5781 L 49.9023 -67.627 C 51.2695 -67.627 52.3438 -68.0176 53.3203 -68.9941 L 61.7676 -77.4902 C 64.7949 -80.5176 65.7227 -80.5176 68.75 -77.4902 L 77.2461 -68.9941 C 78.2227 -68.0176 79.248 -67.627 80.6641 -67.627 L 92.6758 -67.5781 C 96.875 -67.5781 97.6074 -66.8945 97.6074 -62.6465 L 97.6562 -50.6348 C 97.6562 -49.2676 98.0469 -48.2422 99.0234 -47.2168 L 107.52 -38.7695 C 110.547 -35.7422 110.547 -34.8145 107.52 -31.7871 L 99.0234 -23.291 C 98.0469 -22.3145 97.6562 -21.2891 97.6562 -19.873 L 97.6074 -7.86133 C 97.6074 -3.66211 96.875 -2.92969 92.6758 -2.92969 L 80.6641 -2.88086 C 79.248 -2.88086 78.2715 -2.58789 77.2461 -1.51367 L 68.75 6.98242 C 65.7227 10.0098 64.7949 10.0098 61.7676 6.98242 Z M 58.2031 -11.8164 C 60.0098 -11.8164 61.5723 -12.4512 62.7441 -14.0137 L 87.7441 -49.0723 C 88.4766 -50.0977 88.916 -51.3672 88.916 -52.3926 C 88.916 -55.2734 86.6699 -57.4219 83.5449 -57.4219 C 81.6406 -57.4219 80.2734 -56.6406 79.1016 -55.0293 L 58.0566 -24.7559 L 47.6562 -36.377 C 46.6309 -37.5488 45.3125 -38.1348 43.6523 -38.1348 C 40.5762 -38.1348 38.3789 -35.9375 38.3789 -32.9102 C 38.3789 -31.7383 38.8672 -30.4688 39.6973 -29.541 L 53.9062 -13.623 C 55.0293 -12.4512 56.543 -11.8164 58.2031 -11.8164 Z"/>
  </g>
  <g id="Semibold-M" transform="matrix(1 0 0 1 1978.37 1126)">
   <path d="M 55.2734 16.0156 C 61.7676 22.5098 67.9688 22.5098 74.4629 16.0156 L 81.8359 8.69141 C 82.4707 8.00781 83.1055 7.8125 83.9844 7.8125 L 94.3359 7.8125 C 103.516 7.8125 107.959 3.41797 107.959 -5.81055 L 107.959 -16.1621 C 107.959 -17.041 108.203 -17.6758 108.838 -18.3105 L 116.113 -25.6836 C 122.656 -32.1777 122.656 -38.3301 116.113 -44.873 L 108.838 -52.1973 C 108.154 -52.8809 107.959 -53.4668 107.959 -54.3457 L 107.959 -64.6973 C 107.959 -73.9258 103.564 -78.3203 94.3359 -78.3203 L 83.9844 -78.3203 C 83.1055 -78.3203 82.4707 -78.5645 81.8359 -79.1992 L 74.4629 -86.5234 C 67.9199 -93.0664 61.8164 -93.0176 55.2734 -86.4746 L 47.9492 -79.1992 C 47.3145 -78.5645 46.6797 -78.3203 45.8008 -78.3203 L 35.4004 -78.3203 C 26.1719 -78.3203 21.8262 -74.0234 21.8262 -64.6973 L 21.8262 -54.3457 C 21.8262 -53.4668 21.582 -52.832 20.9473 -52.1973 L 13.623 -44.873 C 7.08008 -38.3301 7.12891 -32.1777 13.623 -25.6836 L 20.9473 -18.3105 C 21.582 -17.6758 21.8262 -17.041 21.8262 -16.1621 L 21.8262 -5.81055 C 21.8262 3.41797 26.2207 7.8125 35.4004 7.8125 L 45.8008 7.8125 C 46.6797 7.8125 47.2656 8.00781 47.9492 8.69141 Z M 61.377 8.10547 L 52.6367 -0.634766 C 51.6113 -1.70898 50.5371 -2.09961 49.1211 -2.09961 L 36.7188 -2.09961 C 32.4219 -2.09961 31.7383 -2.83203 31.7383 -7.08008 L 31.6895 -19.4824 C 31.6895 -20.9473 31.2988 -21.9727 30.2734 -22.998 L 21.4844 -31.7383 C 18.457 -34.8145 18.457 -35.6934 21.4844 -38.7695 L 30.2734 -47.5098 C 31.2988 -48.5352 31.6895 -49.6094 31.6895 -51.0254 L 31.7383 -63.4277 C 31.7383 -67.7734 32.373 -68.4082 36.7188 -68.4082 L 49.1211 -68.457 C 50.5371 -68.457 51.6113 -68.8477 52.6367 -69.873 L 61.377 -78.6621 C 64.4043 -81.6895 65.332 -81.6895 68.4082 -78.6621 L 77.1484 -69.873 C 78.125 -68.8477 79.1992 -68.457 80.6641 -68.457 L 93.0664 -68.4082 C 97.3145 -68.4082 98.0469 -67.7246 98.0469 -63.4277 L 98.0469 -51.0254 C 98.0469 -49.6094 98.4863 -48.5352 99.5117 -47.5098 L 108.252 -38.7695 C 111.279 -35.6934 111.279 -34.8145 108.252 -31.7383 L 99.5117 -22.998 C 98.4863 -21.9727 98.0469 -20.9473 98.0469 -19.4824 L 98.0469 -7.08008 C 98.0469 -2.83203 97.3145 -2.09961 93.0664 -2.09961 L 80.6641 -2.09961 C 79.1992 -2.09961 78.1738 -1.70898 77.1484 -0.634766 L 68.4082 8.10547 C 65.332 11.1328 64.4043 11.1328 61.377 8.10547 Z M 57.6172 -11.8164 C 59.2773 -11.8164 60.6934 -12.4512 61.6699 -13.7695 L 87.4512 -49.8535 C 88.0859 -50.7812 88.5254 -51.9043 88.5254 -52.8809 C 88.5254 -55.5176 86.4746 -57.4707 83.6426 -57.4707 C 81.8359 -57.4707 80.6641 -56.7871 79.5898 -55.2246 L 57.4707 -23.7305 L 46.3867 -36.084 C 45.4102 -37.1582 44.2383 -37.6465 42.7246 -37.6465 C 39.8926 -37.6465 37.8906 -35.6445 37.8906 -32.9102 C 37.8906 -31.8359 38.3301 -30.7129 39.1113 -29.8828 L 53.7598 -13.4766 C 54.7852 -12.4023 56.0547 -11.8164 57.6172 -11.8164 Z"/>
  </g>
  <g id="Medium-M" transform="matrix(1 0 0 1 1681.98 1126)">
   <path d="M 55.2246 15.8203 C 61.6211 22.2168 67.5781 22.168 73.9258 15.8203 L 81.3477 8.44727 C 82.0312 7.71484 82.7148 7.51953 83.6426 7.51953 L 94.0918 7.51953 C 103.076 7.51953 107.324 3.27148 107.324 -5.76172 L 107.324 -16.2109 C 107.324 -17.1387 107.617 -17.8223 108.252 -18.5059 L 115.625 -25.9277 C 122.021 -32.2754 121.973 -38.2324 115.625 -44.5801 L 108.252 -52.0508 C 107.568 -52.7344 107.324 -53.3691 107.324 -54.2969 L 107.324 -64.7461 C 107.324 -73.7305 103.125 -78.0273 94.0918 -78.0273 L 83.6426 -78.0273 C 82.7148 -78.0273 82.0312 -78.2715 81.3477 -78.9551 L 73.9258 -86.3281 C 67.5293 -92.7246 61.6211 -92.6758 55.2246 -86.3281 L 47.8027 -78.9551 C 47.1191 -78.2715 46.4355 -78.0273 45.5078 -78.0273 L 35.0586 -78.0273 C 26.0742 -78.0273 21.8262 -73.8281 21.8262 -64.7461 L 21.8262 -54.2969 C 21.8262 -53.3691 21.582 -52.7344 20.8984 -52.0508 L 13.5254 -44.5801 C 7.12891 -38.2324 7.17773 -32.2754 13.5254 -25.9277 L 20.8984 -18.5059 C 21.582 -17.8223 21.8262 -17.1387 21.8262 -16.2109 L 21.8262 -5.76172 C 21.8262 3.22266 26.0742 7.51953 35.0586 7.51953 L 45.5078 7.51953 C 46.4355 7.51953 47.1191 7.71484 47.8027 8.44727 Z M 61.0352 8.98438 L 52.0996 0 C 51.0742 -1.07422 50 -1.46484 48.5352 -1.46484 L 35.791 -1.46484 C 31.4941 -1.46484 30.8105 -2.19727 30.8105 -6.49414 L 30.8105 -19.1895 C 30.8105 -20.6543 30.3711 -21.7773 29.2969 -22.8027 L 20.3613 -31.7383 C 17.2852 -34.8145 17.2852 -35.6934 20.3613 -38.7695 L 29.2969 -47.7051 C 30.3711 -48.7793 30.8105 -49.8535 30.8105 -51.3184 L 30.8105 -64.0625 C 30.8105 -68.4082 31.4453 -69.043 35.791 -69.043 L 48.5352 -69.043 C 50 -69.043 51.0742 -69.4824 52.0996 -70.5566 L 61.0352 -79.4922 C 64.1602 -82.5684 65.0391 -82.5684 68.1152 -79.4922 L 77.0508 -70.5566 C 78.0762 -69.4824 79.1992 -69.043 80.6152 -69.043 L 93.3594 -69.043 C 97.6562 -69.043 98.3398 -68.3594 98.3398 -64.0625 L 98.3887 -51.3184 C 98.3887 -49.8535 98.8281 -48.7793 99.8535 -47.7051 L 108.838 -38.7695 C 111.865 -35.6934 111.865 -34.8145 108.838 -31.7383 L 99.8535 -22.8027 C 98.8281 -21.7773 98.3887 -20.6543 98.3887 -19.1895 L 98.3398 -6.49414 C 98.3398 -2.19727 97.6562 -1.46484 93.3594 -1.46484 L 80.6152 -1.46484 C 79.1992 -1.46484 78.0762 -1.07422 77.0508 0 L 68.1152 8.98438 C 65.0391 12.0117 64.1602 12.0117 61.0352 8.98438 Z M 57.1777 -11.8164 C 58.7402 -11.8164 60.0098 -12.4512 60.8398 -13.5742 L 87.207 -50.4395 C 87.793 -51.3184 88.1836 -52.3438 88.1836 -53.2227 C 88.1836 -55.6641 86.3281 -57.5195 83.7402 -57.5195 C 81.9824 -57.5195 80.957 -56.8848 79.9316 -55.4199 L 57.0312 -22.9492 L 45.3613 -35.8398 C 44.4824 -36.8652 43.4082 -37.3047 41.9922 -37.3047 C 39.3555 -37.3047 37.5 -35.498 37.5 -32.959 C 37.5 -31.9336 37.8906 -30.8594 38.623 -30.127 L 53.6621 -13.3301 C 54.541 -12.4023 55.7129 -11.8164 57.1777 -11.8164 Z"/>
  </g>
  <g id="Regular-M" transform="matrix(1 0 0 1 1385.66 1126)">
   <path d="M 55.1758 15.5762 C 61.3281 21.7773 67.041 21.7285 73.1934 15.5762 L 80.7129 8.10547 C 81.4453 7.37305 82.1777 7.08008 83.2031 7.08008 L 93.75 7.08008 C 102.49 7.08008 106.543 3.07617 106.543 -5.71289 L 106.543 -16.2598 C 106.543 -17.2852 106.836 -17.9688 107.568 -18.75 L 114.99 -26.2695 C 121.191 -32.4219 121.143 -38.0859 114.99 -44.2871 L 107.568 -51.8066 C 106.836 -52.5391 106.543 -53.2715 106.543 -54.248 L 106.543 -64.8438 C 106.543 -73.5352 102.539 -77.6367 93.75 -77.6367 L 83.2031 -77.6367 C 82.1777 -77.6367 81.4453 -77.8809 80.7129 -78.6133 L 73.1934 -86.084 C 67.041 -92.2852 61.3281 -92.2363 55.1758 -86.084 L 47.6562 -78.6133 C 46.9238 -77.8809 46.1914 -77.6367 45.166 -77.6367 L 34.6191 -77.6367 C 25.8789 -77.6367 21.8262 -73.6328 21.8262 -64.8438 L 21.8262 -54.248 C 21.8262 -53.2715 21.582 -52.5391 20.8496 -51.8066 L 13.3789 -44.2871 C 7.17773 -38.0859 7.22656 -32.4219 13.3789 -26.2695 L 20.8496 -18.75 C 21.582 -17.9688 21.8262 -17.2852 21.8262 -16.2598 L 21.8262 -5.71289 C 21.8262 3.02734 25.8789 7.08008 34.6191 7.08008 L 45.166 7.08008 C 46.1914 7.08008 46.9238 7.37305 47.6562 8.10547 Z M 60.6445 10.1074 L 51.4648 0.878906 C 50.3906 -0.244141 49.2676 -0.683594 47.7539 -0.683594 L 34.6191 -0.683594 C 30.2734 -0.683594 29.5898 -1.36719 29.5898 -5.71289 L 29.5898 -18.8477 C 29.5898 -20.3125 29.1504 -21.4355 28.0762 -22.5098 L 18.8477 -31.6895 C 15.7715 -34.8145 15.7715 -35.6934 18.8477 -38.8184 L 28.0762 -47.998 C 29.1504 -49.0723 29.5898 -50.1953 29.5898 -51.709 L 29.5898 -64.8438 C 29.5898 -69.2383 30.2246 -69.873 34.6191 -69.873 L 47.7539 -69.873 C 49.2676 -69.873 50.3906 -70.2637 51.4648 -71.3867 L 60.6445 -80.6152 C 63.7695 -83.6914 64.6484 -83.6914 67.7246 -80.6152 L 76.9531 -71.3867 C 77.9785 -70.2637 79.1504 -69.873 80.6152 -69.873 L 93.75 -69.873 C 98.0957 -69.873 98.7793 -69.1895 98.7793 -64.8438 L 98.7793 -51.709 C 98.7793 -50.1953 99.2676 -49.0723 100.342 -47.998 L 109.57 -38.8184 C 112.646 -35.6934 112.646 -34.8145 109.57 -31.6895 L 100.342 -22.5098 C 99.2676 -21.4355 98.7793 -20.3125 98.7793 -18.8477 L 98.7793 -5.71289 C 98.7793 -1.36719 98.0957 -0.683594 93.75 -0.683594 L 80.6152 -0.683594 C 79.1504 -0.683594 77.9785 -0.244141 76.9531 0.878906 L 67.7246 10.1074 C 64.6484 13.1836 63.7695 13.1836 60.6445 10.1074 Z M 56.5918 -11.8652 C 58.0078 -11.8652 59.082 -12.4512 59.7656 -13.3301 L 86.9141 -51.2207 C 87.4023 -52.002 87.7441 -52.8809 87.7441 -53.7109 C 87.7441 -55.8594 86.084 -57.5684 83.8379 -57.5684 C 82.2266 -57.5684 81.3477 -57.0312 80.3711 -55.6152 L 56.4453 -21.9238 L 44.0918 -35.5469 C 43.2617 -36.4746 42.334 -36.8652 41.0645 -36.8652 C 38.7207 -36.8652 37.0117 -35.2539 37.0117 -33.0078 C 37.0117 -32.0312 37.3535 -31.1035 38.0371 -30.4199 L 53.5645 -13.1348 C 54.2969 -12.3535 55.2246 -11.8652 56.5918 -11.8652 Z"/>
  </g>
  <g id="Light-M" transform="matrix(1 0 0 1 1089.85 1126)">
   <path d="M 55.3223 15.1367 C 60.8398 20.7031 65.7227 20.6543 71.2402 15.1367 L 79.2969 7.12891 C 80.127 6.34766 80.8594 6.05469 81.9824 6.05469 L 93.2617 6.05469 C 101.123 6.05469 104.59 2.58789 104.59 -5.27344 L 104.59 -16.5527 C 104.59 -17.6758 104.932 -18.457 105.713 -19.2383 L 113.672 -27.2949 C 119.238 -32.8125 119.189 -37.6953 113.672 -43.2617 L 105.713 -51.2695 C 104.932 -52.0996 104.59 -52.8809 104.59 -53.9551 L 104.59 -65.2344 C 104.59 -73.0957 101.123 -76.5625 93.2617 -76.5625 L 81.9824 -76.5625 C 80.8594 -76.5625 80.127 -76.8555 79.2969 -77.6855 L 71.2402 -85.6445 C 65.6738 -91.2109 60.8398 -91.2109 55.2734 -85.6445 L 47.2656 -77.6855 C 46.4844 -76.9043 45.7031 -76.5625 44.5801 -76.5625 L 33.3008 -76.5625 C 25.4395 -76.5625 21.9727 -73.1445 21.9727 -65.2344 L 21.9727 -53.9551 C 21.9727 -52.8809 21.6309 -52.0996 20.8496 -51.2695 L 12.8906 -43.2617 C 7.32422 -37.6953 7.37305 -32.8125 12.8906 -27.2949 L 20.8496 -19.2383 C 21.6309 -18.457 21.9727 -17.6758 21.9727 -16.5527 L 21.9727 -5.27344 C 21.9727 2.58789 25.4395 6.05469 33.3008 6.05469 L 44.5801 6.05469 C 45.7031 6.05469 46.4355 6.34766 47.2656 7.12891 Z M 59.4727 10.9375 L 50.1465 1.51367 C 49.1211 0.488281 48.0469 0.0976562 46.6309 0.0976562 L 33.3008 0.0976562 C 28.8086 0.0976562 27.9297 -0.78125 27.9297 -5.27344 L 27.9297 -18.6523 C 27.9297 -20.0195 27.4902 -21.0938 26.5137 -22.1191 L 17.0898 -31.4941 C 13.916 -34.668 13.916 -35.8398 17.0898 -39.0625 L 26.5137 -48.4375 C 27.4902 -49.4141 27.9297 -50.4883 27.9297 -51.9043 L 27.9297 -65.2344 C 27.9297 -69.7754 28.7598 -70.6055 33.3008 -70.6055 L 46.6309 -70.6055 C 48.0469 -70.6055 49.1211 -70.9961 50.1465 -72.0703 L 59.4727 -81.4453 C 62.6953 -84.6191 63.8672 -84.6191 67.0898 -81.4453 L 76.416 -72.0703 C 77.4414 -70.9961 78.5156 -70.6055 79.9316 -70.6055 L 93.2617 -70.6055 C 97.7539 -70.6055 98.6328 -69.7266 98.6328 -65.2344 L 98.6328 -51.9043 C 98.6328 -50.4883 99.0723 -49.4141 100.049 -48.4375 L 109.473 -39.0625 C 112.646 -35.8398 112.646 -34.668 109.473 -31.4941 L 100.049 -22.1191 C 99.0723 -21.0938 98.6328 -20.0195 98.6328 -18.6523 L 98.6328 -5.27344 C 98.6328 -0.78125 97.7539 0.0976562 93.2617 0.0976562 L 79.9316 0.0976562 C 78.5156 0.0976562 77.4414 0.488281 76.416 1.51367 L 67.0898 10.9375 C 63.8672 14.1113 62.6953 14.1113 59.4727 10.9375 Z M 55.4199 -11.9629 C 56.543 -11.9629 57.4219 -12.4023 57.959 -13.1348 L 86.084 -52.6367 C 86.4746 -53.2227 86.7676 -53.9551 86.7676 -54.6387 C 86.7676 -56.3477 85.4492 -57.6172 83.6914 -57.6172 C 82.4219 -57.6172 81.6895 -57.1777 81.0059 -56.1523 L 55.3711 -19.9219 L 41.7969 -35.1074 C 41.1621 -35.791 40.4297 -36.1328 39.4043 -36.1328 C 37.5977 -36.1328 36.2305 -34.8145 36.2305 -33.0566 C 36.2305 -32.3242 36.5234 -31.5918 37.1094 -31.0059 L 53.0762 -12.9395 C 53.6133 -12.3535 54.3945 -11.9629 55.4199 -11.9629 Z"/>
  </g>
  <g id="Thin-M" transform="matrix(1 0 0 1 794.337 1126)">
   <path d="M 55.4688 14.5508 C 60.2051 19.2383 63.9648 19.2383 68.7012 14.5508 L 77.4414 5.9082 C 78.3203 5.0293 79.1504 4.6875 80.3711 4.6875 L 92.627 4.6875 C 99.3164 4.6875 102.051 2.00195 102.051 -4.73633 L 102.051 -16.9922 C 102.051 -18.1641 102.393 -19.043 103.223 -19.9219 L 111.914 -28.6621 C 116.602 -33.3984 116.602 -37.1582 111.914 -41.8945 L 103.223 -50.5859 C 102.393 -51.5137 102.051 -52.3438 102.051 -53.5156 L 102.051 -65.7715 C 102.051 -72.5098 99.3164 -75.2441 92.627 -75.2441 L 80.3711 -75.2441 C 79.1504 -75.2441 78.3203 -75.5371 77.4414 -76.416 L 68.7012 -85.0586 C 63.916 -89.8438 60.2051 -89.8926 55.4199 -85.0586 L 46.7285 -76.416 C 45.8984 -75.5859 45.0195 -75.2441 43.7988 -75.2441 L 31.543 -75.2441 C 24.8535 -75.2441 22.1191 -72.5098 22.1191 -65.7715 L 22.1191 -53.5156 C 22.1191 -52.3438 21.7773 -51.5137 20.8984 -50.5859 L 12.2559 -41.8945 C 7.56836 -37.1582 7.56836 -33.3984 12.2559 -28.6621 L 20.8984 -19.9219 C 21.7773 -19.043 22.1191 -18.1641 22.1191 -16.9922 L 22.1191 -4.73633 C 22.1191 1.95312 24.8535 4.6875 31.543 4.6875 L 43.7988 4.6875 C 45.0195 4.6875 45.8496 5.0293 46.7285 5.9082 Z M 58.0078 12.0117 L 48.3887 2.39258 C 47.4609 1.46484 46.4844 1.07422 45.166 1.07422 L 31.543 1.07422 C 26.9043 1.07422 25.7324 -0.0976562 25.7324 -4.73633 L 25.7324 -18.3594 C 25.7324 -19.6777 25.3418 -20.6543 24.4141 -21.582 L 14.7949 -31.1523 C 11.4746 -34.4727 11.4746 -36.0352 14.7949 -39.3555 L 24.4141 -48.9746 C 25.3418 -49.8535 25.7324 -50.8301 25.7324 -52.1484 L 25.7324 -65.7715 C 25.7324 -70.5078 26.8555 -71.6309 31.543 -71.6309 L 45.166 -71.6309 C 46.4844 -71.6309 47.4609 -72.0215 48.3887 -72.9492 L 58.0078 -82.5684 C 61.2793 -85.8398 62.8418 -85.8398 66.1621 -82.5684 L 75.7812 -72.9492 C 76.709 -72.0215 77.6855 -71.6309 78.9551 -71.6309 L 92.627 -71.6309 C 97.2656 -71.6309 98.4375 -70.459 98.4375 -65.7715 L 98.4375 -52.1484 C 98.4375 -50.8301 98.8281 -49.8535 99.7559 -48.9746 L 109.375 -39.3555 C 112.646 -36.0352 112.646 -34.4727 109.375 -31.1523 L 99.7559 -21.582 C 98.8281 -20.6543 98.4375 -19.6777 98.4375 -18.3594 L 98.4375 -4.73633 C 98.4375 -0.0976562 97.2656 1.07422 92.627 1.07422 L 78.9551 1.07422 C 77.6855 1.07422 76.709 1.46484 75.7812 2.39258 L 66.1621 12.0117 C 62.8418 15.332 61.2793 15.332 58.0078 12.0117 Z M 53.9551 -12.0605 C 54.6387 -12.0605 55.2734 -12.4023 55.6152 -12.8906 L 85.0098 -54.4922 C 85.2539 -54.8828 85.498 -55.3711 85.498 -55.8105 C 85.498 -56.9336 84.6191 -57.7148 83.4961 -57.7148 C 82.666 -57.7148 82.2266 -57.373 81.8848 -56.8848 L 53.9062 -17.2852 L 38.7207 -34.4727 C 38.3301 -34.9121 37.8906 -35.1074 37.2559 -35.1074 C 36.084 -35.1074 35.2539 -34.2773 35.2539 -33.1543 C 35.2539 -32.666 35.3516 -32.2754 35.8398 -31.7383 L 52.3926 -12.7441 C 52.7832 -12.3535 53.3203 -12.0605 53.9551 -12.0605 Z"/>
  </g>
  <g id="Ultralight-M" transform="matrix(1 0 0 1 498.237 1126)">
   <path d="M 55.5176 14.2578 C 59.8633 18.5059 63.0371 18.5059 67.3828 14.2578 L 76.4648 5.27344 C 77.3926 4.3457 78.2715 4.00391 79.541 4.00391 L 92.2852 4.00391 C 98.3887 4.00391 100.732 1.66016 100.732 -4.44336 L 100.732 -17.1875 C 100.732 -18.457 101.123 -19.3359 102.002 -20.2637 L 110.986 -29.3457 C 115.234 -33.6426 115.234 -36.8652 110.986 -41.2109 L 102.002 -50.2441 C 101.123 -51.1719 100.732 -52.0508 100.732 -53.3203 L 100.732 -66.0645 C 100.732 -72.2168 98.3887 -74.5117 92.2852 -74.5117 L 79.541 -74.5117 C 78.2715 -74.5117 77.3926 -74.8535 76.4648 -75.7812 L 67.3828 -84.7656 C 62.9883 -89.1113 59.8633 -89.1602 55.4688 -84.7656 L 46.4844 -75.7812 C 45.6055 -74.9023 44.6777 -74.5117 43.4082 -74.5117 L 30.6641 -74.5117 C 24.5117 -74.5117 22.2168 -72.2168 22.2168 -66.0645 L 22.2168 -53.3203 C 22.2168 -52.0508 21.8262 -51.1719 20.9473 -50.2441 L 11.9629 -41.2109 C 7.66602 -36.8652 7.66602 -33.6426 11.9629 -29.3457 L 20.9473 -20.2637 C 21.8262 -19.3359 22.2168 -18.457 22.2168 -17.1875 L 22.2168 -4.44336 C 22.2168 1.66016 24.5117 4.00391 30.6641 4.00391 L 43.4082 4.00391 C 44.6777 4.00391 45.5566 4.3457 46.4844 5.27344 Z M 57.2266 12.5977 L 47.4609 2.83203 C 46.6309 2.00195 45.7031 1.61133 44.4336 1.61133 L 30.6641 1.61133 C 25.9277 1.61133 24.6094 0.292969 24.6094 -4.44336 L 24.6094 -18.2129 C 24.6094 -19.4824 24.2188 -20.4102 23.3398 -21.2891 L 13.623 -31.0059 C 10.2539 -34.375 10.2539 -36.1328 13.623 -39.502 L 23.3398 -49.2676 C 24.2188 -50.0977 24.6094 -51.0254 24.6094 -52.2949 L 24.6094 -66.0645 C 24.6094 -70.8984 25.8301 -72.1191 30.6641 -72.1191 L 44.4336 -72.1191 C 45.7031 -72.1191 46.6309 -72.5098 47.4609 -73.3887 L 57.2266 -83.1055 C 60.5957 -86.4746 62.3535 -86.4746 65.7227 -83.1055 L 75.4395 -73.3887 C 76.3184 -72.5098 77.2461 -72.1191 78.4668 -72.1191 L 92.2852 -72.1191 C 97.0215 -72.1191 98.3398 -70.8008 98.3398 -66.0645 L 98.3398 -52.2949 C 98.3398 -51.0254 98.7305 -50.0977 99.5605 -49.2676 L 109.326 -39.502 C 112.695 -36.1328 112.695 -34.375 109.326 -31.0059 L 99.5605 -21.2891 C 98.7305 -20.4102 98.3398 -19.4824 98.3398 -18.2129 L 98.3398 -4.44336 C 98.3398 0.292969 97.0215 1.61133 92.2852 1.61133 L 78.4668 1.61133 C 77.2461 1.61133 76.3184 2.00195 75.4395 2.83203 L 65.7227 12.5977 C 62.3535 15.9668 60.5957 15.9668 57.2266 12.5977 Z M 53.1738 -12.1582 C 53.6621 -12.1582 54.1504 -12.4023 54.3945 -12.7441 L 84.4727 -55.4688 C 84.668 -55.7129 84.8145 -56.0547 84.8145 -56.4453 C 84.8145 -57.2266 84.1797 -57.7637 83.3984 -57.7637 C 82.7637 -57.7637 82.4707 -57.4707 82.3242 -57.2266 L 53.1738 -15.9668 L 37.1582 -34.1797 C 36.9141 -34.4727 36.6211 -34.6191 36.1328 -34.6191 C 35.3516 -34.6191 34.7168 -33.9844 34.7168 -33.2031 C 34.7168 -32.8613 34.8145 -32.6172 35.2051 -32.1289 L 52.0508 -12.6465 C 52.2949 -12.3047 52.7344 -12.1582 53.1738 -12.1582 Z"/>
  </g>
  <g id="Black-S" transform="matrix(1 0 0 1 2881.45 696)">
   <path d="M 43.457 5.61523 C 49.1211 11.2793 54.7852 11.2793 60.4492 5.61523 L 65.918 0.146484 C 66.3086 -0.244141 66.6016 -0.341797 67.0898 -0.341797 L 74.8535 -0.341797 C 82.8613 -0.341797 86.8652 -4.39453 86.8652 -12.3535 L 86.8652 -20.1172 C 86.8652 -20.6055 87.0117 -20.9473 87.3535 -21.2891 L 92.8223 -26.7578 C 98.4863 -32.4219 98.4863 -38.0859 92.8223 -43.75 L 87.3535 -49.2188 C 86.9629 -49.6094 86.8652 -49.9023 86.8652 -50.3906 L 86.8652 -58.1543 C 86.8652 -66.1621 82.8125 -70.166 74.8535 -70.166 L 67.0898 -70.166 C 66.6016 -70.166 66.2598 -70.3125 65.918 -70.6543 L 60.4492 -76.123 C 54.7363 -81.8359 49.2188 -81.7383 43.457 -76.0742 L 37.9883 -70.6543 C 37.6465 -70.3125 37.3047 -70.166 36.8164 -70.166 L 29.0527 -70.166 C 21.0449 -70.166 17.041 -66.2109 17.041 -58.1543 L 17.041 -50.3906 C 17.041 -49.9023 16.8945 -49.5605 16.5527 -49.2188 L 11.084 -43.75 C 5.41992 -38.0859 5.41992 -32.4219 11.084 -26.7578 L 16.5527 -21.2891 C 16.8945 -20.9473 17.041 -20.6055 17.041 -20.1172 L 17.041 -12.3535 C 17.041 -4.3457 21.0938 -0.341797 29.0527 -0.341797 L 36.8164 -0.341797 C 37.3047 -0.341797 37.5977 -0.244141 37.9883 0.146484 Z M 49.2676 -4.49219 L 43.1641 -10.5957 C 42.3828 -11.377 41.6992 -11.5723 40.6738 -11.5723 L 32.1289 -11.6211 C 28.9062 -11.6211 28.3203 -12.207 28.3203 -15.4297 L 28.2715 -23.9746 C 28.2715 -25 28.0273 -25.7324 27.2949 -26.4648 L 21.1914 -32.5684 C 18.8965 -34.8633 18.8965 -35.6445 21.1914 -37.9395 L 27.2949 -44.043 C 28.0273 -44.7754 28.2715 -45.5078 28.2715 -46.5332 L 28.3203 -55.0781 C 28.3203 -58.3496 28.8574 -58.8867 32.1289 -58.8867 L 40.6738 -58.9355 C 41.6992 -58.9355 42.4805 -59.2285 43.1641 -59.9121 L 49.2676 -66.0156 C 51.5625 -68.3105 52.2949 -68.3594 54.6387 -66.0156 L 60.7422 -59.9121 C 61.4258 -59.2285 62.207 -58.9355 63.2324 -58.9355 L 71.7773 -58.8867 C 75 -58.8867 75.5859 -58.3008 75.5859 -55.0781 L 75.6348 -46.5332 C 75.6348 -45.5078 75.8789 -44.7754 76.6113 -44.043 L 82.7148 -37.9395 C 85.0098 -35.6445 85.0098 -34.8633 82.7148 -32.5684 L 76.6113 -26.4648 C 75.8789 -25.7324 75.6348 -25 75.6348 -23.9746 L 75.5859 -15.4297 C 75.5859 -12.207 75 -11.6211 71.7773 -11.6211 L 63.2324 -11.5723 C 62.207 -11.5723 61.5234 -11.377 60.7422 -10.5957 L 54.6387 -4.49219 C 52.3438 -2.19727 51.5625 -2.19727 49.2676 -4.49219 Z M 46.7773 -16.8457 C 48.5352 -16.8457 50.0977 -17.3828 51.3672 -19.0918 L 69.3848 -44.4336 C 70.1172 -45.459 70.5566 -46.7285 70.5566 -47.6562 C 70.5566 -50.4883 68.3594 -52.4902 65.2344 -52.4902 C 63.4766 -52.4902 62.1094 -51.7578 61.0352 -50.2441 L 46.6797 -29.1992 L 40.0391 -36.7188 C 39.0625 -37.8418 37.7441 -38.4277 36.1328 -38.4277 C 33.1543 -38.4277 31.0547 -36.2793 31.0547 -33.3008 C 31.0547 -32.2266 31.543 -31.0059 32.3242 -30.127 L 42.4805 -18.7012 C 43.6523 -17.4316 45.2637 -16.8457 46.7773 -16.8457 Z"/>
  </g>
  <g id="Heavy-S" transform="matrix(1 0 0 1 2585.03 696)">
   <path d="M 43.4082 5.41992 C 48.9258 10.9863 54.3945 10.9375 59.9121 5.41992 L 65.4297 -0.0976562 C 65.8691 -0.488281 66.2109 -0.634766 66.7969 -0.634766 L 74.5605 -0.634766 C 82.4219 -0.634766 86.2793 -4.54102 86.2793 -12.3535 L 86.2793 -20.1172 C 86.2793 -20.7031 86.4258 -21.0938 86.8164 -21.4844 L 92.334 -27.002 C 97.9004 -32.5195 97.8516 -37.9883 92.334 -43.5059 L 86.8164 -49.0234 C 86.4258 -49.4629 86.2793 -49.8047 86.2793 -50.3906 L 86.2793 -58.1543 C 86.2793 -66.0156 82.373 -69.873 74.5605 -69.873 L 66.7969 -69.873 C 66.2109 -69.873 65.8203 -70.0195 65.4297 -70.4102 L 59.9121 -75.9277 C 54.3457 -81.4941 49.0234 -81.4453 43.4082 -75.8789 L 37.8906 -70.4102 C 37.5 -70.0195 37.1094 -69.873 36.5723 -69.873 L 28.7598 -69.873 C 20.8984 -69.873 17.041 -66.0645 17.041 -58.1543 L 17.041 -50.3906 C 17.041 -49.8047 16.8945 -49.4141 16.5039 -49.0234 L 10.9863 -43.5059 C 5.46875 -37.9883 5.46875 -32.5195 10.9863 -27.002 L 16.5039 -21.4844 C 16.8945 -21.0938 17.041 -20.7031 17.041 -20.1172 L 17.041 -12.3535 C 17.041 -4.49219 20.9473 -0.634766 28.7598 -0.634766 L 36.5723 -0.634766 C 37.1094 -0.634766 37.4512 -0.488281 37.8906 -0.0976562 Z M 48.9746 -3.4668 L 42.627 -9.81445 C 41.8457 -10.6445 41.1133 -10.8398 40.0391 -10.8398 L 31.1035 -10.8887 C 27.832 -10.8887 27.2949 -11.4258 27.2949 -14.6973 L 27.2461 -23.6328 C 27.2461 -24.707 27.002 -25.4883 26.2207 -26.2207 L 19.873 -32.5684 C 17.5781 -34.9121 17.5781 -35.5957 19.873 -37.9395 L 26.2207 -44.2871 C 27.002 -45.0195 27.2461 -45.8008 27.2461 -46.875 L 27.2949 -55.8105 C 27.2949 -59.1309 27.7832 -59.6191 31.1035 -59.6191 L 40.0391 -59.668 C 41.1133 -59.668 41.8945 -59.9609 42.627 -60.6934 L 48.9746 -67.041 C 51.3184 -69.3359 52.002 -69.3848 54.3457 -67.041 L 60.6934 -60.6934 C 61.4258 -59.9609 62.207 -59.668 63.2812 -59.668 L 72.2168 -59.6191 C 75.4883 -59.6191 76.0254 -59.082 76.0254 -55.8105 L 76.0742 -46.875 C 76.0742 -45.8008 76.3184 -45.0195 77.0996 -44.2871 L 83.4473 -37.9395 C 85.791 -35.5957 85.791 -34.9121 83.4473 -32.5684 L 77.0996 -26.2207 C 76.3184 -25.4883 76.0742 -24.707 76.0742 -23.6328 L 76.0254 -14.6973 C 76.0254 -11.4258 75.4883 -10.8887 72.2168 -10.8887 L 63.2812 -10.8398 C 62.207 -10.8398 61.4746 -10.6445 60.6934 -9.81445 L 54.3457 -3.4668 C 52.002 -1.17188 51.3184 -1.17188 48.9746 -3.4668 Z M 46.3379 -16.8457 C 47.9492 -16.8457 49.3652 -17.3828 50.4883 -18.8965 L 69.1895 -45.0684 C 69.8242 -45.9961 70.2637 -47.168 70.2637 -48.0469 C 70.2637 -50.6348 68.2129 -52.5391 65.332 -52.5391 C 63.6719 -52.5391 62.4512 -51.8555 61.4258 -50.3906 L 46.2402 -28.3691 L 39.0137 -36.4746 C 38.0859 -37.5488 36.8652 -38.0859 35.4004 -38.0859 C 32.6172 -38.0859 30.6641 -36.084 30.6641 -33.3496 C 30.6641 -32.3242 31.1035 -31.2012 31.8359 -30.3711 L 42.4316 -18.5547 C 43.457 -17.4316 44.873 -16.8457 46.3379 -16.8457 Z"/>
  </g>
  <g id="Bold-S" transform="matrix(1 0 0 1 2288.64 696)">
   <path d="M 43.3105 5.17578 C 48.7305 10.5957 53.9551 10.5957 59.375 5.17578 L 64.9414 -0.341797 C 65.3809 -0.830078 65.8203 -0.976562 66.4062 -0.976562 L 74.2676 -0.976562 C 81.8848 -0.976562 85.6445 -4.6875 85.6445 -12.3047 L 85.6445 -20.166 C 85.6445 -20.8008 85.791 -21.2402 86.2305 -21.6797 L 91.7969 -27.2461 C 97.2168 -32.6172 97.168 -37.8906 91.7969 -43.2617 L 86.2305 -48.8281 C 85.791 -49.3164 85.6445 -49.707 85.6445 -50.3418 L 85.6445 -58.2031 C 85.6445 -65.8203 81.8848 -69.5312 74.2676 -69.5312 L 66.4062 -69.5312 C 65.8203 -69.5312 65.3809 -69.7266 64.9414 -70.166 L 59.375 -75.6836 C 53.9551 -81.1523 48.7793 -81.0547 43.3105 -75.6836 L 37.7441 -70.166 C 37.3047 -69.7266 36.8652 -69.5312 36.2305 -69.5312 L 28.418 -69.5312 C 20.752 -69.5312 17.041 -65.8691 17.041 -58.2031 L 17.041 -50.3418 C 17.041 -49.707 16.8457 -49.2676 16.4062 -48.8281 L 10.8887 -43.2617 C 5.46875 -37.8906 5.51758 -32.6172 10.8887 -27.2461 L 16.4062 -21.6797 C 16.8457 -21.2402 17.041 -20.8008 17.041 -20.166 L 17.041 -12.3047 C 17.041 -4.6875 20.8008 -0.976562 28.418 -0.976562 L 36.2305 -0.976562 C 36.8652 -0.976562 37.3047 -0.830078 37.7441 -0.341797 Z M 48.6816 -2.29492 L 42.041 -8.93555 C 41.2109 -9.76562 40.4297 -10.0586 39.3066 -10.0586 L 29.9316 -10.0586 C 26.6602 -10.0586 26.1719 -10.5957 26.1719 -13.8672 L 26.123 -23.2422 C 26.123 -24.3652 25.8301 -25.1465 25 -25.9766 L 18.4082 -32.5684 C 16.0645 -34.9121 16.0645 -35.5957 18.4082 -37.9395 L 25 -44.5312 C 25.8301 -45.3613 26.123 -46.1426 26.123 -47.2656 L 26.1719 -56.6406 C 26.1719 -59.9609 26.6113 -60.4492 29.9316 -60.4492 L 39.3066 -60.4492 C 40.4297 -60.4492 41.2598 -60.791 42.041 -61.5723 L 48.6816 -68.2129 C 51.0254 -70.5078 51.6602 -70.5566 54.0039 -68.2129 L 60.6445 -61.5723 C 61.377 -60.791 62.2559 -60.4492 63.3789 -60.4492 L 72.7539 -60.4492 C 76.0254 -60.4492 76.5137 -59.9121 76.5137 -56.6406 L 76.5625 -47.2656 C 76.5625 -46.1426 76.8555 -45.3613 77.6367 -44.5312 L 84.2773 -37.9395 C 86.6211 -35.5957 86.6211 -34.9121 84.2773 -32.5684 L 77.6367 -25.9766 C 76.8555 -25.1465 76.5625 -24.3652 76.5625 -23.2422 L 76.5137 -13.8672 C 76.5137 -10.5957 76.0254 -10.0586 72.7539 -10.0586 L 63.3789 -10.0586 C 62.2559 -10.0586 61.4258 -9.76562 60.6445 -8.93555 L 54.0039 -2.29492 C 51.6602 0 51.0254 0 48.6816 -2.29492 Z M 45.8496 -16.8457 C 47.3633 -16.8457 48.584 -17.3828 49.5117 -18.6523 L 68.9453 -45.752 C 69.5312 -46.582 69.873 -47.6562 69.873 -48.4375 C 69.873 -50.8301 68.0664 -52.5879 65.4785 -52.5879 C 63.916 -52.5879 62.793 -52.002 61.8164 -50.5859 L 45.7031 -27.4902 L 37.8418 -36.2305 C 36.9629 -37.1582 35.8887 -37.6465 34.5703 -37.6465 C 32.0312 -37.6465 30.2246 -35.8398 30.2246 -33.3984 C 30.2246 -32.4219 30.6152 -31.3965 31.2988 -30.6641 L 42.334 -18.3594 C 43.2617 -17.3828 44.4824 -16.8457 45.8496 -16.8457 Z"/>
  </g>
  <g id="Semibold-S" transform="matrix(1 0 0 1 1992.14 696)">
   <path d="M 43.2617 5.0293 C 48.5352 10.3516 53.6621 10.3516 58.9844 5.0293 L 64.5508 -0.537109 C 65.0391 -1.02539 65.5273 -1.17188 66.1621 -1.17188 L 74.0723 -1.17188 C 81.543 -1.17188 85.2051 -4.83398 85.2051 -12.3047 L 85.2051 -20.166 C 85.2051 -20.8496 85.3516 -21.3379 85.8398 -21.8262 L 91.4062 -27.3926 C 96.7285 -32.7148 96.6797 -37.793 91.4062 -43.1152 L 85.8398 -48.6816 C 85.3516 -49.2188 85.2051 -49.6582 85.2051 -50.3418 L 85.2051 -58.2031 C 85.2051 -65.6738 81.543 -69.3359 74.0723 -69.3359 L 66.1621 -69.3359 C 65.5273 -69.3359 65.0391 -69.4824 64.5508 -69.9707 L 58.9844 -75.5371 C 53.6621 -80.9082 48.584 -80.8105 43.2617 -75.5371 L 37.6465 -69.9707 C 37.207 -69.5312 36.7188 -69.3359 36.0352 -69.3359 L 28.1738 -69.3359 C 20.6543 -69.3359 17.041 -65.7715 17.041 -58.2031 L 17.041 -50.3418 C 17.041 -49.6582 16.8457 -49.1699 16.3574 -48.6816 L 10.8398 -43.1152 C 5.46875 -37.793 5.51758 -32.7148 10.8398 -27.3926 L 16.3574 -21.8262 C 16.8457 -21.3379 17.041 -20.8496 17.041 -20.166 L 17.041 -12.3047 C 17.041 -4.83398 20.6543 -1.17188 28.1738 -1.17188 L 36.0352 -1.17188 C 36.7188 -1.17188 37.1582 -1.02539 37.6465 -0.537109 Z M 48.4375 -1.51367 L 41.6504 -8.34961 C 40.8203 -9.17969 39.9414 -9.47266 38.8184 -9.47266 L 29.1504 -9.52148 C 25.8301 -9.52148 25.3906 -9.96094 25.3906 -13.2812 L 25.3418 -22.9492 C 25.3418 -24.1211 25 -24.9512 24.1699 -25.7812 L 17.3828 -32.5684 C 15.0391 -34.9609 15.0391 -35.5469 17.3828 -37.9395 L 24.1699 -44.7266 C 25 -45.5566 25.3418 -46.3867 25.3418 -47.5586 L 25.3906 -57.2266 C 25.3906 -60.5957 25.7812 -60.9863 29.1504 -60.9863 L 38.8184 -61.0352 C 39.9414 -61.0352 40.8203 -61.3281 41.6504 -62.1582 L 48.4375 -68.9941 C 50.7812 -71.3379 51.416 -71.3379 53.8086 -68.9941 L 60.5957 -62.1582 C 61.377 -61.3281 62.2559 -61.0352 63.4277 -61.0352 L 73.0957 -60.9863 C 76.3672 -60.9863 76.8555 -60.5469 76.8555 -57.2266 L 76.8555 -47.5586 C 76.8555 -46.3867 77.1973 -45.5566 78.0273 -44.7266 L 84.8633 -37.9395 C 87.207 -35.5469 87.207 -34.9609 84.8633 -32.5684 L 78.0273 -25.7812 C 77.1973 -24.9512 76.8555 -24.1211 76.8555 -22.9492 L 76.8555 -13.2812 C 76.8555 -9.96094 76.3672 -9.52148 73.0957 -9.52148 L 63.4277 -9.47266 C 62.2559 -9.47266 61.4258 -9.17969 60.5957 -8.34961 L 53.8086 -1.51367 C 51.416 0.830078 50.7812 0.830078 48.4375 -1.51367 Z M 45.459 -16.8457 C 46.9238 -16.8457 48.0469 -17.3828 48.877 -18.457 L 68.75 -46.2402 C 69.2871 -47.0215 69.6289 -47.9492 69.6289 -48.7305 C 69.6289 -50.9766 67.9688 -52.6367 65.5762 -52.6367 C 64.0625 -52.6367 63.0859 -52.0508 62.1094 -50.7324 L 45.3613 -26.8555 L 37.0605 -36.0352 C 36.2305 -36.9629 35.2539 -37.4023 33.9844 -37.4023 C 31.5918 -37.4023 29.8828 -35.6934 29.8828 -33.3984 C 29.8828 -32.4707 30.2734 -31.543 30.9082 -30.8594 L 42.2852 -18.2129 C 43.1152 -17.3828 44.1406 -16.8457 45.459 -16.8457 Z"/>
  </g>
  <g id="Medium-S" transform="matrix(1 0 0 1 1695.6 696)">
   <path d="M 43.2129 4.93164 C 48.4375 10.2051 53.418 10.1562 58.6426 4.93164 L 64.2578 -0.634766 C 64.7949 -1.17188 65.2832 -1.36719 66.0156 -1.36719 L 73.877 -1.36719 C 81.25 -1.36719 84.8633 -4.88281 84.8633 -12.3047 L 84.8633 -20.2148 C 84.8633 -20.8984 85.0098 -21.3867 85.5469 -21.9238 L 91.1133 -27.5391 C 96.3867 -32.7637 96.3379 -37.7441 91.1133 -42.9688 L 85.5469 -48.584 C 85.0098 -49.1211 84.8633 -49.6094 84.8633 -50.293 L 84.8633 -58.2031 C 84.8633 -65.5762 81.2988 -69.1406 73.877 -69.1406 L 66.0156 -69.1406 C 65.2832 -69.1406 64.7949 -69.3359 64.2578 -69.873 L 58.6426 -75.4395 C 53.418 -80.7129 48.4375 -80.6641 43.2129 -75.4395 L 37.5977 -69.873 C 37.1094 -69.3359 36.5723 -69.1406 35.8887 -69.1406 L 27.9785 -69.1406 C 20.5566 -69.1406 17.041 -65.6738 17.041 -58.2031 L 17.041 -50.293 C 17.041 -49.6094 16.8457 -49.1211 16.3574 -48.584 L 10.791 -42.9688 C 5.51758 -37.7441 5.56641 -32.7637 10.791 -27.5391 L 16.3574 -21.9238 C 16.8457 -21.3867 17.041 -20.8984 17.041 -20.2148 L 17.041 -12.3047 C 17.041 -4.93164 20.6055 -1.36719 27.9785 -1.36719 L 35.8887 -1.36719 C 36.5723 -1.36719 37.0605 -1.17188 37.5977 -0.634766 Z M 48.291 -0.927734 L 41.3574 -7.86133 C 40.4785 -8.74023 39.5996 -9.08203 38.4277 -9.08203 L 28.5645 -9.08203 C 25.2441 -9.08203 24.7559 -9.52148 24.7559 -12.8418 L 24.7559 -22.7539 C 24.7559 -23.9258 24.4141 -24.8047 23.5352 -25.6348 L 16.6016 -32.5684 C 14.2578 -34.9609 14.2578 -35.5469 16.6016 -37.9395 L 23.5352 -44.873 C 24.4141 -45.7031 24.7559 -46.582 24.7559 -47.7539 L 24.7559 -57.666 C 24.7559 -61.0352 25.1953 -61.4258 28.5645 -61.4258 L 38.4277 -61.4258 C 39.5996 -61.4258 40.5273 -61.7676 41.3574 -62.6465 L 48.291 -69.5801 C 50.6348 -71.9727 51.2207 -71.9727 53.6133 -69.5801 L 60.5469 -62.6465 C 61.377 -61.7676 62.2559 -61.4258 63.4277 -61.4258 L 73.3398 -61.4258 C 76.6602 -61.4258 77.0996 -60.9863 77.0996 -57.666 L 77.0996 -47.7539 C 77.0996 -46.582 77.4902 -45.7031 78.3203 -44.873 L 85.3027 -37.9395 C 87.6465 -35.5469 87.6465 -34.9609 85.3027 -32.5684 L 78.3203 -25.6348 C 77.4902 -24.8047 77.0996 -23.9258 77.0996 -22.7539 L 77.0996 -12.8418 C 77.0996 -9.52148 76.6602 -9.08203 73.3398 -9.08203 L 63.4277 -9.08203 C 62.2559 -9.08203 61.377 -8.74023 60.5469 -7.86133 L 53.6133 -0.927734 C 51.2207 1.46484 50.6348 1.46484 48.291 -0.927734 Z M 45.2148 -16.8457 C 46.582 -16.8457 47.6074 -17.3828 48.3398 -18.3594 L 68.6035 -46.6309 C 69.1406 -47.3145 69.4336 -48.2422 69.4336 -48.9746 C 69.4336 -51.0742 67.8711 -52.6367 65.625 -52.6367 C 64.1602 -52.6367 63.2812 -52.1484 62.3535 -50.8301 L 45.0684 -26.3672 L 36.4258 -35.8887 C 35.6445 -36.7676 34.7168 -37.1582 33.5449 -37.1582 C 31.2988 -37.1582 29.6387 -35.5957 29.6387 -33.4473 C 29.6387 -32.5195 30.0293 -31.6406 30.6152 -31.0059 L 42.2363 -18.1152 C 42.9688 -17.334 43.9453 -16.8457 45.2148 -16.8457 Z"/>
  </g>
  <g id="Regular-S" transform="matrix(1 0 0 1 1399.14 696)">
   <path d="M 43.1641 4.78516 C 48.291 9.96094 53.125 9.91211 58.252 4.78516 L 63.916 -0.830078 C 64.4531 -1.36719 64.9902 -1.5625 65.7715 -1.5625 L 73.6816 -1.5625 C 80.9082 -1.5625 84.375 -4.98047 84.375 -12.3047 L 84.375 -20.2148 C 84.375 -20.9473 84.6191 -21.4844 85.1562 -22.0703 L 90.7227 -27.6855 C 95.8984 -32.8125 95.8496 -37.6953 90.7227 -42.8223 L 85.1562 -48.4375 C 84.6191 -49.0234 84.375 -49.5605 84.375 -50.293 L 84.375 -58.2031 C 84.375 -65.4785 80.957 -68.9453 73.6816 -68.9453 L 65.7715 -68.9453 C 64.9902 -68.9453 64.4531 -69.1406 63.916 -69.6777 L 58.252 -75.293 C 53.125 -80.4688 48.291 -80.4199 43.1641 -75.293 L 37.5 -69.6777 C 36.9629 -69.1406 36.4258 -68.9453 35.6934 -68.9453 L 27.7344 -68.9453 C 20.459 -68.9453 17.041 -65.5273 17.041 -58.2031 L 17.041 -50.293 C 17.041 -49.5605 16.8457 -49.0234 16.3086 -48.4375 L 10.6934 -42.8223 C 5.51758 -37.6953 5.56641 -32.8125 10.6934 -27.6855 L 16.3086 -22.0703 C 16.8457 -21.4844 17.041 -20.9473 17.041 -20.2148 L 17.041 -12.3047 C 17.041 -5.0293 20.459 -1.5625 27.7344 -1.5625 L 35.6934 -1.5625 C 36.4258 -1.5625 36.9629 -1.36719 37.5 -0.830078 Z M 48.0469 -0.0976562 L 40.918 -7.27539 C 40.0879 -8.20312 39.1602 -8.54492 37.9395 -8.54492 L 27.7344 -8.54492 C 24.4141 -8.54492 23.9746 -8.93555 23.9746 -12.3047 L 23.9746 -22.4609 C 23.9746 -23.6816 23.584 -24.6094 22.7539 -25.4883 L 15.5762 -32.5684 C 13.2324 -35.0098 13.2324 -35.498 15.5762 -37.9395 L 22.7539 -45.0195 C 23.584 -45.8984 23.9746 -46.8262 23.9746 -48.0469 L 23.9746 -58.2031 C 23.9746 -61.6211 24.3652 -61.9629 27.7344 -61.9629 L 37.9395 -61.9629 C 39.1602 -61.9629 40.0879 -62.3047 40.918 -63.2324 L 48.0469 -70.4102 C 50.4395 -72.7539 50.9766 -72.7539 53.3691 -70.4102 L 60.498 -63.2324 C 61.377 -62.3047 62.3047 -61.9629 63.4766 -61.9629 L 73.6816 -61.9629 C 77.002 -61.9629 77.4414 -61.5723 77.4414 -58.2031 L 77.4414 -48.0469 C 77.4414 -46.8262 77.832 -45.8984 78.7109 -45.0195 L 85.8398 -37.9395 C 88.2324 -35.498 88.2324 -35.0098 85.8398 -32.5684 L 78.7109 -25.4883 C 77.832 -24.6094 77.4414 -23.6816 77.4414 -22.4609 L 77.4414 -12.3047 C 77.4414 -8.93555 77.002 -8.54492 73.6816 -8.54492 L 63.4766 -8.54492 C 62.3047 -8.54492 61.377 -8.20312 60.498 -7.27539 L 53.3691 -0.0976562 C 50.9766 2.24609 50.4395 2.24609 48.0469 -0.0976562 Z M 44.873 -16.8457 C 46.1426 -16.8457 47.0703 -17.3828 47.7051 -18.1641 L 68.457 -47.0703 C 68.9453 -47.7539 69.2383 -48.5352 69.2383 -49.2676 C 69.2383 -51.1719 67.7734 -52.6855 65.7227 -52.6855 C 64.3066 -52.6855 63.5254 -52.1973 62.6465 -50.9766 L 44.7266 -25.7812 L 35.6445 -35.7422 C 34.9121 -36.5234 34.082 -36.9141 32.959 -36.9141 C 30.8594 -36.9141 29.3457 -35.4492 29.3457 -33.4473 C 29.3457 -32.6172 29.6875 -31.7871 30.2734 -31.2012 L 42.1875 -17.9688 C 42.8711 -17.334 43.6523 -16.8457 44.873 -16.8457 Z"/>
  </g>
  <g id="Light-S" transform="matrix(1 0 0 1 1103.21 696)">
   <path d="M 43.2617 4.39453 C 47.8516 8.98438 51.9531 8.93555 56.543 4.39453 L 62.6465 -1.66016 C 63.2812 -2.29492 63.8672 -2.49023 64.6973 -2.49023 L 73.2422 -2.49023 C 79.7363 -2.49023 82.666 -5.41992 82.666 -11.9141 L 82.666 -20.5078 C 82.666 -21.2891 82.9102 -21.9238 83.4961 -22.5098 L 89.5508 -28.6133 C 94.1406 -33.2031 94.1406 -37.3047 89.5508 -41.8945 L 83.4961 -47.998 C 82.9102 -48.584 82.666 -49.2188 82.666 -50 L 82.666 -58.5938 C 82.666 -65.0391 79.7363 -68.0176 73.2422 -68.0176 L 64.6973 -68.0176 C 63.8672 -68.0176 63.2812 -68.2129 62.6465 -68.8477 L 56.543 -74.9023 C 51.9531 -79.4922 47.8516 -79.4922 43.2617 -74.9023 L 37.1582 -68.8477 C 36.5723 -68.2617 35.9863 -68.0176 35.1562 -68.0176 L 26.5625 -68.0176 C 20.0684 -68.0176 17.1387 -65.1367 17.1387 -58.5938 L 17.1387 -50 C 17.1387 -49.2188 16.8945 -48.584 16.3086 -47.998 L 10.2539 -41.8945 C 5.66406 -37.3047 5.71289 -33.2031 10.2539 -28.6133 L 16.3086 -22.5098 C 16.8945 -21.9238 17.1387 -21.2891 17.1387 -20.5078 L 17.1387 -11.9141 C 17.1387 -5.46875 20.0684 -2.49023 26.5625 -2.49023 L 35.1562 -2.49023 C 35.9863 -2.49023 36.5723 -2.29492 37.1582 -1.66016 Z M 47.0215 0.634766 L 39.7461 -6.68945 C 38.9648 -7.51953 38.0859 -7.86133 36.9629 -7.86133 L 26.5625 -7.86133 C 23.1445 -7.86133 22.5098 -8.44727 22.5098 -11.9141 L 22.5098 -22.3145 C 22.5098 -23.4375 22.168 -24.3164 21.3379 -25.0977 L 14.0625 -32.373 C 11.6211 -34.8633 11.6211 -35.6445 14.0625 -38.1348 L 21.3379 -45.4102 C 22.168 -46.1914 22.5098 -47.0703 22.5098 -48.1934 L 22.5098 -58.5938 C 22.5098 -62.1094 23.0957 -62.6465 26.5625 -62.6465 L 36.9629 -62.6465 C 38.0859 -62.6465 38.9648 -62.9883 39.7461 -63.8184 L 47.0215 -71.1426 C 49.5117 -73.584 50.293 -73.584 52.7832 -71.1426 L 60.0586 -63.8184 C 60.8887 -62.9883 61.7188 -62.6465 62.8418 -62.6465 L 73.2422 -62.6465 C 76.709 -62.6465 77.2949 -62.0605 77.2949 -58.5938 L 77.2949 -48.1934 C 77.2949 -47.0703 77.6855 -46.1914 78.4668 -45.4102 L 85.791 -38.1348 C 88.2324 -35.6445 88.2324 -34.8633 85.791 -32.373 L 78.4668 -25.0977 C 77.6855 -24.3164 77.2949 -23.4375 77.2949 -22.3145 L 77.2949 -11.9141 C 77.2949 -8.44727 76.709 -7.86133 73.2422 -7.86133 L 62.8418 -7.86133 C 61.7188 -7.86133 60.8887 -7.51953 60.0586 -6.68945 L 52.7832 0.634766 C 50.293 3.07617 49.5117 3.07617 47.0215 0.634766 Z M 43.8477 -16.9434 C 44.873 -16.9434 45.6055 -17.3828 46.0938 -18.0176 L 67.7246 -48.3398 C 68.1152 -48.8281 68.3594 -49.5117 68.3594 -50.0488 C 68.3594 -51.6113 67.1875 -52.7344 65.5762 -52.7344 C 64.502 -52.7344 63.8672 -52.3438 63.1836 -51.416 L 43.75 -24.0234 L 33.5938 -35.3027 C 33.0566 -35.9375 32.373 -36.2305 31.4941 -36.2305 C 29.8828 -36.2305 28.6621 -35.0586 28.6621 -33.4961 C 28.6621 -32.8613 28.9062 -32.2266 29.4434 -31.6895 L 41.748 -17.8223 C 42.2852 -17.334 42.9199 -16.9434 43.8477 -16.9434 Z"/>
  </g>
  <g id="Thin-S" transform="matrix(1 0 0 1 807.57 696)">
   <path d="M 43.4082 3.90625 C 47.2656 7.71484 50.4395 7.71484 54.2969 3.90625 L 60.9863 -2.7832 C 61.6699 -3.4668 62.3047 -3.66211 63.2324 -3.66211 L 72.6562 -3.66211 C 78.125 -3.66211 80.4199 -5.95703 80.4199 -11.4258 L 80.4199 -20.8496 C 80.4199 -21.7773 80.6641 -22.4121 81.3477 -23.0957 L 87.9883 -29.7852 C 91.8457 -33.6914 91.7969 -36.8164 87.9883 -40.7227 L 81.3477 -47.4121 C 80.6641 -48.0957 80.4199 -48.7305 80.4199 -49.6582 L 80.4199 -59.082 C 80.4199 -64.5508 78.125 -66.8457 72.6562 -66.8457 L 63.2324 -66.8457 C 62.3047 -66.8457 61.6699 -67.041 60.9863 -67.7246 L 54.2969 -74.4141 C 50.3906 -78.2715 47.2656 -78.3203 43.3594 -74.4141 L 36.7188 -67.7246 C 36.0352 -67.0898 35.3516 -66.8457 34.4727 -66.8457 L 25.0488 -66.8457 C 19.5312 -66.8457 17.2852 -64.5508 17.2852 -59.082 L 17.2852 -49.6582 C 17.2852 -48.7305 16.9922 -48.0957 16.3574 -47.4121 L 9.7168 -40.7227 C 5.85938 -36.8164 5.85938 -33.6914 9.7168 -29.7852 L 16.3574 -23.0957 C 16.9922 -22.4121 17.2852 -21.7773 17.2852 -20.8496 L 17.2852 -11.4258 C 17.2852 -5.95703 19.5312 -3.66211 25.0488 -3.66211 L 34.4727 -3.66211 C 35.3516 -3.66211 36.0352 -3.4668 36.7188 -2.7832 Z M 45.7031 1.5625 L 38.2324 -5.9082 C 37.5 -6.64062 36.7188 -6.98242 35.6445 -6.98242 L 25.0488 -6.98242 C 21.4355 -6.98242 20.5566 -7.8125 20.5566 -11.4258 L 20.5566 -22.0703 C 20.5566 -23.0957 20.2148 -23.877 19.4824 -24.6094 L 12.0117 -32.1289 C 9.42383 -34.668 9.42383 -35.8398 12.0117 -38.3789 L 19.4824 -45.8984 C 20.2148 -46.6309 20.5566 -47.4121 20.5566 -48.4375 L 20.5566 -59.082 C 20.5566 -62.7441 21.3867 -63.5254 25.0488 -63.5254 L 35.6445 -63.5254 C 36.7188 -63.5254 37.5 -63.8672 38.2324 -64.5996 L 45.7031 -72.0703 C 48.291 -74.6582 49.4141 -74.6582 52.002 -72.0703 L 59.4727 -64.5996 C 60.2051 -63.8672 60.9863 -63.5254 62.0117 -63.5254 L 72.6562 -63.5254 C 76.2695 -63.5254 77.1484 -62.6953 77.1484 -59.082 L 77.1484 -48.4375 C 77.1484 -47.4121 77.4414 -46.6309 78.1738 -45.8984 L 85.6934 -38.3789 C 88.2324 -35.8398 88.2324 -34.668 85.6934 -32.1289 L 78.1738 -24.6094 C 77.4414 -23.877 77.1484 -23.0957 77.1484 -22.0703 L 77.1484 -11.4258 C 77.1484 -7.8125 76.2695 -6.98242 72.6562 -6.98242 L 62.0117 -6.98242 C 60.9863 -6.98242 60.2051 -6.64062 59.4727 -5.9082 L 52.002 1.5625 C 49.4141 4.15039 48.291 4.15039 45.7031 1.5625 Z M 42.5293 -17.041 C 43.1641 -17.041 43.7012 -17.334 43.9941 -17.7734 L 66.7969 -50 C 67.041 -50.293 67.1875 -50.7324 67.1875 -51.123 C 67.1875 -52.0996 66.4062 -52.832 65.4297 -52.832 C 64.6973 -52.832 64.3066 -52.5391 63.9648 -52.0508 L 42.4805 -21.6797 L 30.9082 -34.7656 C 30.5664 -35.1562 30.127 -35.3516 29.5898 -35.3516 C 28.5645 -35.3516 27.7832 -34.5703 27.7832 -33.5938 C 27.7832 -33.1543 27.9297 -32.7637 28.3203 -32.3242 L 41.1621 -17.6758 C 41.5039 -17.2852 41.9434 -17.041 42.5293 -17.041 Z"/>
  </g>
  <g id="Ultralight-S" transform="matrix(1 0 0 1 511.396 696)">
   <path d="M 43.457 3.61328 C 46.9727 7.08008 49.6094 7.08008 53.125 3.61328 L 60.1562 -3.32031 C 60.8887 -4.05273 61.5234 -4.29688 62.5 -4.29688 L 72.3633 -4.29688 C 77.3438 -4.29688 79.248 -6.25 79.248 -11.1816 L 79.248 -21.0449 C 79.248 -22.0215 79.541 -22.7051 80.2246 -23.4375 L 87.207 -30.4199 C 90.625 -33.9355 90.625 -36.5723 87.207 -40.0879 L 80.2246 -47.0703 C 79.541 -47.8027 79.248 -48.4863 79.248 -49.4629 L 79.248 -59.3262 C 79.248 -64.2578 77.3438 -66.2109 72.3633 -66.2109 L 62.5 -66.2109 C 61.5234 -66.2109 60.8887 -66.4551 60.1562 -67.1875 L 53.125 -74.1211 C 49.6094 -77.6367 46.9727 -77.6855 43.4082 -74.1211 L 36.4746 -67.1875 C 35.791 -66.5039 35.0586 -66.2109 34.082 -66.2109 L 24.2188 -66.2109 C 19.2871 -66.2109 17.334 -64.2578 17.334 -59.3262 L 17.334 -49.4629 C 17.334 -48.4863 17.0898 -47.8027 16.4062 -47.0703 L 9.42383 -40.0879 C 5.95703 -36.5723 5.95703 -33.9355 9.42383 -30.4199 L 16.4062 -23.4375 C 17.0898 -22.7051 17.334 -22.0215 17.334 -21.0449 L 17.334 -11.1816 C 17.334 -6.25 19.2871 -4.29688 24.2188 -4.29688 L 34.082 -4.29688 C 35.0586 -4.29688 35.7422 -4.05273 36.4746 -3.32031 Z M 45.0195 2.09961 L 37.4023 -5.51758 C 36.7188 -6.20117 35.9863 -6.49414 35.0098 -6.49414 L 24.2188 -6.49414 C 20.5566 -6.49414 19.5312 -7.51953 19.5312 -11.1816 L 19.5312 -21.9727 C 19.5312 -22.9492 19.2383 -23.6816 18.5547 -24.3652 L 10.9863 -31.9824 C 8.34961 -34.5703 8.34961 -35.9375 10.9863 -38.5254 L 18.5547 -46.1426 C 19.2383 -46.8262 19.5312 -47.5586 19.5312 -48.5352 L 19.5312 -59.3262 C 19.5312 -63.0371 20.5078 -64.0137 24.2188 -64.0137 L 35.0098 -64.0137 C 35.9863 -64.0137 36.7188 -64.3066 37.4023 -64.9902 L 45.0195 -72.6074 C 47.6562 -75.1953 48.9746 -75.1953 51.6113 -72.6074 L 59.1797 -64.9902 C 59.8633 -64.3066 60.6445 -64.0137 61.6211 -64.0137 L 72.3633 -64.0137 C 76.0742 -64.0137 77.0508 -62.9883 77.0508 -59.3262 L 77.0508 -48.5352 C 77.0508 -47.5586 77.3438 -46.8262 78.0273 -46.1426 L 85.6445 -38.5254 C 88.2812 -35.9375 88.2812 -34.5703 85.6445 -31.9824 L 78.0273 -24.3652 C 77.3438 -23.6816 77.0508 -22.9492 77.0508 -21.9727 L 77.0508 -11.1816 C 77.0508 -7.51953 76.0742 -6.49414 72.3633 -6.49414 L 61.6211 -6.49414 C 60.6445 -6.49414 59.8633 -6.20117 59.1797 -5.51758 L 51.6113 2.09961 C 48.9746 4.6875 47.6562 4.6875 45.0195 2.09961 Z M 41.8457 -17.1387 C 42.2852 -17.1387 42.6758 -17.334 42.9199 -17.6758 L 66.3086 -50.8301 C 66.4551 -51.0254 66.6504 -51.3672 66.6504 -51.6602 C 66.6504 -52.3926 66.0645 -52.8809 65.332 -52.8809 C 64.7949 -52.8809 64.5508 -52.6367 64.3555 -52.3926 L 41.8457 -20.5078 L 29.4922 -34.4727 C 29.2969 -34.7656 29.0039 -34.8633 28.5645 -34.8633 C 27.8809 -34.8633 27.3438 -34.3262 27.3438 -33.6426 C 27.3438 -33.3008 27.3926 -33.1055 27.7344 -32.666 L 40.8691 -17.5293 C 41.1133 -17.2852 41.4551 -17.1387 41.8457 -17.1387 Z"/>
  </g>
 </g>
</svg>
