<?xml version="1.0" encoding="UTF-8"?>
<!--Generator: Apple Native CoreSVG 123-->
<!DOCTYPE svg
PUBLIC "-//W3C//DTD SVG 1.1//EN"
       "http://www.w3.org/Graphics/SVG/1.1/DTD/svg11.dtd">
<svg version="1.1" xmlns="http://www.w3.org/2000/svg" xmlns:xlink="http://www.w3.org/1999/xlink" width="3300" height="2200">
 <!--glyph: "uni100216.medium", point size: 100.000000, font version: "Version 15.0d7e11", template writer version: "5"-->
 <g id="Notes">
  <rect height="2200" id="artboard" style="fill:white;opacity:1" width="3300" x="0" y="0"/>
  <line id="" style="fill:none;stroke:black;opacity:1;stroke-width:0.5;" x1="263" x2="3036" y1="292" y2="292"/>
  <text style="stroke:none;fill:black;font-family:-apple-system,&quot;SF Pro Display&quot;,&quot;SF Pro Text&quot;,Helvetica,sans-serif;font-weight:bold;" transform="matrix(1 0 0 1 263 322)">Weight/Scale Variations</text>
  <text style="stroke:none;fill:black;font-family:-apple-system,&quot;SF Pro Display&quot;,&quot;SF Pro Text&quot;,Helvetica,sans-serif;text-anchor:middle;" transform="matrix(1 0 0 1 559.711 322)">Ultralight</text>
  <text style="stroke:none;fill:black;font-family:-apple-system,&quot;SF Pro Display&quot;,&quot;SF Pro Text&quot;,Helvetica,sans-serif;text-anchor:middle;" transform="matrix(1 0 0 1 856.422 322)">Thin</text>
  <text style="stroke:none;fill:black;font-family:-apple-system,&quot;SF Pro Display&quot;,&quot;SF Pro Text&quot;,Helvetica,sans-serif;text-anchor:middle;" transform="matrix(1 0 0 1 1153.13 322)">Light</text>
  <text style="stroke:none;fill:black;font-family:-apple-system,&quot;SF Pro Display&quot;,&quot;SF Pro Text&quot;,Helvetica,sans-serif;text-anchor:middle;" transform="matrix(1 0 0 1 1449.84 322)">Regular</text>
  <text style="stroke:none;fill:black;font-family:-apple-system,&quot;SF Pro Display&quot;,&quot;SF Pro Text&quot;,Helvetica,sans-serif;text-anchor:middle;" transform="matrix(1 0 0 1 1746.56 322)">Medium</text>
  <text style="stroke:none;fill:black;font-family:-apple-system,&quot;SF Pro Display&quot;,&quot;SF Pro Text&quot;,Helvetica,sans-serif;text-anchor:middle;" transform="matrix(1 0 0 1 2043.27 322)">Semibold</text>
  <text style="stroke:none;fill:black;font-family:-apple-system,&quot;SF Pro Display&quot;,&quot;SF Pro Text&quot;,Helvetica,sans-serif;text-anchor:middle;" transform="matrix(1 0 0 1 2339.98 322)">Bold</text>
  <text style="stroke:none;fill:black;font-family:-apple-system,&quot;SF Pro Display&quot;,&quot;SF Pro Text&quot;,Helvetica,sans-serif;text-anchor:middle;" transform="matrix(1 0 0 1 2636.69 322)">Heavy</text>
  <text style="stroke:none;fill:black;font-family:-apple-system,&quot;SF Pro Display&quot;,&quot;SF Pro Text&quot;,Helvetica,sans-serif;text-anchor:middle;" transform="matrix(1 0 0 1 2933.4 322)">Black</text>
  <line id="" style="fill:none;stroke:black;opacity:1;stroke-width:0.5;" x1="263" x2="3036" y1="1903" y2="1903"/>
  <g id="" transform="matrix(1 0 0 1 263 1933)">
   <path d="M 9.24805 0.830078 C 13.5547 0.830078 17.1387 -2.74414 17.1387 -7.05078 C 17.1387 -11.3574 13.5449 -14.9316 9.23828 -14.9316 C 4.94141 -14.9316 1.36719 -11.3574 1.36719 -7.05078 C 1.36719 -2.74414 4.95117 0.830078 9.24805 0.830078 Z M 9.24805 -0.654297 C 5.70312 -0.654297 2.87109 -3.49609 2.87109 -7.05078 C 2.87109 -10.6055 5.69336 -13.4473 9.23828 -13.4473 C 12.793 -13.4473 15.6348 -10.6055 15.6445 -7.05078 C 15.6543 -3.49609 12.8027 -0.654297 9.24805 -0.654297 Z M 9.22852 -3.42773 C 9.69727 -3.42773 9.9707 -3.74023 9.9707 -4.25781 L 9.9707 -6.31836 L 12.1973 -6.31836 C 12.6953 -6.31836 13.0371 -6.57227 13.0371 -7.04102 C 13.0371 -7.51953 12.7148 -7.7832 12.1973 -7.7832 L 9.9707 -7.7832 L 9.9707 -10.0098 C 9.9707 -10.5273 9.69727 -10.8496 9.22852 -10.8496 C 8.75977 -10.8496 8.50586 -10.5078 8.50586 -10.0098 L 8.50586 -7.7832 L 6.29883 -7.7832 C 5.78125 -7.7832 5.44922 -7.51953 5.44922 -7.04102 C 5.44922 -6.57227 5.80078 -6.31836 6.29883 -6.31836 L 8.50586 -6.31836 L 8.50586 -4.25781 C 8.50586 -3.75977 8.75977 -3.42773 9.22852 -3.42773 Z"/>
  </g>
  <g id="" transform="matrix(1 0 0 1 281.506 1933)">
   <path d="M 11.709 2.91016 C 17.1582 2.91016 21.6699 -1.60156 21.6699 -7.05078 C 21.6699 -12.4902 17.1484 -17.0117 11.6992 -17.0117 C 6.25977 -17.0117 1.74805 -12.4902 1.74805 -7.05078 C 1.74805 -1.60156 6.26953 2.91016 11.709 2.91016 Z M 11.709 1.25 C 7.09961 1.25 3.41797 -2.44141 3.41797 -7.05078 C 3.41797 -11.6504 7.08984 -15.3516 11.6992 -15.3516 C 16.3086 -15.3516 20 -11.6504 20.0098 -7.05078 C 20.0195 -2.44141 16.3184 1.25 11.709 1.25 Z M 11.6895 -2.41211 C 12.207 -2.41211 12.5195 -2.77344 12.5195 -3.33984 L 12.5195 -6.23047 L 15.5762 -6.23047 C 16.123 -6.23047 16.5039 -6.51367 16.5039 -7.03125 C 16.5039 -7.55859 16.1426 -7.86133 15.5762 -7.86133 L 12.5195 -7.86133 L 12.5195 -10.9277 C 12.5195 -11.5039 12.207 -11.8555 11.6895 -11.8555 C 11.1719 -11.8555 10.8789 -11.4844 10.8789 -10.9277 L 10.8789 -7.86133 L 7.83203 -7.86133 C 7.26562 -7.86133 6.89453 -7.55859 6.89453 -7.03125 C 6.89453 -6.51367 7.28516 -6.23047 7.83203 -6.23047 L 10.8789 -6.23047 L 10.8789 -3.33984 C 10.8789 -2.79297 11.1719 -2.41211 11.6895 -2.41211 Z"/>
  </g>
  <g id="" transform="matrix(1 0 0 1 304.924 1933)">
   <path d="M 14.9707 5.67383 C 21.9336 5.67383 27.6953 -0.078125 27.6953 -7.04102 C 27.6953 -14.0039 21.9238 -19.7559 14.9609 -19.7559 C 8.00781 -19.7559 2.25586 -14.0039 2.25586 -7.04102 C 2.25586 -0.078125 8.01758 5.67383 14.9707 5.67383 Z M 14.9707 3.85742 C 8.93555 3.85742 4.08203 -1.00586 4.08203 -7.04102 C 4.08203 -13.0762 8.92578 -17.9395 14.9609 -17.9395 C 21.0059 -17.9395 25.8594 -13.0762 25.8691 -7.04102 C 25.8789 -1.00586 21.0156 3.85742 14.9707 3.85742 Z M 14.9512 -1.06445 C 15.5176 -1.06445 15.8691 -1.45508 15.8691 -2.06055 L 15.8691 -6.13281 L 20.1074 -6.13281 C 20.6934 -6.13281 21.1133 -6.46484 21.1133 -7.02148 C 21.1133 -7.59766 20.7227 -7.93945 20.1074 -7.93945 L 15.8691 -7.93945 L 15.8691 -12.1875 C 15.8691 -12.8027 15.5176 -13.1934 14.9512 -13.1934 C 14.3848 -13.1934 14.0625 -12.7832 14.0625 -12.1875 L 14.0625 -7.93945 L 9.83398 -7.93945 C 9.21875 -7.93945 8.80859 -7.59766 8.80859 -7.02148 C 8.80859 -6.46484 9.23828 -6.13281 9.83398 -6.13281 L 14.0625 -6.13281 L 14.0625 -2.06055 C 14.0625 -1.47461 14.3848 -1.06445 14.9512 -1.06445 Z"/>
  </g>
  <text style="stroke:none;fill:black;font-family:-apple-system,&quot;SF Pro Display&quot;,&quot;SF Pro Text&quot;,Helvetica,sans-serif;font-weight:bold;" transform="matrix(1 0 0 1 263 1953)">Design Variations</text>
  <text style="stroke:none;fill:black;font-family:-apple-system,&quot;SF Pro Display&quot;,&quot;SF Pro Text&quot;,Helvetica,sans-serif;" transform="matrix(1 0 0 1 263 1971)">Symbols are supported in up to nine weights and three scales.</text>
  <text style="stroke:none;fill:black;font-family:-apple-system,&quot;SF Pro Display&quot;,&quot;SF Pro Text&quot;,Helvetica,sans-serif;" transform="matrix(1 0 0 1 263 1989)">For optimal layout with text and other symbols, vertically align</text>
  <text style="stroke:none;fill:black;font-family:-apple-system,&quot;SF Pro Display&quot;,&quot;SF Pro Text&quot;,Helvetica,sans-serif;" transform="matrix(1 0 0 1 263 2007)">symbols with the adjacent text.</text>
  <rect height="14" id="" style="fill:#00AEEF;stroke:none;opacity:0.4;" width="3" x="776" y="1919"/>
  <g id="" transform="matrix(1 0 0 1 779 1933)">
   <path d="M 10.5273 0 L 12.373 0 L 7.17773 -14.0918 L 5.43945 -14.0918 L 0.244141 0 L 2.08984 0 L 3.50586 -4.0332 L 9.11133 -4.0332 Z M 6.2793 -11.9531 L 6.33789 -11.9531 L 8.59375 -5.52734 L 4.02344 -5.52734 Z"/>
  </g>
  <rect height="14" id="" style="fill:#00AEEF;stroke:none;opacity:0.4;" width="3" x="791.617" y="1919"/>
  <text style="stroke:none;fill:black;font-family:-apple-system,&quot;SF Pro Display&quot;,&quot;SF Pro Text&quot;,Helvetica,sans-serif;font-weight:bold;" transform="matrix(1 0 0 1 776 1953)">Margins</text>
  <text style="stroke:none;fill:black;font-family:-apple-system,&quot;SF Pro Display&quot;,&quot;SF Pro Text&quot;,Helvetica,sans-serif;" transform="matrix(1 0 0 1 776 1971)">Leading and trailing margins on the left and right side of each symbol</text>
  <text style="stroke:none;fill:black;font-family:-apple-system,&quot;SF Pro Display&quot;,&quot;SF Pro Text&quot;,Helvetica,sans-serif;" transform="matrix(1 0 0 1 776 1989)">can be adjusted by modifying the width of the blue rectangles.</text>
  <text style="stroke:none;fill:black;font-family:-apple-system,&quot;SF Pro Display&quot;,&quot;SF Pro Text&quot;,Helvetica,sans-serif;" transform="matrix(1 0 0 1 776 2007)">Modifications are automatically applied proportionally to all</text>
  <text style="stroke:none;fill:black;font-family:-apple-system,&quot;SF Pro Display&quot;,&quot;SF Pro Text&quot;,Helvetica,sans-serif;" transform="matrix(1 0 0 1 776 2025)">scales and weights.</text>
  <g id="" transform="matrix(1 0 0 1 1289 1933)">
   <path d="M 2.83203 3.11523 L 4.375 4.6582 C 5.22461 5.48828 6.19141 5.41992 7.06055 4.46289 L 17.2754 -6.66016 C 17.7051 -6.36719 18.0957 -6.37695 18.5645 -6.47461 L 19.6094 -6.68945 L 20.3027 -5.99609 L 20.2539 -5.47852 C 20.1855 -4.95117 20.3516 -4.53125 20.8496 -4.0332 L 21.6602 -3.22266 C 22.168 -2.71484 22.8223 -2.68555 23.3008 -3.16406 L 26.5527 -6.41602 C 27.0312 -6.89453 27.0117 -7.54883 26.5039 -8.05664 L 25.6836 -8.87695 C 25.1855 -9.375 24.7754 -9.55078 24.2383 -9.47266 L 23.7109 -9.41406 L 23.0566 -10.0781 L 23.3398 -11.2207 C 23.4863 -11.7871 23.3398 -12.2559 22.7148 -12.8613 L 20.3027 -15.2539 C 16.7578 -18.7793 12.2266 -18.6719 9.11133 -15.5371 C 8.69141 -15.1074 8.64258 -14.5215 8.91602 -14.0918 C 9.15039 -13.7207 9.62891 -13.4961 10.2734 -13.6621 C 11.7871 -14.043 13.3008 -13.9258 14.7852 -12.9199 L 14.1602 -11.3379 C 13.9258 -10.752 13.9453 -10.2734 14.1797 -9.83398 L 3.01758 0.439453 C 2.08008 1.30859 1.97266 2.25586 2.83203 3.11523 Z M 10.6738 -15.1465 C 13.3398 -17.1387 16.6504 -16.8262 19.0527 -14.4141 L 21.6797 -11.8066 C 21.9141 -11.5723 21.9434 -11.3867 21.8848 -11.0938 L 21.5039 -9.53125 L 23.0762 -7.95898 L 24.043 -8.04688 C 24.3262 -8.07617 24.4141 -8.05664 24.6387 -7.83203 L 25.2637 -7.20703 L 22.5098 -4.46289 L 21.8848 -5.07812 C 21.6602 -5.30273 21.6406 -5.40039 21.6699 -5.68359 L 21.7578 -6.64062 L 20.1953 -8.20312 L 18.5742 -7.89062 C 18.291 -7.83203 18.1445 -7.83203 17.9102 -8.07617 L 15.7324 -10.2539 C 15.5078 -10.4883 15.4785 -10.625 15.6055 -10.9473 L 16.5527 -13.2227 C 14.9512 -14.7559 12.8418 -15.6055 10.8008 -14.9512 C 10.7129 -14.9219 10.6445 -14.9414 10.6152 -14.9805 C 10.5859 -15.0293 10.5859 -15.0781 10.6738 -15.1465 Z M 4.10156 2.41211 C 3.61328 1.91406 3.78906 1.61133 4.12109 1.30859 L 15.0781 -8.80859 L 16.3086 -7.57812 L 6.15234 3.34961 C 5.84961 3.68164 5.46875 3.7793 5.06836 3.37891 Z"/>
  </g>
  <text style="stroke:none;fill:black;font-family:-apple-system,&quot;SF Pro Display&quot;,&quot;SF Pro Text&quot;,Helvetica,sans-serif;font-weight:bold;" transform="matrix(1 0 0 1 1289 1953)">Exporting</text>
  <text style="stroke:none;fill:black;font-family:-apple-system,&quot;SF Pro Display&quot;,&quot;SF Pro Text&quot;,Helvetica,sans-serif;" transform="matrix(1 0 0 1 1289 1971)">Symbols should be outlined when exporting to ensure the</text>
  <text style="stroke:none;fill:black;font-family:-apple-system,&quot;SF Pro Display&quot;,&quot;SF Pro Text&quot;,Helvetica,sans-serif;" transform="matrix(1 0 0 1 1289 1989)">design is preserved when submitting to Xcode.</text>
  <text id="template-version" style="stroke:none;fill:black;font-family:-apple-system,&quot;SF Pro Display&quot;,&quot;SF Pro Text&quot;,Helvetica,sans-serif;text-anchor:end;" transform="matrix(1 0 0 1 3036 1933)">Template v.1.0</text>
  <text style="stroke:none;fill:black;font-family:-apple-system,&quot;SF Pro Display&quot;,&quot;SF Pro Text&quot;,Helvetica,sans-serif;text-anchor:end;" transform="matrix(1 0 0 1 3036 1951)">Generated from folder.fill</text>
  <text style="stroke:none;fill:black;font-family:-apple-system,&quot;SF Pro Display&quot;,&quot;SF Pro Text&quot;,Helvetica,sans-serif;text-anchor:end;" transform="matrix(1 0 0 1 3036 1969)">Typeset at 100 points</text>
  <text style="stroke:none;fill:black;font-family:-apple-system,&quot;SF Pro Display&quot;,&quot;SF Pro Text&quot;,Helvetica,sans-serif;" transform="matrix(1 0 0 1 263 726)">Small</text>
  <text style="stroke:none;fill:black;font-family:-apple-system,&quot;SF Pro Display&quot;,&quot;SF Pro Text&quot;,Helvetica,sans-serif;" transform="matrix(1 0 0 1 263 1156)">Medium</text>
  <text style="stroke:none;fill:black;font-family:-apple-system,&quot;SF Pro Display&quot;,&quot;SF Pro Text&quot;,Helvetica,sans-serif;" transform="matrix(1 0 0 1 263 1586)">Large</text>
 </g>
 <g id="Guides">
  <g id="H-reference" style="fill:#27AAE1;stroke:none;" transform="matrix(1 0 0 1 339 696)">
   <path d="M 54.9316 0 L 57.666 0 L 30.5664 -70.459 L 28.0762 -70.459 L 0.976562 0 L 3.66211 0 L 12.9395 -24.4629 L 45.7031 -24.4629 Z M 29.1992 -67.0898 L 29.4434 -67.0898 L 44.8242 -26.709 L 13.8184 -26.709 Z"/>
  </g>
  <line id="Baseline-S" style="fill:none;stroke:#27AAE1;opacity:1;stroke-width:0.577;" x1="263" x2="3036" y1="696" y2="696"/>
  <line id="Capline-S" style="fill:none;stroke:#27AAE1;opacity:1;stroke-width:0.577;" x1="263" x2="3036" y1="625.541" y2="625.541"/>
  <g id="H-reference" style="fill:#27AAE1;stroke:none;" transform="matrix(1 0 0 1 339 1126)">
   <path d="M 54.9316 0 L 57.666 0 L 30.5664 -70.459 L 28.0762 -70.459 L 0.976562 0 L 3.66211 0 L 12.9395 -24.4629 L 45.7031 -24.4629 Z M 29.1992 -67.0898 L 29.4434 -67.0898 L 44.8242 -26.709 L 13.8184 -26.709 Z"/>
  </g>
  <line id="Baseline-M" style="fill:none;stroke:#27AAE1;opacity:1;stroke-width:0.577;" x1="263" x2="3036" y1="1126" y2="1126"/>
  <line id="Capline-M" style="fill:none;stroke:#27AAE1;opacity:1;stroke-width:0.577;" x1="263" x2="3036" y1="1055.54" y2="1055.54"/>
  <g id="H-reference" style="fill:#27AAE1;stroke:none;" transform="matrix(1 0 0 1 339 1556)">
   <path d="M 54.9316 0 L 57.666 0 L 30.5664 -70.459 L 28.0762 -70.459 L 0.976562 0 L 3.66211 0 L 12.9395 -24.4629 L 45.7031 -24.4629 Z M 29.1992 -67.0898 L 29.4434 -67.0898 L 44.8242 -26.709 L 13.8184 -26.709 Z"/>
  </g>
  <line id="Baseline-L" style="fill:none;stroke:#27AAE1;opacity:1;stroke-width:0.577;" x1="263" x2="3036" y1="1556" y2="1556"/>
  <line id="Capline-L" style="fill:none;stroke:#27AAE1;opacity:1;stroke-width:0.577;" x1="263" x2="3036" y1="1485.54" y2="1485.54"/>
  <rect height="119.336" id="left-margin" style="fill:#00AEEF;stroke:none;opacity:0.4;" width="12.4512" x="1381.34" y="1030.79"/>
  <rect height="119.336" id="right-margin" style="fill:#00AEEF;stroke:none;opacity:0.4;" width="12.4512" x="1505.9" y="1030.79"/>
 </g>
 <g id="Symbols">
  <g id="Black-L" transform="matrix(1 0 0 1 2841.94 1556)">
   <path d="M 142.92 -87.793 L 89.8926 -87.793 C 84.7656 -87.793 81.543 -88.9648 77.0996 -92.2852 L 74.2188 -94.4336 C 68.9453 -98.3887 65.4785 -99.7559 57.666 -99.7559 L 39.4043 -99.7559 C 25.1953 -99.7559 16.0645 -90.918 16.0645 -75.5859 L 16.0645 -55.0781 L 166.846 -55.0781 L 166.846 -63.9648 C 166.846 -79.1504 158.154 -87.793 142.92 -87.793 Z M 16.0645 -43.7012 L 16.0645 2.68555 C 16.0645 17.8711 24.7559 26.5137 39.9902 26.5137 L 143.604 26.5137 C 158.154 26.5137 166.846 17.8711 166.846 2.68555 L 166.846 -43.7012 Z"/>
  </g>
  <g id="Heavy-L" transform="matrix(1 0 0 1 2546.11 1556)">
   <path d="M 142.334 -86.377 L 87.3047 -86.377 C 82.3242 -86.377 79.248 -87.5 75.0977 -90.6738 L 72.0215 -93.1152 C 66.9922 -96.9727 63.623 -98.2422 56.2012 -98.2422 L 37.8418 -98.2422 C 24.4141 -98.2422 16.0645 -90.0879 16.0645 -75.5859 L 16.0645 -55.7129 L 165.088 -55.7129 L 165.088 -63.7207 C 165.088 -78.2715 156.982 -86.377 142.334 -86.377 Z M 38.8184 25.4883 L 143.213 25.4883 C 156.982 25.4883 165.088 17.4316 165.088 2.88086 L 165.088 -45.166 L 16.0645 -45.166 L 16.0645 2.88086 C 16.0645 17.4316 24.2188 25.4883 38.8184 25.4883 Z"/>
  </g>
  <g id="Bold-L" transform="matrix(1 0 0 1 2250.35 1556)">
   <path d="M 141.748 -84.7656 L 84.4238 -84.7656 C 79.541 -84.7656 76.709 -85.8398 72.8516 -88.916 L 69.5801 -91.6016 C 64.8438 -95.3613 61.5723 -96.582 54.541 -96.582 L 36.0352 -96.582 C 23.584 -96.582 16.0645 -89.1602 16.0645 -75.5371 L 16.0645 -56.3965 L 163.184 -56.3965 L 163.184 -63.4766 C 163.184 -77.2949 155.615 -84.7656 141.748 -84.7656 Z M 37.5 24.3652 L 142.773 24.3652 C 155.664 24.3652 163.184 16.8945 163.184 3.07617 L 163.184 -46.7773 L 16.0645 -46.7773 L 16.0645 3.07617 C 16.0645 16.8945 23.6328 24.3652 37.5 24.3652 Z"/>
  </g>
  <g id="Semibold-L" transform="matrix(1 0 0 1 1954.3 1556)">
   <path d="M 141.309 -83.6914 L 82.4219 -83.6914 C 77.6367 -83.6914 74.9023 -84.7168 71.2891 -87.6953 L 67.8711 -90.5273 C 63.3301 -94.2383 60.1562 -95.4102 53.418 -95.4102 L 34.8145 -95.4102 C 23.0469 -95.4102 16.0645 -88.5742 16.0645 -75.5371 L 16.0645 -56.8359 L 161.865 -56.8359 L 161.865 -63.2812 C 161.865 -76.6113 154.736 -83.6914 141.309 -83.6914 Z M 36.6211 23.584 L 142.529 23.584 C 154.785 23.584 161.865 16.5039 161.865 3.17383 L 161.865 -47.9004 L 16.0645 -47.9004 L 16.0645 3.17383 C 16.0645 16.5527 23.1934 23.584 36.6211 23.584 Z"/>
  </g>
  <g id="Medium-L" transform="matrix(1 0 0 1 1658.1 1556)">
   <path d="M 140.967 -82.8613 L 80.9082 -82.8613 C 76.2207 -82.8613 73.584 -83.8379 70.1172 -86.7676 L 66.5527 -89.7461 C 62.207 -93.4082 59.1309 -94.5312 52.5879 -94.5312 L 33.8867 -94.5312 C 22.6074 -94.5312 16.0645 -88.0859 16.0645 -75.4883 L 16.0645 -57.1777 L 160.84 -57.1777 L 160.84 -63.1348 C 160.84 -76.0742 154.004 -82.8613 140.967 -82.8613 Z M 35.9375 22.998 L 142.285 22.998 C 154.053 22.998 160.84 16.2109 160.84 3.27148 L 160.84 -48.7305 L 16.0645 -48.7305 L 16.0645 3.27148 C 16.0645 16.2598 22.9004 22.998 35.9375 22.998 Z"/>
  </g>
  <g id="Regular-L" transform="matrix(1 0 0 1 1362.05 1556)">
   <path d="M 140.527 -81.7871 L 78.9551 -81.7871 C 74.3652 -81.7871 71.8262 -82.7148 68.6035 -85.5469 L 64.8926 -88.7207 C 60.7422 -92.2852 57.7148 -93.3594 51.4648 -93.3594 L 32.7148 -93.3594 C 22.0215 -93.3594 16.0645 -87.4512 16.0645 -75.4883 L 16.0645 -57.666 L 159.521 -57.666 L 159.521 -62.9883 C 159.521 -75.3906 153.125 -81.7871 140.527 -81.7871 Z M 35.0586 22.2168 L 141.992 22.2168 C 153.174 22.2168 159.521 15.8691 159.521 3.41797 L 159.521 -49.8535 L 16.0645 -49.8535 L 16.0645 3.41797 C 16.0645 15.918 22.4609 22.2168 35.0586 22.2168 Z"/>
  </g>
  <g id="Light-L" transform="matrix(1 0 0 1 1066.15 1556)">
   <path d="M 139.941 -80.7617 L 77.9785 -80.7617 C 72.9492 -80.7617 70.459 -81.5918 67.0898 -84.6191 L 63.5742 -87.7441 C 59.4727 -91.4551 56.7383 -92.3828 50.3906 -92.3828 L 31.6895 -92.3828 C 21.5332 -92.3828 16.0645 -86.9629 16.0645 -76.0254 L 16.0645 -56.7871 L 157.91 -56.7871 L 157.91 -62.8906 C 157.91 -74.6094 151.807 -80.7617 139.941 -80.7617 Z M 34.0332 21.4355 L 140.869 21.4355 C 151.807 21.4355 157.91 15.2344 157.91 3.56445 L 157.91 -50.0977 L 16.0645 -50.0977 L 16.0645 3.56445 C 16.0645 15.3809 22.168 21.4355 34.0332 21.4355 Z"/>
  </g>
  <g id="Thin-L" transform="matrix(1 0 0 1 770.509 1556)">
   <path d="M 139.16 -79.3945 L 76.709 -79.3945 C 71.0938 -79.3945 68.6523 -80.0781 65.1367 -83.3496 L 61.8652 -86.4258 C 57.7637 -90.332 55.4688 -91.1133 49.0234 -91.1133 L 30.3223 -91.1133 C 20.8496 -91.1133 16.0645 -86.3281 16.0645 -76.7578 L 16.0645 -55.6641 L 155.762 -55.6641 L 155.762 -62.793 C 155.762 -73.5352 150.049 -79.3945 139.16 -79.3945 Z M 32.666 20.3613 L 139.355 20.3613 C 150.049 20.3613 155.762 14.4531 155.762 3.75977 L 155.762 -50.4395 L 16.0645 -50.4395 L 16.0645 3.75977 C 16.0645 14.6484 21.7773 20.3613 32.666 20.3613 Z"/>
  </g>
  <g id="Ultralight-L" transform="matrix(1 0 0 1 474.36 1556)">
   <path d="M 138.77 -78.6621 L 76.0742 -78.6621 C 70.1172 -78.6621 67.7246 -79.2969 64.1602 -82.7148 L 60.9863 -85.791 C 56.8848 -89.7461 54.834 -90.4297 48.291 -90.4297 L 29.6387 -90.4297 C 20.459 -90.4297 16.0645 -86.0352 16.0645 -77.0996 L 16.0645 -55.0781 L 154.639 -55.0781 L 154.639 -62.7441 C 154.639 -72.9492 149.121 -78.6621 138.77 -78.6621 Z M 31.9824 19.7754 L 138.574 19.7754 C 149.121 19.7754 154.639 14.0625 154.639 3.85742 L 154.639 -50.6348 L 16.0645 -50.6348 L 16.0645 3.85742 C 16.0645 14.2578 21.582 19.7754 31.9824 19.7754 Z"/>
  </g>
  <g id="Black-M" transform="matrix(1 0 0 1 2861.82 1126)">
   <path d="M 111.23 -77.2949 L 72.6562 -77.2949 C 68.2617 -77.2949 65.5762 -78.2715 61.6699 -81.0547 L 59.8145 -82.4219 C 55.3711 -85.6934 52.6855 -86.7188 46.0938 -86.7188 L 32.1289 -86.7188 C 20.2148 -86.7188 12.4512 -79.1992 12.4512 -66.8457 L 12.4512 -49.3652 L 130.713 -49.3652 L 130.713 -57.7637 C 130.713 -70.0195 123.438 -77.2949 111.23 -77.2949 Z M 31.9824 13.5742 L 111.182 13.5742 C 123.438 13.5742 130.713 6.29883 130.713 -5.95703 L 130.713 -39.9902 L 12.4512 -39.9902 L 12.4512 -5.95703 C 12.4512 6.29883 19.7266 13.5742 31.9824 13.5742 Z"/>
  </g>
  <g id="Heavy-M" transform="matrix(1 0 0 1 2565.81 1126)">
   <path d="M 110.742 -76.0254 L 70.0684 -76.0254 C 65.918 -76.0254 63.4277 -76.9531 59.8633 -79.5898 L 57.7637 -81.2012 C 53.5645 -84.3262 50.9277 -85.3516 44.7754 -85.3516 L 30.6641 -85.3516 C 19.5801 -85.3516 12.4512 -78.4668 12.4512 -66.6504 L 12.4512 -50.2441 L 129.297 -50.2441 L 129.297 -57.5195 C 129.297 -69.2871 122.51 -76.0254 110.742 -76.0254 Z M 31.0059 12.6465 L 111.035 12.6465 C 122.51 12.6465 129.297 5.9082 129.297 -5.81055 L 129.297 -41.5039 L 12.4512 -41.5039 L 12.4512 -5.81055 C 12.4512 5.9082 19.2383 12.6465 31.0059 12.6465 Z"/>
  </g>
  <g id="Bold-M" transform="matrix(1 0 0 1 2269.93 1126)">
   <path d="M 110.205 -74.6094 L 67.1875 -74.6094 C 63.3301 -74.6094 60.9863 -75.4883 57.8125 -77.9297 L 55.4199 -79.834 C 51.5625 -82.8125 48.9746 -83.7891 43.2617 -83.7891 L 29.0527 -83.7891 C 18.7988 -83.7891 12.4512 -77.5879 12.4512 -66.4551 L 12.4512 -51.2207 L 127.637 -51.2207 L 127.637 -57.2754 C 127.637 -68.4082 121.436 -74.6094 110.205 -74.6094 Z M 29.8828 11.6699 L 110.938 11.6699 C 121.484 11.6699 127.637 5.46875 127.637 -5.66406 L 127.637 -43.2129 L 12.4512 -43.2129 L 12.4512 -5.66406 C 12.4512 5.51758 18.6523 11.6699 29.8828 11.6699 Z"/>
  </g>
  <g id="Semibold-M" transform="matrix(1 0 0 1 1973.78 1126)">
   <path d="M 109.863 -73.6328 L 65.1855 -73.6328 C 61.5234 -73.6328 59.3262 -74.4629 56.4453 -76.7578 L 53.8086 -78.9062 C 50.1953 -81.7871 47.6562 -82.7148 42.2852 -82.7148 L 27.8809 -82.7148 C 18.2617 -82.7148 12.4512 -77.002 12.4512 -66.3574 L 12.4512 -51.9043 L 126.514 -51.9043 L 126.514 -57.0801 C 126.514 -67.8223 120.703 -73.6328 109.863 -73.6328 Z M 29.1016 10.9863 L 110.84 10.9863 C 120.752 10.9863 126.514 5.17578 126.514 -5.56641 L 126.514 -44.3848 L 12.4512 -44.3848 L 12.4512 -5.56641 C 12.4512 5.22461 18.2617 10.9863 29.1016 10.9863 Z"/>
  </g>
  <g id="Medium-M" transform="matrix(1 0 0 1 1677.49 1126)">
   <path d="M 109.619 -72.8516 L 63.7207 -72.8516 C 60.2051 -72.8516 58.1055 -73.6816 55.3711 -75.9277 L 52.5879 -78.1738 C 49.1699 -80.957 46.6309 -81.9336 41.5039 -81.9336 L 27.0508 -81.9336 C 17.8711 -81.9336 12.4512 -76.5625 12.4512 -66.2598 L 12.4512 -52.3926 L 125.684 -52.3926 L 125.684 -56.9336 C 125.684 -67.3828 120.166 -72.8516 109.619 -72.8516 Z M 28.5156 10.4492 L 110.791 10.4492 C 120.166 10.4492 125.684 4.98047 125.684 -5.46875 L 125.684 -45.2637 L 12.4512 -45.2637 L 12.4512 -5.46875 C 12.4512 4.98047 17.9688 10.4492 28.5156 10.4492 Z"/>
  </g>
  <g id="Regular-M" transform="matrix(1 0 0 1 1381.34 1126)">
   <path d="M 109.229 -71.875 L 61.7188 -71.875 C 58.3984 -71.875 56.4453 -72.7051 54.0039 -74.7559 L 51.0254 -77.2461 C 47.8027 -79.9316 45.2637 -80.8594 40.4785 -80.8594 L 25.9277 -80.8594 C 17.3828 -80.8594 12.4512 -75.9766 12.4512 -66.1133 L 12.4512 -53.0762 L 124.561 -53.0762 L 124.561 -56.7871 C 124.561 -66.8457 119.434 -71.875 109.229 -71.875 Z M 27.7832 9.76562 L 110.693 9.76562 C 119.482 9.76562 124.561 4.6875 124.561 -5.37109 L 124.561 -46.4355 L 12.4512 -46.4355 L 12.4512 -5.37109 C 12.4512 4.73633 17.5781 9.76562 27.7832 9.76562 Z"/>
  </g>
  <g id="Light-M" transform="matrix(1 0 0 1 1085.36 1126)">
   <path d="M 108.691 -70.9473 L 60.8887 -70.9473 C 57.1777 -70.9473 55.2246 -71.6797 52.6855 -73.9258 L 49.8535 -76.3672 C 46.6309 -79.1992 44.4336 -79.9805 39.5508 -79.9805 L 25 -79.9805 C 16.8945 -79.9805 12.4512 -75.5371 12.4512 -66.6016 L 12.4512 -52.3438 L 123.096 -52.3438 L 123.096 -56.6895 C 123.096 -66.1133 118.213 -70.9473 108.691 -70.9473 Z M 26.8555 9.0332 L 109.668 9.0332 C 118.262 9.0332 123.096 4.15039 123.096 -5.22461 L 123.096 -46.6309 L 12.4512 -46.6309 L 12.4512 -5.22461 C 12.4512 4.19922 17.334 9.0332 26.8555 9.0332 Z"/>
  </g>
  <g id="Thin-M" transform="matrix(1 0 0 1 789.601 1126)">
   <path d="M 108.008 -69.7266 L 59.7168 -69.7266 C 55.4688 -69.7266 53.6133 -70.3125 50.9277 -72.8027 L 48.3398 -75.1953 C 45.1172 -78.1738 43.2617 -78.8086 38.2812 -78.8086 L 23.7793 -78.8086 C 16.3086 -78.8086 12.4512 -75 12.4512 -67.2363 L 12.4512 -51.3184 L 121.191 -51.3184 L 121.191 -56.6406 C 121.191 -65.1367 116.65 -69.7266 108.008 -69.7266 Z M 25.6348 8.05664 L 108.301 8.05664 C 116.65 8.05664 121.191 3.4668 121.191 -5.0293 L 121.191 -46.9727 L 12.4512 -46.9727 L 12.4512 -5.0293 C 12.4512 3.56445 16.9922 8.05664 25.6348 8.05664 Z"/>
  </g>
  <g id="Ultralight-M" transform="matrix(1 0 0 1 493.378 1126)">
   <path d="M 107.666 -69.0918 L 59.1309 -69.0918 C 54.6387 -69.0918 52.7832 -69.6289 50 -72.2168 L 47.5586 -74.6094 C 44.3848 -77.6855 42.6758 -78.2227 37.6465 -78.2227 L 23.1934 -78.2227 C 15.9668 -78.2227 12.4512 -74.707 12.4512 -67.5781 L 12.4512 -50.7812 L 120.215 -50.7812 L 120.215 -56.5918 C 120.215 -64.6484 115.82 -69.0918 107.666 -69.0918 Z M 25 7.56836 L 107.617 7.56836 C 115.82 7.56836 120.215 3.125 120.215 -4.98047 L 120.215 -47.1191 L 12.4512 -47.1191 L 12.4512 -4.98047 C 12.4512 3.22266 16.7969 7.56836 25 7.56836 Z"/>
  </g>
  <g id="Black-S" transform="matrix(1 0 0 1 2877.35 696)">
   <path d="M 87.1094 -68.1152 L 56.7383 -68.1152 C 53.3203 -68.1152 51.2207 -68.8477 48.1934 -71.0449 L 46.7285 -72.1191 C 43.2617 -74.6582 41.1621 -75.4883 36.0352 -75.4883 L 25.0977 -75.4883 C 15.8203 -75.4883 9.76562 -69.6289 9.76562 -59.9609 L 9.76562 -46.3867 L 102.344 -46.3867 L 102.344 -52.8809 C 102.344 -62.4512 96.6797 -68.1152 87.1094 -68.1152 Z M 25 2.92969 L 87.1094 2.92969 C 96.6797 2.92969 102.344 -2.73438 102.344 -12.3047 L 102.344 -39.0625 L 9.76562 -39.0625 L 9.76562 -12.3047 C 9.76562 -2.73438 15.4297 2.92969 25 2.92969 Z"/>
  </g>
  <g id="Heavy-S" transform="matrix(1 0 0 1 2581.12 696)">
   <path d="M 86.8164 -67.2363 L 54.8828 -67.2363 C 51.6602 -67.2363 49.707 -67.9688 46.9727 -70.0195 L 45.2637 -71.2891 C 42.041 -73.7305 39.9414 -74.5117 35.1074 -74.5117 L 24.0723 -74.5117 C 15.332 -74.5117 9.76562 -69.0918 9.76562 -59.7656 L 9.76562 -47.1191 L 101.367 -47.1191 L 101.367 -52.6855 C 101.367 -61.9629 96.0938 -67.2363 86.8164 -67.2363 Z M 24.3652 2.34375 L 87.1582 2.34375 C 96.0938 2.34375 101.367 -2.97852 101.367 -12.207 L 101.367 -40.1855 L 9.76562 -40.1855 L 9.76562 -12.207 C 9.76562 -2.97852 15.0879 2.34375 24.3652 2.34375 Z"/>
  </g>
  <g id="Bold-S" transform="matrix(1 0 0 1 2284.92 696)">
   <path d="M 86.4746 -66.2598 L 52.7832 -66.2598 C 49.8535 -66.2598 48.0469 -66.9434 45.5566 -68.8477 L 43.6523 -70.3613 C 40.625 -72.6562 38.5254 -73.4375 34.1309 -73.4375 L 22.9492 -73.4375 C 14.8438 -73.4375 9.76562 -68.5059 9.76562 -59.5703 L 9.76562 -47.998 L 100.342 -47.998 L 100.342 -52.4902 C 100.342 -61.377 95.4102 -66.2598 86.4746 -66.2598 Z M 23.6328 1.66016 L 87.1582 1.66016 C 95.459 1.66016 100.342 -3.22266 100.342 -12.1094 L 100.342 -41.4551 L 9.76562 -41.4551 L 9.76562 -12.1094 C 9.76562 -3.22266 14.6973 1.66016 23.6328 1.66016 Z"/>
  </g>
  <g id="Semibold-S" transform="matrix(1 0 0 1 1988.58 696)">
   <path d="M 86.2305 -65.5762 L 51.3184 -65.5762 C 48.584 -65.5762 46.875 -66.2598 44.6289 -68.0176 L 42.5293 -69.6777 C 39.6973 -71.9238 37.5977 -72.7051 33.3984 -72.7051 L 22.1191 -72.7051 C 14.4531 -72.7051 9.76562 -68.0664 9.76562 -59.4238 L 9.76562 -48.584 L 99.6094 -48.584 L 99.6094 -52.3926 C 99.6094 -60.9863 94.9707 -65.5762 86.2305 -65.5762 Z M 23.0957 1.17188 L 87.207 1.17188 C 94.9707 1.17188 99.6094 -3.36914 99.6094 -12.0117 L 99.6094 -42.334 L 9.76562 -42.334 L 9.76562 -12.0117 C 9.76562 -3.36914 14.4043 1.17188 23.0957 1.17188 Z"/>
  </g>
  <g id="Medium-S" transform="matrix(1 0 0 1 1692.16 696)">
   <path d="M 86.084 -65.0879 L 50.2441 -65.0879 C 47.6562 -65.0879 45.9961 -65.7715 43.8965 -67.4316 L 41.6504 -69.1895 C 38.9648 -71.3379 36.8652 -72.1191 32.8613 -72.1191 L 21.5332 -72.1191 C 14.209 -72.1191 9.76562 -67.7734 9.76562 -59.3262 L 9.76562 -49.0234 L 99.0234 -49.0234 L 99.0234 -52.2949 C 99.0234 -60.6934 94.6289 -65.0879 86.084 -65.0879 Z M 22.7051 0.830078 L 87.207 0.830078 C 94.6289 0.830078 99.0234 -3.51562 99.0234 -11.9629 L 99.0234 -43.0176 L 9.76562 -43.0176 L 9.76562 -11.9629 C 9.76562 -3.51562 14.209 0.830078 22.7051 0.830078 Z"/>
  </g>
  <g id="Regular-S" transform="matrix(1 0 0 1 1395.82 696)">
   <path d="M 85.8398 -64.4043 L 48.7793 -64.4043 C 46.3867 -64.4043 44.8242 -65.0879 42.9688 -66.6016 L 40.5273 -68.5547 C 37.9883 -70.6543 35.8887 -71.3867 32.1777 -71.3867 L 20.752 -71.3867 C 13.8672 -71.3867 9.76562 -67.3828 9.76562 -59.2285 L 9.76562 -49.6094 L 98.291 -49.6094 L 98.291 -52.1484 C 98.291 -60.3516 94.1406 -64.4043 85.8398 -64.4043 Z M 22.2168 0.390625 L 87.2559 0.390625 C 94.1895 0.390625 98.291 -3.71094 98.291 -11.9141 L 98.291 -43.8965 L 9.76562 -43.8965 L 9.76562 -11.9141 C 9.76562 -3.71094 13.916 0.390625 22.2168 0.390625 Z"/>
  </g>
  <g id="Light-S" transform="matrix(1 0 0 1 1099.74 696)">
   <path d="M 85.4004 -63.5742 L 48.0469 -63.5742 C 45.2637 -63.5742 43.75 -64.1602 41.7969 -65.8691 L 39.502 -67.7734 C 37.0117 -69.9707 35.1562 -70.6055 31.3477 -70.6055 L 19.9707 -70.6055 C 13.4277 -70.6055 9.76562 -66.9922 9.76562 -59.6191 L 9.76562 -48.9258 L 97.0215 -48.9258 L 97.0215 -52.0996 C 97.0215 -59.668 93.1152 -63.5742 85.4004 -63.5742 Z M 21.3867 -0.292969 L 86.3281 -0.292969 C 93.1152 -0.292969 97.0215 -4.15039 97.0215 -11.7676 L 97.0215 -44.0918 L 9.76562 -44.0918 L 9.76562 -11.7676 C 9.76562 -4.15039 13.6719 -0.292969 21.3867 -0.292969 Z"/>
  </g>
  <g id="Thin-S" transform="matrix(1 0 0 1 803.883 696)">
   <path d="M 84.7656 -62.5 L 47.0215 -62.5 C 43.7988 -62.5 42.334 -62.9883 40.2344 -64.8926 L 38.1836 -66.748 C 35.6445 -69.0918 34.1309 -69.5801 30.2246 -69.5801 L 18.8965 -69.5801 C 12.8906 -69.5801 9.76562 -66.5039 9.76562 -60.2051 L 9.76562 -48.0469 L 95.3125 -48.0469 L 95.3125 -52.002 C 95.3125 -58.8379 91.6992 -62.5 84.7656 -62.5 Z M 20.3125 -1.12305 L 85.1562 -1.12305 C 91.6992 -1.12305 95.3125 -4.78516 95.3125 -11.6211 L 95.3125 -44.3359 L 9.76562 -44.3359 L 9.76562 -11.6211 C 9.76562 -4.6875 13.3789 -1.12305 20.3125 -1.12305 Z"/>
  </g>
  <g id="Ultralight-S" transform="matrix(1 0 0 1 507.612 696)">
   <path d="M 84.4238 -61.9629 L 46.4844 -61.9629 C 43.0664 -61.9629 41.5527 -62.3535 39.4531 -64.3555 L 37.4512 -66.2109 C 34.9609 -68.6035 33.5938 -69.043 29.6875 -69.043 L 18.3594 -69.043 C 12.5977 -69.043 9.76562 -66.2109 9.76562 -60.498 L 9.76562 -47.5586 L 94.4336 -47.5586 L 94.4336 -51.9531 C 94.4336 -58.3984 90.9668 -61.9629 84.4238 -61.9629 Z M 19.7754 -1.5625 L 84.5215 -1.5625 C 90.9668 -1.5625 94.4336 -5.12695 94.4336 -11.5234 L 94.4336 -44.4824 L 9.76562 -44.4824 L 9.76562 -11.5234 C 9.76562 -5.0293 13.2324 -1.5625 19.7754 -1.5625 Z"/>
  </g>
 </g>
</svg>
