<?xml version="1.0" encoding="UTF-8"?>
<!--Generator: Apple Native CoreSVG 123-->
<!DOCTYPE svg
PUBLIC "-//W3C//DTD SVG 1.1//EN"
       "http://www.w3.org/Graphics/SVG/1.1/DTD/svg11.dtd">
<svg version="1.1" xmlns="http://www.w3.org/2000/svg" xmlns:xlink="http://www.w3.org/1999/xlink" width="3300" height="2200">
 <!--glyph: "uni100440.medium", point size: 100.000000, font version: "Version 15.0d7e11", template writer version: "5"-->
 <g id="Notes">
  <rect height="2200" id="artboard" style="fill:white;opacity:1" width="3300" x="0" y="0"/>
  <line id="" style="fill:none;stroke:black;opacity:1;stroke-width:0.5;" x1="263" x2="3036" y1="292" y2="292"/>
  <text style="stroke:none;fill:black;font-family:-apple-system,&quot;SF Pro Display&quot;,&quot;SF Pro Text&quot;,Helvetica,sans-serif;font-weight:bold;" transform="matrix(1 0 0 1 263 322)">Weight/Scale Variations</text>
  <text style="stroke:none;fill:black;font-family:-apple-system,&quot;SF Pro Display&quot;,&quot;SF Pro Text&quot;,Helvetica,sans-serif;text-anchor:middle;" transform="matrix(1 0 0 1 559.711 322)">Ultralight</text>
  <text style="stroke:none;fill:black;font-family:-apple-system,&quot;SF Pro Display&quot;,&quot;SF Pro Text&quot;,Helvetica,sans-serif;text-anchor:middle;" transform="matrix(1 0 0 1 856.422 322)">Thin</text>
  <text style="stroke:none;fill:black;font-family:-apple-system,&quot;SF Pro Display&quot;,&quot;SF Pro Text&quot;,Helvetica,sans-serif;text-anchor:middle;" transform="matrix(1 0 0 1 1153.13 322)">Light</text>
  <text style="stroke:none;fill:black;font-family:-apple-system,&quot;SF Pro Display&quot;,&quot;SF Pro Text&quot;,Helvetica,sans-serif;text-anchor:middle;" transform="matrix(1 0 0 1 1449.84 322)">Regular</text>
  <text style="stroke:none;fill:black;font-family:-apple-system,&quot;SF Pro Display&quot;,&quot;SF Pro Text&quot;,Helvetica,sans-serif;text-anchor:middle;" transform="matrix(1 0 0 1 1746.56 322)">Medium</text>
  <text style="stroke:none;fill:black;font-family:-apple-system,&quot;SF Pro Display&quot;,&quot;SF Pro Text&quot;,Helvetica,sans-serif;text-anchor:middle;" transform="matrix(1 0 0 1 2043.27 322)">Semibold</text>
  <text style="stroke:none;fill:black;font-family:-apple-system,&quot;SF Pro Display&quot;,&quot;SF Pro Text&quot;,Helvetica,sans-serif;text-anchor:middle;" transform="matrix(1 0 0 1 2339.98 322)">Bold</text>
  <text style="stroke:none;fill:black;font-family:-apple-system,&quot;SF Pro Display&quot;,&quot;SF Pro Text&quot;,Helvetica,sans-serif;text-anchor:middle;" transform="matrix(1 0 0 1 2636.69 322)">Heavy</text>
  <text style="stroke:none;fill:black;font-family:-apple-system,&quot;SF Pro Display&quot;,&quot;SF Pro Text&quot;,Helvetica,sans-serif;text-anchor:middle;" transform="matrix(1 0 0 1 2933.4 322)">Black</text>
  <line id="" style="fill:none;stroke:black;opacity:1;stroke-width:0.5;" x1="263" x2="3036" y1="1903" y2="1903"/>
  <g id="" transform="matrix(1 0 0 1 263 1933)">
   <path d="M 9.24805 0.830078 C 13.5547 0.830078 17.1387 -2.74414 17.1387 -7.05078 C 17.1387 -11.3574 13.5449 -14.9316 9.23828 -14.9316 C 4.94141 -14.9316 1.36719 -11.3574 1.36719 -7.05078 C 1.36719 -2.74414 4.95117 0.830078 9.24805 0.830078 Z M 9.24805 -0.654297 C 5.70312 -0.654297 2.87109 -3.49609 2.87109 -7.05078 C 2.87109 -10.6055 5.69336 -13.4473 9.23828 -13.4473 C 12.793 -13.4473 15.6348 -10.6055 15.6445 -7.05078 C 15.6543 -3.49609 12.8027 -0.654297 9.24805 -0.654297 Z M 9.22852 -3.42773 C 9.69727 -3.42773 9.9707 -3.74023 9.9707 -4.25781 L 9.9707 -6.31836 L 12.1973 -6.31836 C 12.6953 -6.31836 13.0371 -6.57227 13.0371 -7.04102 C 13.0371 -7.51953 12.7148 -7.7832 12.1973 -7.7832 L 9.9707 -7.7832 L 9.9707 -10.0098 C 9.9707 -10.5273 9.69727 -10.8496 9.22852 -10.8496 C 8.75977 -10.8496 8.50586 -10.5078 8.50586 -10.0098 L 8.50586 -7.7832 L 6.29883 -7.7832 C 5.78125 -7.7832 5.44922 -7.51953 5.44922 -7.04102 C 5.44922 -6.57227 5.80078 -6.31836 6.29883 -6.31836 L 8.50586 -6.31836 L 8.50586 -4.25781 C 8.50586 -3.75977 8.75977 -3.42773 9.22852 -3.42773 Z"/>
  </g>
  <g id="" transform="matrix(1 0 0 1 281.506 1933)">
   <path d="M 11.709 2.91016 C 17.1582 2.91016 21.6699 -1.60156 21.6699 -7.05078 C 21.6699 -12.4902 17.1484 -17.0117 11.6992 -17.0117 C 6.25977 -17.0117 1.74805 -12.4902 1.74805 -7.05078 C 1.74805 -1.60156 6.26953 2.91016 11.709 2.91016 Z M 11.709 1.25 C 7.09961 1.25 3.41797 -2.44141 3.41797 -7.05078 C 3.41797 -11.6504 7.08984 -15.3516 11.6992 -15.3516 C 16.3086 -15.3516 20 -11.6504 20.0098 -7.05078 C 20.0195 -2.44141 16.3184 1.25 11.709 1.25 Z M 11.6895 -2.41211 C 12.207 -2.41211 12.5195 -2.77344 12.5195 -3.33984 L 12.5195 -6.23047 L 15.5762 -6.23047 C 16.123 -6.23047 16.5039 -6.51367 16.5039 -7.03125 C 16.5039 -7.55859 16.1426 -7.86133 15.5762 -7.86133 L 12.5195 -7.86133 L 12.5195 -10.9277 C 12.5195 -11.5039 12.207 -11.8555 11.6895 -11.8555 C 11.1719 -11.8555 10.8789 -11.4844 10.8789 -10.9277 L 10.8789 -7.86133 L 7.83203 -7.86133 C 7.26562 -7.86133 6.89453 -7.55859 6.89453 -7.03125 C 6.89453 -6.51367 7.28516 -6.23047 7.83203 -6.23047 L 10.8789 -6.23047 L 10.8789 -3.33984 C 10.8789 -2.79297 11.1719 -2.41211 11.6895 -2.41211 Z"/>
  </g>
  <g id="" transform="matrix(1 0 0 1 304.924 1933)">
   <path d="M 14.9707 5.67383 C 21.9336 5.67383 27.6953 -0.078125 27.6953 -7.04102 C 27.6953 -14.0039 21.9238 -19.7559 14.9609 -19.7559 C 8.00781 -19.7559 2.25586 -14.0039 2.25586 -7.04102 C 2.25586 -0.078125 8.01758 5.67383 14.9707 5.67383 Z M 14.9707 3.85742 C 8.93555 3.85742 4.08203 -1.00586 4.08203 -7.04102 C 4.08203 -13.0762 8.92578 -17.9395 14.9609 -17.9395 C 21.0059 -17.9395 25.8594 -13.0762 25.8691 -7.04102 C 25.8789 -1.00586 21.0156 3.85742 14.9707 3.85742 Z M 14.9512 -1.06445 C 15.5176 -1.06445 15.8691 -1.45508 15.8691 -2.06055 L 15.8691 -6.13281 L 20.1074 -6.13281 C 20.6934 -6.13281 21.1133 -6.46484 21.1133 -7.02148 C 21.1133 -7.59766 20.7227 -7.93945 20.1074 -7.93945 L 15.8691 -7.93945 L 15.8691 -12.1875 C 15.8691 -12.8027 15.5176 -13.1934 14.9512 -13.1934 C 14.3848 -13.1934 14.0625 -12.7832 14.0625 -12.1875 L 14.0625 -7.93945 L 9.83398 -7.93945 C 9.21875 -7.93945 8.80859 -7.59766 8.80859 -7.02148 C 8.80859 -6.46484 9.23828 -6.13281 9.83398 -6.13281 L 14.0625 -6.13281 L 14.0625 -2.06055 C 14.0625 -1.47461 14.3848 -1.06445 14.9512 -1.06445 Z"/>
  </g>
  <text style="stroke:none;fill:black;font-family:-apple-system,&quot;SF Pro Display&quot;,&quot;SF Pro Text&quot;,Helvetica,sans-serif;font-weight:bold;" transform="matrix(1 0 0 1 263 1953)">Design Variations</text>
  <text style="stroke:none;fill:black;font-family:-apple-system,&quot;SF Pro Display&quot;,&quot;SF Pro Text&quot;,Helvetica,sans-serif;" transform="matrix(1 0 0 1 263 1971)">Symbols are supported in up to nine weights and three scales.</text>
  <text style="stroke:none;fill:black;font-family:-apple-system,&quot;SF Pro Display&quot;,&quot;SF Pro Text&quot;,Helvetica,sans-serif;" transform="matrix(1 0 0 1 263 1989)">For optimal layout with text and other symbols, vertically align</text>
  <text style="stroke:none;fill:black;font-family:-apple-system,&quot;SF Pro Display&quot;,&quot;SF Pro Text&quot;,Helvetica,sans-serif;" transform="matrix(1 0 0 1 263 2007)">symbols with the adjacent text.</text>
  <rect height="14" id="" style="fill:#00AEEF;stroke:none;opacity:0.4;" width="3" x="776" y="1919"/>
  <g id="" transform="matrix(1 0 0 1 779 1933)">
   <path d="M 10.5273 0 L 12.373 0 L 7.17773 -14.0918 L 5.43945 -14.0918 L 0.244141 0 L 2.08984 0 L 3.50586 -4.0332 L 9.11133 -4.0332 Z M 6.2793 -11.9531 L 6.33789 -11.9531 L 8.59375 -5.52734 L 4.02344 -5.52734 Z"/>
  </g>
  <rect height="14" id="" style="fill:#00AEEF;stroke:none;opacity:0.4;" width="3" x="791.617" y="1919"/>
  <text style="stroke:none;fill:black;font-family:-apple-system,&quot;SF Pro Display&quot;,&quot;SF Pro Text&quot;,Helvetica,sans-serif;font-weight:bold;" transform="matrix(1 0 0 1 776 1953)">Margins</text>
  <text style="stroke:none;fill:black;font-family:-apple-system,&quot;SF Pro Display&quot;,&quot;SF Pro Text&quot;,Helvetica,sans-serif;" transform="matrix(1 0 0 1 776 1971)">Leading and trailing margins on the left and right side of each symbol</text>
  <text style="stroke:none;fill:black;font-family:-apple-system,&quot;SF Pro Display&quot;,&quot;SF Pro Text&quot;,Helvetica,sans-serif;" transform="matrix(1 0 0 1 776 1989)">can be adjusted by modifying the width of the blue rectangles.</text>
  <text style="stroke:none;fill:black;font-family:-apple-system,&quot;SF Pro Display&quot;,&quot;SF Pro Text&quot;,Helvetica,sans-serif;" transform="matrix(1 0 0 1 776 2007)">Modifications are automatically applied proportionally to all</text>
  <text style="stroke:none;fill:black;font-family:-apple-system,&quot;SF Pro Display&quot;,&quot;SF Pro Text&quot;,Helvetica,sans-serif;" transform="matrix(1 0 0 1 776 2025)">scales and weights.</text>
  <g id="" transform="matrix(1 0 0 1 1289 1933)">
   <path d="M 2.83203 3.11523 L 4.375 4.6582 C 5.22461 5.48828 6.19141 5.41992 7.06055 4.46289 L 17.2754 -6.66016 C 17.7051 -6.36719 18.0957 -6.37695 18.5645 -6.47461 L 19.6094 -6.68945 L 20.3027 -5.99609 L 20.2539 -5.47852 C 20.1855 -4.95117 20.3516 -4.53125 20.8496 -4.0332 L 21.6602 -3.22266 C 22.168 -2.71484 22.8223 -2.68555 23.3008 -3.16406 L 26.5527 -6.41602 C 27.0312 -6.89453 27.0117 -7.54883 26.5039 -8.05664 L 25.6836 -8.87695 C 25.1855 -9.375 24.7754 -9.55078 24.2383 -9.47266 L 23.7109 -9.41406 L 23.0566 -10.0781 L 23.3398 -11.2207 C 23.4863 -11.7871 23.3398 -12.2559 22.7148 -12.8613 L 20.3027 -15.2539 C 16.7578 -18.7793 12.2266 -18.6719 9.11133 -15.5371 C 8.69141 -15.1074 8.64258 -14.5215 8.91602 -14.0918 C 9.15039 -13.7207 9.62891 -13.4961 10.2734 -13.6621 C 11.7871 -14.043 13.3008 -13.9258 14.7852 -12.9199 L 14.1602 -11.3379 C 13.9258 -10.752 13.9453 -10.2734 14.1797 -9.83398 L 3.01758 0.439453 C 2.08008 1.30859 1.97266 2.25586 2.83203 3.11523 Z M 10.6738 -15.1465 C 13.3398 -17.1387 16.6504 -16.8262 19.0527 -14.4141 L 21.6797 -11.8066 C 21.9141 -11.5723 21.9434 -11.3867 21.8848 -11.0938 L 21.5039 -9.53125 L 23.0762 -7.95898 L 24.043 -8.04688 C 24.3262 -8.07617 24.4141 -8.05664 24.6387 -7.83203 L 25.2637 -7.20703 L 22.5098 -4.46289 L 21.8848 -5.07812 C 21.6602 -5.30273 21.6406 -5.40039 21.6699 -5.68359 L 21.7578 -6.64062 L 20.1953 -8.20312 L 18.5742 -7.89062 C 18.291 -7.83203 18.1445 -7.83203 17.9102 -8.07617 L 15.7324 -10.2539 C 15.5078 -10.4883 15.4785 -10.625 15.6055 -10.9473 L 16.5527 -13.2227 C 14.9512 -14.7559 12.8418 -15.6055 10.8008 -14.9512 C 10.7129 -14.9219 10.6445 -14.9414 10.6152 -14.9805 C 10.5859 -15.0293 10.5859 -15.0781 10.6738 -15.1465 Z M 4.10156 2.41211 C 3.61328 1.91406 3.78906 1.61133 4.12109 1.30859 L 15.0781 -8.80859 L 16.3086 -7.57812 L 6.15234 3.34961 C 5.84961 3.68164 5.46875 3.7793 5.06836 3.37891 Z"/>
  </g>
  <text style="stroke:none;fill:black;font-family:-apple-system,&quot;SF Pro Display&quot;,&quot;SF Pro Text&quot;,Helvetica,sans-serif;font-weight:bold;" transform="matrix(1 0 0 1 1289 1953)">Exporting</text>
  <text style="stroke:none;fill:black;font-family:-apple-system,&quot;SF Pro Display&quot;,&quot;SF Pro Text&quot;,Helvetica,sans-serif;" transform="matrix(1 0 0 1 1289 1971)">Symbols should be outlined when exporting to ensure the</text>
  <text style="stroke:none;fill:black;font-family:-apple-system,&quot;SF Pro Display&quot;,&quot;SF Pro Text&quot;,Helvetica,sans-serif;" transform="matrix(1 0 0 1 1289 1989)">design is preserved when submitting to Xcode.</text>
  <text id="template-version" style="stroke:none;fill:black;font-family:-apple-system,&quot;SF Pro Display&quot;,&quot;SF Pro Text&quot;,Helvetica,sans-serif;text-anchor:end;" transform="matrix(1 0 0 1 3036 1933)">Template v.1.0</text>
  <text style="stroke:none;fill:black;font-family:-apple-system,&quot;SF Pro Display&quot;,&quot;SF Pro Text&quot;,Helvetica,sans-serif;text-anchor:end;" transform="matrix(1 0 0 1 3036 1951)">Generated from chart.pie</text>
  <text style="stroke:none;fill:black;font-family:-apple-system,&quot;SF Pro Display&quot;,&quot;SF Pro Text&quot;,Helvetica,sans-serif;text-anchor:end;" transform="matrix(1 0 0 1 3036 1969)">Typeset at 100 points</text>
  <text style="stroke:none;fill:black;font-family:-apple-system,&quot;SF Pro Display&quot;,&quot;SF Pro Text&quot;,Helvetica,sans-serif;" transform="matrix(1 0 0 1 263 726)">Small</text>
  <text style="stroke:none;fill:black;font-family:-apple-system,&quot;SF Pro Display&quot;,&quot;SF Pro Text&quot;,Helvetica,sans-serif;" transform="matrix(1 0 0 1 263 1156)">Medium</text>
  <text style="stroke:none;fill:black;font-family:-apple-system,&quot;SF Pro Display&quot;,&quot;SF Pro Text&quot;,Helvetica,sans-serif;" transform="matrix(1 0 0 1 263 1586)">Large</text>
 </g>
 <g id="Guides">
  <g id="H-reference" style="fill:#27AAE1;stroke:none;" transform="matrix(1 0 0 1 339 696)">
   <path d="M 54.9316 0 L 57.666 0 L 30.5664 -70.459 L 28.0762 -70.459 L 0.976562 0 L 3.66211 0 L 12.9395 -24.4629 L 45.7031 -24.4629 Z M 29.1992 -67.0898 L 29.4434 -67.0898 L 44.8242 -26.709 L 13.8184 -26.709 Z"/>
  </g>
  <line id="Baseline-S" style="fill:none;stroke:#27AAE1;opacity:1;stroke-width:0.577;" x1="263" x2="3036" y1="696" y2="696"/>
  <line id="Capline-S" style="fill:none;stroke:#27AAE1;opacity:1;stroke-width:0.577;" x1="263" x2="3036" y1="625.541" y2="625.541"/>
  <g id="H-reference" style="fill:#27AAE1;stroke:none;" transform="matrix(1 0 0 1 339 1126)">
   <path d="M 54.9316 0 L 57.666 0 L 30.5664 -70.459 L 28.0762 -70.459 L 0.976562 0 L 3.66211 0 L 12.9395 -24.4629 L 45.7031 -24.4629 Z M 29.1992 -67.0898 L 29.4434 -67.0898 L 44.8242 -26.709 L 13.8184 -26.709 Z"/>
  </g>
  <line id="Baseline-M" style="fill:none;stroke:#27AAE1;opacity:1;stroke-width:0.577;" x1="263" x2="3036" y1="1126" y2="1126"/>
  <line id="Capline-M" style="fill:none;stroke:#27AAE1;opacity:1;stroke-width:0.577;" x1="263" x2="3036" y1="1055.54" y2="1055.54"/>
  <g id="H-reference" style="fill:#27AAE1;stroke:none;" transform="matrix(1 0 0 1 339 1556)">
   <path d="M 54.9316 0 L 57.666 0 L 30.5664 -70.459 L 28.0762 -70.459 L 0.976562 0 L 3.66211 0 L 12.9395 -24.4629 L 45.7031 -24.4629 Z M 29.1992 -67.0898 L 29.4434 -67.0898 L 44.8242 -26.709 L 13.8184 -26.709 Z"/>
  </g>
  <line id="Baseline-L" style="fill:none;stroke:#27AAE1;opacity:1;stroke-width:0.577;" x1="263" x2="3036" y1="1556" y2="1556"/>
  <line id="Capline-L" style="fill:none;stroke:#27AAE1;opacity:1;stroke-width:0.577;" x1="263" x2="3036" y1="1485.54" y2="1485.54"/>
  <rect height="119.336" id="left-margin" style="fill:#00AEEF;stroke:none;opacity:0.4;" width="8.74023" x="1391.3" y="1030.79"/>
  <rect height="119.336" id="right-margin" style="fill:#00AEEF;stroke:none;opacity:0.4;" width="8.74023" x="1499.65" y="1030.79"/>
 </g>
 <g id="Symbols">
  <g id="Black-L" transform="matrix(1 0 0 1 2854.05 1556)">
   <path d="M 79.3457 32.8613 C 116.748 32.8613 147.412 2.19727 147.412 -35.2051 C 147.412 -72.6074 116.748 -103.271 79.2969 -103.271 C 41.8945 -103.271 11.2793 -72.6074 11.2793 -35.2051 C 11.2793 2.19727 41.9434 32.8613 79.3457 32.8613 Z M 85.1074 -45.0684 L 85.1074 -82.4707 C 98.4375 -80.8594 110.059 -73.8281 117.627 -63.5742 Z M 79.3457 12.4023 C 52.9785 12.4023 31.7383 -8.83789 31.7383 -35.2051 C 31.7383 -58.1543 47.8027 -77.2461 69.3848 -81.7871 L 69.3848 -32.3242 C 69.3848 -29.541 70.2637 -28.2227 71.7773 -26.709 L 104.736 5.12695 C 97.3633 9.76562 88.6719 12.4023 79.3457 12.4023 Z M 91.4062 -30.4199 L 124.805 -49.4141 C 126.221 -44.9219 126.953 -40.1855 126.953 -35.2051 C 126.953 -24.0723 123.145 -13.8184 116.797 -5.71289 Z"/>
  </g>
  <g id="Heavy-L" transform="matrix(1 0 0 1 2558.39 1556)">
   <path d="M 78.2715 31.7871 C 115.088 31.7871 145.312 1.61133 145.312 -35.2051 C 145.312 -72.0215 115.039 -102.197 78.2715 -102.197 C 41.4551 -102.197 11.2793 -72.0215 11.2793 -35.2051 C 11.2793 1.61133 41.5039 31.7871 78.2715 31.7871 Z M 83.7402 -43.7988 L 83.7402 -84.1797 C 98.1445 -82.5684 110.596 -74.8535 118.506 -63.623 Z M 78.2715 14.0137 C 51.0254 14.0137 29.0527 -7.95898 29.0527 -35.2051 C 29.0527 -59.668 46.6797 -79.834 69.9707 -83.7891 L 69.9707 -32.9102 C 69.9707 -30.4199 70.752 -29.1504 72.1191 -27.7344 L 106.299 5.37109 C 98.3398 10.8398 88.6719 14.0137 78.2715 14.0137 Z M 89.2578 -31.0547 L 124.854 -51.3184 C 126.562 -46.2891 127.539 -40.8691 127.539 -35.2051 C 127.539 -23.4863 123.486 -12.6953 116.65 -4.24805 Z"/>
  </g>
  <g id="Bold-L" transform="matrix(1 0 0 1 2262.88 1556)">
   <path d="M 77.0996 30.6152 C 113.232 30.6152 142.92 0.878906 142.92 -35.2051 C 142.92 -71.3379 113.184 -101.025 77.0508 -101.025 C 40.9668 -101.025 11.2793 -71.3379 11.2793 -35.2051 C 11.2793 0.878906 41.0156 30.6152 77.0996 30.6152 Z M 82.1777 -42.3828 L 82.1777 -86.0352 C 97.7539 -84.4727 111.23 -75.9766 119.531 -63.6719 Z M 77.0996 15.8691 C 48.8281 15.8691 26.0742 -6.93359 26.0742 -35.2051 C 26.0742 -61.3281 45.4102 -82.7148 70.6543 -85.8887 L 70.6543 -33.4961 C 70.6543 -31.3965 71.2402 -30.1758 72.5586 -28.9062 L 107.91 5.56641 C 99.3652 12.0117 88.7207 15.8691 77.0996 15.8691 Z M 86.8652 -31.6895 L 124.854 -53.3691 C 127.002 -47.7539 128.174 -41.6016 128.174 -35.2051 C 128.174 -22.8027 123.779 -11.4746 116.504 -2.63672 Z"/>
  </g>
  <g id="Semibold-L" transform="matrix(1 0 0 1 1966.97 1556)">
   <path d="M 76.2695 29.7852 C 111.914 29.7852 141.309 0.439453 141.309 -35.2051 C 141.309 -70.8496 111.865 -100.244 76.2695 -100.244 C 40.625 -100.244 11.2793 -70.8496 11.2793 -35.2051 C 11.2793 0.439453 40.6738 29.7852 76.2695 29.7852 Z M 81.1035 -41.4062 L 81.1035 -87.3047 C 97.5098 -85.791 111.67 -76.8066 120.166 -63.7207 Z M 76.2695 17.0898 C 47.3145 17.0898 24.0234 -6.25 24.0234 -35.2051 C 24.0234 -62.4512 44.5801 -84.7168 71.0938 -87.2559 L 71.0938 -33.9355 C 71.0938 -32.0312 71.6309 -30.9082 72.8516 -29.6875 L 109.033 5.66406 C 100.098 12.8418 88.7207 17.0898 76.2695 17.0898 Z M 85.2539 -32.1777 L 124.805 -54.7852 C 127.246 -48.7793 128.613 -42.1387 128.613 -35.2051 C 128.613 -22.3633 124.023 -10.5957 116.357 -1.51367 Z"/>
  </g>
  <g id="Medium-L" transform="matrix(1 0 0 1 1670.87 1556)">
   <path d="M 75.6836 29.1992 C 110.938 29.1992 140.088 0.0488281 140.088 -35.2051 C 140.088 -70.459 110.889 -99.6094 75.6348 -99.6094 C 40.3809 -99.6094 11.2793 -70.459 11.2793 -35.2051 C 11.2793 0.0488281 40.3809 29.1992 75.6836 29.1992 Z M 75.6836 18.0664 C 46.1426 18.0664 22.4609 -5.71289 22.4609 -35.2051 C 22.4609 -63.3301 43.9453 -86.1816 71.4844 -88.3301 L 71.4844 -34.2285 C 71.4844 -32.5684 71.9238 -31.4453 73.0957 -30.2734 L 109.863 5.71289 C 100.635 13.4277 88.7207 18.0664 75.6836 18.0664 Z M 80.3223 -40.6738 L 80.3223 -88.2812 C 97.3145 -86.8164 112.012 -77.3926 120.703 -63.7207 Z M 83.9844 -32.5195 L 124.756 -55.8594 C 127.441 -49.5117 128.906 -42.5293 128.906 -35.2051 C 128.955 -21.9727 124.17 -9.96094 116.26 -0.634766 Z"/>
  </g>
  <g id="Regular-L" transform="matrix(1 0 0 1 1374.97 1556)">
   <path d="M 74.8535 28.3691 C 109.668 28.3691 138.477 -0.390625 138.477 -35.2051 C 138.477 -70.0195 109.619 -98.7793 74.8047 -98.7793 C 40.0391 -98.7793 11.2793 -70.0195 11.2793 -35.2051 C 11.2793 -0.390625 40.0879 28.3691 74.8535 28.3691 Z M 74.8535 19.2871 C 44.6777 19.2871 20.4102 -5.0293 20.4102 -35.2051 C 20.4102 -64.4531 43.0664 -88.1348 71.9238 -89.6484 L 71.9238 -34.668 C 71.9238 -33.2031 72.2656 -32.1289 73.3887 -31.0547 L 110.889 5.76172 C 101.318 14.209 88.7207 19.2871 74.8535 19.2871 Z M 79.248 -39.6973 L 79.248 -89.502 C 97.0703 -88.0859 112.451 -78.1738 121.338 -63.7207 Z M 82.373 -33.0078 L 124.707 -57.2754 C 127.686 -50.5371 129.346 -43.0664 129.346 -35.2051 C 129.395 -21.5332 124.414 -9.08203 116.162 0.439453 Z"/>
  </g>
  <g id="Light-L" transform="matrix(1 0 0 1 1079.18 1556)">
   <path d="M 73.9258 27.4902 C 108.301 27.4902 136.621 -0.830078 136.621 -35.1562 C 136.621 -69.5312 108.252 -97.8516 73.9258 -97.8516 C 39.5508 -97.8516 11.2793 -69.5312 11.2793 -35.1562 C 11.2793 -0.830078 39.5996 27.4902 73.9258 27.4902 Z M 73.9258 20.6055 C 43.1152 20.6055 18.2129 -4.3457 18.2129 -35.1562 C 18.2129 -65.332 41.9434 -89.7949 71.8262 -90.918 L 71.8262 -35.0586 C 71.8262 -33.5449 72.1191 -32.5195 73.1934 -31.543 L 111.426 6.15234 C 101.514 15.1367 88.3789 20.6055 73.9258 20.6055 Z M 77.6367 -38.3301 L 77.6367 -90.8203 C 96.5332 -89.5996 112.842 -78.9551 121.973 -63.5254 Z M 80.1758 -33.0566 L 124.658 -58.3984 C 127.881 -51.3184 129.688 -43.457 129.736 -35.1562 C 129.736 -20.8496 124.365 -7.8125 115.479 2.05078 Z"/>
  </g>
  <g id="Thin-L" transform="matrix(1 0 0 1 783.693 1556)">
   <path d="M 72.7051 26.3184 C 106.494 26.3184 134.18 -1.36719 134.18 -35.1074 C 134.18 -68.8965 106.494 -96.582 72.7051 -96.582 C 38.9648 -96.582 11.2793 -68.8965 11.2793 -35.1074 C 11.2793 -1.36719 38.9648 26.3184 72.7051 26.3184 Z M 72.7051 22.3145 C 41.0156 22.3145 15.2832 -3.41797 15.2832 -35.1074 C 15.2832 -66.5039 40.4785 -92.041 71.7285 -92.5781 L 71.7285 -35.5957 C 71.7285 -33.9355 71.9727 -33.0566 72.9492 -32.1289 L 112.109 6.68945 C 101.807 16.4062 87.9395 22.3145 72.7051 22.3145 Z M 75.4395 -36.4746 L 75.4395 -92.5293 C 95.8008 -91.5527 113.379 -79.9805 122.852 -63.2324 Z M 77.2949 -33.1055 L 124.561 -59.9121 C 128.174 -52.3926 130.176 -43.9941 130.176 -35.1074 C 130.176 -19.9219 124.268 -6.10352 114.6 4.19922 Z"/>
  </g>
  <g id="Ultralight-L" transform="matrix(1 0 0 1 487.616 1556)">
   <path d="M 72.1191 25.7324 C 105.566 25.7324 132.91 -1.61133 132.91 -35.1074 C 132.91 -68.5547 105.566 -95.8984 72.1191 -95.8984 C 38.623 -95.8984 11.2793 -68.5547 11.2793 -35.1074 C 11.2793 -1.61133 38.623 25.7324 72.1191 25.7324 Z M 72.1191 23.2422 C 39.9414 23.2422 13.7695 -2.97852 13.7695 -35.1074 C 13.7695 -67.2363 39.9414 -93.4082 72.1191 -93.4082 C 94.1406 -93.4082 113.33 -81.1523 123.242 -63.0371 L 74.3652 -35.5469 L 74.3652 -93.2617 L 71.6309 -93.2617 L 71.6309 -35.8887 C 71.6309 -34.1797 71.875 -33.3008 72.8027 -32.4219 L 112.402 6.98242 C 101.953 17.041 87.7441 23.2422 72.1191 23.2422 Z M 75.7812 -33.1055 L 124.512 -60.6445 C 128.271 -52.9297 130.42 -44.2383 130.42 -35.1074 C 130.42 -19.4336 124.219 -5.22461 114.111 5.27344 Z"/>
  </g>
  <g id="Black-M" transform="matrix(1 0 0 1 2870.97 1126)">
   <path d="M 62.4023 18.457 C 91.9922 18.457 116.113 -5.61523 116.113 -35.2051 C 116.113 -64.7949 91.9922 -88.8672 62.4023 -88.8672 C 32.8125 -88.8672 8.74023 -64.7949 8.74023 -35.2051 C 8.74023 -5.61523 32.8125 18.457 62.4023 18.457 Z M 66.9922 -43.7988 L 66.9922 -70.3125 C 76.416 -69.0918 84.7168 -64.1602 90.2832 -57.0312 Z M 62.4023 0.195312 C 42.8711 0.195312 27.002 -15.625 27.002 -35.2051 C 27.002 -51.4648 37.9883 -65.1855 52.9297 -69.2871 L 52.9297 -32.4707 C 52.9297 -29.834 53.7598 -28.7598 54.9805 -27.4902 L 79.3457 -4.10156 C 74.3164 -1.36719 68.5547 0.195312 62.4023 0.195312 Z M 72.5098 -30.7129 L 96.6309 -44.3359 C 97.4121 -41.4062 97.8027 -38.3301 97.8027 -35.2051 C 97.8027 -27.002 95.0195 -19.4336 90.332 -13.4277 Z"/>
  </g>
  <g id="Heavy-M" transform="matrix(1 0 0 1 2575.19 1126)">
   <path d="M 61.5234 17.5781 C 90.5273 17.5781 114.258 -6.15234 114.258 -35.2051 C 114.258 -64.2578 90.5273 -87.9883 61.4746 -87.9883 C 32.4707 -87.9883 8.74023 -64.2578 8.74023 -35.2051 C 8.74023 -6.15234 32.4707 17.5781 61.5234 17.5781 Z M 65.8691 -42.7734 L 65.8691 -71.7773 C 76.2207 -70.5566 85.2539 -65.0879 91.1133 -57.1289 Z M 61.5234 1.66016 C 41.1133 1.66016 24.6582 -14.8438 24.6582 -35.2051 C 24.6582 -52.8809 37.0117 -67.5781 53.6133 -71.1914 L 53.6133 -32.959 C 53.6133 -30.6641 54.2969 -29.6875 55.4688 -28.5156 L 80.957 -3.90625 C 75.293 -0.390625 68.6523 1.66016 61.5234 1.66016 Z M 70.752 -31.3477 L 96.7285 -46.0938 C 97.7539 -42.627 98.3398 -39.0137 98.3398 -35.2051 C 98.3398 -26.5137 95.3613 -18.5547 90.3809 -12.2559 Z"/>
  </g>
  <g id="Bold-M" transform="matrix(1 0 0 1 2279.5 1126)">
   <path d="M 60.498 16.5039 C 88.8672 16.5039 112.207 -6.78711 112.207 -35.2051 C 112.207 -63.623 88.8672 -86.9629 60.4492 -86.9629 C 32.0312 -86.9629 8.74023 -63.623 8.74023 -35.2051 C 8.74023 -6.78711 32.0801 16.5039 60.498 16.5039 Z M 64.6484 -41.6504 L 64.6484 -73.4375 C 75.9766 -72.2168 85.8398 -66.1133 91.9922 -57.2754 Z M 60.498 3.22266 C 39.1602 3.22266 22.0703 -13.916 22.0703 -35.2051 C 22.0703 -54.4434 35.9863 -70.2637 54.3457 -73.1934 L 54.3457 -33.4961 C 54.3457 -31.6406 54.9316 -30.6641 56.0059 -29.6387 L 82.6172 -3.75977 C 76.3672 0.634766 68.75 3.22266 60.498 3.22266 Z M 68.7988 -32.0801 L 96.7285 -48.0469 C 98.1445 -44.043 98.9258 -39.6973 98.9258 -35.2051 C 98.9258 -26.0254 95.752 -17.5781 90.3809 -10.9863 Z"/>
  </g>
  <g id="Semibold-M" transform="matrix(1 0 0 1 1983.5 1126)">
   <path d="M 59.7656 15.8203 C 87.7441 15.8203 110.791 -7.22656 110.791 -35.2051 C 110.791 -63.1836 87.6953 -86.2793 59.7656 -86.2793 C 31.7871 -86.2793 8.74023 -63.1836 8.74023 -35.2051 C 8.74023 -7.22656 31.7871 15.8203 59.7656 15.8203 Z M 63.8184 -40.8691 L 63.8184 -74.5605 C 75.8301 -73.3887 86.2305 -66.7969 92.627 -57.3242 Z M 59.7656 4.3457 C 37.8418 4.3457 20.2637 -13.2812 20.2637 -35.2051 C 20.2637 -55.5176 35.2539 -72.1191 54.8828 -74.5117 L 54.8828 -33.8867 C 54.8828 -32.3242 55.3223 -31.3965 56.3477 -30.3711 L 83.7402 -3.71094 C 77.0996 1.36719 68.7988 4.3457 59.7656 4.3457 Z M 67.4316 -32.6172 L 96.7285 -49.3652 C 98.4375 -44.9707 99.3164 -40.1855 99.3652 -35.2051 C 99.3652 -25.6348 95.9961 -16.8945 90.3809 -10.0586 Z"/>
  </g>
  <g id="Medium-M" transform="matrix(1 0 0 1 1687.3 1126)">
   <path d="M 59.2285 15.2832 C 86.9141 15.2832 109.766 -7.56836 109.766 -35.2051 C 109.766 -62.8906 86.8652 -85.7422 59.1797 -85.7422 C 31.543 -85.7422 8.74023 -62.8906 8.74023 -35.2051 C 8.74023 -7.56836 31.5918 15.2832 59.2285 15.2832 Z M 59.2285 5.17578 C 36.8164 5.17578 18.8965 -12.8418 18.8965 -35.2051 C 18.8965 -56.2988 34.7168 -73.4863 55.2734 -75.4395 L 55.2734 -34.1797 C 55.2734 -32.8125 55.6641 -31.9336 56.5918 -30.957 L 84.5703 -3.66211 C 77.6855 1.85547 68.8477 5.17578 59.2285 5.17578 Z M 63.1836 -40.2832 L 63.1836 -75.4395 C 75.7324 -74.2188 86.5234 -67.334 93.0664 -57.373 Z M 66.4062 -32.959 L 96.7285 -50.3418 C 98.584 -45.7031 99.6582 -40.5762 99.6582 -35.2051 C 99.6582 -25.3906 96.1914 -16.3574 90.3809 -9.375 Z"/>
  </g>
  <g id="Regular-M" transform="matrix(1 0 0 1 1391.3 1126)">
   <path d="M 58.5449 14.5508 C 85.791 14.5508 108.35 -8.00781 108.35 -35.2539 C 108.35 -62.4512 85.7422 -85.0586 58.4961 -85.0586 C 31.2988 -85.0586 8.74023 -62.4512 8.74023 -35.2539 C 8.74023 -8.00781 31.3477 14.5508 58.5449 14.5508 Z M 58.5449 6.25 C 35.498 6.25 17.0898 -12.207 17.0898 -35.2539 C 17.0898 -57.373 34.0332 -75.293 55.8105 -76.6602 L 55.8105 -34.5703 C 55.8105 -33.4961 56.0547 -32.6172 56.9824 -31.7383 L 85.6445 -3.71094 C 78.3691 2.53906 68.8965 6.25 58.5449 6.25 Z M 62.3535 -39.502 L 62.3535 -76.5625 C 75.5371 -75.3906 86.9141 -68.0664 93.6523 -57.4219 Z M 65.0879 -33.4961 L 96.6797 -51.6602 C 98.8281 -46.6309 100.049 -41.0645 100.049 -35.2539 C 100.098 -25 96.4355 -15.7227 90.3809 -8.49609 Z"/>
  </g>
  <g id="Light-M" transform="matrix(1 0 0 1 1095.42 1126)">
   <path d="M 57.7148 13.7695 C 84.5215 13.7695 106.689 -8.39844 106.689 -35.2051 C 106.689 -62.0117 84.5215 -84.1797 57.666 -84.1797 C 30.8594 -84.1797 8.74023 -62.0117 8.74023 -35.2051 C 8.74023 -8.39844 30.9082 13.7695 57.7148 13.7695 Z M 57.7148 7.4707 C 34.082 7.4707 15.0879 -11.5723 15.0879 -35.2051 C 15.0879 -58.1543 33.0078 -76.7578 55.7129 -77.7832 L 55.7129 -34.9121 C 55.7129 -33.7891 55.957 -32.959 56.7871 -32.1289 L 86.1328 -3.32031 C 78.5645 3.36914 68.6523 7.4707 57.7148 7.4707 Z M 60.8887 -38.2324 L 60.8887 -77.7344 C 75.0488 -76.709 87.3047 -68.75 94.2383 -57.2754 Z M 63.1348 -33.4961 L 96.6309 -52.6855 C 99.0234 -47.3633 100.342 -41.4551 100.391 -35.2051 C 100.391 -24.4141 96.3867 -14.5508 89.7949 -7.03125 Z"/>
  </g>
  <g id="Thin-M" transform="matrix(1 0 0 1 799.806 1126)">
   <path d="M 56.6406 12.7441 C 82.9102 12.7441 104.492 -8.83789 104.492 -35.1562 C 104.492 -61.4746 82.9102 -83.0566 56.5918 -83.0566 C 30.3223 -83.0566 8.74023 -61.4746 8.74023 -35.1562 C 8.74023 -8.83789 30.3223 12.7441 56.6406 12.7441 Z M 56.6406 8.98438 C 32.2266 8.98438 12.4512 -10.791 12.4512 -35.1562 C 12.4512 -59.1797 31.6895 -78.7598 55.6152 -79.2969 L 55.6152 -35.4004 C 55.6152 -34.1309 55.8105 -33.4473 56.5918 -32.7148 L 86.7188 -2.83203 C 78.8086 4.49219 68.2617 8.98438 56.6406 8.98438 Z M 58.9355 -36.5723 L 58.9355 -79.248 C 74.4141 -78.4668 87.7441 -69.6777 95.0195 -56.9824 Z M 60.498 -33.5449 L 96.5332 -54.0039 C 99.2676 -48.291 100.781 -41.8945 100.781 -35.1562 C 100.781 -23.584 96.3379 -13.0371 89.0137 -5.12695 Z"/>
  </g>
  <g id="Ultralight-M" transform="matrix(1 0 0 1 503.656 1126)">
   <path d="M 56.0547 12.207 C 82.0801 12.207 103.369 -9.08203 103.369 -35.1562 C 103.369 -61.1816 82.0801 -82.4707 56.0547 -82.4707 C 30.0293 -82.4707 8.74023 -61.1816 8.74023 -35.1562 C 8.74023 -9.08203 30.0293 12.207 56.0547 12.207 Z M 56.0547 9.81445 C 31.2988 9.81445 11.1328 -10.3516 11.1328 -35.1562 C 11.1328 -59.7168 31.0059 -79.7852 55.5176 -80.0781 L 55.5176 -35.6445 C 55.5176 -34.3262 55.7129 -33.6426 56.4941 -32.959 L 87.0117 -2.58789 C 78.9551 5.07812 68.0664 9.81445 56.0547 9.81445 Z M 57.959 -35.7422 L 57.959 -80.0293 C 74.0723 -79.3457 88.0371 -70.166 95.4102 -56.8359 Z M 59.1797 -33.5938 L 96.4844 -54.6875 C 99.3652 -48.7793 100.977 -42.1387 100.977 -35.1562 C 100.977 -23.1445 96.2891 -12.207 88.5742 -4.15039 Z"/>
  </g>
  <g id="Black-S" transform="matrix(1 0 0 1 2884.57 696)">
   <path d="M 48.8281 6.78711 C 71.9727 6.78711 90.8203 -12.0605 90.8203 -35.2051 C 90.8203 -58.3496 71.9727 -77.1973 48.8281 -77.1973 C 25.6836 -77.1973 6.83594 -58.3496 6.83594 -35.2051 C 6.83594 -12.0605 25.6836 6.78711 48.8281 6.78711 Z M 52.3926 -41.8945 L 52.3926 -62.793 C 59.8633 -61.8652 66.4062 -57.959 70.8008 -52.2949 Z M 48.8281 -7.37305 C 33.4473 -7.37305 20.9961 -19.8242 20.9961 -35.2051 C 20.9961 -48.0469 29.6875 -58.8379 41.5039 -62.0605 L 41.5039 -33.1055 C 41.5039 -31.0547 42.1387 -30.2246 43.1152 -29.248 L 62.2559 -10.8398 C 58.3008 -8.64258 53.7109 -7.37305 48.8281 -7.37305 Z M 56.6895 -31.7383 L 75.6836 -42.4805 C 76.3184 -40.1367 76.6602 -37.7441 76.6602 -35.2051 C 76.6602 -28.7598 74.4629 -22.8027 70.8008 -18.1152 Z"/>
  </g>
  <g id="Heavy-S" transform="matrix(1 0 0 1 2588.47 696)">
   <path d="M 48.2422 6.15234 C 70.9961 6.15234 89.5996 -12.4512 89.5996 -35.2051 C 89.5996 -57.959 70.9961 -76.6113 48.1934 -76.6113 C 25.4395 -76.6113 6.83594 -57.959 6.83594 -35.2051 C 6.83594 -12.4512 25.4395 6.15234 48.2422 6.15234 Z M 51.709 -41.2598 L 51.709 -63.8184 C 59.7656 -62.8418 66.748 -58.5938 71.3379 -52.3926 Z M 48.2422 -6.39648 C 32.2754 -6.39648 19.4336 -19.2871 19.4336 -35.2051 C 19.4336 -49.0234 29.0527 -60.5469 42.041 -63.3789 L 42.041 -33.4473 C 42.041 -31.6895 42.5781 -30.8594 43.5059 -29.9805 L 63.4277 -10.7422 C 59.0332 -8.00781 53.8086 -6.39648 48.2422 -6.39648 Z M 55.5664 -32.2266 L 75.7812 -43.7012 C 76.5625 -41.0156 77.0508 -38.1836 77.0508 -35.2051 C 77.0508 -28.4668 74.707 -22.2656 70.8496 -17.3828 Z"/>
  </g>
  <g id="Bold-S" transform="matrix(1 0 0 1 2292.44 696)">
   <path d="M 47.5586 5.46875 C 69.873 5.46875 88.2324 -12.8906 88.2324 -35.2051 C 88.2324 -57.5684 69.873 -75.9277 47.5098 -75.9277 C 25.1953 -75.9277 6.83594 -57.5684 6.83594 -35.2051 C 6.83594 -12.8906 25.1953 5.46875 47.5586 5.46875 Z M 50.9766 -40.5273 L 50.9766 -64.9414 C 59.6191 -63.9648 67.1387 -59.2773 71.9727 -52.5391 Z M 47.5586 -5.32227 C 30.957 -5.32227 17.6758 -18.6523 17.6758 -35.2051 C 17.6758 -50.1465 28.418 -62.4023 42.627 -64.7461 L 42.627 -33.8379 C 42.627 -32.373 43.0664 -31.6406 43.8965 -30.7617 L 64.6484 -10.6445 C 59.8145 -7.27539 53.9062 -5.32227 47.5586 -5.32227 Z M 54.2969 -32.8125 L 75.7812 -45.0684 C 76.8555 -41.9922 77.4414 -38.6719 77.4414 -35.2051 C 77.4414 -28.125 75 -21.6309 70.9473 -16.5527 Z"/>
  </g>
  <g id="Semibold-S" transform="matrix(1 0 0 1 1996.2 696)">
   <path d="M 47.0703 4.98047 C 69.0918 4.98047 87.3047 -13.1836 87.3047 -35.2539 C 87.3047 -57.2754 69.0918 -75.4883 47.0215 -75.4883 C 25 -75.4883 6.83594 -57.2754 6.83594 -35.2539 C 6.83594 -13.1836 25.0488 4.98047 47.0703 4.98047 Z M 50.4395 -40.0391 L 50.4395 -65.7227 C 59.5703 -64.6973 67.4316 -59.7656 72.3633 -52.5879 Z M 47.0703 -4.58984 C 30.0781 -4.58984 16.4551 -18.2129 16.4551 -35.2539 C 16.4551 -50.8789 27.9297 -63.6719 43.0176 -65.625 L 43.0176 -34.082 C 43.0176 -32.8613 43.4082 -32.1289 44.1895 -31.2988 L 65.4785 -10.6445 C 60.3516 -6.83594 54.0039 -4.58984 47.0703 -4.58984 Z M 53.4668 -33.1543 L 75.7812 -45.9961 C 77.0508 -42.627 77.7344 -39.0137 77.7344 -35.2539 C 77.7344 -27.9297 75.1953 -21.2402 70.9961 -15.9668 Z"/>
  </g>
  <g id="Medium-S" transform="matrix(1 0 0 1 1699.83 696)">
   <path d="M 46.7285 4.63867 C 68.5547 4.63867 86.6211 -13.4277 86.6211 -35.2539 C 86.6211 -57.0312 68.5059 -75.1465 46.6797 -75.1465 C 24.8535 -75.1465 6.83594 -57.0312 6.83594 -35.2539 C 6.83594 -13.4277 24.9023 4.63867 46.7285 4.63867 Z M 46.7285 -4.00391 C 29.3945 -4.00391 15.5273 -17.9199 15.5273 -35.2539 C 15.5273 -51.4648 27.5879 -64.6484 43.3594 -66.3086 L 43.3594 -34.2773 C 43.3594 -33.252 43.6523 -32.5195 44.4336 -31.7383 L 66.0645 -10.6934 C 60.7422 -6.49414 54.0527 -4.00391 46.7285 -4.00391 Z M 50.0488 -39.6484 L 50.0488 -66.3086 C 59.5215 -65.2832 67.6758 -60.1074 72.6562 -52.6367 Z M 52.7832 -33.4473 L 75.7812 -46.6797 C 77.1484 -43.1641 77.9297 -39.3066 77.9297 -35.2539 C 77.9785 -27.7344 75.3906 -20.8984 71.0449 -15.5273 Z"/>
  </g>
  <g id="Regular-S" transform="matrix(1 0 0 1 1403.58 696)">
   <path d="M 46.2402 4.15039 C 67.7734 4.15039 85.6934 -13.7207 85.6934 -35.2539 C 85.6934 -56.7871 67.7246 -74.6582 46.1914 -74.6582 C 24.707 -74.6582 6.83594 -56.7871 6.83594 -35.2539 C 6.83594 -13.7207 24.7559 4.15039 46.2402 4.15039 Z M 46.2402 -3.27148 C 28.5156 -3.27148 14.3555 -17.4805 14.3555 -35.2539 C 14.3555 -52.1973 27.1484 -65.8691 43.75 -67.1387 L 43.75 -34.5215 C 43.75 -33.7402 43.9941 -33.0078 44.6777 -32.2754 L 66.8457 -10.6934 C 61.2793 -6.05469 54.1016 -3.27148 46.2402 -3.27148 Z M 49.5117 -39.1602 L 49.5117 -67.041 C 59.4238 -66.0645 67.9199 -60.5957 73.0469 -52.7344 Z M 51.9531 -33.8379 L 75.7812 -47.6074 C 77.3438 -43.7988 78.2227 -39.6484 78.2227 -35.2539 C 78.2227 -27.5391 75.5859 -20.5078 71.0938 -14.9902 Z"/>
  </g>
  <g id="Light-S" transform="matrix(1 0 0 1 1107.6 696)">
   <path d="M 45.5078 3.4668 C 66.6992 3.4668 84.2285 -14.0625 84.2285 -35.2051 C 84.2285 -56.3965 66.6504 -73.9258 45.5078 -73.9258 C 24.3164 -73.9258 6.83594 -56.3965 6.83594 -35.2051 C 6.83594 -14.0625 24.3652 3.4668 45.5078 3.4668 Z M 45.5078 -2.24609 C 27.2461 -2.24609 12.5977 -16.9434 12.5977 -35.2051 C 12.5977 -52.8809 26.2695 -67.1875 43.6523 -68.1641 L 43.6523 -34.8633 C 43.6523 -33.9844 43.8965 -33.3008 44.5312 -32.666 L 67.2852 -10.3516 C 61.4746 -5.32227 53.8574 -2.24609 45.5078 -2.24609 Z M 48.2422 -38.0859 L 48.2422 -68.0664 C 58.9844 -67.1875 68.2617 -61.2305 73.584 -52.5391 Z M 50.1953 -33.8867 L 75.7324 -48.5352 C 77.4902 -44.4336 78.5156 -39.9414 78.5156 -35.2051 C 78.5156 -27.002 75.5371 -19.4824 70.5566 -13.7207 Z"/>
  </g>
  <g id="Thin-S" transform="matrix(1 0 0 1 811.867 696)">
   <path d="M 44.5801 2.53906 C 65.2832 2.53906 82.2754 -14.4531 82.2754 -35.2051 C 82.2754 -55.9082 65.2344 -72.9004 44.5312 -72.9004 C 23.8281 -72.9004 6.83594 -55.9082 6.83594 -35.2051 C 6.83594 -14.4531 23.877 2.53906 44.5801 2.53906 Z M 44.5801 -0.878906 C 25.5859 -0.878906 10.2539 -16.2109 10.2539 -35.2051 C 10.2539 -53.8086 25.0488 -68.9453 43.5547 -69.4824 L 43.5547 -35.2539 C 43.5547 -34.3262 43.75 -33.7402 44.3848 -33.1543 L 67.8223 -9.96094 C 61.7188 -4.29688 53.5156 -0.878906 44.5801 -0.878906 Z M 46.5332 -36.6211 L 46.5332 -69.4336 C 58.3984 -68.75 68.6523 -62.0605 74.2676 -52.3438 Z M 47.9004 -33.8867 L 75.6348 -49.707 C 77.7344 -45.3125 78.8574 -40.3809 78.8574 -35.2051 C 78.8574 -26.2695 75.4883 -18.1152 69.873 -12.0117 Z"/>
  </g>
  <g id="Ultralight-S" transform="matrix(1 0 0 1 515.644 696)">
   <path d="M 44.043 2.05078 C 64.502 2.05078 81.2988 -14.6973 81.2988 -35.1562 C 81.2988 -55.6152 64.502 -72.3633 44.043 -72.3633 C 23.584 -72.3633 6.83594 -55.6152 6.83594 -35.1562 C 6.83594 -14.6973 23.584 2.05078 44.043 2.05078 Z M 44.043 -0.146484 C 24.7559 -0.146484 9.08203 -15.8691 9.08203 -35.1562 C 9.08203 -54.2969 24.4629 -69.873 43.5059 -70.166 L 43.5059 -35.498 C 43.5059 -34.4727 43.6523 -33.9355 44.2383 -33.3984 L 68.0664 -9.7168 C 61.8164 -3.80859 53.3691 -0.146484 44.043 -0.146484 Z M 45.6543 -35.8887 L 45.6543 -70.1172 C 58.1055 -69.5801 68.8965 -62.4512 74.6094 -52.1973 Z M 46.7285 -33.9355 L 75.5859 -50.293 C 77.832 -45.7031 79.0527 -40.5762 79.0527 -35.1562 C 79.0527 -25.8789 75.4395 -17.4316 69.4824 -11.1328 Z"/>
  </g>
 </g>
</svg>
