<?xml version="1.0" encoding="UTF-8"?>
<!--Generator: Apple Native CoreSVG 123-->
<!DOCTYPE svg
PUBLIC "-//W3C//DTD SVG 1.1//EN"
       "http://www.w3.org/Graphics/SVG/1.1/DTD/svg11.dtd">
<svg version="1.1" xmlns="http://www.w3.org/2000/svg" xmlns:xlink="http://www.w3.org/1999/xlink" width="3300" height="2200">
 <!--glyph: "uni100206.medium", point size: 100.000000, font version: "Version 15.0d7e11", template writer version: "5"-->
 <g id="Notes">
  <rect height="2200" id="artboard" style="fill:white;opacity:1" width="3300" x="0" y="0"/>
  <line id="" style="fill:none;stroke:black;opacity:1;stroke-width:0.5;" x1="263" x2="3036" y1="292" y2="292"/>
  <text style="stroke:none;fill:black;font-family:-apple-system,&quot;SF Pro Display&quot;,&quot;SF Pro Text&quot;,Helvetica,sans-serif;font-weight:bold;" transform="matrix(1 0 0 1 263 322)">Weight/Scale Variations</text>
  <text style="stroke:none;fill:black;font-family:-apple-system,&quot;SF Pro Display&quot;,&quot;SF Pro Text&quot;,Helvetica,sans-serif;text-anchor:middle;" transform="matrix(1 0 0 1 559.711 322)">Ultralight</text>
  <text style="stroke:none;fill:black;font-family:-apple-system,&quot;SF Pro Display&quot;,&quot;SF Pro Text&quot;,Helvetica,sans-serif;text-anchor:middle;" transform="matrix(1 0 0 1 856.422 322)">Thin</text>
  <text style="stroke:none;fill:black;font-family:-apple-system,&quot;SF Pro Display&quot;,&quot;SF Pro Text&quot;,Helvetica,sans-serif;text-anchor:middle;" transform="matrix(1 0 0 1 1153.13 322)">Light</text>
  <text style="stroke:none;fill:black;font-family:-apple-system,&quot;SF Pro Display&quot;,&quot;SF Pro Text&quot;,Helvetica,sans-serif;text-anchor:middle;" transform="matrix(1 0 0 1 1449.84 322)">Regular</text>
  <text style="stroke:none;fill:black;font-family:-apple-system,&quot;SF Pro Display&quot;,&quot;SF Pro Text&quot;,Helvetica,sans-serif;text-anchor:middle;" transform="matrix(1 0 0 1 1746.56 322)">Medium</text>
  <text style="stroke:none;fill:black;font-family:-apple-system,&quot;SF Pro Display&quot;,&quot;SF Pro Text&quot;,Helvetica,sans-serif;text-anchor:middle;" transform="matrix(1 0 0 1 2043.27 322)">Semibold</text>
  <text style="stroke:none;fill:black;font-family:-apple-system,&quot;SF Pro Display&quot;,&quot;SF Pro Text&quot;,Helvetica,sans-serif;text-anchor:middle;" transform="matrix(1 0 0 1 2339.98 322)">Bold</text>
  <text style="stroke:none;fill:black;font-family:-apple-system,&quot;SF Pro Display&quot;,&quot;SF Pro Text&quot;,Helvetica,sans-serif;text-anchor:middle;" transform="matrix(1 0 0 1 2636.69 322)">Heavy</text>
  <text style="stroke:none;fill:black;font-family:-apple-system,&quot;SF Pro Display&quot;,&quot;SF Pro Text&quot;,Helvetica,sans-serif;text-anchor:middle;" transform="matrix(1 0 0 1 2933.4 322)">Black</text>
  <line id="" style="fill:none;stroke:black;opacity:1;stroke-width:0.5;" x1="263" x2="3036" y1="1903" y2="1903"/>
  <g id="" transform="matrix(1 0 0 1 263 1933)">
   <path d="M 9.24805 0.830078 C 13.5547 0.830078 17.1387 -2.74414 17.1387 -7.05078 C 17.1387 -11.3574 13.5449 -14.9316 9.23828 -14.9316 C 4.94141 -14.9316 1.36719 -11.3574 1.36719 -7.05078 C 1.36719 -2.74414 4.95117 0.830078 9.24805 0.830078 Z M 9.24805 -0.654297 C 5.70312 -0.654297 2.87109 -3.49609 2.87109 -7.05078 C 2.87109 -10.6055 5.69336 -13.4473 9.23828 -13.4473 C 12.793 -13.4473 15.6348 -10.6055 15.6445 -7.05078 C 15.6543 -3.49609 12.8027 -0.654297 9.24805 -0.654297 Z M 9.22852 -3.42773 C 9.69727 -3.42773 9.9707 -3.74023 9.9707 -4.25781 L 9.9707 -6.31836 L 12.1973 -6.31836 C 12.6953 -6.31836 13.0371 -6.57227 13.0371 -7.04102 C 13.0371 -7.51953 12.7148 -7.7832 12.1973 -7.7832 L 9.9707 -7.7832 L 9.9707 -10.0098 C 9.9707 -10.5273 9.69727 -10.8496 9.22852 -10.8496 C 8.75977 -10.8496 8.50586 -10.5078 8.50586 -10.0098 L 8.50586 -7.7832 L 6.29883 -7.7832 C 5.78125 -7.7832 5.44922 -7.51953 5.44922 -7.04102 C 5.44922 -6.57227 5.80078 -6.31836 6.29883 -6.31836 L 8.50586 -6.31836 L 8.50586 -4.25781 C 8.50586 -3.75977 8.75977 -3.42773 9.22852 -3.42773 Z"/>
  </g>
  <g id="" transform="matrix(1 0 0 1 281.506 1933)">
   <path d="M 11.709 2.91016 C 17.1582 2.91016 21.6699 -1.60156 21.6699 -7.05078 C 21.6699 -12.4902 17.1484 -17.0117 11.6992 -17.0117 C 6.25977 -17.0117 1.74805 -12.4902 1.74805 -7.05078 C 1.74805 -1.60156 6.26953 2.91016 11.709 2.91016 Z M 11.709 1.25 C 7.09961 1.25 3.41797 -2.44141 3.41797 -7.05078 C 3.41797 -11.6504 7.08984 -15.3516 11.6992 -15.3516 C 16.3086 -15.3516 20 -11.6504 20.0098 -7.05078 C 20.0195 -2.44141 16.3184 1.25 11.709 1.25 Z M 11.6895 -2.41211 C 12.207 -2.41211 12.5195 -2.77344 12.5195 -3.33984 L 12.5195 -6.23047 L 15.5762 -6.23047 C 16.123 -6.23047 16.5039 -6.51367 16.5039 -7.03125 C 16.5039 -7.55859 16.1426 -7.86133 15.5762 -7.86133 L 12.5195 -7.86133 L 12.5195 -10.9277 C 12.5195 -11.5039 12.207 -11.8555 11.6895 -11.8555 C 11.1719 -11.8555 10.8789 -11.4844 10.8789 -10.9277 L 10.8789 -7.86133 L 7.83203 -7.86133 C 7.26562 -7.86133 6.89453 -7.55859 6.89453 -7.03125 C 6.89453 -6.51367 7.28516 -6.23047 7.83203 -6.23047 L 10.8789 -6.23047 L 10.8789 -3.33984 C 10.8789 -2.79297 11.1719 -2.41211 11.6895 -2.41211 Z"/>
  </g>
  <g id="" transform="matrix(1 0 0 1 304.924 1933)">
   <path d="M 14.9707 5.67383 C 21.9336 5.67383 27.6953 -0.078125 27.6953 -7.04102 C 27.6953 -14.0039 21.9238 -19.7559 14.9609 -19.7559 C 8.00781 -19.7559 2.25586 -14.0039 2.25586 -7.04102 C 2.25586 -0.078125 8.01758 5.67383 14.9707 5.67383 Z M 14.9707 3.85742 C 8.93555 3.85742 4.08203 -1.00586 4.08203 -7.04102 C 4.08203 -13.0762 8.92578 -17.9395 14.9609 -17.9395 C 21.0059 -17.9395 25.8594 -13.0762 25.8691 -7.04102 C 25.8789 -1.00586 21.0156 3.85742 14.9707 3.85742 Z M 14.9512 -1.06445 C 15.5176 -1.06445 15.8691 -1.45508 15.8691 -2.06055 L 15.8691 -6.13281 L 20.1074 -6.13281 C 20.6934 -6.13281 21.1133 -6.46484 21.1133 -7.02148 C 21.1133 -7.59766 20.7227 -7.93945 20.1074 -7.93945 L 15.8691 -7.93945 L 15.8691 -12.1875 C 15.8691 -12.8027 15.5176 -13.1934 14.9512 -13.1934 C 14.3848 -13.1934 14.0625 -12.7832 14.0625 -12.1875 L 14.0625 -7.93945 L 9.83398 -7.93945 C 9.21875 -7.93945 8.80859 -7.59766 8.80859 -7.02148 C 8.80859 -6.46484 9.23828 -6.13281 9.83398 -6.13281 L 14.0625 -6.13281 L 14.0625 -2.06055 C 14.0625 -1.47461 14.3848 -1.06445 14.9512 -1.06445 Z"/>
  </g>
  <text style="stroke:none;fill:black;font-family:-apple-system,&quot;SF Pro Display&quot;,&quot;SF Pro Text&quot;,Helvetica,sans-serif;font-weight:bold;" transform="matrix(1 0 0 1 263 1953)">Design Variations</text>
  <text style="stroke:none;fill:black;font-family:-apple-system,&quot;SF Pro Display&quot;,&quot;SF Pro Text&quot;,Helvetica,sans-serif;" transform="matrix(1 0 0 1 263 1971)">Symbols are supported in up to nine weights and three scales.</text>
  <text style="stroke:none;fill:black;font-family:-apple-system,&quot;SF Pro Display&quot;,&quot;SF Pro Text&quot;,Helvetica,sans-serif;" transform="matrix(1 0 0 1 263 1989)">For optimal layout with text and other symbols, vertically align</text>
  <text style="stroke:none;fill:black;font-family:-apple-system,&quot;SF Pro Display&quot;,&quot;SF Pro Text&quot;,Helvetica,sans-serif;" transform="matrix(1 0 0 1 263 2007)">symbols with the adjacent text.</text>
  <rect height="14" id="" style="fill:#00AEEF;stroke:none;opacity:0.4;" width="3" x="776" y="1919"/>
  <g id="" transform="matrix(1 0 0 1 779 1933)">
   <path d="M 10.5273 0 L 12.373 0 L 7.17773 -14.0918 L 5.43945 -14.0918 L 0.244141 0 L 2.08984 0 L 3.50586 -4.0332 L 9.11133 -4.0332 Z M 6.2793 -11.9531 L 6.33789 -11.9531 L 8.59375 -5.52734 L 4.02344 -5.52734 Z"/>
  </g>
  <rect height="14" id="" style="fill:#00AEEF;stroke:none;opacity:0.4;" width="3" x="791.617" y="1919"/>
  <text style="stroke:none;fill:black;font-family:-apple-system,&quot;SF Pro Display&quot;,&quot;SF Pro Text&quot;,Helvetica,sans-serif;font-weight:bold;" transform="matrix(1 0 0 1 776 1953)">Margins</text>
  <text style="stroke:none;fill:black;font-family:-apple-system,&quot;SF Pro Display&quot;,&quot;SF Pro Text&quot;,Helvetica,sans-serif;" transform="matrix(1 0 0 1 776 1971)">Leading and trailing margins on the left and right side of each symbol</text>
  <text style="stroke:none;fill:black;font-family:-apple-system,&quot;SF Pro Display&quot;,&quot;SF Pro Text&quot;,Helvetica,sans-serif;" transform="matrix(1 0 0 1 776 1989)">can be adjusted by modifying the width of the blue rectangles.</text>
  <text style="stroke:none;fill:black;font-family:-apple-system,&quot;SF Pro Display&quot;,&quot;SF Pro Text&quot;,Helvetica,sans-serif;" transform="matrix(1 0 0 1 776 2007)">Modifications are automatically applied proportionally to all</text>
  <text style="stroke:none;fill:black;font-family:-apple-system,&quot;SF Pro Display&quot;,&quot;SF Pro Text&quot;,Helvetica,sans-serif;" transform="matrix(1 0 0 1 776 2025)">scales and weights.</text>
  <g id="" transform="matrix(1 0 0 1 1289 1933)">
   <path d="M 2.83203 3.11523 L 4.375 4.6582 C 5.22461 5.48828 6.19141 5.41992 7.06055 4.46289 L 17.2754 -6.66016 C 17.7051 -6.36719 18.0957 -6.37695 18.5645 -6.47461 L 19.6094 -6.68945 L 20.3027 -5.99609 L 20.2539 -5.47852 C 20.1855 -4.95117 20.3516 -4.53125 20.8496 -4.0332 L 21.6602 -3.22266 C 22.168 -2.71484 22.8223 -2.68555 23.3008 -3.16406 L 26.5527 -6.41602 C 27.0312 -6.89453 27.0117 -7.54883 26.5039 -8.05664 L 25.6836 -8.87695 C 25.1855 -9.375 24.7754 -9.55078 24.2383 -9.47266 L 23.7109 -9.41406 L 23.0566 -10.0781 L 23.3398 -11.2207 C 23.4863 -11.7871 23.3398 -12.2559 22.7148 -12.8613 L 20.3027 -15.2539 C 16.7578 -18.7793 12.2266 -18.6719 9.11133 -15.5371 C 8.69141 -15.1074 8.64258 -14.5215 8.91602 -14.0918 C 9.15039 -13.7207 9.62891 -13.4961 10.2734 -13.6621 C 11.7871 -14.043 13.3008 -13.9258 14.7852 -12.9199 L 14.1602 -11.3379 C 13.9258 -10.752 13.9453 -10.2734 14.1797 -9.83398 L 3.01758 0.439453 C 2.08008 1.30859 1.97266 2.25586 2.83203 3.11523 Z M 10.6738 -15.1465 C 13.3398 -17.1387 16.6504 -16.8262 19.0527 -14.4141 L 21.6797 -11.8066 C 21.9141 -11.5723 21.9434 -11.3867 21.8848 -11.0938 L 21.5039 -9.53125 L 23.0762 -7.95898 L 24.043 -8.04688 C 24.3262 -8.07617 24.4141 -8.05664 24.6387 -7.83203 L 25.2637 -7.20703 L 22.5098 -4.46289 L 21.8848 -5.07812 C 21.6602 -5.30273 21.6406 -5.40039 21.6699 -5.68359 L 21.7578 -6.64062 L 20.1953 -8.20312 L 18.5742 -7.89062 C 18.291 -7.83203 18.1445 -7.83203 17.9102 -8.07617 L 15.7324 -10.2539 C 15.5078 -10.4883 15.4785 -10.625 15.6055 -10.9473 L 16.5527 -13.2227 C 14.9512 -14.7559 12.8418 -15.6055 10.8008 -14.9512 C 10.7129 -14.9219 10.6445 -14.9414 10.6152 -14.9805 C 10.5859 -15.0293 10.5859 -15.0781 10.6738 -15.1465 Z M 4.10156 2.41211 C 3.61328 1.91406 3.78906 1.61133 4.12109 1.30859 L 15.0781 -8.80859 L 16.3086 -7.57812 L 6.15234 3.34961 C 5.84961 3.68164 5.46875 3.7793 5.06836 3.37891 Z"/>
  </g>
  <text style="stroke:none;fill:black;font-family:-apple-system,&quot;SF Pro Display&quot;,&quot;SF Pro Text&quot;,Helvetica,sans-serif;font-weight:bold;" transform="matrix(1 0 0 1 1289 1953)">Exporting</text>
  <text style="stroke:none;fill:black;font-family:-apple-system,&quot;SF Pro Display&quot;,&quot;SF Pro Text&quot;,Helvetica,sans-serif;" transform="matrix(1 0 0 1 1289 1971)">Symbols should be outlined when exporting to ensure the</text>
  <text style="stroke:none;fill:black;font-family:-apple-system,&quot;SF Pro Display&quot;,&quot;SF Pro Text&quot;,Helvetica,sans-serif;" transform="matrix(1 0 0 1 1289 1989)">design is preserved when submitting to Xcode.</text>
  <text id="template-version" style="stroke:none;fill:black;font-family:-apple-system,&quot;SF Pro Display&quot;,&quot;SF Pro Text&quot;,Helvetica,sans-serif;text-anchor:end;" transform="matrix(1 0 0 1 3036 1933)">Template v.1.0</text>
  <text style="stroke:none;fill:black;font-family:-apple-system,&quot;SF Pro Display&quot;,&quot;SF Pro Text&quot;,Helvetica,sans-serif;text-anchor:end;" transform="matrix(1 0 0 1 3036 1951)">Generated from square.and.arrow.up.on.square</text>
  <text style="stroke:none;fill:black;font-family:-apple-system,&quot;SF Pro Display&quot;,&quot;SF Pro Text&quot;,Helvetica,sans-serif;text-anchor:end;" transform="matrix(1 0 0 1 3036 1969)">Typeset at 100 points</text>
  <text style="stroke:none;fill:black;font-family:-apple-system,&quot;SF Pro Display&quot;,&quot;SF Pro Text&quot;,Helvetica,sans-serif;" transform="matrix(1 0 0 1 263 726)">Small</text>
  <text style="stroke:none;fill:black;font-family:-apple-system,&quot;SF Pro Display&quot;,&quot;SF Pro Text&quot;,Helvetica,sans-serif;" transform="matrix(1 0 0 1 263 1156)">Medium</text>
  <text style="stroke:none;fill:black;font-family:-apple-system,&quot;SF Pro Display&quot;,&quot;SF Pro Text&quot;,Helvetica,sans-serif;" transform="matrix(1 0 0 1 263 1586)">Large</text>
 </g>
 <g id="Guides">
  <g id="H-reference" style="fill:#27AAE1;stroke:none;" transform="matrix(1 0 0 1 339 696)">
   <path d="M 54.9316 0 L 57.666 0 L 30.5664 -70.459 L 28.0762 -70.459 L 0.976562 0 L 3.66211 0 L 12.9395 -24.4629 L 45.7031 -24.4629 Z M 29.1992 -67.0898 L 29.4434 -67.0898 L 44.8242 -26.709 L 13.8184 -26.709 Z"/>
  </g>
  <line id="Baseline-S" style="fill:none;stroke:#27AAE1;opacity:1;stroke-width:0.577;" x1="263" x2="3036" y1="696" y2="696"/>
  <line id="Capline-S" style="fill:none;stroke:#27AAE1;opacity:1;stroke-width:0.577;" x1="263" x2="3036" y1="625.541" y2="625.541"/>
  <g id="H-reference" style="fill:#27AAE1;stroke:none;" transform="matrix(1 0 0 1 339 1126)">
   <path d="M 54.9316 0 L 57.666 0 L 30.5664 -70.459 L 28.0762 -70.459 L 0.976562 0 L 3.66211 0 L 12.9395 -24.4629 L 45.7031 -24.4629 Z M 29.1992 -67.0898 L 29.4434 -67.0898 L 44.8242 -26.709 L 13.8184 -26.709 Z"/>
  </g>
  <line id="Baseline-M" style="fill:none;stroke:#27AAE1;opacity:1;stroke-width:0.577;" x1="263" x2="3036" y1="1126" y2="1126"/>
  <line id="Capline-M" style="fill:none;stroke:#27AAE1;opacity:1;stroke-width:0.577;" x1="263" x2="3036" y1="1055.54" y2="1055.54"/>
  <g id="H-reference" style="fill:#27AAE1;stroke:none;" transform="matrix(1 0 0 1 339 1556)">
   <path d="M 54.9316 0 L 57.666 0 L 30.5664 -70.459 L 28.0762 -70.459 L 0.976562 0 L 3.66211 0 L 12.9395 -24.4629 L 45.7031 -24.4629 Z M 29.1992 -67.0898 L 29.4434 -67.0898 L 44.8242 -26.709 L 13.8184 -26.709 Z"/>
  </g>
  <line id="Baseline-L" style="fill:none;stroke:#27AAE1;opacity:1;stroke-width:0.577;" x1="263" x2="3036" y1="1556" y2="1556"/>
  <line id="Capline-L" style="fill:none;stroke:#27AAE1;opacity:1;stroke-width:0.577;" x1="263" x2="3036" y1="1485.54" y2="1485.54"/>
  <rect height="119.336" id="left-margin" style="fill:#00AEEF;stroke:none;opacity:0.4;" width="12.4512" x="1381.88" y="1030.79"/>
  <rect height="119.336" id="right-margin" style="fill:#00AEEF;stroke:none;opacity:0.4;" width="12.4512" x="1505.36" y="1030.79"/>
 </g>
 <g id="Symbols">
  <g id="Black-L" transform="matrix(1 0 0 1 2839.21 1556)">
   <path d="M 76.8555 -30.6641 C 81.8359 -30.6641 85.6934 -34.7168 85.6934 -39.4043 L 85.6934 -98.2422 L 84.9121 -107.422 L 87.4023 -102.49 L 93.6523 -95.8008 C 95.1172 -94.2383 97.1191 -93.3105 99.3164 -93.3105 C 103.174 -93.3105 106.836 -96.2402 106.836 -100.537 C 106.836 -102.734 106.006 -104.297 104.541 -105.762 L 84.0332 -125.391 C 81.6895 -127.686 79.2969 -128.516 76.8555 -128.516 C 74.4629 -128.516 72.0703 -127.686 69.7266 -125.391 L 49.2188 -105.762 C 47.7051 -104.297 46.9238 -102.734 46.9238 -100.537 C 46.9238 -96.2402 50.5371 -93.3105 54.3945 -93.3105 C 56.5918 -93.3105 58.5938 -94.2383 60.0586 -95.8008 L 66.3574 -102.49 L 68.8477 -107.422 L 68.0664 -98.2422 L 68.0664 -39.4043 C 68.0664 -34.7168 71.9238 -30.6641 76.8555 -30.6641 Z M 39.9902 22.6562 L 55.957 22.6562 L 55.957 33.252 C 55.957 48.4863 64.5996 57.0801 79.8828 57.0801 L 148.389 57.0801 C 163.623 57.0801 172.314 48.4863 172.314 33.252 L 172.314 -33.1055 C 172.314 -48.291 163.623 -56.9336 148.389 -56.9336 L 137.207 -56.9336 L 137.207 -60.0098 C 137.207 -75.1953 128.564 -83.7891 113.33 -83.7891 L 97.9492 -83.7891 L 97.9492 -63.5742 L 110.596 -63.5742 C 114.795 -63.5742 116.992 -61.6699 116.992 -57.1289 L 116.992 -4.00391 C 116.992 0.537109 114.795 2.44141 110.596 2.44141 L 42.6758 2.44141 C 38.4766 2.44141 36.3281 0.537109 36.3281 -4.00391 L 36.3281 -57.1289 C 36.3281 -61.6699 38.4766 -63.5742 42.6758 -63.5742 L 55.7617 -63.5742 L 55.7617 -83.7891 L 39.9902 -83.7891 C 24.7559 -83.7891 16.0645 -75.1953 16.0645 -60.0098 L 16.0645 -1.12305 C 16.0645 14.0625 24.7559 22.6562 39.9902 22.6562 Z M 82.6172 36.8652 C 78.3691 36.8652 76.2207 34.9609 76.2207 30.4199 L 76.2207 22.6562 L 113.33 22.6562 C 128.564 22.6562 137.207 14.0625 137.207 -1.12305 L 137.207 -36.6699 L 145.654 -36.6699 C 149.902 -36.6699 152.051 -34.8145 152.051 -30.2734 L 152.051 30.4199 C 152.051 34.9609 149.902 36.8652 145.654 36.8652 Z"/>
  </g>
  <g id="Heavy-L" transform="matrix(1 0 0 1 2544.26 1556)">
   <path d="M 75.5371 -29.9805 C 79.8828 -29.9805 83.3008 -33.5449 83.3008 -37.6465 L 83.3008 -98.291 L 82.6172 -107.52 L 85.7422 -102.539 L 92.9688 -94.8242 C 94.2383 -93.457 96.0449 -92.627 97.998 -92.627 C 101.416 -92.627 104.639 -95.2637 104.639 -99.0723 C 104.639 -100.977 103.906 -102.393 102.588 -103.711 L 81.7383 -123.73 C 79.6875 -125.732 77.6367 -126.465 75.5371 -126.465 C 73.4863 -126.465 71.4355 -125.732 69.3848 -123.73 L 48.5352 -103.711 C 47.2168 -102.393 46.4844 -100.977 46.4844 -99.0723 C 46.4844 -95.2637 49.6582 -92.627 53.125 -92.627 C 55.0293 -92.627 56.8359 -93.457 58.1543 -94.8242 L 65.3809 -102.539 L 68.5059 -107.52 L 67.8223 -98.291 L 67.8223 -37.6465 C 67.8223 -33.5449 71.2402 -29.9805 75.5371 -29.9805 Z M 38.8184 22.3145 L 55.0781 22.3145 L 55.0781 32.5684 C 55.0781 47.1191 63.1836 55.2246 77.7832 55.2246 L 146.045 55.2246 C 160.645 55.2246 168.799 47.1191 168.799 32.5684 L 168.799 -33.2031 C 168.799 -47.7539 160.645 -55.8594 146.045 -55.8594 L 134.668 -55.8594 L 134.668 -60.3516 C 134.668 -74.9023 126.562 -83.0078 111.914 -83.0078 L 95.9961 -83.0078 L 95.9961 -65.4785 L 109.814 -65.4785 C 114.6 -65.4785 117.188 -63.1836 117.188 -58.0566 L 117.188 -2.63672 C 117.188 2.49023 114.6 4.78516 109.814 4.78516 L 40.918 4.78516 C 36.084 4.78516 33.5938 2.49023 33.5938 -2.63672 L 33.5938 -58.0566 C 33.5938 -63.1836 36.084 -65.4785 40.918 -65.4785 L 55.127 -65.4785 L 55.127 -83.0078 L 38.8184 -83.0078 C 24.2188 -83.0078 16.0645 -74.9023 16.0645 -60.3516 L 16.0645 -0.341797 C 16.0645 14.209 24.2188 22.3145 38.8184 22.3145 Z M 79.9316 37.6953 C 75.1465 37.6953 72.5586 35.4004 72.5586 30.2734 L 72.5586 22.3145 L 111.914 22.3145 C 126.562 22.3145 134.668 14.209 134.668 -0.341797 L 134.668 -38.3301 L 143.896 -38.3301 C 148.779 -38.3301 151.27 -36.0352 151.27 -30.9082 L 151.27 30.2734 C 151.27 35.4004 148.779 37.6953 143.896 37.6953 Z"/>
  </g>
  <g id="Bold-L" transform="matrix(1 0 0 1 2249.5 1556)">
   <path d="M 74.0723 -29.1992 C 77.7344 -29.1992 80.6641 -32.1777 80.6641 -35.6445 L 80.6641 -98.4375 L 80.0781 -107.617 L 83.8867 -102.539 L 92.1875 -93.7988 C 93.2617 -92.5781 94.8242 -91.8945 96.4844 -91.8945 C 99.5117 -91.8945 102.197 -94.1895 102.197 -97.4121 C 102.197 -99.0723 101.562 -100.293 100.391 -101.416 L 79.1992 -121.875 C 77.5391 -123.535 75.8301 -124.121 74.0723 -124.121 C 72.3633 -124.121 70.6543 -123.535 68.9941 -121.875 L 47.7539 -101.416 C 46.6309 -100.293 45.9961 -99.0723 45.9961 -97.4121 C 45.9961 -94.1895 48.6328 -91.8945 51.6602 -91.8945 C 53.3203 -91.8945 54.8828 -92.5781 56.0059 -93.7988 L 64.2578 -102.539 L 68.1152 -107.666 L 67.5293 -98.4375 L 67.5293 -35.6445 C 67.5293 -32.1777 70.459 -29.1992 74.0723 -29.1992 Z M 37.5 21.875 L 54.0527 21.875 L 54.0527 31.7871 C 54.0527 45.6055 61.5723 53.125 75.4883 53.125 L 143.408 53.125 C 157.324 53.125 164.893 45.6543 164.893 31.7871 L 164.893 -33.3008 C 164.893 -47.168 157.324 -54.6387 143.408 -54.6387 L 131.885 -54.6387 L 131.885 -60.791 C 131.885 -74.6094 124.365 -82.0801 110.4 -82.0801 L 93.8477 -82.0801 L 93.8477 -67.6758 L 108.984 -67.6758 C 114.404 -67.6758 117.432 -64.8926 117.432 -59.1309 L 117.432 -1.12305 C 117.432 4.6875 114.404 7.42188 108.984 7.42188 L 38.9648 7.42188 C 33.4473 7.42188 30.5176 4.6875 30.5176 -1.12305 L 30.5176 -59.1309 C 30.5176 -64.8926 33.4473 -67.6758 38.9648 -67.6758 L 54.3457 -67.6758 L 54.3457 -82.0801 L 37.5 -82.0801 C 23.6328 -82.0801 16.0645 -74.6094 16.0645 -60.791 L 16.0645 0.537109 C 16.0645 14.4043 23.6328 21.875 37.5 21.875 Z M 76.9531 38.6719 C 71.4844 38.6719 68.5059 35.9375 68.5059 30.127 L 68.5059 21.875 L 110.4 21.875 C 124.365 21.875 131.885 14.3555 131.885 0.537109 L 131.885 -40.1855 L 141.992 -40.1855 C 147.51 -40.1855 150.439 -37.4023 150.439 -31.6406 L 150.439 30.127 C 150.439 35.9375 147.51 38.6719 141.992 38.6719 Z"/>
  </g>
  <g id="Semibold-L" transform="matrix(1 0 0 1 1954.16 1556)">
   <path d="M 73.0957 -28.6621 C 76.2695 -28.6621 78.8086 -31.25 78.8086 -34.2773 L 78.8086 -98.4863 L 78.3203 -107.715 L 82.6172 -102.539 L 91.6016 -93.0664 C 92.627 -91.9922 93.9941 -91.3574 95.4102 -91.3574 C 98.1445 -91.3574 100.488 -93.4082 100.488 -96.2891 C 100.488 -97.7539 99.9023 -98.8281 98.877 -99.8535 L 77.4902 -120.605 C 76.0254 -122.07 74.6094 -122.559 73.0957 -122.559 C 71.582 -122.559 70.166 -122.07 68.7012 -120.605 L 47.2656 -99.8535 C 46.2402 -98.8281 45.6543 -97.7539 45.6543 -96.2891 C 45.6543 -93.4082 47.9492 -91.3574 50.6836 -91.3574 C 52.0996 -91.3574 53.5645 -91.9922 54.541 -93.0664 L 63.5254 -102.539 L 67.8223 -107.715 L 67.3828 -98.4863 L 67.3828 -34.2773 C 67.3828 -31.25 69.9219 -28.6621 73.0957 -28.6621 Z M 36.6211 21.582 L 53.3691 21.582 L 53.3691 31.25 C 53.3691 44.5801 60.4492 51.6602 73.9258 51.6602 L 141.602 51.6602 C 155.029 51.6602 162.158 44.6289 162.158 31.25 L 162.158 -33.3984 C 162.158 -46.7285 155.029 -53.7598 141.602 -53.7598 L 129.932 -53.7598 L 129.932 -61.084 C 129.932 -74.3652 122.803 -81.4941 109.326 -81.4941 L 92.334 -81.4941 L 92.334 -69.1406 L 108.35 -69.1406 C 114.258 -69.1406 117.578 -66.0645 117.578 -59.8633 L 117.578 -0.0488281 C 117.578 6.20117 114.258 9.22852 108.35 9.22852 L 37.5977 9.22852 C 31.6406 9.22852 28.418 6.20117 28.418 -0.0488281 L 28.418 -59.8633 C 28.418 -66.0645 31.6406 -69.1406 37.5977 -69.1406 L 53.8574 -69.1406 L 53.8574 -81.4941 L 36.6211 -81.4941 C 23.1934 -81.4941 16.0645 -74.4141 16.0645 -61.084 L 16.0645 1.17188 C 16.0645 14.5508 23.1934 21.582 36.6211 21.582 Z M 74.9023 39.3555 C 68.9941 39.3555 65.6738 36.2793 65.6738 30.0293 L 65.6738 21.582 L 109.326 21.582 C 122.803 21.582 129.932 14.502 129.932 1.17188 L 129.932 -41.4551 L 140.625 -41.4551 C 146.631 -41.4551 149.854 -38.3789 149.854 -32.1777 L 149.854 30.0293 C 149.854 36.2793 146.631 39.3555 140.625 39.3555 Z"/>
  </g>
  <g id="Medium-L" transform="matrix(1 0 0 1 1658.47 1556)">
   <path d="M 72.3145 -28.2715 C 75.0977 -28.2715 77.3926 -30.5664 77.3926 -33.252 L 77.3926 -98.5352 L 77.002 -107.764 L 81.6406 -102.539 L 91.2109 -92.4805 C 92.0898 -91.5039 93.3594 -90.9668 94.6289 -90.9668 C 97.1191 -90.9668 99.2188 -92.8223 99.2188 -95.4102 C 99.2188 -96.7285 98.6816 -97.7051 97.7539 -98.6816 L 76.1719 -119.629 C 74.8535 -120.898 73.6328 -121.338 72.3145 -121.338 C 70.9961 -121.338 69.7754 -120.898 68.5059 -119.629 L 46.875 -98.6816 C 45.9473 -97.7051 45.4102 -96.7285 45.4102 -95.4102 C 45.4102 -92.8223 47.4121 -90.9668 49.9512 -90.9668 C 51.1719 -90.9668 52.4902 -91.5039 53.418 -92.4805 L 62.9395 -102.539 L 67.627 -107.812 L 67.2363 -98.5352 L 67.2363 -33.252 C 67.2363 -30.5664 69.5312 -28.2715 72.3145 -28.2715 Z M 35.9375 21.3379 L 52.832 21.3379 L 52.832 30.8594 C 52.832 43.7988 59.6191 50.5859 72.7051 50.5859 L 140.234 50.5859 C 153.271 50.5859 160.107 43.8477 160.107 30.8594 L 160.107 -33.4473 C 160.107 -46.3867 153.271 -53.125 140.234 -53.125 L 128.418 -53.125 L 128.418 -61.2793 C 128.418 -74.2188 121.68 -81.0059 108.545 -81.0059 L 91.2109 -81.0059 L 91.2109 -70.2637 L 107.91 -70.2637 C 114.16 -70.2637 117.725 -66.9434 117.725 -60.4004 L 117.725 0.732422 C 117.725 7.32422 114.16 10.6445 107.91 10.6445 L 36.5723 10.6445 C 30.2246 10.6445 26.8066 7.32422 26.8066 0.732422 L 26.8066 -60.4004 C 26.8066 -66.9434 30.2246 -70.2637 36.5723 -70.2637 L 53.4668 -70.2637 L 53.4668 -81.0059 L 35.9375 -81.0059 C 22.9004 -81.0059 16.0645 -74.2676 16.0645 -61.2793 L 16.0645 1.66016 C 16.0645 14.6484 22.9004 21.3379 35.9375 21.3379 Z M 73.3398 39.8438 C 67.0898 39.8438 63.5742 36.5234 63.5742 29.9805 L 63.5742 21.3379 L 108.545 21.3379 C 121.68 21.3379 128.418 14.5508 128.418 1.66016 L 128.418 -42.3828 L 139.6 -42.3828 C 145.947 -42.3828 149.365 -39.1113 149.365 -32.5195 L 149.365 29.9805 C 149.365 36.5234 145.947 39.8438 139.6 39.8438 Z"/>
  </g>
  <g id="Regular-L" transform="matrix(1 0 0 1 1363.1 1556)">
   <path d="M 71.3379 -27.7344 C 73.6328 -27.7344 75.5859 -29.6387 75.5859 -31.9336 L 75.5859 -98.6328 L 75.293 -107.861 L 80.3711 -102.539 L 90.6738 -91.7969 C 91.4551 -90.918 92.5781 -90.4785 93.6035 -90.4785 C 95.8008 -90.4785 97.5098 -92.0898 97.5098 -94.2871 C 97.5098 -95.4102 97.0703 -96.2891 96.2402 -97.1191 L 74.4141 -118.359 C 73.3398 -119.434 72.4121 -119.775 71.3379 -119.775 C 70.2148 -119.775 69.2871 -119.434 68.2129 -118.359 L 46.3379 -97.1191 C 45.5566 -96.2891 45.0684 -95.4102 45.0684 -94.2871 C 45.0684 -92.0898 46.7285 -90.4785 48.9746 -90.4785 C 50 -90.4785 51.1719 -90.918 51.9531 -91.7969 L 62.207 -102.539 L 67.3828 -107.91 L 67.041 -98.6328 L 67.041 -31.9336 C 67.041 -29.6387 68.9941 -27.7344 71.3379 -27.7344 Z M 35.0586 21.0938 L 52.1484 21.0938 L 52.1484 30.3223 C 52.1484 42.7734 58.4961 49.1699 71.1426 49.1699 L 138.428 49.1699 C 151.025 49.1699 157.422 42.8223 157.422 30.3223 L 157.422 -33.4961 C 157.422 -45.9961 151.025 -52.2949 138.428 -52.2949 L 126.514 -52.2949 L 126.514 -61.5723 C 126.514 -74.0234 120.166 -80.3711 107.52 -80.3711 L 89.6973 -80.3711 L 89.6973 -71.7285 L 107.324 -71.7285 C 114.014 -71.7285 117.871 -68.1152 117.871 -61.1328 L 117.871 1.80664 C 117.871 8.78906 114.014 12.4023 107.324 12.4023 L 35.2539 12.4023 C 28.418 12.4023 24.707 8.78906 24.707 1.80664 L 24.707 -61.1328 C 24.707 -68.1152 28.418 -71.7285 35.2539 -71.7285 L 52.9297 -71.7285 L 52.9297 -80.3711 L 35.0586 -80.3711 C 22.4609 -80.3711 16.0645 -74.0723 16.0645 -61.5723 L 16.0645 2.24609 C 16.0645 14.7461 22.4609 21.0938 35.0586 21.0938 Z M 71.2891 40.4785 C 64.5996 40.4785 60.791 36.8652 60.791 29.8828 L 60.791 21.0938 L 107.52 21.0938 C 120.166 21.0938 126.514 14.6973 126.514 2.24609 L 126.514 -43.6523 L 138.281 -43.6523 C 145.068 -43.6523 148.779 -40.0391 148.779 -33.0566 L 148.779 29.8828 C 148.779 36.8652 145.068 40.4785 138.281 40.4785 Z"/>
  </g>
  <g id="Light-L" transform="matrix(1 0 0 1 1067.68 1556)">
   <path d="M 70.4102 -27.2949 C 72.2168 -27.2949 73.6816 -28.7598 73.6816 -30.5176 L 73.6816 -99.9023 L 73.4375 -108.887 L 79.7852 -102.441 L 91.0645 -90.8691 C 91.6504 -90.1855 92.5293 -89.8438 93.3105 -89.8438 C 94.9707 -89.8438 96.3379 -91.1133 96.3379 -92.7734 C 96.3379 -93.6523 95.9961 -94.2871 95.3613 -94.9219 L 72.7539 -117.188 C 71.9727 -117.969 71.2402 -118.262 70.4102 -118.262 C 69.5801 -118.262 68.8477 -117.969 68.0664 -117.188 L 45.459 -94.9219 C 44.8242 -94.2871 44.4824 -93.6523 44.4824 -92.7734 C 44.4824 -91.1133 45.7031 -89.8438 47.4121 -89.8438 C 48.2422 -89.8438 49.1211 -90.1855 49.7559 -90.8691 L 61.0352 -102.441 L 67.3828 -108.936 L 67.1387 -99.9023 L 67.1387 -30.5176 C 67.1387 -28.7598 68.6523 -27.2949 70.4102 -27.2949 Z M 34.0332 20.8008 L 51.0742 20.8008 L 51.0742 29.541 C 51.0742 41.2598 57.1777 47.4121 69.043 47.4121 L 136.865 47.4121 C 148.73 47.4121 154.834 41.3574 154.834 29.541 L 154.834 -35.5957 C 154.834 -47.4121 148.73 -53.4668 136.865 -53.4668 L 124.658 -53.4668 L 124.658 -62.207 C 124.658 -73.877 118.555 -80.0781 106.689 -80.0781 L 88.5254 -80.0781 L 88.5254 -73.4375 L 106.543 -73.4375 C 113.818 -73.4375 118.066 -69.4824 118.066 -61.8652 L 118.066 2.63672 C 118.066 10.2539 113.818 14.209 106.543 14.209 L 34.1797 14.209 C 26.709 14.209 22.7051 10.2539 22.7051 2.63672 L 22.7051 -61.8652 C 22.7051 -69.4824 26.709 -73.4375 34.1797 -73.4375 L 52.2949 -73.4375 L 52.2949 -80.0781 L 34.0332 -80.0781 C 22.168 -80.0781 16.0645 -73.9746 16.0645 -62.207 L 16.0645 2.97852 C 16.0645 14.7461 22.168 20.8008 34.0332 20.8008 Z M 69.2383 40.7715 C 61.9141 40.7715 57.7148 36.8652 57.7148 29.1992 L 57.7148 20.8008 L 106.689 20.8008 C 118.555 20.8008 124.658 14.6484 124.658 2.97852 L 124.658 -46.8262 L 136.719 -46.8262 C 144.238 -46.8262 148.242 -42.8711 148.242 -35.2539 L 148.242 29.1992 C 148.242 36.8652 144.238 40.7715 136.719 40.7715 Z"/>
  </g>
  <g id="Thin-L" transform="matrix(1 0 0 1 772.682 1556)">
   <path d="M 69.2383 -26.6602 C 70.3125 -26.6602 71.1914 -27.5391 71.1914 -28.6133 L 71.1914 -101.562 L 71.0449 -110.254 L 78.9551 -102.295 L 91.5527 -89.6484 C 91.8945 -89.2578 92.4805 -88.9648 92.9688 -88.9648 C 93.8965 -88.9648 94.7266 -89.7949 94.7266 -90.8203 C 94.7266 -91.3086 94.5312 -91.6992 94.1406 -92.0898 L 70.6055 -115.625 C 70.166 -116.064 69.7266 -116.211 69.2383 -116.211 C 68.7012 -116.211 68.2617 -116.064 67.8223 -115.625 L 44.1895 -92.0898 C 43.8477 -91.6992 43.6035 -91.3086 43.6035 -90.8203 C 43.6035 -89.7949 44.3848 -88.9648 45.4102 -88.9648 C 45.8984 -88.9648 46.4355 -89.2578 46.8262 -89.6484 L 59.4238 -102.295 L 67.3828 -110.352 L 67.2363 -101.562 L 67.2363 -28.6133 C 67.2363 -27.5391 68.1641 -26.6602 69.2383 -26.6602 Z M 32.666 20.459 L 49.707 20.459 L 49.707 28.5156 C 49.707 39.2578 55.4688 45.1172 66.3086 45.1172 L 134.814 45.1172 C 145.703 45.1172 151.416 39.4043 151.416 28.5156 L 151.416 -38.3789 C 151.416 -49.2676 145.703 -54.9805 134.814 -54.9805 L 122.217 -54.9805 L 122.217 -63.0371 C 122.217 -73.7305 116.504 -79.6387 105.615 -79.6387 L 87.0117 -79.6387 L 87.0117 -75.6836 L 105.469 -75.6836 C 113.574 -75.6836 118.311 -71.2891 118.311 -62.8418 L 118.311 3.71094 C 118.311 12.1582 113.574 16.5527 105.469 16.5527 L 32.8125 16.5527 C 24.4141 16.5527 19.9707 12.1582 19.9707 3.71094 L 19.9707 -62.8418 C 19.9707 -71.2891 24.4141 -75.6836 32.8125 -75.6836 L 51.416 -75.6836 L 51.416 -79.6387 L 32.666 -79.6387 C 21.7773 -79.6387 16.0645 -73.877 16.0645 -63.0371 L 16.0645 3.90625 C 16.0645 14.7461 21.7773 20.459 32.666 20.459 Z M 66.5039 41.1621 C 58.3496 41.1621 53.6621 36.8164 53.6621 28.3203 L 53.6621 20.459 L 105.615 20.459 C 116.504 20.459 122.217 14.5996 122.217 3.90625 L 122.217 -51.0254 L 134.668 -51.0254 C 143.115 -51.0254 147.51 -46.6797 147.51 -38.1836 L 147.51 28.3203 C 147.51 36.8164 143.115 41.1621 134.668 41.1621 Z"/>
  </g>
  <g id="Ultralight-L" transform="matrix(1 0 0 1 476.85 1556)">
   <path d="M 68.6035 -26.3672 C 69.3359 -26.3672 69.873 -26.9531 69.873 -27.6367 L 69.873 -102.441 L 69.8242 -110.938 L 78.5156 -102.246 L 91.7969 -89.0137 C 92.041 -88.7695 92.4316 -88.5254 92.7734 -88.5254 C 93.3105 -88.5254 93.8965 -89.1602 93.8965 -89.7949 C 93.8965 -90.0879 93.7988 -90.332 93.5547 -90.625 L 69.4824 -114.844 C 69.2383 -115.039 68.9453 -115.186 68.6035 -115.186 C 68.3105 -115.186 67.9688 -115.039 67.7246 -114.844 L 43.6035 -90.625 C 43.3105 -90.332 43.2129 -90.0879 43.2129 -89.7949 C 43.2129 -89.1602 43.7012 -88.5254 44.3359 -88.5254 C 44.6777 -88.5254 45.0684 -88.7695 45.3613 -89.0137 L 58.5938 -102.246 L 67.3828 -111.035 L 67.334 -102.441 L 67.334 -27.6367 C 67.334 -26.9531 67.8711 -26.3672 68.6035 -26.3672 Z M 31.9824 20.3125 L 49.0234 20.3125 L 49.0234 28.0273 C 49.0234 38.2324 54.541 43.9453 64.9414 43.9453 L 133.789 43.9453 C 144.141 43.9453 149.658 38.3789 149.658 28.0273 L 149.658 -39.7949 C 149.658 -50.1953 144.141 -55.7617 133.789 -55.7617 L 120.947 -55.7617 L 120.947 -63.4766 C 120.947 -73.6816 115.43 -79.3945 105.078 -79.3945 L 86.2305 -79.3945 L 86.2305 -76.8555 L 104.883 -76.8555 C 113.477 -76.8555 118.408 -72.2168 118.408 -63.3301 L 118.408 4.24805 C 118.408 13.1348 113.477 17.7246 104.883 17.7246 L 32.1289 17.7246 C 23.1934 17.7246 18.6035 13.1348 18.6035 4.24805 L 18.6035 -63.3301 C 18.6035 -72.2168 23.1934 -76.8555 32.1289 -76.8555 L 50.9766 -76.8555 L 50.9766 -79.3945 L 31.9824 -79.3945 C 21.582 -79.3945 16.0645 -73.8281 16.0645 -63.4766 L 16.0645 4.3457 C 16.0645 14.7461 21.582 20.3125 31.9824 20.3125 Z M 65.0879 41.4062 C 56.4941 41.4062 51.5625 36.7676 51.5625 27.8809 L 51.5625 20.3125 L 105.078 20.3125 C 115.43 20.3125 120.947 14.5996 120.947 4.3457 L 120.947 -53.1738 L 133.594 -53.1738 C 142.529 -53.1738 147.119 -48.584 147.119 -39.6973 L 147.119 27.8809 C 147.119 36.7676 142.529 41.4062 133.594 41.4062 Z"/>
  </g>
  <g id="Black-M" transform="matrix(1 0 0 1 2858.74 1126)">
   <path d="M 60.8398 -32.373 C 65.2832 -32.373 68.6035 -35.9863 68.6035 -40.0879 L 68.6035 -84.6191 L 67.9199 -91.5527 L 69.6289 -87.3047 L 73.7305 -82.959 C 75 -81.6406 76.709 -80.8105 78.6621 -80.8105 C 81.8359 -80.8105 85.1074 -83.3008 85.1074 -87.0117 C 85.1074 -88.916 84.4238 -90.2344 83.2031 -91.5039 L 67.2852 -106.689 C 65.1855 -108.691 62.9883 -109.473 60.8398 -109.473 C 58.6914 -109.473 56.4941 -108.691 54.4434 -106.689 L 38.5254 -91.5039 C 37.3047 -90.2344 36.5723 -88.916 36.5723 -87.0117 C 36.5723 -83.3008 39.8438 -80.8105 43.0664 -80.8105 C 45.0195 -80.8105 46.7285 -81.6406 47.9492 -82.959 L 52.0996 -87.3047 L 53.8086 -91.5527 L 53.125 -84.6191 L 53.125 -40.0879 C 53.125 -35.9863 56.4453 -32.373 60.8398 -32.373 Z M 31.9824 10.0098 L 44.043 10.0098 L 44.043 18.3594 C 44.043 30.6152 51.3184 37.8906 63.5742 37.8906 L 117.334 37.8906 C 129.59 37.8906 136.865 30.6152 136.865 18.3594 L 136.865 -34.6191 C 136.865 -46.8262 129.59 -54.1504 117.334 -54.1504 L 108.74 -54.1504 L 108.74 -54.248 C 108.74 -66.5039 101.465 -73.7793 89.209 -73.7793 L 77.9297 -73.7793 L 77.9297 -55.5176 L 86.2793 -55.5176 C 89.1113 -55.5176 90.4785 -54.3945 90.4785 -51.3184 L 90.4785 -12.4512 C 90.4785 -9.375 89.1113 -8.25195 86.2793 -8.25195 L 34.9121 -8.25195 C 32.0801 -8.25195 30.7617 -9.375 30.7617 -12.4512 L 30.7617 -51.3184 C 30.7617 -54.3945 32.0801 -55.5176 34.9121 -55.5176 L 43.7988 -55.5176 L 43.7988 -73.7793 L 31.9824 -73.7793 C 19.7266 -73.7793 12.4512 -66.5039 12.4512 -54.248 L 12.4512 -9.52148 C 12.4512 2.73438 19.7266 10.0098 31.9824 10.0098 Z M 66.5039 19.6289 C 63.6719 19.6289 62.3535 18.5547 62.3535 15.4785 L 62.3535 10.0098 L 89.209 10.0098 C 101.465 10.0098 108.74 2.73438 108.74 -9.52148 L 108.74 -35.8398 L 114.404 -35.8398 C 117.236 -35.8398 118.604 -34.7656 118.604 -31.6895 L 118.604 15.4785 C 118.604 18.5547 117.236 19.6289 114.404 19.6289 Z"/>
  </g>
  <g id="Heavy-M" transform="matrix(1 0 0 1 2563.59 1126)">
   <path d="M 59.668 -31.7383 C 63.5254 -31.7383 66.5039 -34.9121 66.5039 -38.5254 L 66.5039 -84.375 L 65.8691 -91.4062 L 67.9688 -87.3535 L 72.9004 -82.1289 C 74.0234 -80.957 75.5371 -80.2246 77.2461 -80.2246 C 80.1758 -80.2246 83.0566 -82.5195 83.0566 -85.791 C 83.0566 -87.5 82.4219 -88.6719 81.2988 -89.7949 L 65.2344 -105.176 C 63.4277 -106.982 61.5234 -107.617 59.668 -107.617 C 57.8125 -107.617 55.9082 -106.982 54.1016 -105.176 L 38.0371 -89.7949 C 36.9141 -88.6719 36.2793 -87.5 36.2793 -85.791 C 36.2793 -82.5195 39.1602 -80.2246 42.041 -80.2246 C 43.7988 -80.2246 45.3125 -80.957 46.4355 -82.1289 L 51.3184 -87.3535 L 53.418 -91.4062 L 52.832 -84.375 L 52.832 -38.5254 C 52.832 -34.9121 55.8105 -31.7383 59.668 -31.7383 Z M 31.0059 9.66797 L 43.3105 9.66797 L 43.3105 17.8223 C 43.3105 29.541 50.0977 36.3281 61.8652 36.3281 L 115.186 36.3281 C 126.953 36.3281 133.74 29.5898 133.74 17.8223 L 133.74 -34.1309 C 133.74 -45.8984 126.953 -52.6367 115.186 -52.6367 L 106.494 -52.6367 L 106.494 -54.4922 C 106.494 -66.2598 99.707 -72.998 87.9395 -72.998 L 76.123 -72.998 L 76.123 -57.1777 L 85.6934 -57.1777 C 88.9648 -57.1777 90.625 -55.7129 90.625 -52.1484 L 90.625 -11.1328 C 90.625 -7.61719 88.9648 -6.15234 85.6934 -6.15234 L 33.252 -6.15234 C 29.9316 -6.15234 28.2715 -7.61719 28.2715 -11.1328 L 28.2715 -52.1484 C 28.2715 -55.7129 29.9316 -57.1777 33.252 -57.1777 L 43.2129 -57.1777 L 43.2129 -72.998 L 31.0059 -72.998 C 19.2383 -72.998 12.4512 -66.2598 12.4512 -54.4922 L 12.4512 -8.83789 C 12.4512 2.92969 19.2383 9.66797 31.0059 9.66797 Z M 64.1113 20.5078 C 60.8398 20.5078 59.1309 19.043 59.1309 15.4785 L 59.1309 9.66797 L 87.9395 9.66797 C 99.707 9.66797 106.494 2.92969 106.494 -8.83789 L 106.494 -36.8164 L 112.891 -36.8164 C 116.211 -36.8164 117.871 -35.3516 117.871 -31.8359 L 117.871 15.4785 C 117.871 19.043 116.211 20.5078 112.891 20.5078 Z"/>
  </g>
  <g id="Bold-M" transform="matrix(1 0 0 1 2268.66 1126)">
   <path d="M 58.3008 -31.0547 C 61.5723 -31.0547 64.1113 -33.6914 64.1113 -36.7676 L 64.1113 -84.1309 L 63.623 -91.2598 L 66.1621 -87.4023 L 71.9238 -81.25 C 72.9004 -80.2246 74.2188 -79.5898 75.6836 -79.5898 C 78.2715 -79.5898 80.7129 -81.5918 80.7129 -84.4238 C 80.7129 -85.8887 80.127 -86.9629 79.1504 -87.9395 L 62.9395 -103.516 C 61.4258 -105.029 59.9121 -105.566 58.3008 -105.566 C 56.7383 -105.566 55.2246 -105.029 53.7109 -103.516 L 37.5 -87.9395 C 36.5234 -86.9629 35.9375 -85.8887 35.9375 -84.4238 C 35.9375 -81.5918 38.3301 -79.5898 40.918 -79.5898 C 42.3828 -79.5898 43.75 -80.2246 44.7266 -81.25 L 50.4883 -87.4023 L 53.0273 -91.2598 L 52.4902 -84.1309 L 52.4902 -36.7676 C 52.4902 -33.6914 55.0781 -31.0547 58.3008 -31.0547 Z M 29.8828 9.27734 L 42.5293 9.27734 L 42.5293 17.1875 C 42.5293 28.3691 48.6816 34.5215 59.9609 34.5215 L 112.744 34.5215 C 123.975 34.5215 130.176 28.3691 130.176 17.1875 L 130.176 -33.6426 C 130.176 -44.8242 123.975 -50.9766 112.744 -50.9766 L 103.906 -50.9766 L 103.906 -54.7852 C 103.906 -65.918 97.7539 -72.1191 86.5234 -72.1191 L 74.0723 -72.1191 L 74.0723 -59.0332 L 84.9609 -59.0332 C 88.8184 -59.0332 90.8691 -57.1777 90.8691 -53.125 L 90.8691 -9.7168 C 90.8691 -5.66406 88.8184 -3.80859 84.9609 -3.80859 L 31.3965 -3.80859 C 27.5391 -3.80859 25.5371 -5.66406 25.5371 -9.7168 L 25.5371 -53.125 C 25.5371 -57.1777 27.5391 -59.0332 31.3965 -59.0332 L 42.5781 -59.0332 L 42.5781 -72.1191 L 29.8828 -72.1191 C 18.6523 -72.1191 12.4512 -65.918 12.4512 -54.7852 L 12.4512 -8.05664 C 12.4512 3.125 18.6523 9.27734 29.8828 9.27734 Z M 61.4746 21.4355 C 57.666 21.4355 55.5664 19.6289 55.5664 15.5273 L 55.5664 9.27734 L 86.5234 9.27734 C 97.7539 9.27734 103.906 3.125 103.906 -8.05664 L 103.906 -37.8906 L 111.23 -37.8906 C 115.088 -37.8906 117.09 -36.0352 117.09 -31.9824 L 117.09 15.5273 C 117.09 19.6289 115.088 21.4355 111.23 21.4355 Z"/>
  </g>
  <g id="Semibold-M" transform="matrix(1 0 0 1 1973.17 1126)">
   <path d="M 57.4219 -30.5664 C 60.2539 -30.5664 62.5 -32.8613 62.5 -35.5469 L 62.5 -83.9355 L 62.0605 -91.1133 L 64.8926 -87.4023 L 71.2402 -80.6641 C 72.1191 -79.6875 73.3398 -79.1504 74.6094 -79.1504 C 77.002 -79.1504 79.1016 -80.957 79.1016 -83.4961 C 79.1016 -84.8145 78.5645 -85.7422 77.6855 -86.6699 L 61.377 -102.344 C 60.0586 -103.662 58.7402 -104.102 57.4219 -104.102 C 56.0547 -104.102 54.7363 -103.662 53.418 -102.344 L 37.1094 -86.6699 C 36.2305 -85.7422 35.6934 -84.8145 35.6934 -83.4961 C 35.6934 -80.957 37.7441 -79.1504 40.1855 -79.1504 C 41.4551 -79.1504 42.6758 -79.6875 43.5547 -80.6641 L 49.9023 -87.4023 L 52.7344 -91.1621 L 52.2949 -83.9355 L 52.2949 -35.5469 C 52.2949 -32.8613 54.5898 -30.5664 57.4219 -30.5664 Z M 29.1016 9.0332 L 41.9434 9.0332 L 41.9434 16.7969 C 41.9434 27.5391 47.7539 33.3008 58.5938 33.3008 L 111.084 33.3008 C 121.924 33.3008 127.734 27.5391 127.734 16.7969 L 127.734 -33.3008 C 127.734 -44.0918 121.924 -49.8047 111.084 -49.8047 L 102.148 -49.8047 L 102.148 -54.9805 C 102.148 -65.7227 96.3867 -71.4844 85.498 -71.4844 L 72.6562 -71.4844 L 72.6562 -60.3027 L 84.4727 -60.3027 C 88.6719 -60.3027 91.0156 -58.2031 91.0156 -53.7598 L 91.0156 -8.74023 C 91.0156 -4.29688 88.6719 -2.14844 84.4727 -2.14844 L 30.127 -2.14844 C 25.8789 -2.14844 23.6328 -4.29688 23.6328 -8.74023 L 23.6328 -53.7598 C 23.6328 -58.2031 25.8789 -60.3027 30.127 -60.3027 L 42.1387 -60.3027 L 42.1387 -71.4844 L 29.1016 -71.4844 C 18.2617 -71.4844 12.4512 -65.7227 12.4512 -54.9805 L 12.4512 -7.51953 C 12.4512 3.27148 18.2617 9.0332 29.1016 9.0332 Z M 59.6191 22.1191 C 55.4688 22.1191 53.125 20.0195 53.125 15.5762 L 53.125 9.0332 L 85.498 9.0332 C 96.3867 9.0332 102.148 3.22266 102.148 -7.51953 L 102.148 -38.623 L 110.059 -38.623 C 114.307 -38.623 116.553 -36.5234 116.553 -32.0801 L 116.553 15.5762 C 116.553 20.0195 114.307 22.1191 110.059 22.1191 Z"/>
  </g>
  <g id="Medium-M" transform="matrix(1 0 0 1 1677.39 1126)">
   <path d="M 56.6895 -30.1758 C 59.2285 -30.1758 61.2793 -32.2266 61.2793 -34.668 L 61.2793 -83.7891 L 60.8887 -91.0645 L 63.916 -87.4512 L 70.7031 -80.1758 C 71.5332 -79.2969 72.6562 -78.8574 73.7793 -78.8574 C 76.0254 -78.8574 77.8809 -80.4688 77.8809 -82.7637 C 77.8809 -83.9844 77.3926 -84.8633 76.5625 -85.6934 L 60.1562 -101.465 C 58.9844 -102.637 57.9102 -103.027 56.6895 -103.027 C 55.5176 -103.027 54.3945 -102.637 53.2227 -101.465 L 36.8164 -85.6934 C 35.9863 -84.8633 35.5469 -83.9844 35.5469 -82.7637 C 35.5469 -80.4688 37.3535 -78.8574 39.5996 -78.8574 C 40.7227 -78.8574 41.8945 -79.2969 42.6758 -80.1758 L 49.4629 -87.4512 L 52.4902 -91.0645 L 52.1484 -83.7891 L 52.1484 -34.668 C 52.1484 -32.2266 54.1992 -30.1758 56.6895 -30.1758 Z M 28.5156 8.83789 L 41.5527 8.83789 L 41.5527 16.4551 C 41.5527 26.9043 47.0215 32.373 57.6172 32.373 L 109.814 32.373 C 120.361 32.373 125.879 26.9043 125.879 16.4551 L 125.879 -33.0078 C 125.879 -43.5059 120.361 -48.9746 109.814 -48.9746 L 100.83 -48.9746 L 100.83 -55.127 C 100.83 -65.5762 95.3613 -71.0449 84.7656 -71.0449 L 71.582 -71.0449 L 71.582 -61.2793 L 84.1309 -61.2793 C 88.5742 -61.2793 91.1133 -58.9355 91.1133 -54.248 L 91.1133 -7.95898 C 91.1133 -3.27148 88.5742 -0.927734 84.1309 -0.927734 L 29.1504 -0.927734 C 24.6582 -0.927734 22.168 -3.27148 22.168 -7.95898 L 22.168 -54.248 C 22.168 -58.9355 24.6582 -61.2793 29.1504 -61.2793 L 41.8457 -61.2793 L 41.8457 -71.0449 L 28.5156 -71.0449 C 17.9688 -71.0449 12.4512 -65.5762 12.4512 -55.127 L 12.4512 -7.12891 C 12.4512 3.36914 17.9688 8.83789 28.5156 8.83789 Z M 58.252 22.6074 C 53.7598 22.6074 51.2695 20.3125 51.2695 15.5762 L 51.2695 8.83789 L 84.7656 8.83789 C 95.3613 8.83789 100.83 3.36914 100.83 -7.12891 L 100.83 -39.209 L 109.18 -39.209 C 113.721 -39.209 116.162 -36.8652 116.162 -32.1777 L 116.162 15.5762 C 116.162 20.3125 113.721 22.6074 109.18 22.6074 Z"/>
  </g>
  <g id="Regular-M" transform="matrix(1 0 0 1 1381.88 1126)">
   <path d="M 55.8105 -29.6875 C 57.9102 -29.6875 59.668 -31.3965 59.668 -33.4473 L 59.668 -83.6426 L 59.375 -90.918 L 62.6465 -87.4512 L 70.0684 -79.5898 C 70.752 -78.8086 71.7773 -78.418 72.7051 -78.418 C 74.707 -78.418 76.2695 -79.834 76.2695 -81.8359 C 76.2695 -82.9102 75.8301 -83.6914 75.0977 -84.4238 L 58.5938 -100.342 C 57.6172 -101.318 56.7871 -101.611 55.8105 -101.611 C 54.7852 -101.611 53.9551 -101.318 52.9785 -100.342 L 36.4746 -84.4238 C 35.7422 -83.6914 35.3027 -82.9102 35.3027 -81.8359 C 35.3027 -79.834 36.7676 -78.418 38.8184 -78.418 C 39.7461 -78.418 40.8203 -78.8086 41.5039 -79.5898 L 48.9258 -87.4512 L 52.1973 -90.918 L 51.9043 -83.6426 L 51.9043 -33.4473 C 51.9043 -31.3965 53.7109 -29.6875 55.8105 -29.6875 Z M 27.7832 8.54492 L 40.9668 8.54492 L 40.9668 16.0156 C 40.9668 26.0742 46.0938 31.1523 56.2988 31.1523 L 108.154 31.1523 C 118.359 31.1523 123.486 26.123 123.486 16.0156 L 123.486 -32.666 C 123.486 -42.7734 118.359 -47.8027 108.154 -47.8027 L 99.1211 -47.8027 L 99.1211 -55.2734 C 99.1211 -65.332 93.9941 -70.4102 83.7891 -70.4102 L 70.166 -70.4102 L 70.166 -62.5488 L 83.6426 -62.5488 C 88.4766 -62.5488 91.2598 -59.9609 91.2598 -54.8828 L 91.2598 -6.98242 C 91.2598 -1.9043 88.4766 0.683594 83.6426 0.683594 L 27.8809 0.683594 C 22.998 0.683594 20.3125 -1.9043 20.3125 -6.98242 L 20.3125 -54.8828 C 20.3125 -59.9609 22.998 -62.5488 27.8809 -62.5488 L 41.4062 -62.5488 L 41.4062 -70.4102 L 27.7832 -70.4102 C 17.5781 -70.4102 12.4512 -65.3809 12.4512 -55.2734 L 12.4512 -6.5918 C 12.4512 3.51562 17.5781 8.54492 27.7832 8.54492 Z M 56.4453 23.291 C 51.6113 23.291 48.8281 20.7031 48.8281 15.625 L 48.8281 8.54492 L 83.7891 8.54492 C 93.9941 8.54492 99.1211 3.4668 99.1211 -6.5918 L 99.1211 -39.9414 L 108.057 -39.9414 C 112.939 -39.9414 115.625 -37.3535 115.625 -32.2754 L 115.625 15.625 C 115.625 20.7031 112.939 23.291 108.057 23.291 Z"/>
  </g>
  <g id="Light-M" transform="matrix(1 0 0 1 1086.31 1126)">
   <path d="M 54.9805 -29.2969 C 56.5918 -29.2969 57.959 -30.6152 57.959 -32.1777 L 57.959 -84.7656 L 57.7637 -91.8457 L 62.1094 -87.3535 L 70.4102 -78.7598 C 70.9473 -78.1738 71.7285 -77.832 72.4609 -77.832 C 73.9746 -77.832 75.1953 -78.9551 75.1953 -80.5176 C 75.1953 -81.2988 74.8535 -81.8848 74.3164 -82.4707 L 57.1289 -99.2676 C 56.3965 -100 55.7617 -100.244 54.9805 -100.244 C 54.1992 -100.244 53.5645 -100 52.832 -99.2676 L 35.6445 -82.4707 C 35.0586 -81.8848 34.7168 -81.2988 34.7168 -80.5176 C 34.7168 -78.9551 35.8887 -77.832 37.4512 -77.832 C 38.1836 -77.832 39.0137 -78.1738 39.5508 -78.7598 L 47.8516 -87.3535 L 52.1973 -91.8945 L 52.002 -84.7656 L 52.002 -32.1777 C 52.002 -30.6152 53.3691 -29.2969 54.9805 -29.2969 Z M 26.8555 8.30078 L 40.0391 8.30078 L 40.0391 15.332 C 40.0391 24.707 44.9219 29.5898 54.4434 29.5898 L 106.787 29.5898 C 116.309 29.5898 121.191 24.8047 121.191 15.332 L 121.191 -34.5703 C 121.191 -44.043 116.309 -48.8281 106.787 -48.8281 L 97.4609 -48.8281 L 97.4609 -55.8594 C 97.4609 -65.2344 92.5781 -70.1172 83.0566 -70.1172 L 69.1406 -70.1172 L 69.1406 -64.0625 L 82.9102 -64.0625 C 88.3301 -64.0625 91.4062 -61.1816 91.4062 -55.5176 L 91.4062 -6.25 C 91.4062 -0.634766 88.3301 2.29492 82.9102 2.29492 L 26.9531 2.29492 C 21.4844 2.29492 18.5059 -0.634766 18.5059 -6.25 L 18.5059 -55.5176 C 18.5059 -61.1816 21.4844 -64.0625 26.9531 -64.0625 L 40.8203 -64.0625 L 40.8203 -70.1172 L 26.8555 -70.1172 C 17.334 -70.1172 12.4512 -65.2832 12.4512 -55.8594 L 12.4512 -5.95703 C 12.4512 3.51562 17.334 8.30078 26.8555 8.30078 Z M 54.5898 23.5352 C 49.1699 23.5352 46.0938 20.6543 46.0938 14.9902 L 46.0938 8.30078 L 83.0566 8.30078 C 92.5781 8.30078 97.4609 3.4668 97.4609 -5.95703 L 97.4609 -42.8223 L 106.641 -42.8223 C 112.158 -42.8223 115.137 -39.8926 115.137 -34.2773 L 115.137 14.9902 C 115.137 20.6543 112.158 23.5352 106.641 23.5352 Z"/>
  </g>
  <g id="Thin-M" transform="matrix(1 0 0 1 791.139 1126)">
   <path d="M 53.9062 -28.7109 C 54.8828 -28.7109 55.7129 -29.541 55.7129 -30.5176 L 55.7129 -86.2793 L 55.6152 -93.0664 L 61.3281 -87.2559 L 70.8496 -77.6367 C 71.1914 -77.2949 71.6797 -77.0508 72.1191 -77.0508 C 72.998 -77.0508 73.7793 -77.832 73.7793 -78.7109 C 73.7793 -79.1992 73.584 -79.541 73.2422 -79.8828 L 55.1758 -97.8516 C 54.7852 -98.291 54.3457 -98.4375 53.9062 -98.4375 C 53.4668 -98.4375 53.0273 -98.291 52.6367 -97.8516 L 34.5215 -79.8828 C 34.1797 -79.541 33.9844 -79.1992 33.9844 -78.7109 C 33.9844 -77.832 34.7168 -77.0508 35.5957 -77.0508 C 36.084 -77.0508 36.5723 -77.2949 36.9141 -77.6367 L 46.3867 -87.2559 L 52.1973 -93.1152 L 52.0996 -86.2793 L 52.0996 -30.5176 C 52.0996 -29.541 52.9297 -28.7109 53.9062 -28.7109 Z M 25.6348 8.00781 L 38.8184 8.00781 L 38.8184 14.4043 C 38.8184 22.9004 43.3594 27.5391 52.002 27.5391 L 104.932 27.5391 C 113.574 27.5391 118.115 23.0469 118.115 14.4043 L 118.115 -37.0605 C 118.115 -45.7031 113.574 -50.1953 104.932 -50.1953 L 95.2637 -50.1953 L 95.2637 -56.5918 C 95.2637 -65.1367 90.7227 -69.7266 82.0801 -69.7266 L 67.7734 -69.7266 L 67.7734 -66.1133 L 81.9824 -66.1133 C 88.0859 -66.1133 91.6016 -62.793 91.6016 -56.3965 L 91.6016 -5.32227 C 91.6016 1.07422 88.0859 4.39453 81.9824 4.39453 L 25.7324 4.39453 C 19.3848 4.39453 16.0645 1.07422 16.0645 -5.32227 L 16.0645 -56.3965 C 16.0645 -62.793 19.3848 -66.1133 25.7324 -66.1133 L 40.0391 -66.1133 L 40.0391 -69.7266 L 25.6348 -69.7266 C 16.9922 -69.7266 12.4512 -65.2344 12.4512 -56.5918 L 12.4512 -5.12695 C 12.4512 3.51562 16.9922 8.00781 25.6348 8.00781 Z M 52.0996 23.9258 C 45.9961 23.9258 42.4805 20.6055 42.4805 14.209 L 42.4805 8.00781 L 82.0801 8.00781 C 90.7227 8.00781 95.2637 3.41797 95.2637 -5.12695 L 95.2637 -46.582 L 104.785 -46.582 C 111.133 -46.582 114.453 -43.2617 114.453 -36.9141 L 114.453 14.209 C 114.453 20.6055 111.133 23.9258 104.785 23.9258 Z"/>
  </g>
  <g id="Ultralight-M" transform="matrix(1 0 0 1 495.209 1126)">
   <path d="M 53.3691 -28.4668 C 54.0039 -28.4668 54.541 -29.0039 54.541 -29.6387 L 54.541 -87.0605 L 54.4922 -93.7012 L 60.9863 -87.1582 L 71.0449 -77.0996 C 71.2891 -76.8555 71.6797 -76.6602 71.9727 -76.6602 C 72.5098 -76.6602 73.0469 -77.1973 73.0469 -77.832 C 73.0469 -78.125 72.9004 -78.3691 72.6562 -78.6133 L 54.1992 -97.168 C 53.9551 -97.4121 53.6621 -97.5098 53.3691 -97.5098 C 53.0762 -97.5098 52.7344 -97.4121 52.5391 -97.168 L 33.9844 -78.6133 C 33.7402 -78.3691 33.5938 -78.125 33.5938 -77.832 C 33.5938 -77.1973 34.082 -76.6602 34.668 -76.6602 C 35.0098 -76.6602 35.3516 -76.8555 35.5957 -77.0996 L 45.6543 -87.1582 L 52.1973 -93.75 L 52.1484 -87.0605 L 52.1484 -29.6387 C 52.1484 -29.0039 52.6855 -28.4668 53.3691 -28.4668 Z M 25 7.86133 L 38.1836 7.86133 L 38.1836 13.916 C 38.1836 22.0215 42.5293 26.4648 50.7324 26.4648 L 104.004 26.4648 C 112.158 26.4648 116.553 22.1191 116.553 13.916 L 116.553 -38.3789 C 116.553 -46.5332 112.158 -50.8789 104.004 -50.8789 L 94.1406 -50.8789 L 94.1406 -56.9824 C 94.1406 -65.0391 89.7949 -69.5312 81.5918 -69.5312 L 67.041 -69.5312 L 67.041 -67.1387 L 81.4453 -67.1387 C 87.9883 -67.1387 91.748 -63.623 91.748 -56.8848 L 91.748 -4.78516 C 91.748 1.95312 87.9883 5.46875 81.4453 5.46875 L 25.0977 5.46875 C 18.3594 5.46875 14.8438 1.95312 14.8438 -4.78516 L 14.8438 -56.8848 C 14.8438 -63.623 18.3594 -67.1387 25.0977 -67.1387 L 39.6484 -67.1387 L 39.6484 -69.5312 L 25 -69.5312 C 16.7969 -69.5312 12.4512 -65.1855 12.4512 -56.9824 L 12.4512 -4.6875 C 12.4512 3.51562 16.7969 7.86133 25 7.86133 Z M 50.8789 24.0723 C 44.3359 24.0723 40.5762 20.5566 40.5762 13.8184 L 40.5762 7.86133 L 81.5918 7.86133 C 89.7949 7.86133 94.1406 3.36914 94.1406 -4.6875 L 94.1406 -48.4863 L 103.857 -48.4863 C 110.645 -48.4863 114.16 -45.0195 114.16 -38.2324 L 114.16 13.8184 C 114.16 20.5566 110.645 24.0723 103.857 24.0723 Z"/>
  </g>
  <g id="Black-S" transform="matrix(1 0 0 1 2875 696)">
   <path d="M 47.6074 -32.959 C 51.0254 -32.959 53.6133 -35.7422 53.6133 -38.916 L 53.6133 -73.877 L 53.0762 -79.3457 L 54.4434 -76.0254 L 57.7148 -72.5586 C 58.6914 -71.5332 60.0098 -70.8984 61.5234 -70.8984 C 64.0137 -70.8984 66.5527 -72.8516 66.5527 -75.7324 C 66.5527 -77.1973 66.0156 -78.2227 65.0391 -79.1992 L 52.5879 -91.1133 C 50.9766 -92.6758 49.2676 -93.2617 47.6074 -93.2617 C 45.9473 -93.2617 44.2383 -92.6758 42.627 -91.1133 L 30.1758 -79.1992 C 29.1992 -78.2227 28.6621 -77.1973 28.6621 -75.7324 C 28.6621 -72.8516 31.2012 -70.8984 33.6914 -70.8984 C 35.2051 -70.8984 36.5234 -71.5332 37.5 -72.5586 L 40.7715 -76.0254 L 42.1387 -79.3457 L 41.6016 -73.877 L 41.6016 -38.916 C 41.6016 -35.7422 44.1895 -32.959 47.6074 -32.959 Z M 25 0.195312 L 34.4727 0.195312 L 34.4727 6.73828 C 34.4727 16.3086 40.1367 21.9727 49.707 21.9727 L 91.7969 21.9727 C 101.367 21.9727 107.031 16.3086 107.031 6.73828 L 107.031 -34.668 C 107.031 -44.2383 101.367 -49.9023 91.7969 -49.9023 L 85.0586 -49.9023 L 85.0586 -50.1465 C 85.0586 -59.7168 79.3945 -65.3809 69.8242 -65.3809 L 60.9375 -65.3809 L 60.9375 -51.2207 L 67.5781 -51.2207 C 69.8242 -51.2207 70.8984 -50.3418 70.8984 -47.9004 L 70.8984 -17.2852 C 70.8984 -14.8438 69.8242 -13.9648 67.5781 -13.9648 L 27.2461 -13.9648 C 25 -13.9648 23.9258 -14.8438 23.9258 -17.2852 L 23.9258 -47.9004 C 23.9258 -50.3418 25 -51.2207 27.2461 -51.2207 L 34.2773 -51.2207 L 34.2773 -65.3809 L 25 -65.3809 C 15.4297 -65.3809 9.76562 -59.7168 9.76562 -50.1465 L 9.76562 -15.0391 C 9.76562 -5.46875 15.4297 0.195312 25 0.195312 Z M 51.9531 7.8125 C 49.707 7.8125 48.6328 6.93359 48.6328 4.49219 L 48.6328 0.195312 L 69.8242 0.195312 C 79.3945 0.195312 85.0586 -5.46875 85.0586 -15.0391 L 85.0586 -35.7422 L 89.5508 -35.7422 C 91.7969 -35.7422 92.8711 -34.8633 92.8711 -32.4219 L 92.8711 4.49219 C 92.8711 6.93359 91.7969 7.8125 89.5508 7.8125 Z"/>
  </g>
  <g id="Heavy-S" transform="matrix(1 0 0 1 2579.36 696)">
   <path d="M 46.7773 -32.5195 C 49.8535 -32.5195 52.1973 -35.0098 52.1973 -37.8906 L 52.1973 -73.584 L 51.709 -79.1504 L 53.2715 -76.0742 L 57.0312 -72.0215 C 57.9102 -71.0938 59.1309 -70.5078 60.498 -70.5078 C 62.793 -70.5078 65.0879 -72.3145 65.0879 -74.9512 C 65.0879 -76.2695 64.5508 -77.2461 63.6719 -78.125 L 51.1719 -90.0879 C 49.7559 -91.5039 48.2422 -91.9922 46.7773 -91.9922 C 45.3125 -91.9922 43.7988 -91.5039 42.3828 -90.0879 L 29.8828 -78.125 C 29.0039 -77.2461 28.5156 -76.2695 28.5156 -74.9512 C 28.5156 -72.3145 30.7617 -70.5078 33.0566 -70.5078 C 34.4238 -70.5078 35.6445 -71.0938 36.5723 -72.0215 L 40.332 -76.0742 L 41.8457 -79.1504 L 41.3574 -73.584 L 41.3574 -37.8906 C 41.3574 -35.0098 43.75 -32.5195 46.7773 -32.5195 Z M 24.3652 -0.0488281 L 34.0332 -0.0488281 L 34.0332 6.39648 C 34.0332 15.625 39.3066 20.9473 48.584 20.9473 L 90.2832 20.9473 C 99.5605 20.9473 104.883 15.625 104.883 6.39648 L 104.883 -34.1309 C 104.883 -43.3594 99.5605 -48.6328 90.2832 -48.6328 L 83.4961 -48.6328 L 83.4961 -50.293 C 83.4961 -59.5215 78.2227 -64.7949 68.9453 -64.7949 L 59.668 -64.7949 L 59.668 -52.3438 L 67.1875 -52.3438 C 69.7266 -52.3438 70.9961 -51.2207 70.9961 -48.4863 L 70.9961 -16.4062 C 70.9961 -13.623 69.7266 -12.5 67.1875 -12.5 L 26.0742 -12.5 C 23.5352 -12.5 22.2656 -13.623 22.2656 -16.4062 L 22.2656 -48.4863 C 22.2656 -51.2207 23.5352 -52.3438 26.0742 -52.3438 L 33.8867 -52.3438 L 33.8867 -64.7949 L 24.3652 -64.7949 C 15.0879 -64.7949 9.76562 -59.5215 9.76562 -50.293 L 9.76562 -14.5996 C 9.76562 -5.32227 15.0879 -0.0488281 24.3652 -0.0488281 Z M 50.3418 8.44727 C 47.8027 8.44727 46.4844 7.32422 46.4844 4.58984 L 46.4844 -0.0488281 L 68.9453 -0.0488281 C 78.2227 -0.0488281 83.4961 -5.32227 83.4961 -14.5996 L 83.4961 -36.1816 L 88.5742 -36.1816 C 91.1133 -36.1816 92.3828 -35.0586 92.3828 -32.3242 L 92.3828 4.58984 C 92.3828 7.32422 91.1133 8.44727 88.5742 8.44727 Z"/>
  </g>
  <g id="Bold-S" transform="matrix(1 0 0 1 2283.87 696)">
   <path d="M 45.8496 -32.0312 C 48.4863 -32.0312 50.5859 -34.1797 50.5859 -36.6699 L 50.5859 -73.2422 L 50.1953 -78.8574 L 51.9043 -76.123 L 56.25 -71.4844 C 57.0312 -70.6055 58.1055 -70.1172 59.3262 -70.1172 C 61.4746 -70.1172 63.4277 -71.7285 63.4277 -74.0723 C 63.4277 -75.2441 62.9395 -76.123 62.1582 -76.9531 L 49.6094 -88.916 C 48.3887 -90.1367 47.1191 -90.5762 45.8496 -90.5762 C 44.5801 -90.5762 43.3594 -90.1367 42.0898 -88.916 L 29.5898 -76.9531 C 28.7598 -76.123 28.3203 -75.2441 28.3203 -74.0723 C 28.3203 -71.7285 30.2246 -70.1172 32.373 -70.1172 C 33.5449 -70.1172 34.7168 -70.6055 35.498 -71.4844 L 39.7949 -76.123 L 41.5527 -78.9062 L 41.1133 -73.2422 L 41.1133 -36.6699 C 41.1133 -34.1797 43.2129 -32.0312 45.8496 -32.0312 Z M 23.6328 -0.292969 L 33.5449 -0.292969 L 33.5449 6.00586 C 33.5449 14.8926 38.4277 19.7754 47.3633 19.7754 L 88.623 19.7754 C 97.5586 19.7754 102.441 14.8926 102.441 6.00586 L 102.441 -33.4961 C 102.441 -42.3828 97.5586 -47.2656 88.623 -47.2656 L 81.7383 -47.2656 L 81.7383 -50.3906 C 81.7383 -59.2773 76.8555 -64.1602 67.9199 -64.1602 L 58.2031 -64.1602 L 58.2031 -53.5645 L 66.748 -53.5645 C 69.6289 -53.5645 71.1426 -52.1484 71.1426 -49.1211 L 71.1426 -15.3809 C 71.1426 -12.3047 69.6289 -10.8887 66.748 -10.8887 L 24.8047 -10.8887 C 21.9238 -10.8887 20.3613 -12.3047 20.3613 -15.3809 L 20.3613 -49.1211 C 20.3613 -52.1484 21.9238 -53.5645 24.8047 -53.5645 L 33.4961 -53.5645 L 33.4961 -64.1602 L 23.6328 -64.1602 C 14.6973 -64.1602 9.76562 -59.2773 9.76562 -50.3906 L 9.76562 -14.0625 C 9.76562 -5.17578 14.6973 -0.292969 23.6328 -0.292969 Z M 48.5352 9.13086 C 45.6543 9.13086 44.1406 7.76367 44.1406 4.6875 L 44.1406 -0.292969 L 67.9199 -0.292969 C 76.8555 -0.292969 81.7383 -5.17578 81.7383 -14.0625 L 81.7383 -36.6699 L 87.4512 -36.6699 C 90.332 -36.6699 91.8457 -35.2539 91.8457 -32.1777 L 91.8457 4.6875 C 91.8457 7.76367 90.332 9.13086 87.4512 9.13086 Z"/>
  </g>
  <g id="Semibold-S" transform="matrix(1 0 0 1 1987.99 696)">
   <path d="M 45.2148 -31.6895 C 47.6074 -31.6895 49.5117 -33.6426 49.5117 -35.8887 L 49.5117 -72.998 L 49.1211 -78.7109 L 50.9766 -76.1719 L 55.6641 -71.0938 C 56.3965 -70.2637 57.4219 -69.8242 58.4961 -69.8242 C 60.5469 -69.8242 62.2559 -71.3379 62.2559 -73.4375 C 62.2559 -74.5605 61.8652 -75.3906 61.084 -76.123 L 48.5352 -88.1348 C 47.4121 -89.2578 46.3379 -89.5996 45.2148 -89.5996 C 44.0918 -89.5996 43.0176 -89.2578 41.8945 -88.1348 L 29.3457 -76.123 C 28.6133 -75.3906 28.1738 -74.5605 28.1738 -73.4375 C 28.1738 -71.3379 29.8828 -69.8242 31.9336 -69.8242 C 32.959 -69.8242 34.0332 -70.2637 34.7656 -71.0938 L 39.4531 -76.1719 L 41.3086 -78.7109 L 40.9668 -72.998 L 40.9668 -35.8887 C 40.9668 -33.6426 42.8711 -31.6895 45.2148 -31.6895 Z M 23.0957 -0.488281 L 33.1543 -0.488281 L 33.1543 5.71289 C 33.1543 14.3555 37.793 18.9453 46.5332 18.9453 L 87.4512 18.9453 C 96.1426 18.9453 100.781 14.3555 100.781 5.71289 L 100.781 -33.0566 C 100.781 -41.6992 96.1426 -46.2891 87.4512 -46.2891 L 80.5664 -46.2891 L 80.5664 -50.4883 C 80.5664 -59.1309 75.9277 -63.7207 67.2363 -63.7207 L 57.2266 -63.7207 L 57.2266 -54.3945 L 66.4551 -54.3945 C 69.5312 -54.3945 71.2402 -52.832 71.2402 -49.5117 L 71.2402 -14.6973 C 71.2402 -11.377 69.5312 -9.81445 66.4551 -9.81445 L 23.877 -9.81445 C 20.752 -9.81445 19.0918 -11.377 19.0918 -14.6973 L 19.0918 -49.5117 C 19.0918 -52.832 20.752 -54.3945 23.877 -54.3945 L 33.2031 -54.3945 L 33.2031 -63.7207 L 23.0957 -63.7207 C 14.4043 -63.7207 9.76562 -59.1309 9.76562 -50.4883 L 9.76562 -13.7207 C 9.76562 -5.07812 14.4043 -0.488281 23.0957 -0.488281 Z M 47.3145 9.61914 C 44.1895 9.61914 42.4805 8.05664 42.4805 4.78516 L 42.4805 -0.488281 L 67.2363 -0.488281 C 75.9277 -0.488281 80.5664 -5.07812 80.5664 -13.7207 L 80.5664 -36.9629 L 86.6699 -36.9629 C 89.7949 -36.9629 91.5039 -35.4004 91.5039 -32.0801 L 91.5039 4.78516 C 91.5039 8.05664 89.7949 9.61914 86.6699 9.61914 Z"/>
  </g>
  <g id="Medium-S" transform="matrix(1 0 0 1 1691.92 696)">
   <path d="M 44.7266 -31.4453 C 46.875 -31.4453 48.6816 -33.2031 48.6816 -35.2539 L 48.6816 -72.8027 L 48.3398 -78.5645 L 50.293 -76.1719 L 55.2734 -70.752 C 55.957 -70.0195 56.9336 -69.6289 57.9102 -69.6289 C 59.8145 -69.6289 61.4258 -70.9961 61.4258 -72.998 C 61.4258 -74.0234 60.9863 -74.8047 60.3027 -75.4883 L 47.7051 -87.5488 C 46.6797 -88.5254 45.752 -88.8672 44.7266 -88.8672 C 43.7012 -88.8672 42.7734 -88.5254 41.748 -87.5488 L 29.1992 -75.4883 C 28.4668 -74.8047 28.0762 -74.0234 28.0762 -72.998 C 28.0762 -70.9961 29.5898 -69.6289 31.543 -69.6289 C 32.5195 -69.6289 33.5449 -70.0195 34.2285 -70.752 L 39.209 -76.1719 L 41.1621 -78.5645 L 40.8203 -72.8027 L 40.8203 -35.2539 C 40.8203 -33.2031 42.5781 -31.4453 44.7266 -31.4453 Z M 22.7051 -0.634766 L 32.9102 -0.634766 L 32.9102 5.51758 C 32.9102 13.9648 37.3047 18.3105 45.8496 18.3105 L 86.5723 18.3105 C 95.1172 18.3105 99.5117 13.9648 99.5117 5.51758 L 99.5117 -32.7637 C 99.5117 -41.2109 95.1172 -45.5566 86.5723 -45.5566 L 79.6387 -45.5566 L 79.6387 -50.5859 C 79.6387 -59.0332 75.2441 -63.3789 66.6992 -63.3789 L 56.4941 -63.3789 L 56.4941 -55.0781 L 66.2109 -55.0781 C 69.4824 -55.0781 71.3379 -53.3203 71.3379 -49.8535 L 71.3379 -14.1602 C 71.3379 -10.6934 69.4824 -8.93555 66.2109 -8.93555 L 23.1934 -8.93555 C 19.9219 -8.93555 18.0664 -10.6934 18.0664 -14.1602 L 18.0664 -49.8535 C 18.0664 -53.3203 19.9219 -55.0781 23.1934 -55.0781 L 33.0078 -55.0781 L 33.0078 -63.3789 L 22.7051 -63.3789 C 14.209 -63.3789 9.76562 -59.0332 9.76562 -50.5859 L 9.76562 -13.4277 C 9.76562 -4.98047 14.209 -0.634766 22.7051 -0.634766 Z M 46.3379 10.0098 C 43.0664 10.0098 41.2598 8.30078 41.2598 4.83398 L 41.2598 -0.634766 L 66.6992 -0.634766 C 75.2441 -0.634766 79.6387 -4.98047 79.6387 -13.4277 L 79.6387 -37.207 L 86.084 -37.207 C 89.3555 -37.207 91.2109 -35.498 91.2109 -32.0312 L 91.2109 4.83398 C 91.2109 8.30078 89.3555 10.0098 86.084 10.0098 Z"/>
  </g>
  <g id="Regular-S" transform="matrix(1 0 0 1 1396.01 696)">
   <path d="M 44.0918 -31.1035 C 45.9961 -31.1035 47.6074 -32.6172 47.6074 -34.4727 L 47.6074 -72.6074 L 47.3145 -78.418 L 49.3652 -76.2207 L 54.7363 -70.3613 C 55.3711 -69.6777 56.25 -69.3359 57.0801 -69.3359 C 58.9355 -69.3359 60.3027 -70.6055 60.3027 -72.4121 C 60.3027 -73.3398 59.9121 -74.0234 59.2285 -74.707 L 46.6309 -86.7676 C 45.752 -87.6465 45.0195 -87.9395 44.0918 -87.9395 C 43.2129 -87.9395 42.4805 -87.6465 41.6016 -86.7676 L 28.9551 -74.707 C 28.3203 -74.0234 27.9297 -73.3398 27.9297 -72.4121 C 27.9297 -70.6055 29.248 -69.3359 31.1035 -69.3359 C 31.9336 -69.3359 32.8613 -69.6777 33.4961 -70.3613 L 38.8672 -76.2207 L 40.918 -78.418 L 40.625 -72.6074 L 40.625 -34.4727 C 40.625 -32.6172 42.2363 -31.1035 44.0918 -31.1035 Z M 22.2168 -0.830078 L 32.5684 -0.830078 L 32.5684 5.27344 C 32.5684 13.4766 36.6699 17.5293 45.0195 17.5293 L 85.4492 17.5293 C 93.7012 17.5293 97.9004 13.4766 97.9004 5.27344 L 97.9004 -32.3242 C 97.9004 -40.5273 93.7012 -44.5801 85.4492 -44.5801 L 78.4668 -44.5801 L 78.4668 -50.6836 C 78.4668 -58.8867 74.3652 -62.9395 66.0156 -62.9395 L 55.5176 -62.9395 L 55.5176 -55.9082 L 65.918 -55.9082 C 69.3848 -55.9082 71.4355 -54.0039 71.4355 -50.293 L 71.4355 -13.4766 C 71.4355 -9.76562 69.3848 -7.86133 65.918 -7.86133 L 22.3145 -7.86133 C 18.7988 -7.86133 16.7969 -9.76562 16.7969 -13.4766 L 16.7969 -50.293 C 16.7969 -54.0039 18.7988 -55.9082 22.3145 -55.9082 L 32.7148 -55.9082 L 32.7148 -62.9395 L 22.2168 -62.9395 C 13.916 -62.9395 9.76562 -58.8867 9.76562 -50.6836 L 9.76562 -13.0859 C 9.76562 -4.88281 13.916 -0.830078 22.2168 -0.830078 Z M 45.1172 10.498 C 41.6016 10.498 39.5996 8.59375 39.5996 4.88281 L 39.5996 -0.830078 L 66.0156 -0.830078 C 74.3652 -0.830078 78.4668 -4.88281 78.4668 -13.0859 L 78.4668 -37.5488 L 85.3516 -37.5488 C 88.8672 -37.5488 90.8203 -35.6445 90.8203 -31.9336 L 90.8203 4.88281 C 90.8203 8.59375 88.8672 10.498 85.3516 10.498 Z"/>
  </g>
  <g id="Light-S" transform="matrix(1 0 0 1 1100.33 696)">
   <path d="M 43.4082 -30.7129 C 44.8242 -30.7129 46.0938 -31.9336 46.0938 -33.3496 L 46.0938 -73.584 L 45.8496 -79.248 L 48.877 -76.123 L 55.0293 -69.6289 C 55.5176 -69.0918 56.2012 -68.8477 56.8848 -68.8477 C 58.252 -68.8477 59.3262 -69.8242 59.3262 -71.1914 C 59.3262 -71.9238 59.0332 -72.4609 58.5449 -72.998 L 45.3613 -85.791 C 44.6777 -86.4746 44.0918 -86.7188 43.4082 -86.7188 C 42.7246 -86.7188 42.1387 -86.4746 41.4551 -85.791 L 28.2227 -72.998 C 27.7344 -72.4609 27.4414 -71.9238 27.4414 -71.1914 C 27.4414 -69.8242 28.4668 -68.8477 29.8828 -68.8477 C 30.5176 -68.8477 31.25 -69.0918 31.7383 -69.6289 L 37.8906 -76.123 L 40.918 -79.248 L 40.7227 -73.584 L 40.7227 -33.3496 C 40.7227 -31.9336 41.9434 -30.7129 43.4082 -30.7129 Z M 21.3867 -1.02539 L 31.7383 -1.02539 L 31.7383 4.63867 C 31.7383 12.2559 35.6445 16.1621 43.3594 16.1621 L 84.1797 16.1621 C 91.8945 16.1621 95.8496 12.3047 95.8496 4.63867 L 95.8496 -33.9844 C 95.8496 -41.6504 91.8945 -45.5078 84.1797 -45.5078 L 77.002 -45.5078 L 77.002 -51.1719 C 77.002 -58.7891 73.0957 -62.6953 65.332 -62.6953 L 54.5898 -62.6953 L 54.5898 -57.2266 L 65.2344 -57.2266 C 69.2383 -57.2266 71.582 -55.0781 71.582 -50.8789 L 71.582 -12.793 C 71.582 -8.59375 69.2383 -6.44531 65.2344 -6.44531 L 21.4844 -6.44531 C 17.4316 -6.44531 15.1855 -8.59375 15.1855 -12.793 L 15.1855 -50.8789 C 15.1855 -55.0781 17.4316 -57.2266 21.4844 -57.2266 L 32.2266 -57.2266 L 32.2266 -62.6953 L 21.3867 -62.6953 C 13.6719 -62.6953 9.76562 -58.8379 9.76562 -51.1719 L 9.76562 -12.5488 C 9.76562 -4.88281 13.6719 -1.02539 21.3867 -1.02539 Z M 43.457 10.7422 C 39.4531 10.7422 37.1582 8.54492 37.1582 4.3457 L 37.1582 -1.02539 L 65.332 -1.02539 C 73.0957 -1.02539 77.002 -4.93164 77.002 -12.5488 L 77.002 -40.0879 L 84.082 -40.0879 C 88.1836 -40.0879 90.3809 -37.8906 90.3809 -33.6914 L 90.3809 4.3457 C 90.3809 8.54492 88.1836 10.7422 84.082 10.7422 Z"/>
  </g>
  <g id="Thin-S" transform="matrix(1 0 0 1 804.982 696)">
   <path d="M 42.4316 -30.2246 C 43.3594 -30.2246 44.0918 -30.957 44.0918 -31.8359 L 44.0918 -74.9512 L 43.9941 -80.3223 L 48.2422 -76.0254 L 55.4199 -68.7012 C 55.7129 -68.3594 56.2012 -68.1641 56.5918 -68.1641 C 57.373 -68.1641 58.0566 -68.7988 58.0566 -69.6289 C 58.0566 -70.0684 57.9102 -70.4102 57.5684 -70.7031 L 43.6035 -84.5703 C 43.2617 -84.9609 42.8711 -85.1074 42.4316 -85.1074 C 42.041 -85.1074 41.6504 -84.9609 41.2598 -84.5703 L 27.2949 -70.7031 C 26.9531 -70.4102 26.8066 -70.0684 26.8066 -69.6289 C 26.8066 -68.7988 27.4414 -68.1641 28.2715 -68.1641 C 28.6621 -68.1641 29.1504 -68.3594 29.4434 -68.7012 L 36.6211 -76.0254 L 40.918 -80.3711 L 40.8203 -74.9512 L 40.8203 -31.8359 C 40.8203 -30.957 41.5527 -30.2246 42.4316 -30.2246 Z M 20.3125 -1.26953 L 30.6641 -1.26953 L 30.6641 3.85742 C 30.6641 10.6934 34.2773 14.3555 41.2109 14.3555 L 82.5684 14.3555 C 89.502 14.3555 93.1152 10.7422 93.1152 3.85742 L 93.1152 -36.1816 C 93.1152 -43.1152 89.502 -46.6797 82.5684 -46.6797 L 75.0488 -46.6797 L 75.0488 -51.8066 C 75.0488 -58.6914 71.4355 -62.3535 64.502 -62.3535 L 53.3691 -62.3535 L 53.3691 -59.0332 L 64.4043 -59.0332 C 69.0918 -59.0332 71.7285 -56.4941 71.7285 -51.6602 L 71.7285 -11.9629 C 71.7285 -7.12891 69.0918 -4.58984 64.4043 -4.58984 L 20.4102 -4.58984 C 15.625 -4.58984 13.0859 -7.12891 13.0859 -11.9629 L 13.0859 -51.6602 C 13.0859 -56.4941 15.625 -59.0332 20.4102 -59.0332 L 31.543 -59.0332 L 31.543 -62.3535 L 20.3125 -62.3535 C 13.3789 -62.3535 9.76562 -58.7402 9.76562 -51.8066 L 9.76562 -11.8164 C 9.76562 -4.88281 13.3789 -1.26953 20.3125 -1.26953 Z M 41.3086 11.0352 C 36.6699 11.0352 33.9844 8.54492 33.9844 3.66211 L 33.9844 -1.26953 L 64.502 -1.26953 C 71.4355 -1.26953 75.0488 -4.93164 75.0488 -11.8164 L 75.0488 -43.4082 L 82.4707 -43.4082 C 87.3047 -43.4082 89.8438 -40.8691 89.8438 -36.0352 L 89.8438 3.66211 C 89.8438 8.54492 87.3047 11.0352 82.4707 11.0352 Z"/>
  </g>
  <g id="Ultralight-S" transform="matrix(1 0 0 1 508.954 696)">
   <path d="M 41.9434 -29.9805 C 42.5781 -29.9805 43.0664 -30.4688 43.0664 -31.1035 L 43.0664 -75.6348 L 43.0176 -80.8594 L 47.9004 -75.9277 L 55.6152 -68.1641 C 55.8105 -67.9688 56.1523 -67.8223 56.4453 -67.8223 C 56.9336 -67.8223 57.4219 -68.2617 57.4219 -68.8477 C 57.4219 -69.0918 57.3242 -69.3359 57.0801 -69.5312 L 42.7246 -83.9355 C 42.4805 -84.1797 42.2363 -84.2773 41.9434 -84.2773 C 41.6992 -84.2773 41.4062 -84.1797 41.1621 -83.9355 L 26.7578 -69.5312 C 26.5625 -69.3359 26.4648 -69.0918 26.4648 -68.8477 C 26.4648 -68.2617 26.9043 -67.8223 27.4414 -67.8223 C 27.6855 -67.8223 28.0273 -67.9688 28.2715 -68.1641 L 35.9863 -75.9277 L 40.918 -80.9082 L 40.8691 -75.6348 L 40.8691 -31.1035 C 40.8691 -30.4688 41.3574 -29.9805 41.9434 -29.9805 Z M 19.7754 -1.41602 L 30.127 -1.41602 L 30.127 3.41797 C 30.127 9.86328 33.5449 13.3789 40.0879 13.3789 L 81.7383 13.3789 C 88.2812 13.3789 91.748 9.96094 91.748 3.41797 L 91.748 -37.3535 C 91.748 -43.8477 88.2812 -47.3145 81.7383 -47.3145 L 74.0723 -47.3145 L 74.0723 -52.1484 C 74.0723 -58.5938 70.6055 -62.1582 64.0625 -62.1582 L 52.7344 -62.1582 L 52.7344 -59.9609 L 63.9648 -59.9609 C 68.9453 -59.9609 71.875 -57.2754 71.875 -52.0508 L 71.875 -11.5234 C 71.875 -6.34766 68.9453 -3.61328 63.9648 -3.61328 L 19.873 -3.61328 C 14.6484 -3.61328 11.9629 -6.34766 11.9629 -11.5234 L 11.9629 -52.0508 C 11.9629 -57.2754 14.6484 -59.9609 19.873 -59.9609 L 31.2012 -59.9609 L 31.2012 -62.1582 L 19.7754 -62.1582 C 13.2324 -62.1582 9.76562 -58.6914 9.76562 -52.1484 L 9.76562 -11.4258 C 9.76562 -4.88281 13.2324 -1.41602 19.7754 -1.41602 Z M 40.1855 11.1816 C 35.2051 11.1816 32.3242 8.49609 32.3242 3.32031 L 32.3242 -1.41602 L 64.0625 -1.41602 C 70.6055 -1.41602 74.0723 -4.98047 74.0723 -11.4258 L 74.0723 -45.1172 L 81.6406 -45.1172 C 86.8164 -45.1172 89.502 -42.4316 89.502 -37.207 L 89.502 3.32031 C 89.502 8.49609 86.8164 11.1816 81.6406 11.1816 Z"/>
  </g>
 </g>
</svg>
