<?xml version="1.0" encoding="UTF-8"?>
<!--Generator: Apple Native CoreSVG 123-->
<!DOCTYPE svg
PUBLIC "-//W3C//DTD SVG 1.1//EN"
       "http://www.w3.org/Graphics/SVG/1.1/DTD/svg11.dtd">
<svg version="1.1" xmlns="http://www.w3.org/2000/svg" xmlns:xlink="http://www.w3.org/1999/xlink" width="3300" height="2200">
 <!--glyph: "uni10062F.medium", point size: 100.000000, font version: "Version 15.0d7e11", template writer version: "5"-->
 <g id="Notes">
  <rect height="2200" id="artboard" style="fill:white;opacity:1" width="3300" x="0" y="0"/>
  <line id="" style="fill:none;stroke:black;opacity:1;stroke-width:0.5;" x1="263" x2="3036" y1="292" y2="292"/>
  <text style="stroke:none;fill:black;font-family:-apple-system,&quot;SF Pro Display&quot;,&quot;SF Pro Text&quot;,Helvetica,sans-serif;font-weight:bold;" transform="matrix(1 0 0 1 263 322)">Weight/Scale Variations</text>
  <text style="stroke:none;fill:black;font-family:-apple-system,&quot;SF Pro Display&quot;,&quot;SF Pro Text&quot;,Helvetica,sans-serif;text-anchor:middle;" transform="matrix(1 0 0 1 559.711 322)">Ultralight</text>
  <text style="stroke:none;fill:black;font-family:-apple-system,&quot;SF Pro Display&quot;,&quot;SF Pro Text&quot;,Helvetica,sans-serif;text-anchor:middle;" transform="matrix(1 0 0 1 856.422 322)">Thin</text>
  <text style="stroke:none;fill:black;font-family:-apple-system,&quot;SF Pro Display&quot;,&quot;SF Pro Text&quot;,Helvetica,sans-serif;text-anchor:middle;" transform="matrix(1 0 0 1 1153.13 322)">Light</text>
  <text style="stroke:none;fill:black;font-family:-apple-system,&quot;SF Pro Display&quot;,&quot;SF Pro Text&quot;,Helvetica,sans-serif;text-anchor:middle;" transform="matrix(1 0 0 1 1449.84 322)">Regular</text>
  <text style="stroke:none;fill:black;font-family:-apple-system,&quot;SF Pro Display&quot;,&quot;SF Pro Text&quot;,Helvetica,sans-serif;text-anchor:middle;" transform="matrix(1 0 0 1 1746.56 322)">Medium</text>
  <text style="stroke:none;fill:black;font-family:-apple-system,&quot;SF Pro Display&quot;,&quot;SF Pro Text&quot;,Helvetica,sans-serif;text-anchor:middle;" transform="matrix(1 0 0 1 2043.27 322)">Semibold</text>
  <text style="stroke:none;fill:black;font-family:-apple-system,&quot;SF Pro Display&quot;,&quot;SF Pro Text&quot;,Helvetica,sans-serif;text-anchor:middle;" transform="matrix(1 0 0 1 2339.98 322)">Bold</text>
  <text style="stroke:none;fill:black;font-family:-apple-system,&quot;SF Pro Display&quot;,&quot;SF Pro Text&quot;,Helvetica,sans-serif;text-anchor:middle;" transform="matrix(1 0 0 1 2636.69 322)">Heavy</text>
  <text style="stroke:none;fill:black;font-family:-apple-system,&quot;SF Pro Display&quot;,&quot;SF Pro Text&quot;,Helvetica,sans-serif;text-anchor:middle;" transform="matrix(1 0 0 1 2933.4 322)">Black</text>
  <line id="" style="fill:none;stroke:black;opacity:1;stroke-width:0.5;" x1="263" x2="3036" y1="1903" y2="1903"/>
  <g id="" transform="matrix(1 0 0 1 263 1933)">
   <path d="M 9.24805 0.830078 C 13.5547 0.830078 17.1387 -2.74414 17.1387 -7.05078 C 17.1387 -11.3574 13.5449 -14.9316 9.23828 -14.9316 C 4.94141 -14.9316 1.36719 -11.3574 1.36719 -7.05078 C 1.36719 -2.74414 4.95117 0.830078 9.24805 0.830078 Z M 9.24805 -0.654297 C 5.70312 -0.654297 2.87109 -3.49609 2.87109 -7.05078 C 2.87109 -10.6055 5.69336 -13.4473 9.23828 -13.4473 C 12.793 -13.4473 15.6348 -10.6055 15.6445 -7.05078 C 15.6543 -3.49609 12.8027 -0.654297 9.24805 -0.654297 Z M 9.22852 -3.42773 C 9.69727 -3.42773 9.9707 -3.74023 9.9707 -4.25781 L 9.9707 -6.31836 L 12.1973 -6.31836 C 12.6953 -6.31836 13.0371 -6.57227 13.0371 -7.04102 C 13.0371 -7.51953 12.7148 -7.7832 12.1973 -7.7832 L 9.9707 -7.7832 L 9.9707 -10.0098 C 9.9707 -10.5273 9.69727 -10.8496 9.22852 -10.8496 C 8.75977 -10.8496 8.50586 -10.5078 8.50586 -10.0098 L 8.50586 -7.7832 L 6.29883 -7.7832 C 5.78125 -7.7832 5.44922 -7.51953 5.44922 -7.04102 C 5.44922 -6.57227 5.80078 -6.31836 6.29883 -6.31836 L 8.50586 -6.31836 L 8.50586 -4.25781 C 8.50586 -3.75977 8.75977 -3.42773 9.22852 -3.42773 Z"/>
  </g>
  <g id="" transform="matrix(1 0 0 1 281.506 1933)">
   <path d="M 11.709 2.91016 C 17.1582 2.91016 21.6699 -1.60156 21.6699 -7.05078 C 21.6699 -12.4902 17.1484 -17.0117 11.6992 -17.0117 C 6.25977 -17.0117 1.74805 -12.4902 1.74805 -7.05078 C 1.74805 -1.60156 6.26953 2.91016 11.709 2.91016 Z M 11.709 1.25 C 7.09961 1.25 3.41797 -2.44141 3.41797 -7.05078 C 3.41797 -11.6504 7.08984 -15.3516 11.6992 -15.3516 C 16.3086 -15.3516 20 -11.6504 20.0098 -7.05078 C 20.0195 -2.44141 16.3184 1.25 11.709 1.25 Z M 11.6895 -2.41211 C 12.207 -2.41211 12.5195 -2.77344 12.5195 -3.33984 L 12.5195 -6.23047 L 15.5762 -6.23047 C 16.123 -6.23047 16.5039 -6.51367 16.5039 -7.03125 C 16.5039 -7.55859 16.1426 -7.86133 15.5762 -7.86133 L 12.5195 -7.86133 L 12.5195 -10.9277 C 12.5195 -11.5039 12.207 -11.8555 11.6895 -11.8555 C 11.1719 -11.8555 10.8789 -11.4844 10.8789 -10.9277 L 10.8789 -7.86133 L 7.83203 -7.86133 C 7.26562 -7.86133 6.89453 -7.55859 6.89453 -7.03125 C 6.89453 -6.51367 7.28516 -6.23047 7.83203 -6.23047 L 10.8789 -6.23047 L 10.8789 -3.33984 C 10.8789 -2.79297 11.1719 -2.41211 11.6895 -2.41211 Z"/>
  </g>
  <g id="" transform="matrix(1 0 0 1 304.924 1933)">
   <path d="M 14.9707 5.67383 C 21.9336 5.67383 27.6953 -0.078125 27.6953 -7.04102 C 27.6953 -14.0039 21.9238 -19.7559 14.9609 -19.7559 C 8.00781 -19.7559 2.25586 -14.0039 2.25586 -7.04102 C 2.25586 -0.078125 8.01758 5.67383 14.9707 5.67383 Z M 14.9707 3.85742 C 8.93555 3.85742 4.08203 -1.00586 4.08203 -7.04102 C 4.08203 -13.0762 8.92578 -17.9395 14.9609 -17.9395 C 21.0059 -17.9395 25.8594 -13.0762 25.8691 -7.04102 C 25.8789 -1.00586 21.0156 3.85742 14.9707 3.85742 Z M 14.9512 -1.06445 C 15.5176 -1.06445 15.8691 -1.45508 15.8691 -2.06055 L 15.8691 -6.13281 L 20.1074 -6.13281 C 20.6934 -6.13281 21.1133 -6.46484 21.1133 -7.02148 C 21.1133 -7.59766 20.7227 -7.93945 20.1074 -7.93945 L 15.8691 -7.93945 L 15.8691 -12.1875 C 15.8691 -12.8027 15.5176 -13.1934 14.9512 -13.1934 C 14.3848 -13.1934 14.0625 -12.7832 14.0625 -12.1875 L 14.0625 -7.93945 L 9.83398 -7.93945 C 9.21875 -7.93945 8.80859 -7.59766 8.80859 -7.02148 C 8.80859 -6.46484 9.23828 -6.13281 9.83398 -6.13281 L 14.0625 -6.13281 L 14.0625 -2.06055 C 14.0625 -1.47461 14.3848 -1.06445 14.9512 -1.06445 Z"/>
  </g>
  <text style="stroke:none;fill:black;font-family:-apple-system,&quot;SF Pro Display&quot;,&quot;SF Pro Text&quot;,Helvetica,sans-serif;font-weight:bold;" transform="matrix(1 0 0 1 263 1953)">Design Variations</text>
  <text style="stroke:none;fill:black;font-family:-apple-system,&quot;SF Pro Display&quot;,&quot;SF Pro Text&quot;,Helvetica,sans-serif;" transform="matrix(1 0 0 1 263 1971)">Symbols are supported in up to nine weights and three scales.</text>
  <text style="stroke:none;fill:black;font-family:-apple-system,&quot;SF Pro Display&quot;,&quot;SF Pro Text&quot;,Helvetica,sans-serif;" transform="matrix(1 0 0 1 263 1989)">For optimal layout with text and other symbols, vertically align</text>
  <text style="stroke:none;fill:black;font-family:-apple-system,&quot;SF Pro Display&quot;,&quot;SF Pro Text&quot;,Helvetica,sans-serif;" transform="matrix(1 0 0 1 263 2007)">symbols with the adjacent text.</text>
  <rect height="14" id="" style="fill:#00AEEF;stroke:none;opacity:0.4;" width="3" x="776" y="1919"/>
  <g id="" transform="matrix(1 0 0 1 779 1933)">
   <path d="M 10.5273 0 L 12.373 0 L 7.17773 -14.0918 L 5.43945 -14.0918 L 0.244141 0 L 2.08984 0 L 3.50586 -4.0332 L 9.11133 -4.0332 Z M 6.2793 -11.9531 L 6.33789 -11.9531 L 8.59375 -5.52734 L 4.02344 -5.52734 Z"/>
  </g>
  <rect height="14" id="" style="fill:#00AEEF;stroke:none;opacity:0.4;" width="3" x="791.617" y="1919"/>
  <text style="stroke:none;fill:black;font-family:-apple-system,&quot;SF Pro Display&quot;,&quot;SF Pro Text&quot;,Helvetica,sans-serif;font-weight:bold;" transform="matrix(1 0 0 1 776 1953)">Margins</text>
  <text style="stroke:none;fill:black;font-family:-apple-system,&quot;SF Pro Display&quot;,&quot;SF Pro Text&quot;,Helvetica,sans-serif;" transform="matrix(1 0 0 1 776 1971)">Leading and trailing margins on the left and right side of each symbol</text>
  <text style="stroke:none;fill:black;font-family:-apple-system,&quot;SF Pro Display&quot;,&quot;SF Pro Text&quot;,Helvetica,sans-serif;" transform="matrix(1 0 0 1 776 1989)">can be adjusted by modifying the width of the blue rectangles.</text>
  <text style="stroke:none;fill:black;font-family:-apple-system,&quot;SF Pro Display&quot;,&quot;SF Pro Text&quot;,Helvetica,sans-serif;" transform="matrix(1 0 0 1 776 2007)">Modifications are automatically applied proportionally to all</text>
  <text style="stroke:none;fill:black;font-family:-apple-system,&quot;SF Pro Display&quot;,&quot;SF Pro Text&quot;,Helvetica,sans-serif;" transform="matrix(1 0 0 1 776 2025)">scales and weights.</text>
  <g id="" transform="matrix(1 0 0 1 1289 1933)">
   <path d="M 2.83203 3.11523 L 4.375 4.6582 C 5.22461 5.48828 6.19141 5.41992 7.06055 4.46289 L 17.2754 -6.66016 C 17.7051 -6.36719 18.0957 -6.37695 18.5645 -6.47461 L 19.6094 -6.68945 L 20.3027 -5.99609 L 20.2539 -5.47852 C 20.1855 -4.95117 20.3516 -4.53125 20.8496 -4.0332 L 21.6602 -3.22266 C 22.168 -2.71484 22.8223 -2.68555 23.3008 -3.16406 L 26.5527 -6.41602 C 27.0312 -6.89453 27.0117 -7.54883 26.5039 -8.05664 L 25.6836 -8.87695 C 25.1855 -9.375 24.7754 -9.55078 24.2383 -9.47266 L 23.7109 -9.41406 L 23.0566 -10.0781 L 23.3398 -11.2207 C 23.4863 -11.7871 23.3398 -12.2559 22.7148 -12.8613 L 20.3027 -15.2539 C 16.7578 -18.7793 12.2266 -18.6719 9.11133 -15.5371 C 8.69141 -15.1074 8.64258 -14.5215 8.91602 -14.0918 C 9.15039 -13.7207 9.62891 -13.4961 10.2734 -13.6621 C 11.7871 -14.043 13.3008 -13.9258 14.7852 -12.9199 L 14.1602 -11.3379 C 13.9258 -10.752 13.9453 -10.2734 14.1797 -9.83398 L 3.01758 0.439453 C 2.08008 1.30859 1.97266 2.25586 2.83203 3.11523 Z M 10.6738 -15.1465 C 13.3398 -17.1387 16.6504 -16.8262 19.0527 -14.4141 L 21.6797 -11.8066 C 21.9141 -11.5723 21.9434 -11.3867 21.8848 -11.0938 L 21.5039 -9.53125 L 23.0762 -7.95898 L 24.043 -8.04688 C 24.3262 -8.07617 24.4141 -8.05664 24.6387 -7.83203 L 25.2637 -7.20703 L 22.5098 -4.46289 L 21.8848 -5.07812 C 21.6602 -5.30273 21.6406 -5.40039 21.6699 -5.68359 L 21.7578 -6.64062 L 20.1953 -8.20312 L 18.5742 -7.89062 C 18.291 -7.83203 18.1445 -7.83203 17.9102 -8.07617 L 15.7324 -10.2539 C 15.5078 -10.4883 15.4785 -10.625 15.6055 -10.9473 L 16.5527 -13.2227 C 14.9512 -14.7559 12.8418 -15.6055 10.8008 -14.9512 C 10.7129 -14.9219 10.6445 -14.9414 10.6152 -14.9805 C 10.5859 -15.0293 10.5859 -15.0781 10.6738 -15.1465 Z M 4.10156 2.41211 C 3.61328 1.91406 3.78906 1.61133 4.12109 1.30859 L 15.0781 -8.80859 L 16.3086 -7.57812 L 6.15234 3.34961 C 5.84961 3.68164 5.46875 3.7793 5.06836 3.37891 Z"/>
  </g>
  <text style="stroke:none;fill:black;font-family:-apple-system,&quot;SF Pro Display&quot;,&quot;SF Pro Text&quot;,Helvetica,sans-serif;font-weight:bold;" transform="matrix(1 0 0 1 1289 1953)">Exporting</text>
  <text style="stroke:none;fill:black;font-family:-apple-system,&quot;SF Pro Display&quot;,&quot;SF Pro Text&quot;,Helvetica,sans-serif;" transform="matrix(1 0 0 1 1289 1971)">Symbols should be outlined when exporting to ensure the</text>
  <text style="stroke:none;fill:black;font-family:-apple-system,&quot;SF Pro Display&quot;,&quot;SF Pro Text&quot;,Helvetica,sans-serif;" transform="matrix(1 0 0 1 1289 1989)">design is preserved when submitting to Xcode.</text>
  <text id="template-version" style="stroke:none;fill:black;font-family:-apple-system,&quot;SF Pro Display&quot;,&quot;SF Pro Text&quot;,Helvetica,sans-serif;text-anchor:end;" transform="matrix(1 0 0 1 3036 1933)">Template v.1.0</text>
  <text style="stroke:none;fill:black;font-family:-apple-system,&quot;SF Pro Display&quot;,&quot;SF Pro Text&quot;,Helvetica,sans-serif;text-anchor:end;" transform="matrix(1 0 0 1 3036 1951)">Generated from exclamationmark.octagon</text>
  <text style="stroke:none;fill:black;font-family:-apple-system,&quot;SF Pro Display&quot;,&quot;SF Pro Text&quot;,Helvetica,sans-serif;text-anchor:end;" transform="matrix(1 0 0 1 3036 1969)">Typeset at 100 points</text>
  <text style="stroke:none;fill:black;font-family:-apple-system,&quot;SF Pro Display&quot;,&quot;SF Pro Text&quot;,Helvetica,sans-serif;" transform="matrix(1 0 0 1 263 726)">Small</text>
  <text style="stroke:none;fill:black;font-family:-apple-system,&quot;SF Pro Display&quot;,&quot;SF Pro Text&quot;,Helvetica,sans-serif;" transform="matrix(1 0 0 1 263 1156)">Medium</text>
  <text style="stroke:none;fill:black;font-family:-apple-system,&quot;SF Pro Display&quot;,&quot;SF Pro Text&quot;,Helvetica,sans-serif;" transform="matrix(1 0 0 1 263 1586)">Large</text>
 </g>
 <g id="Guides">
  <g id="H-reference" style="fill:#27AAE1;stroke:none;" transform="matrix(1 0 0 1 339 696)">
   <path d="M 54.9316 0 L 57.666 0 L 30.5664 -70.459 L 28.0762 -70.459 L 0.976562 0 L 3.66211 0 L 12.9395 -24.4629 L 45.7031 -24.4629 Z M 29.1992 -67.0898 L 29.4434 -67.0898 L 44.8242 -26.709 L 13.8184 -26.709 Z"/>
  </g>
  <line id="Baseline-S" style="fill:none;stroke:#27AAE1;opacity:1;stroke-width:0.577;" x1="263" x2="3036" y1="696" y2="696"/>
  <line id="Capline-S" style="fill:none;stroke:#27AAE1;opacity:1;stroke-width:0.577;" x1="263" x2="3036" y1="625.541" y2="625.541"/>
  <g id="H-reference" style="fill:#27AAE1;stroke:none;" transform="matrix(1 0 0 1 339 1126)">
   <path d="M 54.9316 0 L 57.666 0 L 30.5664 -70.459 L 28.0762 -70.459 L 0.976562 0 L 3.66211 0 L 12.9395 -24.4629 L 45.7031 -24.4629 Z M 29.1992 -67.0898 L 29.4434 -67.0898 L 44.8242 -26.709 L 13.8184 -26.709 Z"/>
  </g>
  <line id="Baseline-M" style="fill:none;stroke:#27AAE1;opacity:1;stroke-width:0.577;" x1="263" x2="3036" y1="1126" y2="1126"/>
  <line id="Capline-M" style="fill:none;stroke:#27AAE1;opacity:1;stroke-width:0.577;" x1="263" x2="3036" y1="1055.54" y2="1055.54"/>
  <g id="H-reference" style="fill:#27AAE1;stroke:none;" transform="matrix(1 0 0 1 339 1556)">
   <path d="M 54.9316 0 L 57.666 0 L 30.5664 -70.459 L 28.0762 -70.459 L 0.976562 0 L 3.66211 0 L 12.9395 -24.4629 L 45.7031 -24.4629 Z M 29.1992 -67.0898 L 29.4434 -67.0898 L 44.8242 -26.709 L 13.8184 -26.709 Z"/>
  </g>
  <line id="Baseline-L" style="fill:none;stroke:#27AAE1;opacity:1;stroke-width:0.577;" x1="263" x2="3036" y1="1556" y2="1556"/>
  <line id="Capline-L" style="fill:none;stroke:#27AAE1;opacity:1;stroke-width:0.577;" x1="263" x2="3036" y1="1485.54" y2="1485.54"/>
  <rect height="119.336" id="left-margin" style="fill:#00AEEF;stroke:none;opacity:0.4;" width="12.4512" x="1388.2" y="1030.79"/>
  <rect height="119.336" id="right-margin" style="fill:#00AEEF;stroke:none;opacity:0.4;" width="12.4512" x="1499.04" y="1030.79"/>
 </g>
 <g id="Symbols">
  <g id="Black-L" transform="matrix(1 0 0 1 2848.68 1556)">
   <path d="M 64.7461 29.1992 L 104.688 29.1992 C 113.184 29.1992 119.629 26.0742 124.609 20.2637 L 146.924 -5.85938 C 152.002 -11.8652 153.369 -15.5762 153.369 -23.4863 L 153.369 -46.8262 C 153.369 -54.7852 152.002 -58.4961 146.924 -64.502 L 124.609 -90.5762 C 119.629 -96.4355 113.184 -99.5605 104.688 -99.5605 L 64.7461 -99.5605 C 56.25 -99.5605 49.8047 -96.4355 44.8242 -90.5762 L 22.5098 -64.502 C 17.4316 -58.4961 16.0645 -54.7852 16.0645 -46.8262 L 16.0645 -23.4863 C 16.0645 -15.5762 17.4316 -11.8652 22.5098 -5.85938 L 44.8242 20.2637 C 49.8047 26.0742 56.25 29.1992 64.7461 29.1992 Z M 66.7969 9.57031 C 62.0117 9.57031 59.6191 8.1543 57.0801 5.22461 L 39.7949 -14.6973 C 37.4023 -17.4805 36.7676 -19.6289 36.7676 -24.3164 L 36.7676 -45.9961 C 36.7676 -50.6836 37.4023 -52.832 39.7949 -55.6152 L 57.0801 -75.5859 C 59.6191 -78.5156 62.0117 -79.9316 66.7969 -79.9316 L 102.637 -79.9316 C 107.471 -79.9316 109.814 -78.5156 112.354 -75.5859 L 129.639 -55.6152 C 132.031 -52.832 132.666 -50.6836 132.666 -45.9961 L 132.666 -24.3164 C 132.666 -19.6289 132.031 -17.4805 129.639 -14.6973 L 112.354 5.22461 C 109.814 8.1543 107.471 9.57031 102.637 9.57031 Z M 84.7656 -26.7578 C 89.5996 -26.7578 92.4316 -29.3945 92.6758 -34.4238 L 93.7988 -56.0059 C 93.9941 -61.2793 90.332 -64.8926 84.7168 -64.8926 C 79.0527 -64.8926 75.4395 -61.3281 75.6348 -56.0547 L 76.709 -34.2773 C 76.9531 -29.4434 79.834 -26.7578 84.7656 -26.7578 Z M 84.7656 -4.39453 C 90.1855 -4.39453 94.1895 -7.51953 94.1895 -12.6465 C 94.1895 -17.7734 90.2344 -20.9473 84.7656 -20.9473 C 79.3457 -20.9473 75.2441 -17.7734 75.2441 -12.6465 C 75.2441 -7.51953 79.3457 -4.39453 84.7656 -4.39453 Z"/>
  </g>
  <g id="Heavy-L" transform="matrix(1 0 0 1 2553.36 1556)">
   <path d="M 63.7207 28.3691 L 102.93 28.3691 C 111.475 28.3691 117.236 25.293 122.07 19.7266 L 144.482 -6.10352 C 149.316 -11.7188 150.586 -15.2344 150.586 -22.7539 L 150.586 -47.5098 C 150.586 -55.0293 149.316 -58.5449 144.482 -64.209 L 122.07 -90.0391 C 117.236 -95.6055 111.475 -98.6328 102.93 -98.6328 L 63.7207 -98.6328 C 55.2246 -98.6328 49.4141 -95.6055 44.6289 -90.0391 L 22.168 -64.209 C 17.334 -58.5449 16.0645 -55.0293 16.0645 -47.5098 L 16.0645 -22.7539 C 16.0645 -15.2344 17.334 -11.7188 22.168 -6.10352 L 44.6289 19.7266 C 49.4141 25.293 55.2246 28.3691 63.7207 28.3691 Z M 65.918 11.3281 C 60.6445 11.3281 58.3984 9.86328 55.5176 6.64062 L 37.2559 -14.1113 C 34.8145 -16.8945 34.2285 -18.9453 34.2285 -23.6328 L 34.2285 -46.6797 C 34.2285 -51.3672 34.8145 -53.3691 37.2559 -56.1523 L 55.5176 -76.9043 C 58.3984 -80.1758 60.6445 -81.5918 65.918 -81.5918 L 100.732 -81.5918 C 106.055 -81.5918 108.301 -80.1758 111.182 -76.9043 L 129.395 -56.1523 C 131.836 -53.3691 132.471 -51.3672 132.471 -46.6797 L 132.471 -23.6328 C 132.471 -18.9453 131.836 -16.8945 129.395 -14.1113 L 111.182 6.64062 C 108.301 9.86328 106.055 11.3281 100.732 11.3281 Z M 83.3984 -26.123 C 87.6953 -26.123 90.1855 -28.4668 90.4297 -33.0078 L 91.4551 -57.4219 C 91.6016 -62.1094 88.2812 -65.332 83.3008 -65.332 C 78.3203 -65.332 75.0488 -62.1582 75.1953 -57.4219 L 76.2207 -32.9102 C 76.416 -28.5156 78.9551 -26.123 83.3984 -26.123 Z M 83.3984 -4.29688 C 88.3301 -4.29688 92.041 -7.32422 92.041 -12.0605 C 92.041 -16.748 88.3301 -19.7754 83.3984 -19.7754 C 78.418 -19.7754 74.6094 -16.748 74.6094 -12.0605 C 74.6094 -7.37305 78.4668 -4.29688 83.3984 -4.29688 Z"/>
  </g>
  <g id="Bold-L" transform="matrix(1 0 0 1 2258.19 1556)">
   <path d="M 62.5977 27.3926 L 100.977 27.3926 C 109.57 27.3926 114.551 24.4141 119.238 19.1406 L 141.748 -6.34766 C 146.289 -11.5723 147.51 -14.8438 147.51 -21.9238 L 147.51 -48.291 C 147.51 -55.3711 146.289 -58.6426 141.748 -63.8672 L 119.238 -89.3555 C 114.551 -94.6289 109.57 -97.6074 100.977 -97.6074 L 62.5977 -97.6074 C 54.0039 -97.6074 49.0234 -94.6289 44.3359 -89.3555 L 21.8262 -63.8672 C 17.2363 -58.6426 16.0645 -55.3711 16.0645 -48.291 L 16.0645 -21.9238 C 16.0645 -14.8438 17.2363 -11.5723 21.8262 -6.34766 L 44.3359 19.1406 C 49.0234 24.4141 54.0039 27.3926 62.5977 27.3926 Z M 64.9902 13.2812 C 59.082 13.2812 56.9824 11.7676 53.7598 8.20312 L 34.4238 -13.4277 C 31.9336 -16.2109 31.3477 -18.1152 31.3477 -22.8027 L 31.3477 -47.4121 C 31.3477 -52.0996 31.9336 -54.0039 34.4238 -56.7871 L 53.7598 -78.418 C 56.9824 -82.0312 59.082 -83.4961 64.9902 -83.4961 L 98.584 -83.4961 C 104.492 -83.4961 106.592 -82.0312 109.814 -78.418 L 129.15 -56.7871 C 131.641 -54.0039 132.227 -52.0996 132.227 -47.4121 L 132.227 -22.8027 C 132.227 -18.1152 131.641 -16.2109 129.15 -13.4277 L 109.814 8.20312 C 106.592 11.7676 104.492 13.2812 98.584 13.2812 Z M 81.8359 -25.3418 C 85.5469 -25.3418 87.6953 -27.4414 87.8906 -31.3965 L 88.8184 -58.9844 C 88.9648 -63.0371 86.0352 -65.8691 81.7383 -65.8691 C 77.4414 -65.8691 74.6094 -63.0371 74.707 -58.9844 L 75.6348 -31.3477 C 75.7812 -27.4902 77.9785 -25.3418 81.8359 -25.3418 Z M 81.8359 -4.24805 C 86.1816 -4.24805 89.6484 -7.12891 89.6484 -11.377 C 89.6484 -15.5762 86.2305 -18.5059 81.8359 -18.5059 C 77.3926 -18.5059 73.9258 -15.5762 73.9258 -11.377 C 73.9258 -7.17773 77.4414 -4.24805 81.8359 -4.24805 Z"/>
  </g>
  <g id="Semibold-L" transform="matrix(1 0 0 1 1962.55 1556)">
   <path d="M 61.8164 26.7578 L 99.6094 26.7578 C 108.203 26.7578 112.744 23.7793 117.236 18.75 L 139.893 -6.54297 C 144.238 -11.4746 145.361 -14.5996 145.361 -21.3379 L 145.361 -48.8281 C 145.361 -55.5664 144.238 -58.6914 139.893 -63.623 L 117.236 -88.916 C 112.744 -93.9941 108.203 -96.9238 99.6094 -96.9238 L 61.8164 -96.9238 C 53.2227 -96.9238 48.6816 -93.9941 44.1895 -88.916 L 21.5332 -63.623 C 17.1875 -58.6914 16.0645 -55.5664 16.0645 -48.8281 L 16.0645 -21.3379 C 16.0645 -14.5996 17.1875 -11.4746 21.5332 -6.54297 L 44.1895 18.75 C 48.6816 23.7793 53.2227 26.7578 61.8164 26.7578 Z M 64.3066 14.6484 C 58.0078 14.6484 56.0547 13.0859 52.5391 9.27734 L 32.4219 -12.9883 C 29.9316 -15.7715 29.3457 -17.5781 29.3457 -22.2656 L 29.3457 -47.9004 C 29.3457 -52.5879 29.9316 -54.3945 32.4219 -57.1777 L 52.5391 -79.4434 C 56.0547 -83.3008 58.0078 -84.8145 64.3066 -84.8145 L 97.1191 -84.8145 C 103.418 -84.8145 105.42 -83.3008 108.887 -79.4434 L 129.004 -57.1777 C 131.494 -54.3945 132.08 -52.5879 132.08 -47.9004 L 132.08 -22.2656 C 132.08 -17.5781 131.494 -15.7715 129.004 -12.9883 L 108.887 9.27734 C 105.42 13.0859 103.418 14.6484 97.1191 14.6484 Z M 80.7129 -24.8535 C 84.0332 -24.8535 85.9863 -26.7578 86.1328 -30.2734 L 87.0117 -60.0098 C 87.1094 -63.623 84.4727 -66.2109 80.6641 -66.2109 C 76.8555 -66.2109 74.2676 -63.6719 74.3652 -60.0586 L 75.2441 -30.2734 C 75.3418 -26.7578 77.3438 -24.8535 80.7129 -24.8535 Z M 80.7129 -4.15039 C 84.7168 -4.15039 87.9395 -6.98242 87.9395 -10.8887 C 87.9395 -14.7949 84.7656 -17.627 80.7129 -17.627 C 76.709 -17.627 73.4863 -14.7949 73.4863 -10.8887 C 73.4863 -7.03125 76.7578 -4.15039 80.7129 -4.15039 Z"/>
  </g>
  <g id="Medium-L" transform="matrix(1 0 0 1 1666.65 1556)">
   <path d="M 61.2305 26.2695 L 98.584 26.2695 C 107.227 26.2695 111.328 23.3398 115.771 18.457 L 138.477 -6.68945 C 142.676 -11.377 143.75 -14.4043 143.75 -20.8984 L 143.75 -49.2188 C 143.75 -55.7129 142.676 -58.7402 138.477 -63.4277 L 115.771 -88.5742 C 111.328 -93.457 107.227 -96.3867 98.584 -96.3867 L 61.2305 -96.3867 C 52.5879 -96.3867 48.4863 -93.457 44.043 -88.5742 L 21.3379 -63.4277 C 17.1387 -58.7402 16.0645 -55.7129 16.0645 -49.2188 L 16.0645 -20.8984 C 16.0645 -14.4043 17.1387 -11.377 21.3379 -6.68945 L 44.043 18.457 C 48.4863 23.3398 52.5879 26.2695 61.2305 26.2695 Z M 63.8184 15.6738 C 57.2266 15.6738 55.3223 14.1113 51.6113 10.1074 L 30.957 -12.6465 C 28.418 -15.4297 27.8809 -17.1875 27.8809 -21.8262 L 27.8809 -48.291 C 27.8809 -52.9785 28.418 -54.7363 30.957 -57.5195 L 51.6113 -80.2246 C 55.3223 -84.2285 57.2266 -85.791 63.8184 -85.791 L 95.9961 -85.791 C 102.588 -85.791 104.492 -84.2285 108.203 -80.2246 L 128.857 -57.5195 C 131.396 -54.7363 131.934 -52.9785 131.934 -48.291 L 131.934 -21.8262 C 131.934 -17.1875 131.396 -15.4297 128.857 -12.6465 L 108.203 10.1074 C 104.492 14.1113 102.588 15.6738 95.9961 15.6738 Z M 79.9316 -24.4629 C 82.9102 -24.4629 84.7168 -26.2207 84.7656 -29.4434 L 85.6445 -60.8398 C 85.6934 -64.1113 83.252 -66.4551 79.8828 -66.4551 C 76.416 -66.4551 74.0723 -64.1602 74.1211 -60.8887 L 74.9512 -29.4434 C 75 -26.2695 76.8066 -24.4629 79.9316 -24.4629 Z M 79.9316 -4.15039 C 83.6426 -4.15039 86.6699 -6.88477 86.6699 -10.5469 C 86.6699 -14.209 83.6914 -16.9434 79.9316 -16.9434 C 76.1719 -16.9434 73.0957 -14.1602 73.0957 -10.5469 C 73.0957 -6.93359 76.2207 -4.15039 79.9316 -4.15039 Z"/>
  </g>
  <g id="Regular-L" transform="matrix(1 0 0 1 1370.99 1556)">
   <path d="M 60.498 25.5859 L 97.2168 25.5859 C 105.908 25.5859 109.521 22.7051 113.818 18.0664 L 136.621 -6.88477 C 140.625 -11.2793 141.65 -14.1602 141.65 -20.3613 L 141.65 -49.7559 C 141.65 -55.957 140.625 -58.7891 136.621 -63.2324 L 113.818 -88.1348 C 109.521 -92.8223 105.908 -95.7031 97.2168 -95.7031 L 60.498 -95.7031 C 51.8066 -95.7031 48.1934 -92.8223 43.8477 -88.1348 L 21.0938 -63.2324 C 17.0898 -58.7891 16.0645 -55.957 16.0645 -49.7559 L 16.0645 -20.3613 C 16.0645 -14.1602 17.0898 -11.2793 21.0938 -6.88477 L 43.8477 18.0664 C 48.1934 22.7051 51.8066 25.5859 60.498 25.5859 Z M 63.1348 16.9922 C 56.2012 16.9922 54.3457 15.4297 50.3906 11.1816 L 29.0039 -12.1582 C 26.4648 -14.9414 25.8789 -16.6504 25.8789 -21.2891 L 25.8789 -48.8281 C 25.8789 -53.4668 26.4648 -55.127 29.0039 -57.9102 L 50.3906 -81.25 C 54.3457 -85.498 56.2012 -87.1094 63.1348 -87.1094 L 94.5312 -87.1094 C 101.514 -87.1094 103.369 -85.498 107.275 -81.25 L 128.711 -57.9102 C 131.25 -55.127 131.787 -53.4668 131.787 -48.8281 L 131.787 -21.2891 C 131.787 -16.6504 131.25 -14.9414 128.711 -12.1582 L 107.275 11.1816 C 103.369 15.4297 101.514 16.9922 94.5312 16.9922 Z M 78.8574 -23.9258 C 81.4453 -23.9258 83.0078 -25.4883 83.0566 -28.3691 L 83.8379 -61.9141 C 83.8867 -64.7461 81.7383 -66.8457 78.8086 -66.8457 C 75.8301 -66.8457 73.7305 -64.7949 73.7793 -61.9629 L 74.5605 -28.3691 C 74.6094 -25.5371 76.123 -23.9258 78.8574 -23.9258 Z M 78.8574 -4.05273 C 82.1777 -4.05273 85.0586 -6.73828 85.0586 -10.0586 C 85.0586 -13.4277 82.2266 -16.0645 78.8574 -16.0645 C 75.4395 -16.0645 72.6562 -13.3789 72.6562 -10.0586 C 72.6562 -6.78711 75.4883 -4.05273 78.8574 -4.05273 Z"/>
  </g>
  <g id="Light-L" transform="matrix(1 0 0 1 1075.2 1556)">
   <path d="M 60.5957 24.9512 L 95.2637 24.9512 C 104.932 24.9512 108.203 21.7285 112.842 16.8457 L 135.01 -7.12891 C 138.818 -11.2305 139.795 -13.916 139.795 -20.0195 L 139.795 -50.2441 C 139.795 -56.3477 138.818 -59.0332 135.01 -63.1348 L 112.842 -87.0605 C 108.203 -91.9922 104.932 -95.2148 95.2637 -95.2148 L 60.5957 -95.2148 C 50.9277 -95.2148 47.6562 -91.9922 43.0176 -87.0605 L 20.8496 -63.1348 C 17.041 -59.0332 16.0645 -56.3477 16.0645 -50.2441 L 16.0645 -20.0195 C 16.0645 -13.916 17.041 -11.2305 20.8496 -7.12891 L 43.0176 16.8457 C 47.6562 21.7285 50.9277 24.9512 60.5957 24.9512 Z M 62.2559 18.457 C 54.3457 18.457 52.4902 16.5039 47.9492 11.7188 L 26.6113 -11.2305 C 23.9746 -14.0625 23.4375 -15.8691 23.4375 -20.6055 L 23.4375 -49.6582 C 23.4375 -54.3945 23.9746 -56.2012 26.6113 -59.0332 L 47.9492 -81.9824 C 52.4902 -86.7676 54.3457 -88.7207 62.2559 -88.7207 L 93.6035 -88.7207 C 101.514 -88.7207 103.369 -86.7676 107.861 -81.9824 L 129.248 -59.0332 C 131.885 -56.2012 132.422 -54.3945 132.422 -49.6582 L 132.422 -20.6055 C 132.422 -15.8691 131.885 -14.0625 129.248 -11.2305 L 107.861 11.7188 C 103.369 16.5039 101.514 18.457 93.6035 18.457 Z M 77.9297 -23.9746 C 79.9805 -23.9746 81.25 -25.3418 81.2988 -27.6855 L 81.9336 -61.5723 C 81.9824 -63.8672 80.2734 -65.5273 77.8809 -65.5273 C 75.4883 -65.5273 73.877 -63.916 73.877 -61.5723 L 74.5117 -27.6855 C 74.5605 -25.3418 75.8301 -23.9746 77.9297 -23.9746 Z M 77.9297 -4.93164 C 80.8594 -4.93164 83.3008 -7.32422 83.3008 -10.2051 C 83.3008 -13.1348 80.9082 -15.4785 77.9297 -15.4785 C 74.9512 -15.4785 72.5586 -13.0859 72.5586 -10.2051 C 72.5586 -7.37305 75 -4.93164 77.9297 -4.93164 Z"/>
  </g>
  <g id="Thin-L" transform="matrix(1 0 0 1 779.713 1556)">
   <path d="M 60.7422 24.1211 L 92.6758 24.1211 C 103.613 24.1211 106.494 20.4102 111.475 15.1855 L 132.91 -7.42188 C 136.426 -11.1816 137.354 -13.623 137.354 -19.6289 L 137.354 -50.8789 C 137.354 -56.8359 136.426 -59.3262 132.91 -63.0371 L 111.475 -85.6445 C 106.494 -90.8691 103.613 -94.6289 92.6758 -94.6289 L 60.7422 -94.6289 C 49.8047 -94.6289 46.875 -90.8691 41.9434 -85.6445 L 20.5078 -63.0371 C 16.9922 -59.3262 16.0645 -56.8359 16.0645 -50.8789 L 16.0645 -19.6289 C 16.0645 -13.623 16.9922 -11.1816 20.5078 -7.42188 L 41.9434 15.1855 C 46.875 20.4102 49.8047 24.1211 60.7422 24.1211 Z M 61.084 20.3613 C 51.9531 20.3613 50 17.9688 44.7266 12.4512 L 23.4375 -10.0098 C 20.7031 -12.8906 20.166 -14.8438 20.166 -19.7266 L 20.166 -50.7324 C 20.166 -55.6152 20.7031 -57.5684 23.4375 -60.4492 L 44.7266 -82.959 C 50 -88.4766 51.9531 -90.8203 61.084 -90.8203 L 92.334 -90.8203 C 101.465 -90.8203 103.418 -88.4766 108.643 -82.959 L 129.98 -60.4492 C 132.715 -57.5684 133.252 -55.6152 133.252 -50.7324 L 133.252 -19.7266 C 133.252 -14.8438 132.715 -12.8906 129.98 -10.0098 L 108.643 12.4512 C 103.418 17.9688 101.465 20.3613 92.334 20.3613 Z M 76.709 -24.0723 C 78.0273 -24.0723 78.9062 -25.0977 78.9551 -26.7578 L 79.3945 -61.1328 C 79.3945 -62.7441 78.3203 -63.8672 76.709 -63.8672 C 75.0488 -63.8672 74.0234 -62.7441 74.0234 -61.1328 L 74.4629 -26.7578 C 74.4629 -25.0977 75.3906 -24.0723 76.709 -24.0723 Z M 76.709 -6.10352 C 79.1016 -6.10352 81.0059 -8.10547 81.0059 -10.3516 C 81.0059 -12.6953 79.1016 -14.6484 76.709 -14.6484 C 74.3164 -14.6484 72.4121 -12.6953 72.4121 -10.3516 C 72.4121 -8.10547 74.3164 -6.10352 76.709 -6.10352 Z"/>
  </g>
  <g id="Ultralight-L" transform="matrix(1 0 0 1 483.637 1556)">
   <path d="M 60.791 23.7305 L 91.3574 23.7305 C 102.93 23.7305 105.615 19.7266 110.791 14.3555 L 131.836 -7.61719 C 135.205 -11.1328 136.084 -13.4766 136.084 -19.3848 L 136.084 -51.1719 C 136.084 -57.1289 135.205 -59.4727 131.836 -62.9883 L 110.791 -84.9609 C 105.615 -90.332 102.93 -94.2871 91.3574 -94.2871 L 60.791 -94.2871 C 49.2188 -94.2871 46.5332 -90.332 41.3574 -84.9609 L 20.3125 -62.9883 C 16.9434 -59.4727 16.0645 -57.1289 16.0645 -51.1719 L 16.0645 -19.3848 C 16.0645 -13.4766 16.9434 -11.1328 20.3125 -7.61719 L 41.3574 14.3555 C 46.5332 19.7266 49.2188 23.7305 60.791 23.7305 Z M 60.498 21.3379 C 50.6836 21.3379 48.7305 18.75 43.1152 12.8418 L 21.7773 -9.375 C 19.043 -12.3047 18.457 -14.3555 18.457 -19.2871 L 18.457 -51.3184 C 18.457 -56.25 19.043 -58.3008 21.7773 -61.1816 L 43.1152 -83.4473 C 48.7305 -89.3066 50.6836 -91.9434 60.498 -91.9434 L 91.6504 -91.9434 C 101.465 -91.9434 103.418 -89.3066 109.082 -83.4473 L 130.371 -61.1816 C 133.105 -58.3008 133.691 -56.25 133.691 -51.3184 L 133.691 -19.2871 C 133.691 -14.3555 133.105 -12.3047 130.371 -9.375 L 109.082 12.8418 C 103.418 18.75 101.465 21.3379 91.6504 21.3379 Z M 76.0742 -24.1211 C 77.002 -24.1211 77.7344 -25 77.7344 -26.2695 L 78.0762 -60.8887 C 78.0762 -62.1582 77.3438 -62.9883 76.0742 -62.9883 C 74.8047 -62.9883 74.0723 -62.1582 74.0723 -60.8887 L 74.4141 -26.2695 C 74.4141 -25 75.1465 -24.1211 76.0742 -24.1211 Z M 76.0742 -6.68945 C 78.1738 -6.68945 79.834 -8.54492 79.834 -10.4492 C 79.834 -12.5 78.1738 -14.2578 76.0742 -14.2578 C 73.9746 -14.2578 72.3145 -12.5 72.3145 -10.4492 C 72.3145 -8.49609 73.9746 -6.68945 76.0742 -6.68945 Z"/>
  </g>
  <g id="Black-M" transform="matrix(1 0 0 1 2866.36 1126)">
   <path d="M 51.5625 15.5273 L 82.4707 15.5273 C 89.502 15.5273 95.2148 12.8418 99.4629 7.8125 L 116.309 -12.2559 C 120.508 -17.2852 121.631 -20.3125 121.631 -27.002 L 121.631 -43.5547 C 121.631 -50.1953 120.508 -53.2715 116.309 -58.3008 L 99.4629 -78.3203 C 95.2148 -83.3496 89.502 -86.084 82.4707 -86.084 L 51.5625 -86.084 C 44.5801 -86.084 38.8184 -83.3496 34.6191 -78.3203 L 17.7734 -58.3008 C 13.5742 -53.2715 12.4512 -50.1953 12.4512 -43.5547 L 12.4512 -27.002 C 12.4512 -20.3125 13.5742 -17.2852 17.7734 -12.2559 L 34.6191 7.8125 C 38.8184 12.8418 44.5801 15.5273 51.5625 15.5273 Z M 52.4414 -2.09961 C 48.9258 -2.09961 46.9238 -3.32031 45.0684 -5.46875 L 33.0078 -19.6289 C 31.1523 -21.8262 30.6152 -23.7305 30.6152 -27.3926 L 30.6152 -43.1152 C 30.6152 -46.8262 31.1523 -48.7305 33.0078 -50.8789 L 45.0684 -65.0391 C 46.9238 -67.2363 48.9258 -68.4082 52.4414 -68.4082 L 81.5918 -68.4082 C 85.1562 -68.4082 87.1582 -67.2363 89.0137 -65.0391 L 101.074 -50.8789 C 102.93 -48.7305 103.418 -46.8262 103.418 -43.1152 L 103.418 -27.3926 C 103.418 -23.7305 102.93 -21.8262 101.074 -19.6289 L 89.0137 -5.46875 C 87.1582 -3.32031 85.1562 -2.09961 81.5918 -2.09961 Z M 67.0898 -29.5898 C 71.2402 -29.5898 73.6816 -31.8848 73.9746 -36.1328 L 74.8047 -49.3164 C 75 -53.9062 71.9238 -56.8848 67.041 -56.8848 C 62.1094 -56.8848 59.0332 -53.9062 59.2285 -49.3164 L 60.1074 -35.9863 C 60.3516 -31.8848 62.8906 -29.5898 67.0898 -29.5898 Z M 67.0898 -11.8652 C 71.7285 -11.8652 75 -14.3066 75 -18.6523 C 75 -22.9004 71.7285 -25.3906 67.0898 -25.3906 C 62.4512 -25.3906 59.082 -22.9492 59.082 -18.6523 C 59.082 -14.3066 62.4512 -11.8652 67.0898 -11.8652 Z"/>
  </g>
  <g id="Heavy-M" transform="matrix(1 0 0 1 2570.92 1126)">
   <path d="M 50.4395 14.7461 L 81.0547 14.7461 C 87.8906 14.7461 92.9688 12.207 96.9238 7.56836 L 114.062 -12.4512 C 118.018 -17.1387 119.092 -20.0195 119.092 -26.2695 L 119.092 -44.1895 C 119.092 -50.3906 118.018 -53.3203 114.062 -57.959 L 96.9238 -77.9785 C 92.9688 -82.666 87.8906 -85.2051 81.0547 -85.2051 L 50.4395 -85.2051 C 43.6523 -85.2051 38.5742 -82.666 34.5703 -77.9785 L 17.4805 -57.959 C 13.5254 -53.3203 12.4512 -50.3906 12.4512 -44.1895 L 12.4512 -26.2695 C 12.4512 -20.0195 13.5254 -17.1387 17.4805 -12.4512 L 34.5703 7.56836 C 38.5742 12.207 43.6523 14.7461 50.4395 14.7461 Z M 51.7578 -0.585938 C 47.9004 -0.585938 46.0449 -1.70898 43.9453 -4.10156 L 30.8594 -19.2383 C 28.9551 -21.3867 28.4668 -23.1445 28.4668 -26.8066 L 28.4668 -43.6523 C 28.4668 -47.3145 28.9551 -49.0234 30.8594 -51.2207 L 43.9453 -66.3574 C 46.0449 -68.7012 47.9004 -69.873 51.7578 -69.873 L 79.7852 -69.873 C 83.6426 -69.873 85.498 -68.7012 87.5488 -66.3574 L 100.684 -51.2207 C 102.539 -49.0234 103.027 -47.3145 103.027 -43.6523 L 103.027 -26.8066 C 103.027 -23.1445 102.539 -21.3867 100.684 -19.2383 L 87.5488 -4.10156 C 85.498 -1.70898 83.6426 -0.585938 79.7852 -0.585938 Z M 65.8203 -28.8574 C 69.5312 -28.8574 71.7285 -30.9082 71.9238 -34.7656 L 72.7539 -50.8789 C 72.9004 -54.9805 70.1172 -57.7637 65.7715 -57.7637 C 61.377 -57.7637 58.5938 -55.0293 58.7402 -50.9277 L 59.5703 -34.668 C 59.7656 -30.9082 62.0117 -28.8574 65.8203 -28.8574 Z M 65.8203 -11.5723 C 70.0195 -11.5723 73.0957 -13.9648 73.0957 -17.9199 C 73.0957 -21.875 70.0195 -24.2676 65.8203 -24.2676 C 61.5723 -24.2676 58.4473 -21.9238 58.4473 -17.9199 C 58.4473 -13.9648 61.5723 -11.5723 65.8203 -11.5723 Z"/>
  </g>
  <g id="Bold-M" transform="matrix(1 0 0 1 2275.65 1126)">
   <path d="M 49.2188 13.916 L 79.4922 13.916 C 86.084 13.916 90.4297 11.5234 94.1406 7.27539 L 111.523 -12.6953 C 115.234 -16.9922 116.211 -19.6777 116.211 -25.4395 L 116.211 -44.873 C 116.211 -50.6348 115.234 -53.3203 111.523 -57.6172 L 94.1406 -77.5879 C 90.4297 -81.8359 86.084 -84.2285 79.4922 -84.2285 L 49.2188 -84.2285 C 42.5781 -84.2285 38.2324 -81.8359 34.5703 -77.5879 L 17.1387 -57.6172 C 13.4277 -53.3203 12.4512 -50.6348 12.4512 -44.873 L 12.4512 -25.4395 C 12.4512 -19.6777 13.4277 -16.9922 17.1387 -12.6953 L 34.5703 7.27539 C 38.2324 11.5234 42.5781 13.916 49.2188 13.916 Z M 50.9277 1.17188 C 46.7285 1.17188 45.0684 0.0488281 42.7734 -2.53906 L 28.418 -18.75 C 26.5137 -20.9473 26.0742 -22.4609 26.0742 -26.123 L 26.0742 -44.1895 C 26.0742 -47.8516 26.5137 -49.3652 28.418 -51.5625 L 42.7734 -67.7734 C 45.0684 -70.3613 46.7285 -71.4844 50.9277 -71.4844 L 77.7344 -71.4844 C 81.9336 -71.4844 83.6426 -70.3613 85.9375 -67.7734 L 100.244 -51.5625 C 102.148 -49.3652 102.588 -47.8516 102.588 -44.1895 L 102.588 -26.123 C 102.588 -22.4609 102.148 -20.9473 100.244 -18.75 L 85.9375 -2.53906 C 83.6426 0.0488281 81.9336 1.17188 77.7344 1.17188 Z M 64.3555 -28.0273 C 67.627 -28.0273 69.5312 -29.834 69.6777 -33.252 L 70.459 -52.6855 C 70.5566 -56.25 68.0664 -58.6914 64.3066 -58.6914 C 60.5469 -58.6914 58.0566 -56.25 58.2031 -52.7344 L 58.9355 -33.1543 C 59.1309 -29.834 61.0352 -28.0273 64.3555 -28.0273 Z M 64.3555 -11.2305 C 68.1152 -11.2305 70.9473 -13.5742 70.9473 -17.1387 C 70.9473 -20.7031 68.1152 -23.0469 64.3555 -23.0469 C 60.5957 -23.0469 57.7148 -20.7031 57.7148 -17.1387 C 57.7148 -13.5742 60.6445 -11.2305 64.3555 -11.2305 Z"/>
  </g>
  <g id="Semibold-M" transform="matrix(1 0 0 1 1979.91 1126)">
   <path d="M 48.3398 13.3301 L 78.3691 13.3301 C 84.8145 13.3301 88.6719 11.084 92.1875 7.08008 L 109.814 -12.8418 C 113.33 -16.8945 114.258 -19.4336 114.258 -24.8535 L 114.258 -45.3613 C 114.258 -50.7812 113.33 -53.3203 109.814 -57.373 L 92.1875 -77.3438 C 88.6719 -81.2988 84.8145 -83.5449 78.3691 -83.5449 L 48.3398 -83.5449 C 41.8945 -83.5449 38.0371 -81.2988 34.5215 -77.3438 L 16.8945 -57.373 C 13.3789 -53.3203 12.4512 -50.7812 12.4512 -45.3613 L 12.4512 -24.8535 C 12.4512 -19.4336 13.3789 -16.8945 16.8945 -12.8418 L 34.5215 7.08008 C 38.0371 11.084 41.8945 13.3301 48.3398 13.3301 Z M 50.3906 2.34375 C 45.9473 2.34375 44.3848 1.26953 41.8945 -1.46484 L 26.7578 -18.457 C 24.8535 -20.6055 24.4141 -22.0215 24.4141 -25.6348 L 24.4141 -44.5801 C 24.4141 -48.1934 24.8535 -49.6094 26.7578 -51.8066 L 41.8945 -68.75 C 44.3848 -71.4844 45.9473 -72.5586 50.3906 -72.5586 L 76.3184 -72.5586 C 80.7617 -72.5586 82.3242 -71.4844 84.7656 -68.75 L 99.9512 -51.8066 C 101.855 -49.6094 102.295 -48.1934 102.295 -44.5801 L 102.295 -25.6348 C 102.295 -22.0215 101.855 -20.6055 99.9512 -18.457 L 84.7656 -1.46484 C 82.3242 1.26953 80.7617 2.34375 76.3184 2.34375 Z M 63.3789 -27.4414 C 66.3086 -27.4414 67.9688 -29.1016 68.1152 -32.1777 L 68.8477 -53.9062 C 68.9453 -57.0801 66.6504 -59.3262 63.3301 -59.3262 C 59.9609 -59.3262 57.7148 -57.1289 57.8125 -53.9551 L 58.5449 -32.1289 C 58.6426 -29.1016 60.3516 -27.4414 63.3789 -27.4414 Z M 63.3789 -10.9863 C 66.7969 -10.9863 69.4824 -13.2812 69.4824 -16.6016 C 69.4824 -19.9219 66.7969 -22.2168 63.3789 -22.2168 C 59.9609 -22.2168 57.2266 -19.873 57.2266 -16.6016 C 57.2266 -13.3301 59.9609 -10.9863 63.3789 -10.9863 Z"/>
  </g>
  <g id="Medium-M" transform="matrix(1 0 0 1 1683.96 1126)">
   <path d="M 47.6562 12.8418 L 77.5391 12.8418 C 83.8867 12.8418 87.3535 10.7422 90.7227 6.98242 L 108.496 -12.9883 C 111.865 -16.7969 112.744 -19.2383 112.744 -24.4141 L 112.744 -45.752 C 112.744 -50.9277 111.865 -53.3691 108.496 -57.1777 L 90.7227 -77.1484 C 87.3535 -80.8594 83.8867 -83.0078 77.5391 -83.0078 L 47.6562 -83.0078 C 41.3086 -83.0078 37.8906 -80.8594 34.4727 -77.1484 L 16.748 -57.1777 C 13.3301 -53.3691 12.4512 -50.9277 12.4512 -45.752 L 12.4512 -24.4141 C 12.4512 -19.2383 13.3301 -16.7969 16.748 -12.9883 L 34.4727 6.98242 C 37.8906 10.7422 41.3086 12.8418 47.6562 12.8418 Z M 50 3.27148 C 45.3613 3.27148 43.8477 2.19727 41.2598 -0.634766 L 25.4883 -18.2129 C 23.584 -20.3613 23.1445 -21.6797 23.1445 -25.293 L 23.1445 -44.873 C 23.1445 -48.4863 23.584 -49.8047 25.4883 -51.9531 L 41.2598 -69.5312 C 43.8477 -72.3633 45.3613 -73.4375 50 -73.4375 L 75.2441 -73.4375 C 79.834 -73.4375 81.3477 -72.3633 83.9355 -69.5312 L 99.707 -51.9531 C 101.611 -49.8047 102.1 -48.4863 102.1 -44.873 L 102.1 -25.293 C 102.1 -21.6797 101.611 -20.3613 99.707 -18.2129 L 83.9355 -0.634766 C 81.3477 2.19727 79.834 3.27148 75.2441 3.27148 Z M 62.5977 -27.002 C 65.2832 -27.002 66.8457 -28.5156 66.8945 -31.3477 L 67.6758 -54.8828 C 67.7246 -57.7148 65.5762 -59.8145 62.5488 -59.8145 C 59.5215 -59.8145 57.4707 -57.7637 57.5195 -54.8828 L 58.2031 -31.3477 C 58.3008 -28.5645 59.8633 -27.002 62.5977 -27.002 Z M 62.5977 -10.8398 C 65.7715 -10.8398 68.3594 -13.0859 68.3594 -16.2109 C 68.3594 -19.2871 65.8203 -21.582 62.5977 -21.582 C 59.4238 -21.582 56.8359 -19.2871 56.8359 -16.2109 C 56.8359 -13.1348 59.4727 -10.8398 62.5977 -10.8398 Z"/>
  </g>
  <g id="Regular-M" transform="matrix(1 0 0 1 1388.2 1126)">
   <path d="M 46.8262 12.2559 L 76.4648 12.2559 C 82.666 12.2559 85.5957 10.2539 88.8184 6.78711 L 106.787 -13.1348 C 110.01 -16.6992 110.84 -19.043 110.84 -23.877 L 110.84 -46.1914 C 110.84 -51.0742 110.01 -53.3691 106.787 -56.9336 L 88.8184 -76.8555 C 85.5957 -80.3223 82.666 -82.373 76.4648 -82.373 L 46.8262 -82.373 C 40.625 -82.373 37.6465 -80.3223 34.4727 -76.8555 L 16.5039 -56.9336 C 13.2812 -53.3691 12.4512 -51.0742 12.4512 -46.1914 L 12.4512 -23.877 C 12.4512 -19.043 13.2812 -16.6992 16.5039 -13.1348 L 34.4727 6.78711 C 37.6465 10.2539 40.625 12.2559 46.8262 12.2559 Z M 49.4629 4.44336 C 44.5801 4.44336 43.1641 3.36914 40.4785 0.439453 L 23.8281 -17.8711 C 21.9238 -20.0195 21.4844 -21.2402 21.4844 -24.8047 L 21.4844 -45.2637 C 21.4844 -48.8281 21.9238 -50.0488 23.8281 -52.1973 L 40.4785 -70.5078 C 43.1641 -73.4863 44.5801 -74.5117 49.4629 -74.5117 L 73.8281 -74.5117 C 78.7109 -74.5117 80.0781 -73.4863 82.8125 -70.5078 L 99.4141 -52.1973 C 101.367 -50.0488 101.807 -48.8281 101.807 -45.2637 L 101.807 -24.8047 C 101.807 -21.2402 101.367 -20.0195 99.4141 -17.8711 L 82.8125 0.439453 C 80.0781 3.36914 78.7109 4.44336 73.8281 4.44336 Z M 61.6211 -26.4648 C 63.9648 -26.4648 65.332 -27.7832 65.3809 -30.3223 L 66.0645 -56.1035 C 66.1133 -58.5938 64.1602 -60.4492 61.5723 -60.4492 C 58.9355 -60.4492 57.0801 -58.6426 57.1289 -56.1523 L 57.8125 -30.3223 C 57.8613 -27.832 59.1797 -26.4648 61.6211 -26.4648 Z M 61.6211 -10.5957 C 64.4531 -10.5957 66.8945 -12.8418 66.8945 -15.6738 C 66.8945 -18.5059 64.502 -20.752 61.6211 -20.752 C 58.7891 -20.752 56.3477 -18.457 56.3477 -15.6738 C 56.3477 -12.8906 58.8379 -10.5957 61.6211 -10.5957 Z"/>
  </g>
  <g id="Light-M" transform="matrix(1 0 0 1 1092.32 1126)">
   <path d="M 46.9238 11.7188 L 74.707 11.7188 C 81.7383 11.7188 84.4238 9.375 87.8906 5.66406 L 105.322 -13.3301 C 108.398 -16.6504 109.18 -18.7988 109.18 -23.584 L 109.18 -46.6309 C 109.18 -51.416 108.398 -53.5645 105.322 -56.8848 L 87.8906 -75.8789 C 84.4238 -79.5898 81.7383 -81.9336 74.707 -81.9336 L 46.9238 -81.9336 C 39.8438 -81.9336 37.1582 -79.5898 33.7402 -75.8789 L 16.2598 -56.8848 C 13.2324 -53.5645 12.4512 -51.416 12.4512 -46.6309 L 12.4512 -23.584 C 12.4512 -18.7988 13.2324 -16.6504 16.2598 -13.3301 L 33.7402 5.66406 C 37.1582 9.375 39.8438 11.7188 46.9238 11.7188 Z M 48.6328 5.71289 C 42.9199 5.71289 41.5039 4.39453 38.2812 0.927734 L 21.6797 -17.041 C 19.6777 -19.2383 19.2871 -20.5566 19.2871 -24.2188 L 19.2871 -46.0449 C 19.2871 -49.6582 19.6777 -50.9766 21.6797 -53.1738 L 38.2812 -71.1426 C 41.5039 -74.6094 42.9199 -75.9766 48.6328 -75.9766 L 72.9492 -75.9766 C 78.6621 -75.9766 80.127 -74.6094 83.3496 -71.1426 L 99.9023 -53.1738 C 101.904 -50.9766 102.344 -49.6582 102.344 -46.0449 L 102.344 -24.2188 C 102.344 -20.5566 101.904 -19.2383 99.9023 -17.041 L 83.3496 0.927734 C 80.127 4.39453 78.6621 5.71289 72.9492 5.71289 Z M 60.791 -26.5137 C 62.6465 -26.5137 63.7695 -27.6367 63.7695 -29.6875 L 64.3555 -55.7617 C 64.4043 -57.8125 62.8418 -59.2773 60.791 -59.2773 C 58.6426 -59.2773 57.1777 -57.8613 57.2266 -55.8105 L 57.7637 -29.6875 C 57.8125 -27.6855 58.8867 -26.5137 60.791 -26.5137 Z M 60.791 -11.377 C 63.2812 -11.377 65.332 -13.3301 65.332 -15.7715 C 65.332 -18.2129 63.2812 -20.166 60.791 -20.166 C 58.3008 -20.166 56.25 -18.2129 56.25 -15.7715 C 56.25 -13.3789 58.3496 -11.377 60.791 -11.377 Z"/>
  </g>
  <g id="Thin-M" transform="matrix(1 0 0 1 796.705 1126)">
   <path d="M 47.0215 10.9375 L 72.3633 10.9375 C 80.5664 10.9375 82.9102 8.1543 86.6699 4.19922 L 103.467 -13.623 C 106.25 -16.6016 106.982 -18.5547 106.982 -23.2422 L 106.982 -47.2168 C 106.982 -51.8555 106.25 -53.8574 103.467 -56.7871 L 86.6699 -74.6094 C 82.9102 -78.6133 80.5664 -81.3965 72.3633 -81.3965 L 47.0215 -81.3965 C 38.8672 -81.3965 36.5234 -78.6133 32.7148 -74.6094 L 15.9668 -56.7871 C 13.1836 -53.8574 12.4512 -51.8555 12.4512 -47.2168 L 12.4512 -23.2422 C 12.4512 -18.5547 13.1836 -16.6016 15.9668 -13.623 L 32.7148 4.19922 C 36.5234 8.1543 38.8672 10.9375 47.0215 10.9375 Z M 47.6074 7.42188 C 40.7715 7.42188 39.3066 5.71289 35.4004 1.5625 L 18.8477 -15.9668 C 16.748 -18.1641 16.3086 -19.6777 16.3086 -23.4375 L 16.3086 -47.0215 C 16.3086 -50.7812 16.748 -52.2461 18.8477 -54.4922 L 35.4004 -72.0215 C 39.3066 -76.123 40.7715 -77.8809 47.6074 -77.8809 L 71.8262 -77.8809 C 78.6621 -77.8809 80.127 -76.123 84.0332 -72.0215 L 100.586 -54.4922 C 102.637 -52.2461 103.076 -50.7812 103.076 -47.0215 L 103.076 -23.4375 C 103.076 -19.6777 102.637 -18.1641 100.586 -15.9668 L 84.0332 1.5625 C 80.127 5.71289 78.6621 7.42188 71.8262 7.42188 Z M 59.7168 -26.5625 C 60.8887 -26.5625 61.6699 -27.4414 61.6699 -28.8574 L 62.0605 -55.3711 C 62.0605 -56.7871 61.1328 -57.7637 59.7168 -57.7637 C 58.252 -57.7637 57.3242 -56.7871 57.3242 -55.4199 L 57.7148 -28.8574 C 57.7148 -27.4414 58.4961 -26.5625 59.7168 -26.5625 Z M 59.7168 -12.4023 C 61.6699 -12.4023 63.2812 -14.0625 63.2812 -15.918 C 63.2812 -17.8711 61.6699 -19.4824 59.7168 -19.4824 C 57.7148 -19.4824 56.1523 -17.8711 56.1523 -15.918 C 56.1523 -14.0625 57.7148 -12.4023 59.7168 -12.4023 Z"/>
  </g>
  <g id="Ultralight-M" transform="matrix(1 0 0 1 500.556 1126)">
   <path d="M 47.1191 10.5957 L 71.1914 10.5957 C 79.9805 10.5957 82.1289 7.56836 86.084 3.4668 L 102.49 -13.7695 C 105.176 -16.5527 105.859 -18.4082 105.859 -23.0469 L 105.859 -47.5098 C 105.859 -52.0996 105.176 -53.9551 102.49 -56.7383 L 86.084 -73.9746 C 82.1289 -78.0762 79.9805 -81.1035 71.1914 -81.1035 L 47.1191 -81.1035 C 38.3301 -81.1035 36.1816 -78.0762 32.2266 -73.9746 L 15.8203 -56.7383 C 13.1348 -53.9551 12.4512 -52.0996 12.4512 -47.5098 L 12.4512 -23.0469 C 12.4512 -18.4082 13.1348 -16.5527 15.8203 -13.7695 L 32.2266 3.4668 C 36.1816 7.56836 38.3301 10.5957 47.1191 10.5957 Z M 47.0703 8.30078 C 39.6484 8.30078 38.1836 6.34766 33.8867 1.9043 L 17.3828 -15.3809 C 15.2344 -17.627 14.8438 -19.1895 14.8438 -22.998 L 14.8438 -47.5098 C 14.8438 -51.3184 15.2344 -52.8809 17.3828 -55.127 L 33.8867 -72.4609 C 38.1836 -76.9043 39.6484 -78.8574 47.0703 -78.8574 L 71.2402 -78.8574 C 78.6621 -78.8574 80.127 -76.9043 84.4238 -72.4609 L 100.928 -55.127 C 103.027 -52.8809 103.467 -51.3184 103.467 -47.5098 L 103.467 -22.998 C 103.467 -19.1895 103.027 -17.627 100.928 -15.3809 L 84.4238 1.9043 C 80.127 6.34766 78.6621 8.30078 71.2402 8.30078 Z M 59.1309 -26.6113 C 60.0098 -26.6113 60.5957 -27.3438 60.5957 -28.418 L 60.8887 -55.1758 C 60.8887 -56.2988 60.2539 -57.0312 59.1309 -57.0312 C 58.0566 -57.0312 57.373 -56.2988 57.373 -55.1758 L 57.7148 -28.418 C 57.7148 -27.3438 58.3008 -26.6113 59.1309 -26.6113 Z M 59.1309 -12.9395 C 60.8887 -12.9395 62.207 -14.4043 62.207 -16.0156 C 62.207 -17.6758 60.8887 -19.0918 59.1309 -19.0918 C 57.4219 -19.0918 56.0547 -17.6758 56.0547 -16.0156 C 56.0547 -14.4043 57.4219 -12.9395 59.1309 -12.9395 Z"/>
  </g>
  <g id="Black-S" transform="matrix(1 0 0 1 2880.96 696)">
   <path d="M 40.332 4.49219 L 64.5508 4.49219 C 70.0195 4.49219 74.4629 2.39258 77.7344 -1.51367 L 90.9668 -17.2363 C 94.2383 -21.1426 95.1172 -23.5352 95.1172 -28.7109 L 95.1172 -41.7969 C 95.1172 -46.9727 94.2383 -49.3652 90.9668 -53.2715 L 77.7344 -68.9941 C 74.4629 -72.9004 70.0195 -75 64.5508 -75 L 40.332 -75 C 34.8633 -75 30.4199 -72.9004 27.1484 -68.9941 L 13.916 -53.2715 C 10.6445 -49.3652 9.76562 -46.9727 9.76562 -41.7969 L 9.76562 -28.7109 C 9.76562 -23.5352 10.6445 -21.1426 13.916 -17.2363 L 27.1484 -1.51367 C 30.4199 2.39258 34.8633 4.49219 40.332 4.49219 Z M 41.0645 -9.17969 C 38.2812 -9.17969 36.7188 -10.1074 35.2539 -11.8164 L 25.7324 -22.998 C 24.2676 -24.707 23.877 -26.1719 23.877 -29.0527 L 23.877 -41.4551 C 23.877 -44.3359 24.2676 -45.8008 25.7324 -47.5098 L 35.2539 -58.6914 C 36.7188 -60.4004 38.2812 -61.3281 41.0645 -61.3281 L 63.8184 -61.3281 C 66.6016 -61.3281 68.1641 -60.4004 69.6289 -58.6914 L 79.1504 -47.5098 C 80.6152 -45.8008 81.0059 -44.3359 81.0059 -41.4551 L 81.0059 -29.0527 C 81.0059 -26.1719 80.6152 -24.707 79.1504 -22.998 L 69.6289 -11.8164 C 68.1641 -10.1074 66.6016 -9.17969 63.8184 -9.17969 Z M 52.4902 -30.7617 C 55.7129 -30.7617 57.6172 -32.5195 57.8125 -35.8398 L 58.4961 -46.3867 C 58.6426 -49.9512 56.25 -52.2949 52.4414 -52.2949 C 48.6328 -52.2949 46.2402 -49.9512 46.3867 -46.3867 L 47.0703 -35.7422 C 47.2656 -32.5195 49.2188 -30.7617 52.4902 -30.7617 Z M 52.4902 -16.8945 C 56.1035 -16.8945 58.6426 -18.7988 58.6426 -22.168 C 58.6426 -25.4883 56.1035 -27.4414 52.4902 -27.4414 C 48.877 -27.4414 46.2402 -25.5371 46.2402 -22.168 C 46.2402 -18.7988 48.877 -16.8945 52.4902 -16.8945 Z"/>
  </g>
  <g id="Heavy-S" transform="matrix(1 0 0 1 2585.13 696)">
   <path d="M 39.4531 3.95508 L 63.6719 3.95508 C 68.8965 3.95508 72.8516 2.00195 75.9277 -1.5625 L 89.4043 -17.3828 C 92.5293 -21.0449 93.3594 -23.3398 93.3594 -28.1738 L 93.3594 -42.2363 C 93.3594 -47.0703 92.5293 -49.3652 89.4043 -53.0273 L 75.9277 -68.8477 C 72.8516 -72.4121 68.8965 -74.3652 63.6719 -74.3652 L 39.4531 -74.3652 C 34.2285 -74.3652 30.2734 -72.4121 27.1973 -68.8477 L 13.7207 -53.0273 C 10.5957 -49.3652 9.76562 -47.0703 9.76562 -42.2363 L 9.76562 -28.1738 C 9.76562 -23.3398 10.5957 -21.0449 13.7207 -17.3828 L 27.1973 -1.5625 C 30.2734 2.00195 34.2285 3.95508 39.4531 3.95508 Z M 40.625 -8.1543 C 37.6953 -8.1543 36.2305 -9.0332 34.668 -10.791 L 24.3164 -22.7539 C 22.8516 -24.4629 22.4609 -25.7812 22.4609 -28.6621 L 22.4609 -41.748 C 22.4609 -44.6289 22.8516 -45.9473 24.3164 -47.6562 L 34.668 -59.6191 C 36.2305 -61.377 37.6953 -62.2559 40.625 -62.2559 L 62.5 -62.2559 C 65.4297 -62.2559 66.8945 -61.377 68.457 -59.6191 L 78.8086 -47.6562 C 80.2734 -45.9473 80.6641 -44.6289 80.6641 -41.748 L 80.6641 -28.6621 C 80.6641 -25.7812 80.2734 -24.4629 78.8086 -22.7539 L 68.457 -10.791 C 66.8945 -9.0332 65.4297 -8.1543 62.5 -8.1543 Z M 51.6113 -30.1758 C 54.541 -30.1758 56.2988 -31.7871 56.4453 -34.8633 L 57.1289 -47.6562 C 57.2266 -50.8789 54.9805 -53.0762 51.5625 -53.0762 C 48.0957 -53.0762 45.8984 -50.8789 45.9961 -47.6562 L 46.6309 -34.7656 C 46.8262 -31.7871 48.584 -30.1758 51.6113 -30.1758 Z M 51.6113 -16.6016 C 54.9316 -16.6016 57.373 -18.457 57.373 -21.6309 C 57.373 -24.707 54.9316 -26.6602 51.6113 -26.6602 C 48.2422 -26.6602 45.752 -24.7559 45.752 -21.6309 C 45.752 -18.5059 48.291 -16.6016 51.6113 -16.6016 Z"/>
  </g>
  <g id="Bold-S" transform="matrix(1 0 0 1 2289.42 696)">
   <path d="M 38.4766 3.36914 L 62.6465 3.36914 C 67.627 3.36914 71.0449 1.61133 73.877 -1.66016 L 87.6465 -17.5293 C 90.5762 -20.9473 91.3574 -23.0957 91.3574 -27.5879 L 91.3574 -42.7246 C 91.3574 -47.2168 90.5762 -49.3652 87.6465 -52.7832 L 73.877 -68.6523 C 71.0449 -71.9238 67.627 -73.6816 62.6465 -73.6816 L 38.4766 -73.6816 C 33.5449 -73.6816 30.0781 -71.9238 27.2461 -68.6523 L 13.4766 -52.7832 C 10.5469 -49.3652 9.76562 -47.2168 9.76562 -42.7246 L 9.76562 -27.5879 C 9.76562 -23.0957 10.5469 -20.9473 13.4766 -17.5293 L 27.2461 -1.66016 C 30.0781 1.61133 33.5449 3.36914 38.4766 3.36914 Z M 40.0879 -6.98242 C 37.0117 -6.98242 35.6934 -7.76367 34.0332 -9.66797 L 22.7539 -22.5098 C 21.2402 -24.2188 20.8984 -25.3906 20.8984 -28.2227 L 20.8984 -42.0898 C 20.8984 -44.9219 21.2402 -46.0938 22.7539 -47.8027 L 34.0332 -60.6445 C 35.6934 -62.5 37.0117 -63.3301 40.0879 -63.3301 L 61.0352 -63.3301 C 64.1113 -63.3301 65.4785 -62.5 67.1387 -60.6445 L 78.418 -47.8027 C 79.8828 -46.0938 80.2246 -44.9219 80.2246 -42.0898 L 80.2246 -28.2227 C 80.2246 -25.3906 79.8828 -24.2188 78.418 -22.5098 L 67.1387 -9.66797 C 65.4785 -7.76367 64.1113 -6.98242 61.0352 -6.98242 Z M 50.5859 -29.541 C 53.2227 -29.541 54.7852 -31.0059 54.8828 -33.7891 L 55.5664 -49.0723 C 55.6641 -51.9043 53.5645 -53.9062 50.5371 -53.9062 C 47.5098 -53.9062 45.459 -51.9531 45.5566 -49.0723 L 46.1914 -33.7402 C 46.2891 -31.0059 47.9004 -29.541 50.5859 -29.541 Z M 50.5859 -16.2109 C 53.6133 -16.2109 55.9082 -18.1152 55.9082 -20.9961 C 55.9082 -23.877 53.6133 -25.7812 50.5859 -25.7812 C 47.5586 -25.7812 45.2148 -23.877 45.2148 -20.9961 C 45.2148 -18.1152 47.6074 -16.2109 50.5859 -16.2109 Z"/>
  </g>
  <g id="Semibold-S" transform="matrix(1 0 0 1 1993.39 696)">
   <path d="M 37.793 2.97852 L 61.9629 2.97852 C 66.748 2.97852 69.8242 1.31836 72.4609 -1.70898 L 86.4746 -17.627 C 89.2578 -20.8496 89.9902 -22.9004 89.9902 -27.1973 L 89.9902 -43.0176 C 89.9902 -47.3145 89.2578 -49.3652 86.4746 -52.5879 L 72.4609 -68.5059 C 69.8242 -71.5332 66.748 -73.1934 61.9629 -73.1934 L 37.793 -73.1934 C 33.0566 -73.1934 29.9805 -71.5332 27.2949 -68.5059 L 13.3301 -52.5879 C 10.498 -49.3652 9.76562 -47.3145 9.76562 -43.0176 L 9.76562 -27.1973 C 9.76562 -22.9004 10.498 -20.8496 13.3301 -17.627 L 27.2949 -1.70898 C 29.9805 1.31836 33.0566 2.97852 37.793 2.97852 Z M 39.7461 -6.20117 C 36.5234 -6.20117 35.3027 -6.93359 33.5449 -8.88672 L 21.6309 -22.3633 C 20.166 -24.0234 19.8242 -25.0977 19.8242 -27.8809 L 19.8242 -42.334 C 19.8242 -45.1172 20.166 -46.1914 21.6309 -47.9004 L 33.5449 -61.3281 C 35.3027 -63.2812 36.5234 -64.0625 39.7461 -64.0625 L 60.0098 -64.0625 C 63.2324 -64.0625 64.4531 -63.2812 66.2109 -61.3281 L 78.125 -47.9004 C 79.5898 -46.1914 79.9805 -45.1172 79.9805 -42.334 L 79.9805 -27.8809 C 79.9805 -25.0977 79.5898 -24.0234 78.125 -22.3633 L 66.2109 -8.88672 C 64.4531 -6.93359 63.2324 -6.20117 60.0098 -6.20117 Z M 49.9023 -29.1016 C 52.3438 -29.1016 53.7598 -30.4199 53.8574 -33.0078 L 54.4922 -50 C 54.541 -52.6367 52.6367 -54.4922 49.8535 -54.4922 C 47.0703 -54.4922 45.166 -52.6855 45.2637 -50.0488 L 45.8496 -32.959 C 45.9473 -30.4688 47.4121 -29.1016 49.9023 -29.1016 Z M 49.9023 -15.9668 C 52.6855 -15.9668 54.9316 -17.8711 54.9316 -20.6055 C 54.9316 -23.291 52.7344 -25.1953 49.9023 -25.1953 C 47.1191 -25.1953 44.873 -23.291 44.873 -20.6055 C 44.873 -17.8711 47.1191 -15.9668 49.9023 -15.9668 Z"/>
  </g>
  <g id="Medium-S" transform="matrix(1 0 0 1 1697.19 696)">
   <path d="M 37.3047 2.63672 L 61.4258 2.63672 C 66.0645 2.63672 68.8477 1.12305 71.4355 -1.75781 L 85.5469 -17.7246 C 88.2812 -20.8008 88.9648 -22.8027 88.9648 -26.8555 L 88.9648 -43.3105 C 88.9648 -47.3633 88.2812 -49.3652 85.5469 -52.4414 L 71.4355 -68.4082 C 68.8477 -71.2891 66.0645 -72.8027 61.4258 -72.8027 L 37.3047 -72.8027 C 32.666 -72.8027 29.8828 -71.2891 27.3438 -68.4082 L 13.1836 -52.4414 C 10.498 -49.3652 9.76562 -47.3633 9.76562 -43.3105 L 9.76562 -26.8555 C 9.76562 -22.8027 10.498 -20.8008 13.1836 -17.7246 L 27.3438 -1.75781 C 29.8828 1.12305 32.666 2.63672 37.3047 2.63672 Z M 39.502 -5.56641 C 36.1816 -5.56641 35.0098 -6.29883 33.2031 -8.30078 L 20.8008 -22.2168 C 19.3359 -23.877 18.9941 -24.9023 18.9941 -27.6367 L 18.9941 -42.5293 C 18.9941 -45.2637 19.3359 -46.2891 20.8008 -47.9492 L 33.2031 -61.8652 C 35.0098 -63.8672 36.1816 -64.5996 39.502 -64.5996 L 59.2773 -64.5996 C 62.5488 -64.5996 63.7207 -63.8672 65.5273 -61.8652 L 77.9297 -47.9492 C 79.3945 -46.2891 79.7363 -45.2637 79.7363 -42.5293 L 79.7363 -27.6367 C 79.7363 -24.9023 79.3945 -23.877 77.9297 -22.2168 L 65.5273 -8.30078 C 63.7207 -6.29883 62.5488 -5.56641 59.2773 -5.56641 Z M 49.3652 -28.7598 C 51.6602 -28.7598 52.9785 -30.0293 53.0273 -32.4219 L 53.6621 -50.7324 C 53.7598 -53.1738 51.8555 -54.9316 49.3164 -54.9316 C 46.7773 -54.9316 44.9707 -53.2227 45.0195 -50.7812 L 45.6055 -32.4219 C 45.7031 -30.0781 47.0215 -28.7598 49.3652 -28.7598 Z M 49.3652 -15.7715 C 52.002 -15.7715 54.1504 -17.6758 54.1504 -20.2637 C 54.1504 -22.8516 52.002 -24.707 49.3652 -24.707 C 46.7285 -24.707 44.5801 -22.8027 44.5801 -20.2637 C 44.5801 -17.7246 46.7773 -15.7715 49.3652 -15.7715 Z"/>
  </g>
  <g id="Regular-S" transform="matrix(1 0 0 1 1401.14 696)">
   <path d="M 36.6211 2.24609 L 60.7422 2.24609 C 65.1855 2.24609 67.627 0.830078 70.0195 -1.80664 L 84.3262 -17.8223 C 86.9629 -20.752 87.6465 -22.6074 87.6465 -26.4648 L 87.6465 -43.6035 C 87.6465 -47.4609 86.9629 -49.3652 84.3262 -52.2949 L 70.0195 -68.3105 C 67.627 -70.9473 65.1855 -72.3633 60.7422 -72.3633 L 36.6211 -72.3633 C 32.2266 -72.3633 29.7363 -70.9473 27.3926 -68.3105 L 13.0371 -52.2949 C 10.4492 -49.3652 9.76562 -47.4609 9.76562 -43.6035 L 9.76562 -26.4648 C 9.76562 -22.6074 10.4492 -20.752 13.0371 -17.8223 L 27.3926 -1.80664 C 29.7363 0.830078 32.2266 2.24609 36.6211 2.24609 Z M 39.1113 -4.78516 C 35.7422 -4.78516 34.668 -5.46875 32.7637 -7.51953 L 19.7266 -22.0215 C 18.2617 -23.6816 17.9199 -24.6094 17.9199 -27.3438 L 17.9199 -42.7246 C 17.9199 -45.5078 18.2617 -46.3867 19.7266 -48.0469 L 32.7637 -62.5488 C 34.668 -64.6484 35.7422 -65.332 39.1113 -65.332 L 58.252 -65.332 C 61.6699 -65.332 62.7441 -64.6484 64.6484 -62.5488 L 77.6855 -48.0469 C 79.1504 -46.3867 79.4922 -45.5078 79.4922 -42.7246 L 79.4922 -27.3438 C 79.4922 -24.6094 79.1504 -23.6816 77.6855 -22.0215 L 64.6484 -7.51953 C 62.7441 -5.46875 61.6699 -4.78516 58.252 -4.78516 Z M 48.6816 -28.3203 C 50.7812 -28.3203 51.9531 -29.4922 52.002 -31.6895 L 52.6367 -51.709 C 52.6367 -53.9062 50.9277 -55.5176 48.6328 -55.5176 C 46.3379 -55.5176 44.6777 -53.9551 44.7266 -51.7578 L 45.3125 -31.6895 C 45.3613 -29.4922 46.5332 -28.3203 48.6816 -28.3203 Z M 48.6816 -15.5273 C 51.0742 -15.5273 53.1738 -17.4316 53.1738 -19.8242 C 53.1738 -22.2656 51.123 -24.1211 48.6816 -24.1211 C 46.2891 -24.1211 44.2383 -22.2168 44.2383 -19.8242 C 44.2383 -17.4805 46.3379 -15.5273 48.6816 -15.5273 Z"/>
  </g>
  <g id="Light-S" transform="matrix(1 0 0 1 1105.16 696)">
   <path d="M 36.7188 1.75781 L 59.2285 1.75781 C 64.4043 1.75781 66.6016 0.0488281 69.2383 -2.7832 L 83.1055 -18.0176 C 85.5469 -20.7031 86.1816 -22.4609 86.1816 -26.2207 L 86.1816 -43.9941 C 86.1816 -47.7539 85.5469 -49.5117 83.1055 -52.2461 L 69.2383 -67.4805 C 66.6016 -70.2637 64.4043 -71.9727 59.2285 -71.9727 L 36.7188 -71.9727 C 31.543 -71.9727 29.2969 -70.2637 26.709 -67.4805 L 12.8418 -52.2461 C 10.4004 -49.5117 9.76562 -47.7539 9.76562 -43.9941 L 9.76562 -26.2207 C 9.76562 -22.4609 10.4004 -20.7031 12.8418 -18.0176 L 26.709 -2.7832 C 29.2969 0.0488281 31.543 1.75781 36.7188 1.75781 Z M 38.4277 -3.61328 C 34.2773 -3.61328 33.1543 -4.58984 30.8105 -7.08008 L 17.8223 -21.2891 C 16.3086 -22.998 15.9668 -24.0234 15.9668 -26.8066 L 15.9668 -43.4082 C 15.9668 -46.2402 16.3086 -47.2168 17.8223 -48.9258 L 30.8105 -63.1348 C 33.1543 -65.625 34.2773 -66.6016 38.4277 -66.6016 L 57.5195 -66.6016 C 61.6699 -66.6016 62.7441 -65.625 65.0879 -63.1348 L 78.125 -48.9258 C 79.6387 -47.2168 79.9805 -46.2402 79.9805 -43.4082 L 79.9805 -26.8066 C 79.9805 -24.0234 79.6387 -22.998 78.125 -21.2891 L 65.0879 -7.08008 C 62.7441 -4.58984 61.6699 -3.61328 57.5195 -3.61328 Z M 47.9492 -28.3691 C 49.6094 -28.3691 50.5371 -29.3457 50.5859 -31.1523 L 51.0742 -51.4648 C 51.123 -53.2227 49.7559 -54.541 47.9492 -54.541 C 46.0938 -54.541 44.7754 -53.2227 44.8242 -51.4648 L 45.2637 -31.1523 C 45.3125 -29.3457 46.2891 -28.3691 47.9492 -28.3691 Z M 47.9492 -16.2598 C 50.0488 -16.2598 51.8066 -17.8711 51.8066 -19.9219 C 51.8066 -22.0215 50.0488 -23.6328 47.9492 -23.6328 C 45.8496 -23.6328 44.1406 -21.9727 44.1406 -19.9219 C 44.1406 -17.9199 45.8984 -16.2598 47.9492 -16.2598 Z"/>
  </g>
  <g id="Thin-S" transform="matrix(1 0 0 1 809.425 696)">
   <path d="M 36.8164 1.12305 L 57.1777 1.12305 C 63.3789 1.12305 65.2832 -0.976562 68.1641 -4.05273 L 81.4453 -18.2617 C 83.6426 -20.6543 84.2285 -22.2168 84.2285 -25.8789 L 84.2285 -44.4824 C 84.2285 -48.1934 83.6426 -49.7559 81.4453 -52.1484 L 68.1641 -66.3574 C 65.2832 -69.3848 63.3789 -71.4844 57.1777 -71.4844 L 36.8164 -71.4844 C 30.6641 -71.4844 28.7598 -69.3848 25.8301 -66.3574 L 12.5977 -52.1484 C 10.3516 -49.7559 9.76562 -48.1934 9.76562 -44.4824 L 9.76562 -25.8789 C 9.76562 -22.2168 10.3516 -20.6543 12.5977 -18.2617 L 25.8301 -4.05273 C 28.7598 -0.976562 30.6641 1.12305 36.8164 1.12305 Z M 37.5 -2.14844 C 32.373 -2.14844 31.2012 -3.41797 28.2715 -6.54297 L 15.332 -20.3613 C 13.7207 -22.0703 13.3789 -23.1934 13.3789 -26.123 L 13.3789 -44.2871 C 13.3789 -47.168 13.7207 -48.3398 15.332 -50.0488 L 28.2715 -63.8672 C 31.2012 -66.9922 32.373 -68.2617 37.5 -68.2617 L 56.4941 -68.2617 C 61.6211 -68.2617 62.793 -66.9922 65.7227 -63.8672 L 78.6621 -50.0488 C 80.2734 -48.3398 80.6152 -47.168 80.6152 -44.2871 L 80.6152 -26.123 C 80.6152 -23.1934 80.2734 -22.0703 78.6621 -20.3613 L 65.7227 -6.54297 C 62.793 -3.41797 61.6211 -2.14844 56.4941 -2.14844 Z M 47.0215 -28.418 C 48.0469 -28.418 48.7305 -29.1504 48.7305 -30.4199 L 49.0723 -51.123 C 49.0723 -52.3438 48.2422 -53.1738 46.9727 -53.1738 C 45.752 -53.1738 44.873 -52.3438 44.9219 -51.123 L 45.2637 -30.4199 C 45.2637 -29.1992 45.9473 -28.418 47.0215 -28.418 Z M 47.0215 -17.1387 C 48.6328 -17.1387 50 -18.5059 50 -20.0684 C 50 -21.6797 48.6328 -22.998 47.0215 -22.998 C 45.3613 -22.998 44.043 -21.6797 44.043 -20.0684 C 44.043 -18.5059 45.3613 -17.1387 47.0215 -17.1387 Z"/>
  </g>
  <g id="Ultralight-S" transform="matrix(1 0 0 1 513.202 696)">
   <path d="M 36.9141 0.78125 L 56.1035 0.78125 C 62.8418 0.78125 64.5508 -1.51367 67.627 -4.73633 L 80.5664 -18.3594 C 82.7148 -20.6055 83.252 -22.1191 83.252 -25.7324 L 83.252 -44.7754 C 83.252 -48.3887 82.7148 -49.8535 80.5664 -52.0996 L 67.627 -65.7715 C 64.5508 -68.9453 62.8418 -71.2402 56.1035 -71.2402 L 36.9141 -71.2402 C 30.1758 -71.2402 28.418 -68.9453 25.3906 -65.7715 L 12.4512 -52.0996 C 10.3027 -49.8535 9.76562 -48.3887 9.76562 -44.7754 L 9.76562 -25.7324 C 9.76562 -22.1191 10.3027 -20.6055 12.4512 -18.3594 L 25.3906 -4.73633 C 28.418 -1.51367 30.1758 0.78125 36.9141 0.78125 Z M 37.0117 -1.36719 C 31.3965 -1.36719 30.2246 -2.83203 26.9531 -6.20117 L 14.0137 -19.8242 C 12.3535 -21.582 12.0117 -22.8027 12.0117 -25.7812 L 12.0117 -44.7266 C 12.0117 -47.7051 12.3535 -48.877 14.0137 -50.6348 L 26.9531 -64.2578 C 30.2246 -67.6758 31.3965 -69.1406 37.0117 -69.1406 L 55.957 -69.1406 C 61.6211 -69.1406 62.793 -67.6758 66.0645 -64.2578 L 79.0039 -50.6348 C 80.6152 -48.877 80.957 -47.7051 80.957 -44.7266 L 80.957 -25.7812 C 80.957 -22.8027 80.6152 -21.582 79.0039 -19.8242 L 66.0645 -6.20117 C 62.793 -2.83203 61.6211 -1.36719 55.957 -1.36719 Z M 46.4844 -28.4668 C 47.2656 -28.4668 47.7539 -29.0527 47.7539 -30.0293 L 48.0469 -50.9277 C 48.0469 -51.8555 47.4609 -52.4902 46.4844 -52.4902 C 45.5566 -52.4902 44.9707 -51.8555 44.9707 -50.9277 L 45.2148 -30.0293 C 45.2148 -29.0527 45.752 -28.4668 46.4844 -28.4668 Z M 46.4844 -17.627 C 47.9004 -17.627 49.0234 -18.8477 49.0234 -20.166 C 49.0234 -21.5332 47.9004 -22.7051 46.4844 -22.7051 C 45.0684 -22.7051 43.9453 -21.5332 43.9453 -20.166 C 43.9453 -18.8477 45.0684 -17.627 46.4844 -17.627 Z"/>
  </g>
 </g>
</svg>
