<?xml version="1.0" encoding="UTF-8"?>
<!--Generator: Apple Native CoreSVG 123-->
<!DOCTYPE svg
PUBLIC "-//W3C//DTD SVG 1.1//EN"
       "http://www.w3.org/Graphics/SVG/1.1/DTD/svg11.dtd">
<svg version="1.1" xmlns="http://www.w3.org/2000/svg" xmlns:xlink="http://www.w3.org/1999/xlink" width="3300" height="2200">
 <!--glyph: "uni10070B.medium", point size: 100.000000, font version: "Version 15.0d7e11", template writer version: "5"-->
 <g id="Notes">
  <rect height="2200" id="artboard" style="fill:white;opacity:1" width="3300" x="0" y="0"/>
  <line id="" style="fill:none;stroke:black;opacity:1;stroke-width:0.5;" x1="263" x2="3036" y1="292" y2="292"/>
  <text style="stroke:none;fill:black;font-family:-apple-system,&quot;SF Pro Display&quot;,&quot;SF Pro Text&quot;,Helvetica,sans-serif;font-weight:bold;" transform="matrix(1 0 0 1 263 322)">Weight/Scale Variations</text>
  <text style="stroke:none;fill:black;font-family:-apple-system,&quot;SF Pro Display&quot;,&quot;SF Pro Text&quot;,Helvetica,sans-serif;text-anchor:middle;" transform="matrix(1 0 0 1 559.711 322)">Ultralight</text>
  <text style="stroke:none;fill:black;font-family:-apple-system,&quot;SF Pro Display&quot;,&quot;SF Pro Text&quot;,Helvetica,sans-serif;text-anchor:middle;" transform="matrix(1 0 0 1 856.422 322)">Thin</text>
  <text style="stroke:none;fill:black;font-family:-apple-system,&quot;SF Pro Display&quot;,&quot;SF Pro Text&quot;,Helvetica,sans-serif;text-anchor:middle;" transform="matrix(1 0 0 1 1153.13 322)">Light</text>
  <text style="stroke:none;fill:black;font-family:-apple-system,&quot;SF Pro Display&quot;,&quot;SF Pro Text&quot;,Helvetica,sans-serif;text-anchor:middle;" transform="matrix(1 0 0 1 1449.84 322)">Regular</text>
  <text style="stroke:none;fill:black;font-family:-apple-system,&quot;SF Pro Display&quot;,&quot;SF Pro Text&quot;,Helvetica,sans-serif;text-anchor:middle;" transform="matrix(1 0 0 1 1746.56 322)">Medium</text>
  <text style="stroke:none;fill:black;font-family:-apple-system,&quot;SF Pro Display&quot;,&quot;SF Pro Text&quot;,Helvetica,sans-serif;text-anchor:middle;" transform="matrix(1 0 0 1 2043.27 322)">Semibold</text>
  <text style="stroke:none;fill:black;font-family:-apple-system,&quot;SF Pro Display&quot;,&quot;SF Pro Text&quot;,Helvetica,sans-serif;text-anchor:middle;" transform="matrix(1 0 0 1 2339.98 322)">Bold</text>
  <text style="stroke:none;fill:black;font-family:-apple-system,&quot;SF Pro Display&quot;,&quot;SF Pro Text&quot;,Helvetica,sans-serif;text-anchor:middle;" transform="matrix(1 0 0 1 2636.69 322)">Heavy</text>
  <text style="stroke:none;fill:black;font-family:-apple-system,&quot;SF Pro Display&quot;,&quot;SF Pro Text&quot;,Helvetica,sans-serif;text-anchor:middle;" transform="matrix(1 0 0 1 2933.4 322)">Black</text>
  <line id="" style="fill:none;stroke:black;opacity:1;stroke-width:0.5;" x1="263" x2="3036" y1="1903" y2="1903"/>
  <g id="" transform="matrix(1 0 0 1 263 1933)">
   <path d="M 9.24805 0.830078 C 13.5547 0.830078 17.1387 -2.74414 17.1387 -7.05078 C 17.1387 -11.3574 13.5449 -14.9316 9.23828 -14.9316 C 4.94141 -14.9316 1.36719 -11.3574 1.36719 -7.05078 C 1.36719 -2.74414 4.95117 0.830078 9.24805 0.830078 Z M 9.24805 -0.654297 C 5.70312 -0.654297 2.87109 -3.49609 2.87109 -7.05078 C 2.87109 -10.6055 5.69336 -13.4473 9.23828 -13.4473 C 12.793 -13.4473 15.6348 -10.6055 15.6445 -7.05078 C 15.6543 -3.49609 12.8027 -0.654297 9.24805 -0.654297 Z M 9.22852 -3.42773 C 9.69727 -3.42773 9.9707 -3.74023 9.9707 -4.25781 L 9.9707 -6.31836 L 12.1973 -6.31836 C 12.6953 -6.31836 13.0371 -6.57227 13.0371 -7.04102 C 13.0371 -7.51953 12.7148 -7.7832 12.1973 -7.7832 L 9.9707 -7.7832 L 9.9707 -10.0098 C 9.9707 -10.5273 9.69727 -10.8496 9.22852 -10.8496 C 8.75977 -10.8496 8.50586 -10.5078 8.50586 -10.0098 L 8.50586 -7.7832 L 6.29883 -7.7832 C 5.78125 -7.7832 5.44922 -7.51953 5.44922 -7.04102 C 5.44922 -6.57227 5.80078 -6.31836 6.29883 -6.31836 L 8.50586 -6.31836 L 8.50586 -4.25781 C 8.50586 -3.75977 8.75977 -3.42773 9.22852 -3.42773 Z"/>
  </g>
  <g id="" transform="matrix(1 0 0 1 281.506 1933)">
   <path d="M 11.709 2.91016 C 17.1582 2.91016 21.6699 -1.60156 21.6699 -7.05078 C 21.6699 -12.4902 17.1484 -17.0117 11.6992 -17.0117 C 6.25977 -17.0117 1.74805 -12.4902 1.74805 -7.05078 C 1.74805 -1.60156 6.26953 2.91016 11.709 2.91016 Z M 11.709 1.25 C 7.09961 1.25 3.41797 -2.44141 3.41797 -7.05078 C 3.41797 -11.6504 7.08984 -15.3516 11.6992 -15.3516 C 16.3086 -15.3516 20 -11.6504 20.0098 -7.05078 C 20.0195 -2.44141 16.3184 1.25 11.709 1.25 Z M 11.6895 -2.41211 C 12.207 -2.41211 12.5195 -2.77344 12.5195 -3.33984 L 12.5195 -6.23047 L 15.5762 -6.23047 C 16.123 -6.23047 16.5039 -6.51367 16.5039 -7.03125 C 16.5039 -7.55859 16.1426 -7.86133 15.5762 -7.86133 L 12.5195 -7.86133 L 12.5195 -10.9277 C 12.5195 -11.5039 12.207 -11.8555 11.6895 -11.8555 C 11.1719 -11.8555 10.8789 -11.4844 10.8789 -10.9277 L 10.8789 -7.86133 L 7.83203 -7.86133 C 7.26562 -7.86133 6.89453 -7.55859 6.89453 -7.03125 C 6.89453 -6.51367 7.28516 -6.23047 7.83203 -6.23047 L 10.8789 -6.23047 L 10.8789 -3.33984 C 10.8789 -2.79297 11.1719 -2.41211 11.6895 -2.41211 Z"/>
  </g>
  <g id="" transform="matrix(1 0 0 1 304.924 1933)">
   <path d="M 14.9707 5.67383 C 21.9336 5.67383 27.6953 -0.078125 27.6953 -7.04102 C 27.6953 -14.0039 21.9238 -19.7559 14.9609 -19.7559 C 8.00781 -19.7559 2.25586 -14.0039 2.25586 -7.04102 C 2.25586 -0.078125 8.01758 5.67383 14.9707 5.67383 Z M 14.9707 3.85742 C 8.93555 3.85742 4.08203 -1.00586 4.08203 -7.04102 C 4.08203 -13.0762 8.92578 -17.9395 14.9609 -17.9395 C 21.0059 -17.9395 25.8594 -13.0762 25.8691 -7.04102 C 25.8789 -1.00586 21.0156 3.85742 14.9707 3.85742 Z M 14.9512 -1.06445 C 15.5176 -1.06445 15.8691 -1.45508 15.8691 -2.06055 L 15.8691 -6.13281 L 20.1074 -6.13281 C 20.6934 -6.13281 21.1133 -6.46484 21.1133 -7.02148 C 21.1133 -7.59766 20.7227 -7.93945 20.1074 -7.93945 L 15.8691 -7.93945 L 15.8691 -12.1875 C 15.8691 -12.8027 15.5176 -13.1934 14.9512 -13.1934 C 14.3848 -13.1934 14.0625 -12.7832 14.0625 -12.1875 L 14.0625 -7.93945 L 9.83398 -7.93945 C 9.21875 -7.93945 8.80859 -7.59766 8.80859 -7.02148 C 8.80859 -6.46484 9.23828 -6.13281 9.83398 -6.13281 L 14.0625 -6.13281 L 14.0625 -2.06055 C 14.0625 -1.47461 14.3848 -1.06445 14.9512 -1.06445 Z"/>
  </g>
  <text style="stroke:none;fill:black;font-family:-apple-system,&quot;SF Pro Display&quot;,&quot;SF Pro Text&quot;,Helvetica,sans-serif;font-weight:bold;" transform="matrix(1 0 0 1 263 1953)">Design Variations</text>
  <text style="stroke:none;fill:black;font-family:-apple-system,&quot;SF Pro Display&quot;,&quot;SF Pro Text&quot;,Helvetica,sans-serif;" transform="matrix(1 0 0 1 263 1971)">Symbols are supported in up to nine weights and three scales.</text>
  <text style="stroke:none;fill:black;font-family:-apple-system,&quot;SF Pro Display&quot;,&quot;SF Pro Text&quot;,Helvetica,sans-serif;" transform="matrix(1 0 0 1 263 1989)">For optimal layout with text and other symbols, vertically align</text>
  <text style="stroke:none;fill:black;font-family:-apple-system,&quot;SF Pro Display&quot;,&quot;SF Pro Text&quot;,Helvetica,sans-serif;" transform="matrix(1 0 0 1 263 2007)">symbols with the adjacent text.</text>
  <rect height="14" id="" style="fill:#00AEEF;stroke:none;opacity:0.4;" width="3" x="776" y="1919"/>
  <g id="" transform="matrix(1 0 0 1 779 1933)">
   <path d="M 10.5273 0 L 12.373 0 L 7.17773 -14.0918 L 5.43945 -14.0918 L 0.244141 0 L 2.08984 0 L 3.50586 -4.0332 L 9.11133 -4.0332 Z M 6.2793 -11.9531 L 6.33789 -11.9531 L 8.59375 -5.52734 L 4.02344 -5.52734 Z"/>
  </g>
  <rect height="14" id="" style="fill:#00AEEF;stroke:none;opacity:0.4;" width="3" x="791.617" y="1919"/>
  <text style="stroke:none;fill:black;font-family:-apple-system,&quot;SF Pro Display&quot;,&quot;SF Pro Text&quot;,Helvetica,sans-serif;font-weight:bold;" transform="matrix(1 0 0 1 776 1953)">Margins</text>
  <text style="stroke:none;fill:black;font-family:-apple-system,&quot;SF Pro Display&quot;,&quot;SF Pro Text&quot;,Helvetica,sans-serif;" transform="matrix(1 0 0 1 776 1971)">Leading and trailing margins on the left and right side of each symbol</text>
  <text style="stroke:none;fill:black;font-family:-apple-system,&quot;SF Pro Display&quot;,&quot;SF Pro Text&quot;,Helvetica,sans-serif;" transform="matrix(1 0 0 1 776 1989)">can be adjusted by modifying the width of the blue rectangles.</text>
  <text style="stroke:none;fill:black;font-family:-apple-system,&quot;SF Pro Display&quot;,&quot;SF Pro Text&quot;,Helvetica,sans-serif;" transform="matrix(1 0 0 1 776 2007)">Modifications are automatically applied proportionally to all</text>
  <text style="stroke:none;fill:black;font-family:-apple-system,&quot;SF Pro Display&quot;,&quot;SF Pro Text&quot;,Helvetica,sans-serif;" transform="matrix(1 0 0 1 776 2025)">scales and weights.</text>
  <g id="" transform="matrix(1 0 0 1 1289 1933)">
   <path d="M 2.83203 3.11523 L 4.375 4.6582 C 5.22461 5.48828 6.19141 5.41992 7.06055 4.46289 L 17.2754 -6.66016 C 17.7051 -6.36719 18.0957 -6.37695 18.5645 -6.47461 L 19.6094 -6.68945 L 20.3027 -5.99609 L 20.2539 -5.47852 C 20.1855 -4.95117 20.3516 -4.53125 20.8496 -4.0332 L 21.6602 -3.22266 C 22.168 -2.71484 22.8223 -2.68555 23.3008 -3.16406 L 26.5527 -6.41602 C 27.0312 -6.89453 27.0117 -7.54883 26.5039 -8.05664 L 25.6836 -8.87695 C 25.1855 -9.375 24.7754 -9.55078 24.2383 -9.47266 L 23.7109 -9.41406 L 23.0566 -10.0781 L 23.3398 -11.2207 C 23.4863 -11.7871 23.3398 -12.2559 22.7148 -12.8613 L 20.3027 -15.2539 C 16.7578 -18.7793 12.2266 -18.6719 9.11133 -15.5371 C 8.69141 -15.1074 8.64258 -14.5215 8.91602 -14.0918 C 9.15039 -13.7207 9.62891 -13.4961 10.2734 -13.6621 C 11.7871 -14.043 13.3008 -13.9258 14.7852 -12.9199 L 14.1602 -11.3379 C 13.9258 -10.752 13.9453 -10.2734 14.1797 -9.83398 L 3.01758 0.439453 C 2.08008 1.30859 1.97266 2.25586 2.83203 3.11523 Z M 10.6738 -15.1465 C 13.3398 -17.1387 16.6504 -16.8262 19.0527 -14.4141 L 21.6797 -11.8066 C 21.9141 -11.5723 21.9434 -11.3867 21.8848 -11.0938 L 21.5039 -9.53125 L 23.0762 -7.95898 L 24.043 -8.04688 C 24.3262 -8.07617 24.4141 -8.05664 24.6387 -7.83203 L 25.2637 -7.20703 L 22.5098 -4.46289 L 21.8848 -5.07812 C 21.6602 -5.30273 21.6406 -5.40039 21.6699 -5.68359 L 21.7578 -6.64062 L 20.1953 -8.20312 L 18.5742 -7.89062 C 18.291 -7.83203 18.1445 -7.83203 17.9102 -8.07617 L 15.7324 -10.2539 C 15.5078 -10.4883 15.4785 -10.625 15.6055 -10.9473 L 16.5527 -13.2227 C 14.9512 -14.7559 12.8418 -15.6055 10.8008 -14.9512 C 10.7129 -14.9219 10.6445 -14.9414 10.6152 -14.9805 C 10.5859 -15.0293 10.5859 -15.0781 10.6738 -15.1465 Z M 4.10156 2.41211 C 3.61328 1.91406 3.78906 1.61133 4.12109 1.30859 L 15.0781 -8.80859 L 16.3086 -7.57812 L 6.15234 3.34961 C 5.84961 3.68164 5.46875 3.7793 5.06836 3.37891 Z"/>
  </g>
  <text style="stroke:none;fill:black;font-family:-apple-system,&quot;SF Pro Display&quot;,&quot;SF Pro Text&quot;,Helvetica,sans-serif;font-weight:bold;" transform="matrix(1 0 0 1 1289 1953)">Exporting</text>
  <text style="stroke:none;fill:black;font-family:-apple-system,&quot;SF Pro Display&quot;,&quot;SF Pro Text&quot;,Helvetica,sans-serif;" transform="matrix(1 0 0 1 1289 1971)">Symbols should be outlined when exporting to ensure the</text>
  <text style="stroke:none;fill:black;font-family:-apple-system,&quot;SF Pro Display&quot;,&quot;SF Pro Text&quot;,Helvetica,sans-serif;" transform="matrix(1 0 0 1 1289 1989)">design is preserved when submitting to Xcode.</text>
  <text id="template-version" style="stroke:none;fill:black;font-family:-apple-system,&quot;SF Pro Display&quot;,&quot;SF Pro Text&quot;,Helvetica,sans-serif;text-anchor:end;" transform="matrix(1 0 0 1 3036 1933)">Template v.1.0</text>
  <text style="stroke:none;fill:black;font-family:-apple-system,&quot;SF Pro Display&quot;,&quot;SF Pro Text&quot;,Helvetica,sans-serif;text-anchor:end;" transform="matrix(1 0 0 1 3036 1951)">Generated from chart.pie.fill</text>
  <text style="stroke:none;fill:black;font-family:-apple-system,&quot;SF Pro Display&quot;,&quot;SF Pro Text&quot;,Helvetica,sans-serif;text-anchor:end;" transform="matrix(1 0 0 1 3036 1969)">Typeset at 100 points</text>
  <text style="stroke:none;fill:black;font-family:-apple-system,&quot;SF Pro Display&quot;,&quot;SF Pro Text&quot;,Helvetica,sans-serif;" transform="matrix(1 0 0 1 263 726)">Small</text>
  <text style="stroke:none;fill:black;font-family:-apple-system,&quot;SF Pro Display&quot;,&quot;SF Pro Text&quot;,Helvetica,sans-serif;" transform="matrix(1 0 0 1 263 1156)">Medium</text>
  <text style="stroke:none;fill:black;font-family:-apple-system,&quot;SF Pro Display&quot;,&quot;SF Pro Text&quot;,Helvetica,sans-serif;" transform="matrix(1 0 0 1 263 1586)">Large</text>
 </g>
 <g id="Guides">
  <g id="H-reference" style="fill:#27AAE1;stroke:none;" transform="matrix(1 0 0 1 339 696)">
   <path d="M 54.9316 0 L 57.666 0 L 30.5664 -70.459 L 28.0762 -70.459 L 0.976562 0 L 3.66211 0 L 12.9395 -24.4629 L 45.7031 -24.4629 Z M 29.1992 -67.0898 L 29.4434 -67.0898 L 44.8242 -26.709 L 13.8184 -26.709 Z"/>
  </g>
  <line id="Baseline-S" style="fill:none;stroke:#27AAE1;opacity:1;stroke-width:0.577;" x1="263" x2="3036" y1="696" y2="696"/>
  <line id="Capline-S" style="fill:none;stroke:#27AAE1;opacity:1;stroke-width:0.577;" x1="263" x2="3036" y1="625.541" y2="625.541"/>
  <g id="H-reference" style="fill:#27AAE1;stroke:none;" transform="matrix(1 0 0 1 339 1126)">
   <path d="M 54.9316 0 L 57.666 0 L 30.5664 -70.459 L 28.0762 -70.459 L 0.976562 0 L 3.66211 0 L 12.9395 -24.4629 L 45.7031 -24.4629 Z M 29.1992 -67.0898 L 29.4434 -67.0898 L 44.8242 -26.709 L 13.8184 -26.709 Z"/>
  </g>
  <line id="Baseline-M" style="fill:none;stroke:#27AAE1;opacity:1;stroke-width:0.577;" x1="263" x2="3036" y1="1126" y2="1126"/>
  <line id="Capline-M" style="fill:none;stroke:#27AAE1;opacity:1;stroke-width:0.577;" x1="263" x2="3036" y1="1055.54" y2="1055.54"/>
  <g id="H-reference" style="fill:#27AAE1;stroke:none;" transform="matrix(1 0 0 1 339 1556)">
   <path d="M 54.9316 0 L 57.666 0 L 30.5664 -70.459 L 28.0762 -70.459 L 0.976562 0 L 3.66211 0 L 12.9395 -24.4629 L 45.7031 -24.4629 Z M 29.1992 -67.0898 L 29.4434 -67.0898 L 44.8242 -26.709 L 13.8184 -26.709 Z"/>
  </g>
  <line id="Baseline-L" style="fill:none;stroke:#27AAE1;opacity:1;stroke-width:0.577;" x1="263" x2="3036" y1="1556" y2="1556"/>
  <line id="Capline-L" style="fill:none;stroke:#27AAE1;opacity:1;stroke-width:0.577;" x1="263" x2="3036" y1="1485.54" y2="1485.54"/>
  <rect height="119.336" id="left-margin" style="fill:#00AEEF;stroke:none;opacity:0.4;" width="8.74023" x="1392.62" y="1030.79"/>
  <rect height="119.336" id="right-margin" style="fill:#00AEEF;stroke:none;opacity:0.4;" width="8.74023" x="1498.33" y="1030.79"/>
 </g>
 <g id="Symbols">
  <g id="Black-L" transform="matrix(1 0 0 1 2854.54 1556)">
   <path d="M 85.2051 -45.0684 L 134.619 -73.3398 C 123.584 -89.502 105.713 -100.586 85.2051 -102.539 Z M 78.8574 32.373 C 93.9453 32.373 107.861 27.3926 119.141 19.043 L 71.8262 -26.7578 C 70.3125 -28.2227 69.4336 -29.541 69.4336 -32.4707 L 69.4336 -102.148 C 36.6211 -97.5586 11.2793 -69.2871 11.2793 -35.2539 C 11.2793 2.00195 41.6504 32.373 78.8574 32.373 Z M 130.908 7.8125 C 140.576 -3.90625 146.436 -18.8965 146.436 -35.2539 C 146.436 -43.75 144.824 -51.8066 141.943 -59.2773 L 91.4551 -30.4688 Z"/>
  </g>
  <g id="Heavy-L" transform="matrix(1 0 0 1 2559.17 1556)">
   <path d="M 82.959 -43.8477 L 132.471 -72.1191 C 121.582 -88.4277 103.564 -99.6094 82.959 -101.27 Z M 77.5391 31.0547 C 92.6758 31.0547 106.641 25.8789 117.822 17.2852 L 71.3867 -27.7832 C 69.9707 -29.1992 69.2383 -30.4199 69.2383 -33.0566 L 69.2383 -100.977 C 36.6211 -96.9238 11.2793 -68.9941 11.2793 -35.2539 C 11.2793 1.2207 41.0645 31.0547 77.5391 31.0547 Z M 128.076 7.4707 C 137.842 -4.05273 143.75 -18.9941 143.75 -35.2539 C 143.75 -43.9941 142.041 -52.2461 138.916 -59.8633 L 88.5254 -31.0547 Z"/>
  </g>
  <g id="Bold-L" transform="matrix(1 0 0 1 2263.95 1556)">
   <path d="M 80.5176 -42.4316 L 130.078 -70.752 C 119.336 -87.207 101.221 -98.4863 80.5176 -99.9023 Z M 76.0254 29.541 C 91.2598 29.541 105.273 24.2188 116.309 15.332 L 70.8984 -28.9062 C 69.5801 -30.2246 68.9941 -31.3965 68.9941 -33.6914 L 68.9941 -99.6582 C 36.6211 -96.1426 11.2793 -68.6035 11.2793 -35.2539 C 11.2793 0.390625 40.3809 29.541 76.0254 29.541 Z M 124.902 7.12891 C 134.766 -4.24805 140.771 -19.0918 140.771 -35.2539 C 140.771 -44.2383 138.867 -52.7832 135.547 -60.5469 L 85.2051 -31.7383 Z"/>
  </g>
  <g id="Semibold-L" transform="matrix(1 0 0 1 1968.27 1556)">
   <path d="M 78.8086 -41.4551 L 128.418 -69.8242 C 117.773 -86.4258 99.6094 -97.7539 78.8086 -98.9258 Z M 75 28.5156 C 90.2832 28.5156 104.297 23.0469 115.283 14.0137 L 70.5566 -29.7363 C 69.2871 -30.957 68.7988 -32.0312 68.7988 -34.1309 L 68.7988 -98.7305 C 36.6211 -95.6543 11.2793 -68.3594 11.2793 -35.3027 C 11.2793 -0.195312 39.9414 28.5156 75 28.5156 Z M 122.705 6.83594 C 132.617 -4.39453 138.721 -19.1406 138.721 -35.3027 C 138.721 -44.4336 136.719 -53.1738 133.203 -60.9863 L 82.959 -32.2266 Z"/>
  </g>
  <g id="Medium-L" transform="matrix(1 0 0 1 1672.34 1556)">
   <path d="M 77.5391 -40.7227 L 127.148 -69.1406 C 116.602 -85.791 98.3398 -97.168 77.5391 -98.1934 Z M 74.2188 27.7344 C 89.502 27.7344 103.564 22.168 114.551 12.9883 L 70.3125 -30.3223 C 69.0918 -31.4941 68.7012 -32.5684 68.7012 -34.4727 L 68.7012 -98.0469 C 36.6211 -95.2637 11.2793 -68.1641 11.2793 -35.3027 C 11.2793 -0.634766 39.5996 27.7344 74.2188 27.7344 Z M 121.045 6.64062 C 131.006 -4.49219 137.158 -19.1895 137.158 -35.3027 C 137.158 -44.5801 135.059 -53.418 131.445 -61.377 L 81.2012 -32.5684 Z"/>
  </g>
  <g id="Regular-L" transform="matrix(1 0 0 1 1376.65 1556)">
   <path d="M 75.8301 -39.7461 L 125.537 -68.2129 C 115.088 -84.9609 96.7285 -96.3867 75.8301 -97.2656 Z M 73.1934 26.709 C 88.5254 26.709 102.637 20.9961 113.525 11.6699 L 69.9707 -31.1035 C 68.7988 -32.2266 68.5059 -33.2031 68.5059 -34.9121 L 68.5059 -97.1191 C 36.6211 -94.7266 11.2793 -67.8711 11.2793 -35.3027 C 11.2793 -1.2207 39.1602 26.709 73.1934 26.709 Z M 118.896 6.39648 C 128.906 -4.63867 135.107 -19.2871 135.107 -35.3027 C 135.107 -44.7754 132.91 -53.8086 129.15 -61.8164 L 78.9551 -33.0566 Z"/>
  </g>
  <g id="Light-L" transform="matrix(1 0 0 1 1080.82 1556)">
   <path d="M 74.5605 -38.3301 L 124.512 -66.7969 C 114.258 -83.9355 95.752 -95.6543 74.5605 -96.3867 Z M 72.3145 25.8789 C 87.793 25.8789 101.904 19.9707 112.744 10.4492 L 70.166 -31.543 C 69.0918 -32.6172 68.7988 -33.5449 68.7988 -35.2051 L 68.7988 -96.2891 C 36.8164 -94.4824 11.2793 -67.7734 11.2793 -35.3027 C 11.2793 -1.70898 38.7207 25.8789 72.3145 25.8789 Z M 116.846 6.34766 C 127.1 -4.54102 133.35 -19.2383 133.35 -35.3027 C 133.35 -44.7266 131.201 -53.7598 127.344 -61.7188 L 77.1484 -33.0566 Z"/>
  </g>
  <g id="Thin-L" transform="matrix(1 0 0 1 785.255 1556)">
   <path d="M 72.9004 -36.4746 L 123.193 -64.9414 C 113.135 -82.5195 94.3848 -94.6289 72.9004 -95.2637 Z M 71.1914 24.707 C 86.7676 24.707 100.977 18.6523 111.67 8.83789 L 70.4102 -32.1289 C 69.4336 -33.1055 69.1406 -33.9355 69.1406 -35.6445 L 69.1406 -95.2148 C 37.1094 -94.1406 11.2793 -67.627 11.2793 -35.2539 C 11.2793 -2.29492 38.1836 24.707 71.1914 24.707 Z M 114.209 6.29883 C 124.658 -4.49219 131.055 -19.1895 131.055 -35.2539 C 131.055 -44.6777 128.906 -53.7109 125 -61.6211 L 74.707 -33.1055 Z"/>
  </g>
  <g id="Ultralight-L" transform="matrix(1 0 0 1 489.13 1556)">
   <path d="M 70.6055 24.1211 C 86.2305 24.1211 100.488 17.9688 111.133 8.00781 L 70.5078 -32.4219 C 69.5801 -33.3984 69.3359 -34.1797 69.3359 -35.8398 L 69.3359 -94.6777 C 37.2559 -93.9941 11.2793 -67.5781 11.2793 -35.2539 C 11.2793 -2.58789 37.9395 24.1211 70.6055 24.1211 Z M 72.0703 -35.5469 L 122.51 -64.0137 C 112.598 -81.7871 93.7012 -94.1406 72.0703 -94.6777 Z M 112.842 6.29883 C 123.438 -4.44336 129.883 -19.1895 129.883 -35.2539 C 129.883 -44.6777 127.734 -53.6621 123.779 -61.5234 L 73.4863 -33.1055 Z"/>
  </g>
  <g id="Black-M" transform="matrix(1 0 0 1 2870.95 1126)">
   <path d="M 68.3105 -43.7988 L 106.641 -65.625 C 98.0469 -78.125 84.2285 -86.8164 68.3105 -88.5742 Z M 62.4512 18.5059 C 74.1211 18.5059 84.8633 14.7949 93.6523 8.49609 L 56.3477 -27.4902 C 55.0781 -28.7598 54.2969 -29.834 54.2969 -32.4707 L 54.2969 -88.2812 C 28.5156 -84.3262 8.74023 -62.0117 8.74023 -35.2051 C 8.74023 -5.61523 32.8613 18.5059 62.4512 18.5059 Z M 104.199 -1.46484 C 111.67 -10.6934 116.162 -22.4121 116.162 -35.2051 C 116.162 -41.4551 115.137 -47.4121 113.135 -53.0273 L 73.877 -30.7129 Z"/>
  </g>
  <g id="Heavy-M" transform="matrix(1 0 0 1 2575.48 1126)">
   <path d="M 66.2598 -42.8223 L 104.59 -64.6484 C 96.0449 -77.2461 82.1777 -85.9375 66.2598 -87.4512 Z M 61.2305 17.2852 C 72.9004 17.2852 83.7402 13.3789 92.4316 6.93359 L 55.8105 -28.5156 C 54.6387 -29.6875 53.9551 -30.6641 53.9551 -33.0078 L 53.9551 -87.1582 C 28.4668 -83.6426 8.74023 -61.6699 8.74023 -35.2051 C 8.74023 -6.29883 32.3242 17.2852 61.2305 17.2852 Z M 101.611 -1.80664 C 109.131 -10.8887 113.672 -22.5098 113.672 -35.2051 C 113.672 -41.748 112.5 -47.9492 110.303 -53.7109 L 71.1426 -31.3965 Z"/>
  </g>
  <g id="Bold-M" transform="matrix(1 0 0 1 2280.14 1126)">
   <path d="M 63.916 -41.6504 L 102.246 -63.623 C 93.8477 -76.2695 79.8828 -84.9609 63.916 -86.1816 Z M 59.8145 15.918 C 71.582 15.918 82.4219 11.8652 91.0645 5.17578 L 55.2246 -29.6387 C 54.1504 -30.7129 53.6133 -31.6406 53.6133 -33.6426 L 53.6133 -85.9375 C 28.3691 -82.9102 8.74023 -61.3281 8.74023 -35.2539 C 8.74023 -7.08008 31.6895 15.918 59.8145 15.918 Z M 98.7305 -2.19727 C 106.299 -11.1328 110.938 -22.6562 110.938 -35.2539 C 110.938 -42.041 109.57 -48.5352 107.129 -54.4434 L 68.0664 -32.1289 Z"/>
  </g>
  <g id="Semibold-M" transform="matrix(1 0 0 1 1984.38 1126)">
   <path d="M 62.3047 -40.8691 L 100.684 -62.8906 C 92.334 -75.5859 78.3203 -84.2773 62.3047 -85.3027 Z M 58.8867 14.9414 C 70.6543 14.9414 81.4941 10.791 90.0879 3.95508 L 54.834 -30.4199 C 53.8086 -31.4453 53.3691 -32.3242 53.3691 -34.082 L 53.3691 -85.1074 C 28.3691 -82.373 8.74023 -61.084 8.74023 -35.2539 C 8.74023 -7.66602 31.2988 14.9414 58.8867 14.9414 Z M 96.7285 -2.49023 C 104.346 -11.2793 109.033 -22.7539 109.033 -35.2539 C 109.033 -42.2852 107.52 -48.9258 104.932 -54.9805 L 65.918 -32.6172 Z"/>
  </g>
  <g id="Medium-M" transform="matrix(1 0 0 1 1688.4 1126)">
   <path d="M 61.084 -40.2832 L 99.4629 -62.3047 C 91.1621 -75.0488 77.0996 -83.7402 61.084 -84.668 Z M 58.1543 14.209 C 69.9707 14.209 80.8594 9.96094 89.3555 3.02734 L 54.541 -31.0059 C 53.5156 -31.9824 53.1738 -32.8125 53.1738 -34.375 L 53.1738 -84.4727 C 28.3203 -82.0312 8.74023 -60.8398 8.74023 -35.3027 C 8.74023 -8.05664 30.957 14.209 58.1543 14.209 Z M 95.2637 -2.68555 C 102.881 -11.377 107.568 -22.8027 107.568 -35.3027 C 107.568 -42.4316 106.006 -49.2188 103.271 -55.3711 L 64.3555 -33.0078 Z"/>
  </g>
  <g id="Regular-M" transform="matrix(1 0 0 1 1392.62 1126)">
   <path d="M 59.4727 -39.5508 L 97.8516 -61.5723 C 89.6484 -74.3652 75.5371 -83.0566 59.4727 -83.7891 Z M 57.2266 13.2812 C 69.043 13.2812 79.9316 8.93555 88.4277 1.80664 L 54.1016 -31.7871 C 53.1738 -32.666 52.9297 -33.4961 52.9297 -34.8145 L 52.9297 -83.6426 C 28.2715 -81.4941 8.74023 -60.5957 8.74023 -35.3027 C 8.74023 -8.59375 30.5664 13.2812 57.2266 13.2812 Z M 93.2617 -2.92969 C 100.928 -11.5234 105.713 -22.9004 105.713 -35.3027 C 105.713 -42.627 104.004 -49.6094 101.123 -55.9082 L 62.2559 -33.5449 Z"/>
  </g>
  <g id="Light-M" transform="matrix(1 0 0 1 1096.69 1126)">
   <path d="M 58.3496 -38.2812 L 96.9727 -60.3516 C 88.916 -73.4375 74.6582 -82.373 58.3496 -83.0078 Z M 56.4453 12.5 C 68.3594 12.5 79.2969 8.00781 87.6953 0.732422 L 54.2969 -32.1777 C 53.418 -33.0078 53.1738 -33.7891 53.1738 -35.1074 L 53.1738 -82.9102 C 28.4668 -81.25 8.74023 -60.498 8.74023 -35.3027 C 8.74023 -9.0332 30.2246 12.5 56.4453 12.5 Z M 91.4551 -2.97852 C 99.3164 -11.4746 104.15 -22.8516 104.15 -35.3027 C 104.15 -42.627 102.441 -49.6094 99.5117 -55.8105 L 60.5957 -33.5449 Z"/>
  </g>
  <g id="Thin-M" transform="matrix(1 0 0 1 801.027 1126)">
   <path d="M 56.8848 -36.6211 L 95.752 -58.6914 C 87.9395 -72.168 73.4375 -81.4941 56.8848 -81.9824 Z M 55.4199 11.4746 C 67.4316 11.4746 78.4668 6.83594 86.7676 -0.732422 L 54.4922 -32.7148 C 53.7109 -33.4961 53.5156 -34.1309 53.5156 -35.4492 L 53.5156 -81.9824 C 28.7109 -80.957 8.74023 -60.4004 8.74023 -35.2539 C 8.74023 -9.57031 29.7363 11.4746 55.4199 11.4746 Z M 89.0625 -3.02734 C 97.1191 -11.4258 102.051 -22.8027 102.051 -35.2539 C 102.051 -42.5781 100.391 -49.5605 97.3633 -55.7129 L 58.4473 -33.5449 Z"/>
  </g>
  <g id="Ultralight-M" transform="matrix(1 0 0 1 504.828 1126)">
   <path d="M 54.8828 10.9375 C 66.9922 10.9375 78.0273 6.20117 86.2793 -1.46484 L 54.6387 -32.959 C 53.8574 -33.7402 53.7109 -34.3262 53.7109 -35.6445 L 53.7109 -81.4453 C 28.8086 -80.8105 8.74023 -60.3027 8.74023 -35.2539 C 8.74023 -9.86328 29.4922 10.9375 54.8828 10.9375 Z M 56.1035 -35.7422 L 95.1172 -57.8125 C 87.4023 -71.5332 72.8027 -81.0547 56.1035 -81.4453 Z M 87.8418 -3.02734 C 96.0449 -11.377 101.025 -22.8027 101.025 -35.2539 C 101.025 -42.5293 99.3164 -49.5117 96.2891 -55.6152 L 57.3242 -33.5938 Z"/>
  </g>
  <g id="Black-S" transform="matrix(1 0 0 1 2884.57 696)">
   <path d="M 53.3691 -41.8945 L 83.3984 -58.9844 C 76.6602 -68.7988 65.8203 -75.5859 53.3691 -76.9531 Z M 48.8281 6.78711 C 57.959 6.78711 66.4062 3.85742 73.291 -1.07422 L 44.0918 -29.248 C 43.1152 -30.2246 42.4805 -31.0547 42.4805 -33.1055 L 42.4805 -76.709 C 22.3145 -73.6328 6.83594 -56.2012 6.83594 -35.2051 C 6.83594 -12.0605 25.6836 6.78711 48.8281 6.78711 Z M 81.4453 -8.78906 C 87.3047 -16.0156 90.8203 -25.1953 90.8203 -35.2051 C 90.8203 -40.1367 89.9902 -44.8242 88.4277 -49.2188 L 57.666 -31.7383 Z"/>
  </g>
  <g id="Heavy-S" transform="matrix(1 0 0 1 2588.72 696)">
   <path d="M 51.9043 -41.2598 L 81.9336 -58.3984 C 75.2441 -68.2129 64.3555 -75 51.9043 -76.1719 Z M 47.9492 5.9082 C 57.1289 5.9082 65.5762 2.88086 72.4121 -2.14844 L 43.6523 -29.9805 C 42.7246 -30.9082 42.2363 -31.6895 42.2363 -33.4961 L 42.2363 -75.9766 C 22.2656 -73.1445 6.83594 -55.957 6.83594 -35.2051 C 6.83594 -12.5488 25.293 5.9082 47.9492 5.9082 Z M 79.6875 -9.0332 C 85.5469 -16.1621 89.1113 -25.293 89.1113 -35.2051 C 89.1113 -40.332 88.1348 -45.2148 86.4258 -49.7559 L 55.7617 -32.2266 Z"/>
  </g>
  <g id="Bold-S" transform="matrix(1 0 0 1 2292.96 696)">
   <path d="M 50.2441 -40.5762 L 80.2734 -57.7637 C 73.6328 -67.5781 62.7441 -74.3164 50.2441 -75.293 Z M 47.0215 4.98047 C 56.2012 4.98047 64.6484 1.85547 71.4355 -3.36914 L 43.2129 -30.8105 C 42.334 -31.6406 41.8945 -32.373 41.8945 -33.9355 L 41.8945 -75.0977 C 22.168 -72.6074 6.83594 -55.6641 6.83594 -35.2539 C 6.83594 -13.1348 24.9023 4.98047 47.0215 4.98047 Z M 77.6855 -9.375 C 83.5938 -16.3574 87.207 -25.3906 87.207 -35.2539 C 87.207 -40.5762 86.1328 -45.6543 84.1797 -50.3418 L 53.6133 -32.8125 Z"/>
  </g>
  <g id="Semibold-S" transform="matrix(1 0 0 1 1996.93 696)">
   <path d="M 49.1211 -40.0391 L 79.1016 -57.2754 C 72.5098 -67.1387 61.5723 -73.8281 49.1211 -74.707 Z M 46.3379 4.29688 C 55.5664 4.29688 64.0625 1.07422 70.8008 -4.19922 L 42.8711 -31.3477 C 42.041 -32.1777 41.6992 -32.8613 41.6992 -34.2285 L 41.6992 -74.5117 C 22.1191 -72.2656 6.83594 -55.4688 6.83594 -35.2539 C 6.83594 -13.5254 24.6094 4.29688 46.3379 4.29688 Z M 76.3184 -9.57031 C 82.2266 -16.4551 85.8398 -25.4395 85.8398 -35.2539 C 85.8398 -40.7715 84.7168 -45.9961 82.666 -50.7324 L 52.1484 -33.2031 Z"/>
  </g>
  <g id="Medium-S" transform="matrix(1 0 0 1 1700.71 696)">
   <path d="M 48.2422 -39.6973 L 78.2227 -56.9336 C 71.6797 -66.7969 60.7422 -73.4863 48.2422 -74.2676 Z M 45.8496 3.80859 C 55.0781 3.80859 63.5742 0.537109 70.2637 -4.83398 L 42.627 -31.7871 C 41.8457 -32.5684 41.5527 -33.252 41.5527 -34.4727 L 41.5527 -74.0723 C 22.1191 -71.9727 6.83594 -55.3711 6.83594 -35.3027 C 6.83594 -13.8184 24.4141 3.80859 45.8496 3.80859 Z M 75.293 -9.7168 C 81.2012 -16.5527 84.8633 -25.4883 84.8633 -35.3027 C 84.8633 -40.8691 83.6426 -46.2402 81.4941 -51.0742 L 51.0254 -33.4961 Z"/>
  </g>
  <g id="Regular-S" transform="matrix(1 0 0 1 1404.65 696)">
   <path d="M 47.1191 -39.209 L 77.0996 -56.4941 C 70.6055 -66.3574 59.6191 -73.0469 47.1191 -73.6816 Z M 45.2148 3.17383 C 54.4434 3.17383 62.9395 -0.195312 69.6289 -5.66406 L 42.334 -32.3242 C 41.5527 -33.0566 41.3574 -33.7402 41.3574 -34.7656 L 41.3574 -73.5352 C 22.0703 -71.582 6.83594 -55.1758 6.83594 -35.3027 C 6.83594 -14.1602 24.1211 3.17383 45.2148 3.17383 Z M 73.9258 -9.91211 C 79.8828 -16.6992 83.5449 -25.5859 83.5449 -35.3027 C 83.5449 -41.0645 82.2266 -46.5332 79.9805 -51.4648 L 49.5605 -33.8867 Z"/>
  </g>
  <g id="Light-S" transform="matrix(1 0 0 1 1108.63 696)">
   <path d="M 46.1426 -38.0859 L 76.3184 -55.3711 C 69.9219 -65.5273 58.8379 -72.4609 46.1426 -72.9492 Z M 44.4824 2.44141 C 53.8086 2.44141 62.3535 -0.976562 68.9941 -6.64062 L 42.4805 -32.666 C 41.748 -33.3496 41.5527 -33.9844 41.5527 -35.0098 L 41.5527 -72.8516 C 22.2168 -71.3867 6.83594 -55.0781 6.83594 -35.3027 C 6.83594 -14.5508 23.7793 2.44141 44.4824 2.44141 Z M 72.3633 -9.96094 C 78.418 -16.6504 82.1777 -25.5371 82.1777 -35.3027 C 82.1777 -41.0156 80.8594 -46.4844 78.5645 -51.3672 L 48.0957 -33.8867 Z"/>
  </g>
  <g id="Thin-S" transform="matrix(1 0 0 1 812.819 696)">
   <path d="M 44.8242 -36.6211 L 75.2441 -53.9062 C 69.043 -64.4043 57.7637 -71.6309 44.8242 -72.0703 Z M 43.6035 1.5625 C 53.0273 1.5625 61.6211 -2.05078 68.1641 -7.91016 L 42.627 -33.1543 C 41.9922 -33.7891 41.8457 -34.3262 41.8457 -35.3516 L 41.8457 -72.0215 C 22.4121 -71.1426 6.83594 -54.9805 6.83594 -35.2539 C 6.83594 -15.0391 23.3887 1.5625 43.6035 1.5625 Z M 70.2148 -9.96094 C 76.5137 -16.6016 80.3711 -25.5371 80.3711 -35.2539 C 80.3711 -41.0156 79.0527 -46.4844 76.6602 -51.2695 L 46.1914 -33.9355 Z"/>
  </g>
  <g id="Ultralight-S" transform="matrix(1 0 0 1 516.596 696)">
   <path d="M 44.1406 -35.8887 L 74.707 -53.1738 C 68.6035 -63.8672 57.2266 -71.2402 44.1406 -71.582 Z M 43.1152 1.07422 C 52.5879 1.07422 61.2305 -2.58789 67.7246 -8.59375 L 42.7734 -33.3984 C 42.1387 -33.9844 41.9922 -34.4727 41.9922 -35.498 L 41.9922 -71.582 C 22.5098 -70.9961 6.83594 -54.8828 6.83594 -35.2539 C 6.83594 -15.2832 23.1445 1.07422 43.1152 1.07422 Z M 69.1406 -10.0098 C 75.5371 -16.5527 79.3945 -25.4883 79.3945 -35.2539 C 79.3945 -40.9668 78.0762 -46.4355 75.7324 -51.2207 L 45.2148 -33.9355 Z"/>
  </g>
 </g>
</svg>
