<?xml version="1.0" encoding="UTF-8"?>
<!--Generator: Apple Native CoreSVG 123-->
<!DOCTYPE svg
PUBLIC "-//W3C//DTD SVG 1.1//EN"
       "http://www.w3.org/Graphics/SVG/1.1/DTD/svg11.dtd">
<svg version="1.1" xmlns="http://www.w3.org/2000/svg" xmlns:xlink="http://www.w3.org/1999/xlink" width="3300" height="2200">
 <!--glyph: "uni100217.medium", point size: 100.000000, font version: "Version 15.0d7e11", template writer version: "5"-->
 <g id="Notes">
  <rect height="2200" id="artboard" style="fill:white;opacity:1" width="3300" x="0" y="0"/>
  <line id="" style="fill:none;stroke:black;opacity:1;stroke-width:0.5;" x1="263" x2="3036" y1="292" y2="292"/>
  <text style="stroke:none;fill:black;font-family:-apple-system,&quot;SF Pro Display&quot;,&quot;SF Pro Text&quot;,Helvetica,sans-serif;font-weight:bold;" transform="matrix(1 0 0 1 263 322)">Weight/Scale Variations</text>
  <text style="stroke:none;fill:black;font-family:-apple-system,&quot;SF Pro Display&quot;,&quot;SF Pro Text&quot;,Helvetica,sans-serif;text-anchor:middle;" transform="matrix(1 0 0 1 559.711 322)">Ultralight</text>
  <text style="stroke:none;fill:black;font-family:-apple-system,&quot;SF Pro Display&quot;,&quot;SF Pro Text&quot;,Helvetica,sans-serif;text-anchor:middle;" transform="matrix(1 0 0 1 856.422 322)">Thin</text>
  <text style="stroke:none;fill:black;font-family:-apple-system,&quot;SF Pro Display&quot;,&quot;SF Pro Text&quot;,Helvetica,sans-serif;text-anchor:middle;" transform="matrix(1 0 0 1 1153.13 322)">Light</text>
  <text style="stroke:none;fill:black;font-family:-apple-system,&quot;SF Pro Display&quot;,&quot;SF Pro Text&quot;,Helvetica,sans-serif;text-anchor:middle;" transform="matrix(1 0 0 1 1449.84 322)">Regular</text>
  <text style="stroke:none;fill:black;font-family:-apple-system,&quot;SF Pro Display&quot;,&quot;SF Pro Text&quot;,Helvetica,sans-serif;text-anchor:middle;" transform="matrix(1 0 0 1 1746.56 322)">Medium</text>
  <text style="stroke:none;fill:black;font-family:-apple-system,&quot;SF Pro Display&quot;,&quot;SF Pro Text&quot;,Helvetica,sans-serif;text-anchor:middle;" transform="matrix(1 0 0 1 2043.27 322)">Semibold</text>
  <text style="stroke:none;fill:black;font-family:-apple-system,&quot;SF Pro Display&quot;,&quot;SF Pro Text&quot;,Helvetica,sans-serif;text-anchor:middle;" transform="matrix(1 0 0 1 2339.98 322)">Bold</text>
  <text style="stroke:none;fill:black;font-family:-apple-system,&quot;SF Pro Display&quot;,&quot;SF Pro Text&quot;,Helvetica,sans-serif;text-anchor:middle;" transform="matrix(1 0 0 1 2636.69 322)">Heavy</text>
  <text style="stroke:none;fill:black;font-family:-apple-system,&quot;SF Pro Display&quot;,&quot;SF Pro Text&quot;,Helvetica,sans-serif;text-anchor:middle;" transform="matrix(1 0 0 1 2933.4 322)">Black</text>
  <line id="" style="fill:none;stroke:black;opacity:1;stroke-width:0.5;" x1="263" x2="3036" y1="1903" y2="1903"/>
  <g id="" transform="matrix(1 0 0 1 263 1933)">
   <path d="M 9.24805 0.830078 C 13.5547 0.830078 17.1387 -2.74414 17.1387 -7.05078 C 17.1387 -11.3574 13.5449 -14.9316 9.23828 -14.9316 C 4.94141 -14.9316 1.36719 -11.3574 1.36719 -7.05078 C 1.36719 -2.74414 4.95117 0.830078 9.24805 0.830078 Z M 9.24805 -0.654297 C 5.70312 -0.654297 2.87109 -3.49609 2.87109 -7.05078 C 2.87109 -10.6055 5.69336 -13.4473 9.23828 -13.4473 C 12.793 -13.4473 15.6348 -10.6055 15.6445 -7.05078 C 15.6543 -3.49609 12.8027 -0.654297 9.24805 -0.654297 Z M 9.22852 -3.42773 C 9.69727 -3.42773 9.9707 -3.74023 9.9707 -4.25781 L 9.9707 -6.31836 L 12.1973 -6.31836 C 12.6953 -6.31836 13.0371 -6.57227 13.0371 -7.04102 C 13.0371 -7.51953 12.7148 -7.7832 12.1973 -7.7832 L 9.9707 -7.7832 L 9.9707 -10.0098 C 9.9707 -10.5273 9.69727 -10.8496 9.22852 -10.8496 C 8.75977 -10.8496 8.50586 -10.5078 8.50586 -10.0098 L 8.50586 -7.7832 L 6.29883 -7.7832 C 5.78125 -7.7832 5.44922 -7.51953 5.44922 -7.04102 C 5.44922 -6.57227 5.80078 -6.31836 6.29883 -6.31836 L 8.50586 -6.31836 L 8.50586 -4.25781 C 8.50586 -3.75977 8.75977 -3.42773 9.22852 -3.42773 Z"/>
  </g>
  <g id="" transform="matrix(1 0 0 1 281.506 1933)">
   <path d="M 11.709 2.91016 C 17.1582 2.91016 21.6699 -1.60156 21.6699 -7.05078 C 21.6699 -12.4902 17.1484 -17.0117 11.6992 -17.0117 C 6.25977 -17.0117 1.74805 -12.4902 1.74805 -7.05078 C 1.74805 -1.60156 6.26953 2.91016 11.709 2.91016 Z M 11.709 1.25 C 7.09961 1.25 3.41797 -2.44141 3.41797 -7.05078 C 3.41797 -11.6504 7.08984 -15.3516 11.6992 -15.3516 C 16.3086 -15.3516 20 -11.6504 20.0098 -7.05078 C 20.0195 -2.44141 16.3184 1.25 11.709 1.25 Z M 11.6895 -2.41211 C 12.207 -2.41211 12.5195 -2.77344 12.5195 -3.33984 L 12.5195 -6.23047 L 15.5762 -6.23047 C 16.123 -6.23047 16.5039 -6.51367 16.5039 -7.03125 C 16.5039 -7.55859 16.1426 -7.86133 15.5762 -7.86133 L 12.5195 -7.86133 L 12.5195 -10.9277 C 12.5195 -11.5039 12.207 -11.8555 11.6895 -11.8555 C 11.1719 -11.8555 10.8789 -11.4844 10.8789 -10.9277 L 10.8789 -7.86133 L 7.83203 -7.86133 C 7.26562 -7.86133 6.89453 -7.55859 6.89453 -7.03125 C 6.89453 -6.51367 7.28516 -6.23047 7.83203 -6.23047 L 10.8789 -6.23047 L 10.8789 -3.33984 C 10.8789 -2.79297 11.1719 -2.41211 11.6895 -2.41211 Z"/>
  </g>
  <g id="" transform="matrix(1 0 0 1 304.924 1933)">
   <path d="M 14.9707 5.67383 C 21.9336 5.67383 27.6953 -0.078125 27.6953 -7.04102 C 27.6953 -14.0039 21.9238 -19.7559 14.9609 -19.7559 C 8.00781 -19.7559 2.25586 -14.0039 2.25586 -7.04102 C 2.25586 -0.078125 8.01758 5.67383 14.9707 5.67383 Z M 14.9707 3.85742 C 8.93555 3.85742 4.08203 -1.00586 4.08203 -7.04102 C 4.08203 -13.0762 8.92578 -17.9395 14.9609 -17.9395 C 21.0059 -17.9395 25.8594 -13.0762 25.8691 -7.04102 C 25.8789 -1.00586 21.0156 3.85742 14.9707 3.85742 Z M 14.9512 -1.06445 C 15.5176 -1.06445 15.8691 -1.45508 15.8691 -2.06055 L 15.8691 -6.13281 L 20.1074 -6.13281 C 20.6934 -6.13281 21.1133 -6.46484 21.1133 -7.02148 C 21.1133 -7.59766 20.7227 -7.93945 20.1074 -7.93945 L 15.8691 -7.93945 L 15.8691 -12.1875 C 15.8691 -12.8027 15.5176 -13.1934 14.9512 -13.1934 C 14.3848 -13.1934 14.0625 -12.7832 14.0625 -12.1875 L 14.0625 -7.93945 L 9.83398 -7.93945 C 9.21875 -7.93945 8.80859 -7.59766 8.80859 -7.02148 C 8.80859 -6.46484 9.23828 -6.13281 9.83398 -6.13281 L 14.0625 -6.13281 L 14.0625 -2.06055 C 14.0625 -1.47461 14.3848 -1.06445 14.9512 -1.06445 Z"/>
  </g>
  <text style="stroke:none;fill:black;font-family:-apple-system,&quot;SF Pro Display&quot;,&quot;SF Pro Text&quot;,Helvetica,sans-serif;font-weight:bold;" transform="matrix(1 0 0 1 263 1953)">Design Variations</text>
  <text style="stroke:none;fill:black;font-family:-apple-system,&quot;SF Pro Display&quot;,&quot;SF Pro Text&quot;,Helvetica,sans-serif;" transform="matrix(1 0 0 1 263 1971)">Symbols are supported in up to nine weights and three scales.</text>
  <text style="stroke:none;fill:black;font-family:-apple-system,&quot;SF Pro Display&quot;,&quot;SF Pro Text&quot;,Helvetica,sans-serif;" transform="matrix(1 0 0 1 263 1989)">For optimal layout with text and other symbols, vertically align</text>
  <text style="stroke:none;fill:black;font-family:-apple-system,&quot;SF Pro Display&quot;,&quot;SF Pro Text&quot;,Helvetica,sans-serif;" transform="matrix(1 0 0 1 263 2007)">symbols with the adjacent text.</text>
  <rect height="14" id="" style="fill:#00AEEF;stroke:none;opacity:0.4;" width="3" x="776" y="1919"/>
  <g id="" transform="matrix(1 0 0 1 779 1933)">
   <path d="M 10.5273 0 L 12.373 0 L 7.17773 -14.0918 L 5.43945 -14.0918 L 0.244141 0 L 2.08984 0 L 3.50586 -4.0332 L 9.11133 -4.0332 Z M 6.2793 -11.9531 L 6.33789 -11.9531 L 8.59375 -5.52734 L 4.02344 -5.52734 Z"/>
  </g>
  <rect height="14" id="" style="fill:#00AEEF;stroke:none;opacity:0.4;" width="3" x="791.617" y="1919"/>
  <text style="stroke:none;fill:black;font-family:-apple-system,&quot;SF Pro Display&quot;,&quot;SF Pro Text&quot;,Helvetica,sans-serif;font-weight:bold;" transform="matrix(1 0 0 1 776 1953)">Margins</text>
  <text style="stroke:none;fill:black;font-family:-apple-system,&quot;SF Pro Display&quot;,&quot;SF Pro Text&quot;,Helvetica,sans-serif;" transform="matrix(1 0 0 1 776 1971)">Leading and trailing margins on the left and right side of each symbol</text>
  <text style="stroke:none;fill:black;font-family:-apple-system,&quot;SF Pro Display&quot;,&quot;SF Pro Text&quot;,Helvetica,sans-serif;" transform="matrix(1 0 0 1 776 1989)">can be adjusted by modifying the width of the blue rectangles.</text>
  <text style="stroke:none;fill:black;font-family:-apple-system,&quot;SF Pro Display&quot;,&quot;SF Pro Text&quot;,Helvetica,sans-serif;" transform="matrix(1 0 0 1 776 2007)">Modifications are automatically applied proportionally to all</text>
  <text style="stroke:none;fill:black;font-family:-apple-system,&quot;SF Pro Display&quot;,&quot;SF Pro Text&quot;,Helvetica,sans-serif;" transform="matrix(1 0 0 1 776 2025)">scales and weights.</text>
  <g id="" transform="matrix(1 0 0 1 1289 1933)">
   <path d="M 2.83203 3.11523 L 4.375 4.6582 C 5.22461 5.48828 6.19141 5.41992 7.06055 4.46289 L 17.2754 -6.66016 C 17.7051 -6.36719 18.0957 -6.37695 18.5645 -6.47461 L 19.6094 -6.68945 L 20.3027 -5.99609 L 20.2539 -5.47852 C 20.1855 -4.95117 20.3516 -4.53125 20.8496 -4.0332 L 21.6602 -3.22266 C 22.168 -2.71484 22.8223 -2.68555 23.3008 -3.16406 L 26.5527 -6.41602 C 27.0312 -6.89453 27.0117 -7.54883 26.5039 -8.05664 L 25.6836 -8.87695 C 25.1855 -9.375 24.7754 -9.55078 24.2383 -9.47266 L 23.7109 -9.41406 L 23.0566 -10.0781 L 23.3398 -11.2207 C 23.4863 -11.7871 23.3398 -12.2559 22.7148 -12.8613 L 20.3027 -15.2539 C 16.7578 -18.7793 12.2266 -18.6719 9.11133 -15.5371 C 8.69141 -15.1074 8.64258 -14.5215 8.91602 -14.0918 C 9.15039 -13.7207 9.62891 -13.4961 10.2734 -13.6621 C 11.7871 -14.043 13.3008 -13.9258 14.7852 -12.9199 L 14.1602 -11.3379 C 13.9258 -10.752 13.9453 -10.2734 14.1797 -9.83398 L 3.01758 0.439453 C 2.08008 1.30859 1.97266 2.25586 2.83203 3.11523 Z M 10.6738 -15.1465 C 13.3398 -17.1387 16.6504 -16.8262 19.0527 -14.4141 L 21.6797 -11.8066 C 21.9141 -11.5723 21.9434 -11.3867 21.8848 -11.0938 L 21.5039 -9.53125 L 23.0762 -7.95898 L 24.043 -8.04688 C 24.3262 -8.07617 24.4141 -8.05664 24.6387 -7.83203 L 25.2637 -7.20703 L 22.5098 -4.46289 L 21.8848 -5.07812 C 21.6602 -5.30273 21.6406 -5.40039 21.6699 -5.68359 L 21.7578 -6.64062 L 20.1953 -8.20312 L 18.5742 -7.89062 C 18.291 -7.83203 18.1445 -7.83203 17.9102 -8.07617 L 15.7324 -10.2539 C 15.5078 -10.4883 15.4785 -10.625 15.6055 -10.9473 L 16.5527 -13.2227 C 14.9512 -14.7559 12.8418 -15.6055 10.8008 -14.9512 C 10.7129 -14.9219 10.6445 -14.9414 10.6152 -14.9805 C 10.5859 -15.0293 10.5859 -15.0781 10.6738 -15.1465 Z M 4.10156 2.41211 C 3.61328 1.91406 3.78906 1.61133 4.12109 1.30859 L 15.0781 -8.80859 L 16.3086 -7.57812 L 6.15234 3.34961 C 5.84961 3.68164 5.46875 3.7793 5.06836 3.37891 Z"/>
  </g>
  <text style="stroke:none;fill:black;font-family:-apple-system,&quot;SF Pro Display&quot;,&quot;SF Pro Text&quot;,Helvetica,sans-serif;font-weight:bold;" transform="matrix(1 0 0 1 1289 1953)">Exporting</text>
  <text style="stroke:none;fill:black;font-family:-apple-system,&quot;SF Pro Display&quot;,&quot;SF Pro Text&quot;,Helvetica,sans-serif;" transform="matrix(1 0 0 1 1289 1971)">Symbols should be outlined when exporting to ensure the</text>
  <text style="stroke:none;fill:black;font-family:-apple-system,&quot;SF Pro Display&quot;,&quot;SF Pro Text&quot;,Helvetica,sans-serif;" transform="matrix(1 0 0 1 1289 1989)">design is preserved when submitting to Xcode.</text>
  <text id="template-version" style="stroke:none;fill:black;font-family:-apple-system,&quot;SF Pro Display&quot;,&quot;SF Pro Text&quot;,Helvetica,sans-serif;text-anchor:end;" transform="matrix(1 0 0 1 3036 1933)">Template v.1.0</text>
  <text style="stroke:none;fill:black;font-family:-apple-system,&quot;SF Pro Display&quot;,&quot;SF Pro Text&quot;,Helvetica,sans-serif;text-anchor:end;" transform="matrix(1 0 0 1 3036 1951)">Generated from folder.circle</text>
  <text style="stroke:none;fill:black;font-family:-apple-system,&quot;SF Pro Display&quot;,&quot;SF Pro Text&quot;,Helvetica,sans-serif;text-anchor:end;" transform="matrix(1 0 0 1 3036 1969)">Typeset at 100 points</text>
  <text style="stroke:none;fill:black;font-family:-apple-system,&quot;SF Pro Display&quot;,&quot;SF Pro Text&quot;,Helvetica,sans-serif;" transform="matrix(1 0 0 1 263 726)">Small</text>
  <text style="stroke:none;fill:black;font-family:-apple-system,&quot;SF Pro Display&quot;,&quot;SF Pro Text&quot;,Helvetica,sans-serif;" transform="matrix(1 0 0 1 263 1156)">Medium</text>
  <text style="stroke:none;fill:black;font-family:-apple-system,&quot;SF Pro Display&quot;,&quot;SF Pro Text&quot;,Helvetica,sans-serif;" transform="matrix(1 0 0 1 263 1586)">Large</text>
 </g>
 <g id="Guides">
  <g id="H-reference" style="fill:#27AAE1;stroke:none;" transform="matrix(1 0 0 1 339 696)">
   <path d="M 54.9316 0 L 57.666 0 L 30.5664 -70.459 L 28.0762 -70.459 L 0.976562 0 L 3.66211 0 L 12.9395 -24.4629 L 45.7031 -24.4629 Z M 29.1992 -67.0898 L 29.4434 -67.0898 L 44.8242 -26.709 L 13.8184 -26.709 Z"/>
  </g>
  <line id="Baseline-S" style="fill:none;stroke:#27AAE1;opacity:1;stroke-width:0.577;" x1="263" x2="3036" y1="696" y2="696"/>
  <line id="Capline-S" style="fill:none;stroke:#27AAE1;opacity:1;stroke-width:0.577;" x1="263" x2="3036" y1="625.541" y2="625.541"/>
  <g id="H-reference" style="fill:#27AAE1;stroke:none;" transform="matrix(1 0 0 1 339 1126)">
   <path d="M 54.9316 0 L 57.666 0 L 30.5664 -70.459 L 28.0762 -70.459 L 0.976562 0 L 3.66211 0 L 12.9395 -24.4629 L 45.7031 -24.4629 Z M 29.1992 -67.0898 L 29.4434 -67.0898 L 44.8242 -26.709 L 13.8184 -26.709 Z"/>
  </g>
  <line id="Baseline-M" style="fill:none;stroke:#27AAE1;opacity:1;stroke-width:0.577;" x1="263" x2="3036" y1="1126" y2="1126"/>
  <line id="Capline-M" style="fill:none;stroke:#27AAE1;opacity:1;stroke-width:0.577;" x1="263" x2="3036" y1="1055.54" y2="1055.54"/>
  <g id="H-reference" style="fill:#27AAE1;stroke:none;" transform="matrix(1 0 0 1 339 1556)">
   <path d="M 54.9316 0 L 57.666 0 L 30.5664 -70.459 L 28.0762 -70.459 L 0.976562 0 L 3.66211 0 L 12.9395 -24.4629 L 45.7031 -24.4629 Z M 29.1992 -67.0898 L 29.4434 -67.0898 L 44.8242 -26.709 L 13.8184 -26.709 Z"/>
  </g>
  <line id="Baseline-L" style="fill:none;stroke:#27AAE1;opacity:1;stroke-width:0.577;" x1="263" x2="3036" y1="1556" y2="1556"/>
  <line id="Capline-L" style="fill:none;stroke:#27AAE1;opacity:1;stroke-width:0.577;" x1="263" x2="3036" y1="1485.54" y2="1485.54"/>
  <rect height="119.336" id="left-margin" style="fill:#00AEEF;stroke:none;opacity:0.4;" width="8.74023" x="1391.3" y="1030.79"/>
  <rect height="119.336" id="right-margin" style="fill:#00AEEF;stroke:none;opacity:0.4;" width="8.74023" x="1499.65" y="1030.79"/>
 </g>
 <g id="Symbols">
  <g id="Black-L" transform="matrix(1 0 0 1 2854.05 1556)">
   <path d="M 79.3457 32.8613 C 116.748 32.8613 147.412 2.19727 147.412 -35.2051 C 147.412 -72.6074 116.748 -103.271 79.2969 -103.271 C 41.8945 -103.271 11.2793 -72.6074 11.2793 -35.2051 C 11.2793 2.19727 41.9434 32.8613 79.3457 32.8613 Z M 79.3457 12.4023 C 52.9785 12.4023 31.7383 -8.83789 31.7383 -35.2051 C 31.7383 -61.5723 52.9297 -82.8125 79.2969 -82.8125 C 105.664 -82.8125 126.953 -61.5723 126.953 -35.2051 C 127.002 -8.83789 105.713 12.4023 79.3457 12.4023 Z M 46.8262 -45.0684 L 111.865 -45.0684 L 111.865 -48.5352 C 111.865 -55.127 108.105 -58.7402 101.514 -58.7402 L 78.6133 -58.7402 C 76.3672 -58.7402 75.0488 -59.375 73.1445 -60.6934 L 71.7773 -61.6211 C 69.4824 -63.1348 68.0664 -63.916 64.7461 -63.916 L 56.8848 -63.916 C 50.7324 -63.916 46.8262 -60.1074 46.8262 -53.5156 Z M 46.8262 -18.3594 C 46.8262 -11.8652 50.5371 -8.1543 57.1777 -8.1543 L 101.855 -8.1543 C 108.154 -8.1543 111.865 -11.8652 111.865 -18.3594 L 111.865 -39.4531 L 46.8262 -39.4531 Z"/>
  </g>
  <g id="Heavy-L" transform="matrix(1 0 0 1 2558.39 1556)">
   <path d="M 78.2715 31.7871 C 115.088 31.7871 145.312 1.61133 145.312 -35.2051 C 145.312 -72.0215 115.039 -102.197 78.2715 -102.197 C 41.4551 -102.197 11.2793 -72.0215 11.2793 -35.2051 C 11.2793 1.61133 41.5039 31.7871 78.2715 31.7871 Z M 78.2715 14.0137 C 51.0254 14.0137 29.0527 -7.95898 29.0527 -35.2051 C 29.0527 -62.5 50.9766 -84.4727 78.2715 -84.4727 C 105.518 -84.4727 127.49 -62.5 127.539 -35.2051 C 127.539 -7.95898 105.566 14.0137 78.2715 14.0137 Z M 45.0195 -45.6543 L 111.523 -45.6543 L 111.523 -48.9258 C 111.523 -55.3711 107.91 -58.8867 101.416 -58.8867 L 76.6113 -58.8867 C 74.3652 -58.8867 73.0957 -59.5215 71.2402 -60.8398 L 69.7754 -61.9141 C 67.4805 -63.4766 66.1133 -64.1602 62.8418 -64.1602 L 54.6387 -64.1602 C 48.6816 -64.1602 45.0195 -60.5469 45.0195 -54.1992 Z M 45.0195 -17.7734 C 45.0195 -11.377 48.6328 -7.8125 55.127 -7.8125 L 101.855 -7.8125 C 107.959 -7.8125 111.523 -11.377 111.523 -17.7734 L 111.523 -40.2344 L 45.0195 -40.2344 Z"/>
  </g>
  <g id="Bold-L" transform="matrix(1 0 0 1 2262.88 1556)">
   <path d="M 77.0996 30.6152 C 113.232 30.6152 142.92 0.878906 142.92 -35.2051 C 142.92 -71.3379 113.184 -101.025 77.0508 -101.025 C 40.9668 -101.025 11.2793 -71.3379 11.2793 -35.2051 C 11.2793 0.878906 41.0156 30.6152 77.0996 30.6152 Z M 77.0996 15.8691 C 48.8281 15.8691 26.0742 -6.93359 26.0742 -35.2051 C 26.0742 -63.4766 48.7793 -86.2793 77.0508 -86.2793 C 105.371 -86.2793 128.125 -63.4766 128.174 -35.2051 C 128.174 -6.93359 105.371 15.8691 77.0996 15.8691 Z M 43.0664 -46.2891 L 111.182 -46.2891 L 111.182 -49.3652 C 111.182 -55.6641 107.715 -59.082 101.318 -59.082 L 74.4141 -59.082 C 72.1191 -59.082 70.8984 -59.668 69.1406 -60.9863 L 67.5293 -62.207 C 65.2832 -63.8672 63.916 -64.502 60.7422 -64.502 L 52.1484 -64.502 C 46.4355 -64.502 43.0664 -61.1328 43.0664 -54.9316 Z M 43.0664 -17.1387 C 43.0664 -10.8398 46.5332 -7.42188 52.8809 -7.42188 L 101.855 -7.42188 C 107.715 -7.42188 111.182 -10.8398 111.182 -17.1387 L 111.182 -41.1621 L 43.0664 -41.1621 Z"/>
  </g>
  <g id="Semibold-L" transform="matrix(1 0 0 1 1966.97 1556)">
   <path d="M 76.2695 29.7852 C 111.914 29.7852 141.309 0.439453 141.309 -35.2051 C 141.309 -70.8496 111.865 -100.244 76.2695 -100.244 C 40.625 -100.244 11.2793 -70.8496 11.2793 -35.2051 C 11.2793 0.439453 40.6738 29.7852 76.2695 29.7852 Z M 76.2695 17.0898 C 47.3145 17.0898 24.0234 -6.25 24.0234 -35.2051 C 24.0234 -64.209 47.2656 -87.5 76.2695 -87.5 C 105.225 -87.5 128.564 -64.209 128.613 -35.2051 C 128.662 -6.25 105.273 17.0898 76.2695 17.0898 Z M 41.6504 -46.7285 L 110.938 -46.7285 L 110.938 -49.6582 C 110.938 -55.9082 107.52 -59.1797 101.221 -59.1797 L 72.9004 -59.1797 C 70.5566 -59.1797 69.3848 -59.7656 67.6758 -61.084 L 65.9668 -62.4512 C 63.7695 -64.1113 62.4023 -64.6973 59.2773 -64.6973 L 50.3906 -64.6973 C 44.873 -64.6973 41.6504 -61.4746 41.6504 -55.4688 Z M 41.6504 -16.6992 C 41.6504 -10.4492 45.0684 -7.17773 51.3672 -7.17773 L 101.855 -7.17773 C 107.568 -7.17773 110.938 -10.498 110.938 -16.6992 L 110.938 -41.748 L 41.6504 -41.748 Z"/>
  </g>
  <g id="Medium-L" transform="matrix(1 0 0 1 1670.87 1556)">
   <path d="M 75.6836 29.1992 C 110.938 29.1992 140.088 0.0488281 140.088 -35.2051 C 140.088 -70.459 110.889 -99.6094 75.6348 -99.6094 C 40.3809 -99.6094 11.2793 -70.459 11.2793 -35.2051 C 11.2793 0.0488281 40.3809 29.1992 75.6836 29.1992 Z M 75.6836 18.0664 C 46.1426 18.0664 22.4609 -5.71289 22.4609 -35.2051 C 22.4609 -64.6973 46.1426 -88.4766 75.6348 -88.4766 C 105.127 -88.4766 128.906 -64.6973 128.906 -35.2051 C 128.955 -5.71289 105.176 18.0664 75.6836 18.0664 Z M 40.625 -47.0703 L 110.742 -47.0703 L 110.742 -49.9023 C 110.742 -56.0547 107.422 -59.2773 101.172 -59.2773 L 71.7285 -59.2773 C 69.3848 -59.2773 68.2129 -59.8145 66.6016 -61.1816 L 64.7949 -62.5977 C 62.6465 -64.3066 61.2305 -64.8438 58.1543 -64.8438 L 49.1211 -64.8438 C 43.7012 -64.8438 40.625 -61.7676 40.625 -55.8594 Z M 40.625 -16.3574 C 40.625 -10.2051 43.9453 -6.98242 50.1465 -6.98242 L 101.855 -6.98242 C 107.471 -6.98242 110.742 -10.2051 110.742 -16.3574 L 110.742 -42.2363 L 40.625 -42.2363 Z"/>
  </g>
  <g id="Regular-L" transform="matrix(1 0 0 1 1374.97 1556)">
   <path d="M 74.8535 28.3691 C 109.668 28.3691 138.477 -0.390625 138.477 -35.2051 C 138.477 -70.0195 109.619 -98.7793 74.8047 -98.7793 C 40.0391 -98.7793 11.2793 -70.0195 11.2793 -35.2051 C 11.2793 -0.390625 40.0879 28.3691 74.8535 28.3691 Z M 74.8535 19.2871 C 44.6777 19.2871 20.4102 -5.0293 20.4102 -35.2051 C 20.4102 -65.3809 44.6289 -89.6973 74.8047 -89.6973 C 105.029 -89.6973 129.297 -65.3809 129.346 -35.2051 C 129.395 -5.0293 105.078 19.2871 74.8535 19.2871 Z M 39.2578 -47.5098 L 110.498 -47.5098 L 110.498 -50.1953 C 110.498 -56.25 107.275 -59.4238 101.123 -59.4238 L 70.2148 -59.4238 C 67.8711 -59.4238 66.6992 -59.9121 65.1367 -61.2793 L 63.2324 -62.8418 C 61.1328 -64.5508 59.7168 -65.0391 56.6895 -65.0391 L 47.4121 -65.0391 C 42.1875 -65.0391 39.2578 -62.1582 39.2578 -56.3477 Z M 39.2578 -15.918 C 39.2578 -9.81445 42.4805 -6.68945 48.6328 -6.68945 L 101.855 -6.68945 C 107.324 -6.68945 110.498 -9.86328 110.498 -15.918 L 110.498 -42.8223 L 39.2578 -42.8223 Z"/>
  </g>
  <g id="Light-L" transform="matrix(1 0 0 1 1079.18 1556)">
   <path d="M 73.9258 27.4902 C 108.301 27.4902 136.621 -0.830078 136.621 -35.1562 C 136.621 -69.5312 108.252 -97.8516 73.9258 -97.8516 C 39.5508 -97.8516 11.2793 -69.5312 11.2793 -35.1562 C 11.2793 -0.830078 39.5996 27.4902 73.9258 27.4902 Z M 73.9258 20.6055 C 43.1152 20.6055 18.2129 -4.3457 18.2129 -35.1562 C 18.2129 -66.0156 43.0664 -90.918 73.9258 -90.918 C 104.736 -90.918 129.688 -66.0156 129.736 -35.1562 C 129.736 -4.3457 104.785 20.6055 73.9258 20.6055 Z M 37.8906 -47.4609 L 109.961 -47.4609 L 109.961 -50.5371 C 109.961 -56.3477 106.836 -59.4727 100.977 -59.4727 L 68.9453 -59.4727 C 66.3086 -59.4727 65.1367 -59.9121 63.4766 -61.377 L 61.6699 -62.9395 C 59.5215 -64.7949 58.252 -65.2344 55.127 -65.2344 L 45.7031 -65.2344 C 40.625 -65.2344 37.8906 -62.5488 37.8906 -57.1289 Z M 37.8906 -15.625 C 37.8906 -9.7168 41.0156 -6.73828 46.9238 -6.73828 L 101.416 -6.73828 C 106.885 -6.73828 109.961 -9.76562 109.961 -15.625 L 109.961 -43.3105 L 37.8906 -43.3105 Z"/>
  </g>
  <g id="Thin-L" transform="matrix(1 0 0 1 783.693 1556)">
   <path d="M 72.7051 26.3184 C 106.494 26.3184 134.18 -1.36719 134.18 -35.1074 C 134.18 -68.8965 106.494 -96.582 72.7051 -96.582 C 38.9648 -96.582 11.2793 -68.8965 11.2793 -35.1074 C 11.2793 -1.36719 38.9648 26.3184 72.7051 26.3184 Z M 72.7051 22.3145 C 41.0156 22.3145 15.2832 -3.41797 15.2832 -35.1074 C 15.2832 -66.8457 41.0156 -92.5781 72.7051 -92.5781 C 104.395 -92.5781 130.176 -66.8457 130.176 -35.1074 C 130.176 -3.41797 104.443 22.3145 72.7051 22.3145 Z M 36.1328 -47.3633 L 109.326 -47.3633 L 109.326 -50.9766 C 109.326 -56.4453 106.299 -59.5215 100.781 -59.5215 L 67.2363 -59.5215 C 64.2578 -59.5215 63.0371 -59.8633 61.3281 -61.5234 L 59.6191 -63.1348 C 57.4219 -65.0879 56.3477 -65.4297 53.0273 -65.4297 L 43.4082 -65.4297 C 38.5254 -65.4297 36.1328 -63.0371 36.1328 -58.1543 Z M 36.1328 -15.2832 C 36.1328 -9.61914 39.1113 -6.78711 44.6777 -6.78711 L 100.879 -6.78711 C 106.348 -6.78711 109.326 -9.7168 109.326 -15.2832 L 109.326 -43.9453 L 36.1328 -43.9453 Z"/>
  </g>
  <g id="Ultralight-L" transform="matrix(1 0 0 1 487.616 1556)">
   <path d="M 72.1191 25.7324 C 105.566 25.7324 132.91 -1.61133 132.91 -35.1074 C 132.91 -68.5547 105.566 -95.8984 72.1191 -95.8984 C 38.623 -95.8984 11.2793 -68.5547 11.2793 -35.1074 C 11.2793 -1.61133 38.623 25.7324 72.1191 25.7324 Z M 72.1191 23.2422 C 39.9414 23.2422 13.7695 -2.97852 13.7695 -35.1074 C 13.7695 -67.2363 39.9414 -93.4082 72.1191 -93.4082 C 104.248 -93.4082 130.42 -67.2363 130.42 -35.1074 C 130.42 -2.97852 104.248 23.2422 72.1191 23.2422 Z M 35.2051 -47.3145 L 108.984 -47.3145 L 108.984 -51.2207 C 108.984 -56.543 106.055 -59.5703 100.635 -59.5703 L 66.3574 -59.5703 C 63.1836 -59.5703 62.0117 -59.8633 60.2051 -61.6211 L 58.5449 -63.2324 C 56.3477 -65.2832 55.3711 -65.5762 51.9531 -65.5762 L 42.2363 -65.5762 C 37.4512 -65.5762 35.2051 -63.2812 35.2051 -58.6914 Z M 35.2051 -15.0879 C 35.2051 -9.57031 38.1348 -6.83594 43.5547 -6.83594 L 100.586 -6.83594 C 106.055 -6.83594 108.984 -9.66797 108.984 -15.0879 L 108.984 -44.2871 L 35.2051 -44.2871 Z"/>
  </g>
  <g id="Black-M" transform="matrix(1 0 0 1 2870.97 1126)">
   <path d="M 62.4023 18.457 C 91.9922 18.457 116.113 -5.61523 116.113 -35.2051 C 116.113 -64.7949 91.9922 -88.8672 62.4023 -88.8672 C 32.8125 -88.8672 8.74023 -64.7949 8.74023 -35.2051 C 8.74023 -5.61523 32.8125 18.457 62.4023 18.457 Z M 62.4023 0.195312 C 42.8711 0.195312 27.002 -15.625 27.002 -35.2051 C 27.002 -54.7363 42.8711 -70.6055 62.4023 -70.6055 C 81.9824 -70.6055 97.8027 -54.7363 97.8027 -35.2051 C 97.8027 -15.625 81.9824 0.195312 62.4023 0.195312 Z M 37.9883 -42.041 L 86.8652 -42.041 L 86.8652 -45.2148 C 86.8652 -50.293 83.8379 -53.2715 78.7109 -53.2715 L 62.8906 -53.2715 C 61.084 -53.2715 60.0098 -53.7598 58.3496 -54.834 L 57.5195 -55.3711 C 55.6152 -56.543 54.6387 -57.1777 51.9043 -57.1777 L 46.1914 -57.1777 C 41.1621 -57.1777 37.9883 -54.0527 37.9883 -48.9258 Z M 37.9883 -22.8027 C 37.9883 -17.7246 40.9668 -14.7461 46.0938 -14.7461 L 78.7109 -14.7461 C 83.8379 -14.7461 86.8652 -17.7246 86.8652 -22.8027 L 86.8652 -37.6953 L 37.9883 -37.6953 Z"/>
  </g>
  <g id="Heavy-M" transform="matrix(1 0 0 1 2575.19 1126)">
   <path d="M 61.5234 17.5781 C 90.5273 17.5781 114.258 -6.15234 114.258 -35.2051 C 114.258 -64.2578 90.5273 -87.9883 61.4746 -87.9883 C 32.4707 -87.9883 8.74023 -64.2578 8.74023 -35.2051 C 8.74023 -6.15234 32.4707 17.5781 61.5234 17.5781 Z M 61.5234 1.66016 C 41.1133 1.66016 24.6582 -14.8438 24.6582 -35.2051 C 24.6582 -55.5664 41.1133 -72.0703 61.4746 -72.0703 C 81.8848 -72.0703 98.3398 -55.5664 98.3398 -35.2051 C 98.3398 -14.8438 81.8848 1.66016 61.5234 1.66016 Z M 36.377 -42.6758 L 86.6211 -42.6758 L 86.6211 -45.5566 C 86.6211 -50.5859 83.7402 -53.418 78.6621 -53.418 L 61.0352 -53.418 C 59.2773 -53.418 58.252 -53.9062 56.7383 -54.9316 L 55.7129 -55.6641 C 53.9062 -56.8359 52.8809 -57.4219 50.2441 -57.4219 L 44.1895 -57.4219 C 39.4043 -57.4219 36.377 -54.4922 36.377 -49.4629 Z M 36.377 -22.2168 C 36.377 -17.2363 39.2578 -14.3555 44.3359 -14.3555 L 78.8086 -14.3555 C 83.7402 -14.3555 86.6211 -17.2363 86.6211 -22.2168 L 86.6211 -38.4277 L 36.377 -38.4277 Z"/>
  </g>
  <g id="Bold-M" transform="matrix(1 0 0 1 2279.5 1126)">
   <path d="M 60.498 16.5039 C 88.8672 16.5039 112.207 -6.78711 112.207 -35.2051 C 112.207 -63.623 88.8672 -86.9629 60.4492 -86.9629 C 32.0312 -86.9629 8.74023 -63.623 8.74023 -35.2051 C 8.74023 -6.78711 32.0801 16.5039 60.498 16.5039 Z M 60.498 3.22266 C 39.1602 3.22266 22.0703 -13.916 22.0703 -35.2051 C 22.0703 -56.4941 39.1602 -73.6816 60.4492 -73.6816 C 81.7383 -73.6816 98.9258 -56.4941 98.9258 -35.2051 C 98.9746 -13.916 81.7871 3.22266 60.498 3.22266 Z M 34.5703 -43.4082 L 86.377 -43.4082 L 86.377 -45.8984 C 86.377 -50.8789 83.5938 -53.6133 78.5645 -53.6133 L 59.0332 -53.6133 C 57.2754 -53.6133 56.2988 -54.0527 54.8828 -55.0781 L 53.7109 -55.957 C 51.9531 -57.1777 50.8789 -57.7148 48.3887 -57.7148 L 41.9434 -57.7148 C 37.4023 -57.7148 34.5703 -54.9316 34.5703 -50.0488 Z M 34.5703 -21.582 C 34.5703 -16.6504 37.3535 -13.916 42.3828 -13.916 L 78.9551 -13.916 C 83.6426 -13.916 86.377 -16.6504 86.377 -21.582 L 86.377 -39.2578 L 34.5703 -39.2578 Z"/>
  </g>
  <g id="Semibold-M" transform="matrix(1 0 0 1 1983.5 1126)">
   <path d="M 59.7656 15.8203 C 87.7441 15.8203 110.791 -7.22656 110.791 -35.2051 C 110.791 -63.1836 87.6953 -86.2793 59.7656 -86.2793 C 31.7871 -86.2793 8.74023 -63.1836 8.74023 -35.2051 C 8.74023 -7.22656 31.7871 15.8203 59.7656 15.8203 Z M 59.7656 4.3457 C 37.8418 4.3457 20.2637 -13.2812 20.2637 -35.2051 C 20.2637 -57.1289 37.793 -74.8047 59.7656 -74.8047 C 81.6895 -74.8047 99.3164 -57.1289 99.3652 -35.2051 C 99.3652 -13.2812 81.6895 4.3457 59.7656 4.3457 Z M 33.3496 -43.9453 L 86.1816 -43.9453 L 86.1816 -46.1426 C 86.1816 -51.123 83.4961 -53.7109 78.5156 -53.7109 L 57.6172 -53.7109 C 55.9082 -53.7109 54.9316 -54.1992 53.6133 -55.1758 L 52.3438 -56.1523 C 50.6348 -57.4219 49.5117 -57.9102 47.0703 -57.9102 L 40.3809 -57.9102 C 35.9863 -57.9102 33.3496 -55.2734 33.3496 -50.4395 Z M 33.3496 -21.1426 C 33.3496 -16.2598 36.0352 -13.623 41.0156 -13.623 L 79.0039 -13.623 C 83.5449 -13.623 86.1816 -16.2598 86.1816 -21.1426 L 86.1816 -39.8438 L 33.3496 -39.8438 Z"/>
  </g>
  <g id="Medium-M" transform="matrix(1 0 0 1 1687.3 1126)">
   <path d="M 59.2285 15.2832 C 86.9141 15.2832 109.766 -7.56836 109.766 -35.2051 C 109.766 -62.8906 86.8652 -85.7422 59.1797 -85.7422 C 31.543 -85.7422 8.74023 -62.8906 8.74023 -35.2051 C 8.74023 -7.56836 31.5918 15.2832 59.2285 15.2832 Z M 59.2285 5.17578 C 36.8164 5.17578 18.8965 -12.8418 18.8965 -35.2051 C 18.8965 -57.6172 36.8164 -75.6348 59.1797 -75.6348 C 81.5918 -75.6348 99.6094 -57.6172 99.6582 -35.2051 C 99.707 -12.8418 81.6406 5.17578 59.2285 5.17578 Z M 32.4219 -44.2871 L 86.084 -44.2871 L 86.084 -46.3379 C 86.084 -51.2695 83.4473 -53.8086 78.4668 -53.8086 L 56.543 -53.8086 C 54.834 -53.8086 53.9062 -54.248 52.6855 -55.2734 L 51.2695 -56.3477 C 49.6094 -57.5684 48.4863 -58.0566 46.0938 -58.0566 L 39.2578 -58.0566 C 34.9609 -58.0566 32.4219 -55.5176 32.4219 -50.7812 Z M 32.4219 -20.8496 C 32.4219 -15.9668 35.0586 -13.3789 39.9902 -13.3789 L 79.1016 -13.3789 C 83.4961 -13.3789 86.084 -15.9668 86.084 -20.8496 L 86.084 -40.2832 L 32.4219 -40.2832 Z"/>
  </g>
  <g id="Regular-M" transform="matrix(1 0 0 1 1391.3 1126)">
   <path d="M 58.5449 14.5508 C 85.791 14.5508 108.35 -8.00781 108.35 -35.2539 C 108.35 -62.4512 85.7422 -85.0586 58.4961 -85.0586 C 31.2988 -85.0586 8.74023 -62.4512 8.74023 -35.2539 C 8.74023 -8.00781 31.3477 14.5508 58.5449 14.5508 Z M 58.5449 6.25 C 35.498 6.25 17.0898 -12.207 17.0898 -35.2539 C 17.0898 -58.252 35.4492 -76.7578 58.4961 -76.7578 C 81.543 -76.7578 100 -58.252 100.049 -35.2539 C 100.098 -12.207 81.5918 6.25 58.5449 6.25 Z M 31.2012 -44.8242 L 85.8887 -44.8242 L 85.8887 -46.6309 C 85.8887 -51.4648 83.3496 -53.9551 78.418 -53.9551 L 55.1758 -53.9551 C 53.4668 -53.9551 52.5879 -54.3945 51.416 -55.3711 L 49.9023 -56.543 C 48.291 -57.8125 47.1191 -58.252 44.8242 -58.252 L 37.6953 -58.252 C 33.5938 -58.252 31.2012 -55.8594 31.2012 -51.1719 Z M 31.2012 -20.4102 C 31.2012 -15.5762 33.7402 -13.0859 38.6719 -13.0859 L 79.1504 -13.0859 C 83.3984 -13.0859 85.8887 -15.5762 85.8887 -20.4102 L 85.8887 -40.8691 L 31.2012 -40.8691 Z"/>
  </g>
  <g id="Light-M" transform="matrix(1 0 0 1 1095.42 1126)">
   <path d="M 57.7148 13.7695 C 84.5215 13.7695 106.689 -8.39844 106.689 -35.2051 C 106.689 -62.0117 84.5215 -84.1797 57.666 -84.1797 C 30.8594 -84.1797 8.74023 -62.0117 8.74023 -35.2051 C 8.74023 -8.39844 30.9082 13.7695 57.7148 13.7695 Z M 57.7148 7.4707 C 34.082 7.4707 15.0879 -11.5723 15.0879 -35.2051 C 15.0879 -58.8379 34.082 -77.832 57.666 -77.832 C 81.2988 -77.832 100.342 -58.8379 100.391 -35.2051 C 100.391 -11.5723 81.3477 7.4707 57.7148 7.4707 Z M 29.9805 -44.7266 L 85.4492 -44.7266 L 85.4492 -46.9238 C 85.4492 -51.5625 83.0078 -54.0039 78.3203 -54.0039 L 54.0039 -54.0039 C 52.0996 -54.0039 51.1719 -54.3457 49.9512 -55.4688 L 48.4863 -56.6406 C 46.8262 -58.0078 45.8008 -58.3984 43.4082 -58.3984 L 36.1816 -58.3984 C 32.1777 -58.3984 29.9805 -56.2012 29.9805 -51.8555 Z M 29.9805 -20.166 C 29.9805 -15.5273 32.4219 -13.1348 37.1094 -13.1348 L 78.8086 -13.1348 C 83.0078 -13.1348 85.4492 -15.5273 85.4492 -20.166 L 85.4492 -41.2598 L 29.9805 -41.2598 Z"/>
  </g>
  <g id="Thin-M" transform="matrix(1 0 0 1 799.806 1126)">
   <path d="M 56.6406 12.7441 C 82.9102 12.7441 104.492 -8.83789 104.492 -35.1562 C 104.492 -61.4746 82.9102 -83.0566 56.5918 -83.0566 C 30.3223 -83.0566 8.74023 -61.4746 8.74023 -35.1562 C 8.74023 -8.83789 30.3223 12.7441 56.6406 12.7441 Z M 56.6406 8.98438 C 32.2266 8.98438 12.4512 -10.791 12.4512 -35.1562 C 12.4512 -59.5215 32.2266 -79.2969 56.5918 -79.2969 C 81.0059 -79.2969 100.781 -59.5215 100.781 -35.1562 C 100.781 -10.791 81.0059 8.98438 56.6406 8.98438 Z M 28.3691 -44.6289 L 84.8633 -44.6289 L 84.8633 -47.3633 C 84.8633 -51.6602 82.5195 -54.0527 78.125 -54.0527 L 52.4902 -54.0527 C 50.2441 -54.0527 49.3164 -54.3457 47.998 -55.5664 L 46.6309 -56.8359 C 44.9707 -58.3008 44.0918 -58.5938 41.5527 -58.5938 L 34.1309 -58.5938 C 30.3223 -58.5938 28.3691 -56.6895 28.3691 -52.7832 Z M 28.3691 -19.8242 C 28.3691 -15.4297 30.7129 -13.1836 35.1074 -13.1836 L 78.2715 -13.1836 C 82.5195 -13.1836 84.8633 -15.4785 84.8633 -19.8242 L 84.8633 -41.8457 L 28.3691 -41.8457 Z"/>
  </g>
  <g id="Ultralight-M" transform="matrix(1 0 0 1 503.656 1126)">
   <path d="M 56.0547 12.207 C 82.0801 12.207 103.369 -9.08203 103.369 -35.1562 C 103.369 -61.1816 82.0801 -82.4707 56.0547 -82.4707 C 30.0293 -82.4707 8.74023 -61.1816 8.74023 -35.1562 C 8.74023 -9.08203 30.0293 12.207 56.0547 12.207 Z M 56.0547 9.81445 C 31.2988 9.81445 11.1328 -10.3516 11.1328 -35.1562 C 11.1328 -59.9121 31.2988 -80.0781 56.0547 -80.0781 C 80.8594 -80.0781 100.977 -59.9121 100.977 -35.1562 C 100.977 -10.3516 80.8594 9.81445 56.0547 9.81445 Z M 27.5391 -44.6289 L 84.5703 -44.6289 L 84.5703 -47.5586 C 84.5703 -51.709 82.2754 -54.1016 78.0273 -54.1016 L 51.6602 -54.1016 C 49.3164 -54.1016 48.3398 -54.3457 46.9727 -55.6641 L 45.7031 -56.8848 C 43.9941 -58.4473 43.2129 -58.6914 40.5762 -58.6914 L 33.1055 -58.6914 C 29.3457 -58.6914 27.5391 -56.8848 27.5391 -53.2715 Z M 27.5391 -19.6777 C 27.5391 -15.3809 29.8828 -13.1836 34.082 -13.1836 L 78.0273 -13.1836 C 82.2754 -13.1836 84.5703 -15.4297 84.5703 -19.6777 L 84.5703 -42.1387 L 27.5391 -42.1387 Z"/>
  </g>
  <g id="Black-S" transform="matrix(1 0 0 1 2884.57 696)">
   <path d="M 48.8281 6.78711 C 71.9727 6.78711 90.8203 -12.0605 90.8203 -35.2051 C 90.8203 -58.3496 71.9727 -77.1973 48.8281 -77.1973 C 25.6836 -77.1973 6.83594 -58.3496 6.83594 -35.2051 C 6.83594 -12.0605 25.6836 6.78711 48.8281 6.78711 Z M 48.8281 -7.37305 C 33.4473 -7.37305 20.9961 -19.8242 20.9961 -35.2051 C 20.9961 -50.5859 33.4473 -63.0371 48.8281 -63.0371 C 64.209 -63.0371 76.6602 -50.5859 76.6602 -35.2051 C 76.6602 -19.8242 64.209 -7.37305 48.8281 -7.37305 Z M 29.6387 -40.625 L 68.0176 -40.625 L 68.0176 -43.0664 C 68.0176 -47.0703 65.6738 -49.3652 61.6699 -49.3652 L 49.1211 -49.3652 C 47.7051 -49.3652 46.875 -49.7559 45.6055 -50.5859 L 44.9219 -51.0254 C 43.457 -51.9531 42.6758 -52.4414 40.5273 -52.4414 L 36.0352 -52.4414 C 32.1289 -52.4414 29.6387 -50 29.6387 -45.9961 Z M 29.6387 -25.4395 C 29.6387 -21.4844 31.9824 -19.1406 35.9863 -19.1406 L 61.6699 -19.1406 C 65.6738 -19.1406 68.0176 -21.4844 68.0176 -25.4395 L 68.0176 -37.207 L 29.6387 -37.207 Z"/>
  </g>
  <g id="Heavy-S" transform="matrix(1 0 0 1 2588.47 696)">
   <path d="M 48.2422 6.15234 C 70.9961 6.15234 89.5996 -12.4512 89.5996 -35.2051 C 89.5996 -57.959 70.9961 -76.6113 48.1934 -76.6113 C 25.4395 -76.6113 6.83594 -57.959 6.83594 -35.2051 C 6.83594 -12.4512 25.4395 6.15234 48.2422 6.15234 Z M 48.2422 -6.39648 C 32.2754 -6.39648 19.4336 -19.2871 19.4336 -35.2051 C 19.4336 -51.1719 32.2754 -64.0137 48.1934 -64.0137 C 64.1602 -64.0137 77.002 -51.1719 77.0508 -35.2051 C 77.0508 -19.2871 64.1602 -6.39648 48.2422 -6.39648 Z M 28.5645 -41.1133 L 67.9199 -41.1133 L 67.9199 -43.2617 C 67.9199 -47.2656 65.625 -49.4629 61.6211 -49.4629 L 47.8516 -49.4629 C 46.4844 -49.4629 45.7031 -49.8535 44.5312 -50.6836 L 43.7012 -51.2207 C 42.2852 -52.1484 41.4551 -52.6367 39.4043 -52.6367 L 34.668 -52.6367 C 30.9082 -52.6367 28.5645 -50.293 28.5645 -46.3379 Z M 28.5645 -25.0488 C 28.5645 -21.0938 30.8105 -18.8477 34.8145 -18.8477 L 61.8164 -18.8477 C 65.625 -18.8477 67.9199 -21.0938 67.9199 -25.0488 L 67.9199 -37.7441 L 28.5645 -37.7441 Z"/>
  </g>
  <g id="Bold-S" transform="matrix(1 0 0 1 2292.44 696)">
   <path d="M 47.5586 5.46875 C 69.873 5.46875 88.2324 -12.8906 88.2324 -35.2051 C 88.2324 -57.5684 69.873 -75.9277 47.5098 -75.9277 C 25.1953 -75.9277 6.83594 -57.5684 6.83594 -35.2051 C 6.83594 -12.8906 25.1953 5.46875 47.5586 5.46875 Z M 47.5586 -5.32227 C 30.957 -5.32227 17.6758 -18.6523 17.6758 -35.2051 C 17.6758 -51.8066 30.957 -65.1367 47.5098 -65.1367 C 64.1113 -65.1367 77.4414 -51.8066 77.4414 -35.2051 C 77.4414 -18.6523 64.1113 -5.32227 47.5586 -5.32227 Z M 27.3438 -41.6992 L 67.7734 -41.6992 L 67.7734 -43.5547 C 67.7734 -47.5098 65.5762 -49.6094 61.5723 -49.6094 L 46.4355 -49.6094 C 45.1172 -49.6094 44.3848 -50 43.3105 -50.7812 L 42.334 -51.4648 C 40.9668 -52.3926 40.0879 -52.832 38.1836 -52.832 L 33.1543 -52.832 C 29.541 -52.832 27.3438 -50.6348 27.3438 -46.6797 Z M 27.3438 -24.6094 C 27.3438 -20.6543 29.4922 -18.5059 33.4961 -18.5059 L 61.9141 -18.5059 C 65.5762 -18.5059 67.7734 -20.6543 67.7734 -24.6094 L 67.7734 -38.3301 L 27.3438 -38.3301 Z"/>
  </g>
  <g id="Semibold-S" transform="matrix(1 0 0 1 1996.2 696)">
   <path d="M 47.0703 4.98047 C 69.0918 4.98047 87.3047 -13.1836 87.3047 -35.2539 C 87.3047 -57.2754 69.0918 -75.4883 47.0215 -75.4883 C 25 -75.4883 6.83594 -57.2754 6.83594 -35.2539 C 6.83594 -13.1836 25.0488 4.98047 47.0703 4.98047 Z M 47.0703 -4.58984 C 30.0781 -4.58984 16.4551 -18.2129 16.4551 -35.2539 C 16.4551 -52.2461 30.0293 -65.8691 47.0215 -65.8691 C 64.0625 -65.8691 77.6855 -52.2461 77.7344 -35.2539 C 77.7344 -18.2129 64.0625 -4.58984 47.0703 -4.58984 Z M 26.4648 -42.0898 L 67.6758 -42.0898 L 67.6758 -43.7012 C 67.6758 -47.6562 65.5273 -49.707 61.5723 -49.707 L 45.459 -49.707 C 44.1895 -49.707 43.457 -50.0977 42.4316 -50.8301 L 41.4062 -51.6113 C 40.0879 -52.5391 39.1602 -52.9785 37.3047 -52.9785 L 32.1289 -52.9785 C 28.6133 -52.9785 26.4648 -50.8301 26.4648 -46.9238 Z M 26.4648 -24.2676 C 26.4648 -20.3613 28.6133 -18.2617 32.6172 -18.2617 L 62.0117 -18.2617 C 65.5762 -18.2617 67.6758 -20.3613 67.6758 -24.2676 L 67.6758 -38.7207 L 26.4648 -38.7207 Z"/>
  </g>
  <g id="Medium-S" transform="matrix(1 0 0 1 1699.83 696)">
   <path d="M 46.7285 4.63867 C 68.5547 4.63867 86.6211 -13.4277 86.6211 -35.2539 C 86.6211 -57.0312 68.5059 -75.1465 46.6797 -75.1465 C 24.8535 -75.1465 6.83594 -57.0312 6.83594 -35.2539 C 6.83594 -13.4277 24.9023 4.63867 46.7285 4.63867 Z M 46.7285 -4.00391 C 29.3945 -4.00391 15.5273 -17.9199 15.5273 -35.2539 C 15.5273 -52.5879 29.3457 -66.4551 46.6797 -66.4551 C 64.0137 -66.4551 77.8809 -52.5879 77.9297 -35.2539 C 77.9785 -17.9199 64.0625 -4.00391 46.7285 -4.00391 Z M 25.8301 -42.3828 L 67.5781 -42.3828 L 67.5781 -43.8477 C 67.5781 -47.7539 65.5273 -49.7559 61.5234 -49.7559 L 44.7266 -49.7559 C 43.5059 -49.7559 42.7734 -50.1465 41.7969 -50.8789 L 40.7227 -51.709 C 39.4043 -52.6855 38.4766 -53.0762 36.6699 -53.0762 L 31.2988 -53.0762 C 27.9297 -53.0762 25.8301 -51.0254 25.8301 -47.1191 Z M 25.8301 -24.0234 C 25.8301 -20.166 27.9297 -18.1152 31.8848 -18.1152 L 62.1094 -18.1152 C 65.5273 -18.1152 67.5781 -20.166 67.5781 -24.0234 L 67.5781 -39.0137 L 25.8301 -39.0137 Z"/>
  </g>
  <g id="Regular-S" transform="matrix(1 0 0 1 1403.58 696)">
   <path d="M 46.2402 4.15039 C 67.7734 4.15039 85.6934 -13.7207 85.6934 -35.2539 C 85.6934 -56.7871 67.7246 -74.6582 46.1914 -74.6582 C 24.707 -74.6582 6.83594 -56.7871 6.83594 -35.2539 C 6.83594 -13.7207 24.7559 4.15039 46.2402 4.15039 Z M 46.2402 -3.27148 C 28.5156 -3.27148 14.3555 -17.4805 14.3555 -35.2539 C 14.3555 -53.0273 28.4668 -67.2363 46.1914 -67.2363 C 63.9648 -67.2363 78.1738 -53.0273 78.2227 -35.2539 C 78.2715 -17.4805 64.0137 -3.27148 46.2402 -3.27148 Z M 25 -42.7734 L 67.5293 -42.7734 L 67.5293 -43.9941 C 67.5293 -47.9004 65.4785 -49.8535 61.5234 -49.8535 L 43.75 -49.8535 C 42.5781 -49.8535 41.8945 -50.2441 40.9668 -50.9277 L 39.7949 -51.8555 C 38.4766 -52.832 37.5488 -53.1738 35.791 -53.1738 L 30.2734 -53.1738 C 27.002 -53.1738 25 -51.2207 25 -47.3633 Z M 25 -23.7305 C 25 -19.873 27.0508 -17.8711 31.0059 -17.8711 L 62.207 -17.8711 C 65.5273 -17.8711 67.5293 -19.873 67.5293 -23.7305 L 67.5293 -39.4043 L 25 -39.4043 Z"/>
  </g>
  <g id="Light-S" transform="matrix(1 0 0 1 1107.6 696)">
   <path d="M 45.5078 3.4668 C 66.6992 3.4668 84.2285 -14.0625 84.2285 -35.2051 C 84.2285 -56.3965 66.6504 -73.9258 45.5078 -73.9258 C 24.3164 -73.9258 6.83594 -56.3965 6.83594 -35.2051 C 6.83594 -14.0625 24.3652 3.4668 45.5078 3.4668 Z M 45.5078 -2.24609 C 27.2461 -2.24609 12.5977 -16.9434 12.5977 -35.2051 C 12.5977 -53.5156 27.1973 -68.2129 45.5078 -68.2129 C 63.7695 -68.2129 78.4668 -53.5156 78.5156 -35.2051 C 78.5156 -16.9434 63.8184 -2.24609 45.5078 -2.24609 Z M 23.9258 -42.7246 L 67.0898 -42.7246 L 67.0898 -44.2871 C 67.0898 -47.998 65.1367 -49.9023 61.377 -49.9023 L 42.7246 -49.9023 C 41.3086 -49.9023 40.625 -50.2441 39.6973 -51.0254 L 38.5254 -51.9531 C 37.2559 -53.0273 36.377 -53.3203 34.5703 -53.3203 L 28.9062 -53.3203 C 25.7324 -53.3203 23.9258 -51.5137 23.9258 -47.998 Z M 23.9258 -23.5352 C 23.9258 -19.8242 25.8789 -17.9199 29.6875 -17.9199 L 61.8652 -17.9199 C 65.1855 -17.9199 67.0898 -19.8242 67.0898 -23.5352 L 67.0898 -39.7949 L 23.9258 -39.7949 Z"/>
  </g>
  <g id="Thin-S" transform="matrix(1 0 0 1 811.867 696)">
   <path d="M 44.5801 2.53906 C 65.2832 2.53906 82.2754 -14.4531 82.2754 -35.2051 C 82.2754 -55.9082 65.2344 -72.9004 44.5312 -72.9004 C 23.8281 -72.9004 6.83594 -55.9082 6.83594 -35.2051 C 6.83594 -14.4531 23.877 2.53906 44.5801 2.53906 Z M 44.5801 -0.878906 C 25.5859 -0.878906 10.2539 -16.2109 10.2539 -35.2051 C 10.2539 -54.1504 25.5859 -69.4824 44.5312 -69.4824 C 63.5254 -69.4824 78.8574 -54.1504 78.8574 -35.2051 C 78.8574 -16.2109 63.5254 -0.878906 44.5801 -0.878906 Z M 22.5098 -42.627 L 66.6016 -42.627 L 66.6016 -44.6289 C 66.6016 -48.0957 64.7461 -49.9512 61.2305 -49.9512 L 41.4062 -49.9512 C 39.6973 -49.9512 38.9648 -50.1953 37.9395 -51.123 L 36.8652 -52.0996 C 35.5957 -53.2715 34.8633 -53.5156 32.9102 -53.5156 L 27.0996 -53.5156 C 24.0723 -53.5156 22.5098 -51.9531 22.5098 -48.7793 Z M 22.5098 -23.2422 C 22.5098 -19.7266 24.4141 -17.9199 27.8809 -17.9199 L 61.4258 -17.9199 C 64.7461 -17.9199 66.6016 -19.7754 66.6016 -23.2422 L 66.6016 -40.2832 L 22.5098 -40.2832 Z"/>
  </g>
  <g id="Ultralight-S" transform="matrix(1 0 0 1 515.644 696)">
   <path d="M 44.043 2.05078 C 64.502 2.05078 81.2988 -14.6973 81.2988 -35.1562 C 81.2988 -55.6152 64.502 -72.3633 44.043 -72.3633 C 23.584 -72.3633 6.83594 -55.6152 6.83594 -35.1562 C 6.83594 -14.6973 23.584 2.05078 44.043 2.05078 Z M 44.043 -0.146484 C 24.7559 -0.146484 9.08203 -15.8691 9.08203 -35.1562 C 9.08203 -54.4434 24.7559 -70.166 44.043 -70.166 C 63.3789 -70.166 79.0527 -54.4434 79.0527 -35.1562 C 79.0527 -15.8691 63.3789 -0.146484 44.043 -0.146484 Z M 21.7773 -42.5781 L 66.3086 -42.5781 L 66.3086 -44.8242 C 66.3086 -48.1445 64.502 -50 61.1328 -50 L 40.6738 -50 C 38.8672 -50 38.1348 -50.1953 37.0605 -51.2207 L 36.0352 -52.1973 C 34.7168 -53.3691 34.082 -53.6133 32.0312 -53.6133 L 26.1719 -53.6133 C 23.2422 -53.6133 21.7773 -52.1484 21.7773 -49.2188 Z M 21.7773 -23.0957 C 21.7773 -19.6777 23.6328 -17.9688 26.9531 -17.9688 L 61.1816 -17.9688 C 64.502 -17.9688 66.3086 -19.7266 66.3086 -23.0957 L 66.3086 -40.5762 L 21.7773 -40.5762 Z"/>
  </g>
 </g>
</svg>
