<?xml version="1.0" encoding="UTF-8"?>
<!--Generator: Apple Native CoreSVG 129-->
<!DOCTYPE svg
PUBLIC "-//W3C//DTD SVG 1.1//EN"
       "http://www.w3.org/Graphics/SVG/1.1/DTD/svg11.dtd">
<svg version="1.1" xmlns="http://www.w3.org/2000/svg" xmlns:xlink="http://www.w3.org/1999/xlink" width="3300" height="2200">
 <!--glyph: "uni100A72.medium", point size: 100.000000, font version: "Version 16.0d9e1", template writer version: "8"-->
 <g id="Notes">
  <rect height="2200" id="artboard" style="fill:white;opacity:1" width="3300" x="0" y="0"/>
  <line id="" style="fill:none;stroke:black;opacity:1;stroke-width:0.5;" x1="263" x2="3036" y1="292" y2="292"/>
  <text style="stroke:none;fill:black;font-family:-apple-system,&quot;SF Pro Display&quot;,&quot;SF Pro Text&quot;,Helvetica,sans-serif;font-weight:bold;" transform="matrix(1 0 0 1 263 322)">Weight/Scale Variations</text>
  <text style="stroke:none;fill:black;font-family:-apple-system,&quot;SF Pro Display&quot;,&quot;SF Pro Text&quot;,Helvetica,sans-serif;text-anchor:middle;" transform="matrix(1 0 0 1 559.711 322)">Ultralight</text>
  <text style="stroke:none;fill:black;font-family:-apple-system,&quot;SF Pro Display&quot;,&quot;SF Pro Text&quot;,Helvetica,sans-serif;text-anchor:middle;" transform="matrix(1 0 0 1 856.422 322)">Thin</text>
  <text style="stroke:none;fill:black;font-family:-apple-system,&quot;SF Pro Display&quot;,&quot;SF Pro Text&quot;,Helvetica,sans-serif;text-anchor:middle;" transform="matrix(1 0 0 1 1153.13 322)">Light</text>
  <text style="stroke:none;fill:black;font-family:-apple-system,&quot;SF Pro Display&quot;,&quot;SF Pro Text&quot;,Helvetica,sans-serif;text-anchor:middle;" transform="matrix(1 0 0 1 1449.84 322)">Regular</text>
  <text style="stroke:none;fill:black;font-family:-apple-system,&quot;SF Pro Display&quot;,&quot;SF Pro Text&quot;,Helvetica,sans-serif;text-anchor:middle;" transform="matrix(1 0 0 1 1746.56 322)">Medium</text>
  <text style="stroke:none;fill:black;font-family:-apple-system,&quot;SF Pro Display&quot;,&quot;SF Pro Text&quot;,Helvetica,sans-serif;text-anchor:middle;" transform="matrix(1 0 0 1 2043.27 322)">Semibold</text>
  <text style="stroke:none;fill:black;font-family:-apple-system,&quot;SF Pro Display&quot;,&quot;SF Pro Text&quot;,Helvetica,sans-serif;text-anchor:middle;" transform="matrix(1 0 0 1 2339.98 322)">Bold</text>
  <text style="stroke:none;fill:black;font-family:-apple-system,&quot;SF Pro Display&quot;,&quot;SF Pro Text&quot;,Helvetica,sans-serif;text-anchor:middle;" transform="matrix(1 0 0 1 2636.69 322)">Heavy</text>
  <text style="stroke:none;fill:black;font-family:-apple-system,&quot;SF Pro Display&quot;,&quot;SF Pro Text&quot;,Helvetica,sans-serif;text-anchor:middle;" transform="matrix(1 0 0 1 2933.4 322)">Black</text>
  <line id="" style="fill:none;stroke:black;opacity:1;stroke-width:0.5;" x1="263" x2="3036" y1="1903" y2="1903"/>
  <g id="" transform="matrix(1 0 0 1 263 1933)">
   <path d="M 9.24805 0.830078 C 13.5547 0.830078 17.1387 -2.74414 17.1387 -7.05078 C 17.1387 -11.3574 13.5449 -14.9316 9.23828 -14.9316 C 4.94141 -14.9316 1.36719 -11.3574 1.36719 -7.05078 C 1.36719 -2.74414 4.95117 0.830078 9.24805 0.830078 Z M 9.24805 -0.654297 C 5.70312 -0.654297 2.87109 -3.49609 2.87109 -7.05078 C 2.87109 -10.6055 5.69336 -13.4473 9.23828 -13.4473 C 12.793 -13.4473 15.6348 -10.6055 15.6445 -7.05078 C 15.6543 -3.49609 12.8027 -0.654297 9.24805 -0.654297 Z M 9.22852 -3.62305 C 9.69727 -3.62305 9.9707 -3.93555 9.9707 -4.45312 L 9.9707 -6.31836 L 12.002 -6.31836 C 12.5 -6.31836 12.832 -6.57227 12.832 -7.04102 C 12.832 -7.51953 12.5195 -7.7832 12.002 -7.7832 L 9.9707 -7.7832 L 9.9707 -9.81445 C 9.9707 -10.332 9.69727 -10.6543 9.22852 -10.6543 C 8.75977 -10.6543 8.50586 -10.3125 8.50586 -9.81445 L 8.50586 -7.7832 L 6.49414 -7.7832 C 5.97656 -7.7832 5.64453 -7.51953 5.64453 -7.04102 C 5.64453 -6.57227 5.99609 -6.31836 6.49414 -6.31836 L 8.50586 -6.31836 L 8.50586 -4.45312 C 8.50586 -3.95508 8.75977 -3.62305 9.22852 -3.62305 Z"/>
  </g>
  <g id="" transform="matrix(1 0 0 1 281.506 1933)">
   <path d="M 11.709 2.91016 C 17.1582 2.91016 21.6699 -1.61133 21.6699 -7.05078 C 21.6699 -12.5 17.1484 -17.0117 11.6992 -17.0117 C 6.25977 -17.0117 1.74805 -12.5 1.74805 -7.05078 C 1.74805 -1.61133 6.26953 2.91016 11.709 2.91016 Z M 11.709 1.25 C 7.09961 1.25 3.41797 -2.44141 3.41797 -7.05078 C 3.41797 -11.6602 7.08984 -15.3516 11.6992 -15.3516 C 16.3086 -15.3516 20 -11.6602 20.0098 -7.05078 C 20.0195 -2.44141 16.3184 1.25 11.709 1.25 Z M 11.6797 -2.66602 C 12.207 -2.66602 12.5098 -3.01758 12.5098 -3.59375 L 12.5098 -6.23047 L 15.3223 -6.23047 C 15.8691 -6.23047 16.25 -6.51367 16.25 -7.03125 C 16.25 -7.55859 15.8887 -7.86133 15.3223 -7.86133 L 12.5098 -7.86133 L 12.5098 -10.6836 C 12.5098 -11.25 12.207 -11.6113 11.6797 -11.6113 C 11.1621 -11.6113 10.8789 -11.2305 10.8789 -10.6836 L 10.8789 -7.86133 L 8.07617 -7.86133 C 7.50977 -7.86133 7.13867 -7.55859 7.13867 -7.03125 C 7.13867 -6.51367 7.5293 -6.23047 8.07617 -6.23047 L 10.8789 -6.23047 L 10.8789 -3.59375 C 10.8789 -3.03711 11.1621 -2.66602 11.6797 -2.66602 Z"/>
  </g>
  <g id="" transform="matrix(1 0 0 1 304.924 1933)">
   <path d="M 14.9707 5.66406 C 21.9336 5.66406 27.6953 -0.0976562 27.6953 -7.05078 C 27.6953 -14.0137 21.9238 -19.7754 14.9609 -19.7754 C 8.00781 -19.7754 2.25586 -14.0137 2.25586 -7.05078 C 2.25586 -0.0976562 8.01758 5.66406 14.9707 5.66406 Z M 14.9707 3.84766 C 8.93555 3.84766 4.08203 -1.01562 4.08203 -7.05078 C 4.08203 -13.0957 8.92578 -17.9492 14.9609 -17.9492 C 21.0059 -17.9492 25.8594 -13.0957 25.8691 -7.05078 C 25.8789 -1.01562 21.0156 3.84766 14.9707 3.84766 Z M 14.9414 -1.38672 C 15.5176 -1.38672 15.8594 -1.77734 15.8594 -2.38281 L 15.8594 -6.13281 L 19.7754 -6.13281 C 20.3711 -6.13281 20.7812 -6.46484 20.7812 -7.02148 C 20.7812 -7.59766 20.3906 -7.93945 19.7754 -7.93945 L 15.8594 -7.93945 L 15.8594 -11.8652 C 15.8594 -12.4805 15.5176 -12.8711 14.9414 -12.8711 C 14.375 -12.8711 14.0527 -12.4609 14.0527 -11.8652 L 14.0527 -7.93945 L 10.1465 -7.93945 C 9.53125 -7.93945 9.13086 -7.59766 9.13086 -7.02148 C 9.13086 -6.46484 9.55078 -6.13281 10.1465 -6.13281 L 14.0527 -6.13281 L 14.0527 -2.38281 C 14.0527 -1.79688 14.375 -1.38672 14.9414 -1.38672 Z"/>
  </g>
  <text style="stroke:none;fill:black;font-family:-apple-system,&quot;SF Pro Display&quot;,&quot;SF Pro Text&quot;,Helvetica,sans-serif;font-weight:bold;" transform="matrix(1 0 0 1 263 1953)">Design Variations</text>
  <text style="stroke:none;fill:black;font-family:-apple-system,&quot;SF Pro Display&quot;,&quot;SF Pro Text&quot;,Helvetica,sans-serif;" transform="matrix(1 0 0 1 263 1971)">Symbols are supported in up to nine weights and three scales.</text>
  <text style="stroke:none;fill:black;font-family:-apple-system,&quot;SF Pro Display&quot;,&quot;SF Pro Text&quot;,Helvetica,sans-serif;" transform="matrix(1 0 0 1 263 1989)">For optimal layout with text and other symbols, vertically align</text>
  <text style="stroke:none;fill:black;font-family:-apple-system,&quot;SF Pro Display&quot;,&quot;SF Pro Text&quot;,Helvetica,sans-serif;" transform="matrix(1 0 0 1 263 2007)">symbols with the adjacent text.</text>
  <line id="" style="fill:none;stroke:#00AEEF;stroke-width:0.5;opacity:1.0;" x1="776" x2="776" y1="1919" y2="1933"/>
  <g id="" transform="matrix(1 0 0 1 776 1933)">
   <path d="M 3.31055 0.126953 C 3.82812 0.126953 4.08203 -0.0683594 4.26758 -0.605469 L 5.52734 -4.0625 L 11.2891 -4.0625 L 12.5488 -0.605469 C 12.7344 -0.0683594 12.9883 0.126953 13.4961 0.126953 C 14.0137 0.126953 14.3457 -0.185547 14.3457 -0.673828 C 14.3457 -0.839844 14.3164 -0.986328 14.2383 -1.20117 L 9.6582 -13.3887 C 9.43359 -13.9941 9.0332 -14.2871 8.4082 -14.2871 C 7.80273 -14.2871 7.39258 -13.9941 7.17773 -13.3984 L 2.59766 -1.19141 C 2.51953 -0.976562 2.49023 -0.830078 2.49023 -0.664062 C 2.49023 -0.175781 2.80273 0.126953 3.31055 0.126953 Z M 6.00586 -5.53711 L 8.37891 -12.1094 L 8.42773 -12.1094 L 10.8008 -5.53711 Z"/>
  </g>
  <line id="" style="fill:none;stroke:#00AEEF;stroke-width:0.5;opacity:1.0;" x1="792.836" x2="792.836" y1="1919" y2="1933"/>
  <text style="stroke:none;fill:black;font-family:-apple-system,&quot;SF Pro Display&quot;,&quot;SF Pro Text&quot;,Helvetica,sans-serif;font-weight:bold;" transform="matrix(1 0 0 1 776 1953)">Margins</text>
  <text style="stroke:none;fill:black;font-family:-apple-system,&quot;SF Pro Display&quot;,&quot;SF Pro Text&quot;,Helvetica,sans-serif;" transform="matrix(1 0 0 1 776 1971)">Leading and trailing margins on the left and right side of each symbol</text>
  <text style="stroke:none;fill:black;font-family:-apple-system,&quot;SF Pro Display&quot;,&quot;SF Pro Text&quot;,Helvetica,sans-serif;" transform="matrix(1 0 0 1 776 1989)">can be adjusted by modifying the x-location of the margin guidelines.</text>
  <text style="stroke:none;fill:black;font-family:-apple-system,&quot;SF Pro Display&quot;,&quot;SF Pro Text&quot;,Helvetica,sans-serif;" transform="matrix(1 0 0 1 776 2007)">Modifications are automatically applied proportionally to all</text>
  <text style="stroke:none;fill:black;font-family:-apple-system,&quot;SF Pro Display&quot;,&quot;SF Pro Text&quot;,Helvetica,sans-serif;" transform="matrix(1 0 0 1 776 2025)">scales and weights.</text>
  <g id="" transform="matrix(1 0 0 1 1289 1933)">
   <path d="M 2.8418 1.86523 L 4.54102 3.57422 C 5.40039 4.44336 6.38672 4.38477 7.31445 3.35938 L 17.4902 -7.85156 C 17.7539 -7.76367 18.0273 -7.7832 18.3398 -7.8418 L 19.4043 -8.03711 L 20.0684 -7.36328 L 20.0293 -6.80664 C 19.9902 -6.30859 20.1172 -5.92773 20.6055 -5.44922 L 21.3672 -4.70703 C 21.8457 -4.22852 22.4609 -4.19922 22.9297 -4.66797 L 25.8398 -7.58789 C 26.3086 -8.05664 26.2891 -8.65234 25.8105 -9.13086 L 25.0391 -9.89258 C 24.5605 -10.3711 24.1895 -10.5273 23.7109 -10.4883 L 23.1348 -10.4395 L 22.4902 -11.0742 L 22.7344 -12.1973 C 22.8613 -12.7637 22.7051 -13.2031 22.1191 -13.7891 L 19.9219 -15.9766 C 16.582 -19.2969 12.1484 -19.2188 9.25781 -16.3281 C 8.83789 -15.918 8.80859 -15.3418 9.04297 -14.9512 C 9.27734 -14.5898 9.73633 -14.3555 10.3809 -14.5215 C 11.8457 -14.8633 13.3691 -14.9219 14.7949 -13.9844 L 14.209 -12.5293 C 14.0137 -12.0508 13.9844 -11.6504 14.1113 -11.2891 L 3.04688 -0.898438 C 2.06055 0.0195312 1.98242 0.996094 2.8418 1.86523 Z M 10.752 -15.957 C 13.1836 -17.7344 16.4746 -17.4316 18.7012 -15.2051 L 21.1328 -12.793 C 21.3672 -12.5586 21.4062 -12.373 21.3379 -12.0312 L 21.0156 -10.5469 L 22.5195 -9.0625 L 23.5059 -9.12109 C 23.7598 -9.13086 23.8379 -9.11133 24.0332 -8.91602 L 24.6094 -8.33984 L 22.168 -5.89844 L 21.5918 -6.47461 C 21.3965 -6.66992 21.3672 -6.74805 21.377 -7.01172 L 21.4453 -7.98828 L 19.9512 -9.47266 L 18.4277 -9.21875 C 18.1055 -9.15039 17.959 -9.17969 17.7148 -9.41406 L 15.7129 -11.416 C 15.459 -11.6504 15.4297 -11.8164 15.5859 -12.1875 L 16.4648 -14.2773 C 14.9023 -15.7324 12.8711 -16.3574 10.8398 -15.7617 C 10.6836 -15.7227 10.625 -15.8496 10.752 -15.957 Z M 5.27344 2.30469 L 4.10156 1.14258 C 3.63281 0.683594 3.74023 0.341797 4.14062 -0.0195312 L 14.9512 -10.1953 L 16.416 -8.71094 L 6.42578 2.27539 C 6.07422 2.67578 5.74219 2.77344 5.27344 2.30469 Z"/>
  </g>
  <text style="stroke:none;fill:black;font-family:-apple-system,&quot;SF Pro Display&quot;,&quot;SF Pro Text&quot;,Helvetica,sans-serif;font-weight:bold;" transform="matrix(1 0 0 1 1289 1953)">Exporting</text>
  <text style="stroke:none;fill:black;font-family:-apple-system,&quot;SF Pro Display&quot;,&quot;SF Pro Text&quot;,Helvetica,sans-serif;" transform="matrix(1 0 0 1 1289 1971)">Symbols should be outlined when exporting to ensure the</text>
  <text style="stroke:none;fill:black;font-family:-apple-system,&quot;SF Pro Display&quot;,&quot;SF Pro Text&quot;,Helvetica,sans-serif;" transform="matrix(1 0 0 1 1289 1989)">design is preserved when submitting to Xcode.</text>
  <text id="template-version" style="stroke:none;fill:black;font-family:-apple-system,&quot;SF Pro Display&quot;,&quot;SF Pro Text&quot;,Helvetica,sans-serif;text-anchor:end;" transform="matrix(1 0 0 1 3036 1933)">Template v.2.0</text>
  <text style="stroke:none;fill:black;font-family:-apple-system,&quot;SF Pro Display&quot;,&quot;SF Pro Text&quot;,Helvetica,sans-serif;text-anchor:end;" transform="matrix(1 0 0 1 3036 1951)">Requires Xcode 12 or greater</text>
  <text style="stroke:none;fill:black;font-family:-apple-system,&quot;SF Pro Display&quot;,&quot;SF Pro Text&quot;,Helvetica,sans-serif;text-anchor:end;" transform="matrix(1 0 0 1 3036 1969)">Generated from rectangle.connected.to.line.below</text>
  <text style="stroke:none;fill:black;font-family:-apple-system,&quot;SF Pro Display&quot;,&quot;SF Pro Text&quot;,Helvetica,sans-serif;text-anchor:end;" transform="matrix(1 0 0 1 3036 1987)">Typeset at 100 points</text>
  <text style="stroke:none;fill:black;font-family:-apple-system,&quot;SF Pro Display&quot;,&quot;SF Pro Text&quot;,Helvetica,sans-serif;" transform="matrix(1 0 0 1 263 726)">Small</text>
  <text style="stroke:none;fill:black;font-family:-apple-system,&quot;SF Pro Display&quot;,&quot;SF Pro Text&quot;,Helvetica,sans-serif;" transform="matrix(1 0 0 1 263 1156)">Medium</text>
  <text style="stroke:none;fill:black;font-family:-apple-system,&quot;SF Pro Display&quot;,&quot;SF Pro Text&quot;,Helvetica,sans-serif;" transform="matrix(1 0 0 1 263 1586)">Large</text>
 </g>
 <g id="Guides">
  <g id="H-reference" style="fill:#27AAE1;stroke:none;" transform="matrix(1 0 0 1 339 696)">
   <path d="M 0.976562 0 L 3.66211 0 L 12.9883 -24.4629 L 45.7031 -24.4629 L 55.0781 0 L 57.7148 0 L 30.6152 -70.459 L 28.125 -70.459 Z M 29.2969 -67.1387 L 29.3945 -67.1387 L 44.873 -26.709 L 13.8672 -26.709 Z"/>
  </g>
  <line id="Baseline-S" style="fill:none;stroke:#27AAE1;opacity:1;stroke-width:0.5;" x1="263" x2="3036" y1="696" y2="696"/>
  <line id="Capline-S" style="fill:none;stroke:#27AAE1;opacity:1;stroke-width:0.5;" x1="263" x2="3036" y1="625.541" y2="625.541"/>
  <g id="H-reference" style="fill:#27AAE1;stroke:none;" transform="matrix(1 0 0 1 339 1126)">
   <path d="M 0.976562 0 L 3.66211 0 L 12.9883 -24.4629 L 45.7031 -24.4629 L 55.0781 0 L 57.7148 0 L 30.6152 -70.459 L 28.125 -70.459 Z M 29.2969 -67.1387 L 29.3945 -67.1387 L 44.873 -26.709 L 13.8672 -26.709 Z"/>
  </g>
  <line id="Baseline-M" style="fill:none;stroke:#27AAE1;opacity:1;stroke-width:0.5;" x1="263" x2="3036" y1="1126" y2="1126"/>
  <line id="Capline-M" style="fill:none;stroke:#27AAE1;opacity:1;stroke-width:0.5;" x1="263" x2="3036" y1="1055.54" y2="1055.54"/>
  <g id="H-reference" style="fill:#27AAE1;stroke:none;" transform="matrix(1 0 0 1 339 1556)">
   <path d="M 0.976562 0 L 3.66211 0 L 12.9883 -24.4629 L 45.7031 -24.4629 L 55.0781 0 L 57.7148 0 L 30.6152 -70.459 L 28.125 -70.459 Z M 29.2969 -67.1387 L 29.3945 -67.1387 L 44.873 -26.709 L 13.8672 -26.709 Z"/>
  </g>
  <line id="Baseline-L" style="fill:none;stroke:#27AAE1;opacity:1;stroke-width:0.5;" x1="263" x2="3036" y1="1556" y2="1556"/>
  <line id="Capline-L" style="fill:none;stroke:#27AAE1;opacity:1;stroke-width:0.5;" x1="263" x2="3036" y1="1485.54" y2="1485.54"/>
  <line id="left-margin" style="fill:none;stroke:#00AEEF;stroke-width:0.5;opacity:1.0;" x1="1392.86" x2="1392.86" y1="1030.79" y2="1150.12"/>
  <line id="right-margin" style="fill:none;stroke:#00AEEF;stroke-width:0.5;opacity:1.0;" x1="1506.83" x2="1506.83" y1="1030.79" y2="1150.12"/>
 </g>
 <g id="Symbols">
  <g id="Black-L" transform="matrix(1 0 0 1 2850.66 1556)">
   <path d="M 39.9902 0.390625 L 73.0957 0.390625 L 73.0957 10.791 C 70.3125 12.4512 67.9688 14.7461 66.3086 17.5293 L 25.7812 17.5293 C 20.4102 17.5293 16.0645 21.9238 16.0645 27.2461 C 16.0645 32.5684 20.4102 36.9629 25.7812 36.9629 L 66.1621 36.9629 C 69.4824 42.6758 75.6836 46.5332 82.7637 46.5332 C 89.7949 46.5332 95.9961 42.6758 99.3164 36.9629 L 139.795 36.9629 C 145.068 36.9629 149.414 32.5684 149.414 27.2461 C 149.414 21.9238 145.068 17.5293 139.795 17.5293 L 99.1699 17.5293 C 97.5586 14.7949 95.2148 12.4512 92.4316 10.8398 L 92.4316 0.390625 L 125.537 0.390625 C 140.771 0.390625 149.414 -8.25195 149.414 -23.4375 L 149.414 -83.2031 C 149.414 -98.3887 140.771 -107.031 125.537 -107.031 L 39.9902 -107.031 C 24.707 -107.031 16.0645 -98.3887 16.0645 -83.2031 L 16.0645 -23.4375 C 16.0645 -8.25195 24.707 0.390625 39.9902 0.390625 Z M 42.6758 -19.873 C 38.4766 -19.873 36.3281 -21.7285 36.3281 -26.2695 L 36.3281 -80.3223 C 36.3281 -84.8633 38.4766 -86.7676 42.6758 -86.7676 L 122.803 -86.7676 C 127.002 -86.7676 129.199 -84.8633 129.199 -80.3223 L 129.199 -26.2695 C 129.199 -21.7285 127.002 -19.873 122.803 -19.873 Z"/>
  </g>
  <g id="Heavy-L" transform="matrix(1 0 0 1 2556.54 1556)">
   <path d="M 38.8184 -1.31836 L 71.7773 -1.31836 L 71.7773 10.498 C 68.7988 12.1094 66.3086 14.5508 64.6484 17.5293 L 24.5117 17.5293 C 19.873 17.5293 16.0645 21.3379 16.0645 25.9766 C 16.0645 30.6152 19.873 34.4238 24.5117 34.4238 L 64.502 34.4238 C 67.4805 39.9902 73.4375 43.8477 80.1758 43.8477 C 86.9141 43.8477 92.8223 39.9902 95.8008 34.4238 L 135.84 34.4238 C 140.479 34.4238 144.238 30.6152 144.238 25.9766 C 144.238 21.3379 140.479 17.5293 135.84 17.5293 L 95.7031 17.5293 C 94.043 14.5508 91.5527 12.1094 88.623 10.498 L 88.623 -1.31836 L 121.533 -1.31836 C 136.133 -1.31836 144.238 -9.42383 144.238 -23.9746 L 144.238 -82.4219 C 144.238 -96.9727 136.133 -105.078 121.533 -105.078 L 38.8184 -105.078 C 24.1699 -105.078 16.0645 -96.9727 16.0645 -82.4219 L 16.0645 -23.9746 C 16.0645 -9.42383 24.1699 -1.31836 38.8184 -1.31836 Z M 40.918 -18.8477 C 36.1328 -18.8477 33.5938 -21.1426 33.5938 -26.2695 L 33.5938 -80.127 C 33.5938 -85.2539 36.1328 -87.5488 40.918 -87.5488 L 119.385 -87.5488 C 124.17 -87.5488 126.758 -85.2539 126.758 -80.127 L 126.758 -26.2695 C 126.758 -21.1426 124.17 -18.8477 119.385 -18.8477 Z"/>
  </g>
  <g id="Bold-L" transform="matrix(1 0 0 1 2262.71 1556)">
   <path d="M 37.5 -3.27148 L 70.2637 -3.27148 L 70.2637 10.1562 C 67.041 11.7188 64.4043 14.3066 62.793 17.5293 L 23.0957 17.5293 C 19.2383 17.5293 16.0645 20.7031 16.0645 24.5605 C 16.0645 28.418 19.2383 31.543 23.0957 31.543 L 62.6953 31.543 C 65.2832 37.0117 70.8496 40.8203 77.2949 40.8203 C 83.6914 40.8203 89.2578 37.0117 91.8457 31.543 L 131.494 31.543 C 135.303 31.543 138.477 28.418 138.477 24.5605 C 138.477 20.7031 135.303 17.5293 131.494 17.5293 L 91.748 17.5293 C 90.1367 14.3066 87.5 11.7188 84.2773 10.1562 L 84.2773 -3.27148 L 117.041 -3.27148 C 130.957 -3.27148 138.477 -10.7422 138.477 -24.5605 L 138.477 -81.5918 C 138.477 -95.4102 130.957 -102.881 117.041 -102.881 L 37.5 -102.881 C 23.584 -102.881 16.0645 -95.4102 16.0645 -81.5918 L 16.0645 -24.5605 C 16.0645 -10.7422 23.584 -3.27148 37.5 -3.27148 Z M 38.9648 -17.6758 C 33.4961 -17.6758 30.5176 -20.459 30.5176 -26.2207 L 30.5176 -79.9316 C 30.5176 -85.6934 33.4961 -88.4277 38.9648 -88.4277 L 115.576 -88.4277 C 121.045 -88.4277 124.023 -85.6934 124.023 -79.9316 L 124.023 -26.2207 C 124.023 -20.459 121.045 -17.6758 115.576 -17.6758 Z"/>
  </g>
  <g id="Semibold-L" transform="matrix(1 0 0 1 1968 1556)">
   <path d="M 36.6211 -4.58984 L 69.2383 -4.58984 L 69.2383 9.91211 C 65.8691 11.4258 63.1348 14.1602 61.5723 17.5293 L 22.1191 17.5293 C 18.7988 17.5293 16.0645 20.2637 16.0645 23.5352 C 16.0645 26.8555 18.7988 29.5898 22.1191 29.5898 L 61.4746 29.5898 C 63.7695 34.9609 69.1406 38.7207 75.293 38.7207 C 81.4453 38.7207 86.7676 34.9609 89.1113 29.5898 L 128.467 29.5898 C 131.787 29.5898 134.473 26.8555 134.473 23.5352 C 134.473 20.2637 131.787 17.5293 128.467 17.5293 L 88.9648 17.5293 C 87.4512 14.1602 84.7168 11.4258 81.2988 9.96094 L 81.2988 -4.58984 L 113.916 -4.58984 C 127.393 -4.58984 134.473 -11.6699 134.473 -25 L 134.473 -81.0059 C 134.473 -94.2871 127.393 -101.416 113.916 -101.416 L 36.6211 -101.416 C 23.1445 -101.416 16.0645 -94.2871 16.0645 -81.0059 L 16.0645 -25 C 16.0645 -11.6699 23.1445 -4.58984 36.6211 -4.58984 Z M 37.5977 -16.8945 C 31.6895 -16.8945 28.418 -19.9707 28.418 -26.2207 L 28.418 -79.7852 C 28.418 -85.9863 31.6895 -89.0625 37.5977 -89.0625 L 112.939 -89.0625 C 118.848 -89.0625 122.168 -85.9863 122.168 -79.7852 L 122.168 -26.2207 C 122.168 -19.9707 118.848 -16.8945 112.939 -16.8945 Z"/>
  </g>
  <g id="Medium-L" transform="matrix(1 0 0 1 1672.78 1556)">
   <path d="M 21.3379 28.125 L 60.5469 28.125 C 62.6465 33.3984 67.7734 37.1582 73.7793 37.1582 C 79.7363 37.1582 84.9121 33.3984 87.0117 28.125 L 126.172 28.125 C 129.102 28.125 131.494 25.7324 131.494 22.8027 C 131.494 19.9219 129.102 17.5293 126.172 17.5293 L 86.8652 17.5293 C 85.4004 14.0137 82.5684 11.2305 79.0527 9.81445 L 79.0527 -5.56641 L 111.572 -5.56641 C 124.707 -5.56641 131.494 -12.3535 131.494 -25.293 L 131.494 -80.5664 C 131.494 -93.457 124.707 -100.244 111.572 -100.244 L 35.9375 -100.244 C 22.8516 -100.244 16.0645 -93.457 16.0645 -80.5664 L 16.0645 -25.293 C 16.0645 -12.3535 22.8516 -5.56641 35.9375 -5.56641 L 68.5059 -5.56641 L 68.5059 9.81445 C 64.9902 11.2305 62.1582 14.0137 60.6445 17.5293 L 21.3379 17.5293 C 18.457 17.5293 16.0645 19.9219 16.0645 22.8027 C 16.0645 25.7324 18.457 28.125 21.3379 28.125 Z M 36.5723 -16.3086 C 30.3223 -16.3086 26.8066 -19.6289 26.8066 -26.1719 L 26.8066 -79.6387 C 26.8066 -86.2305 30.3223 -89.502 36.5723 -89.502 L 110.938 -89.502 C 117.188 -89.502 120.752 -86.2305 120.752 -79.6387 L 120.752 -26.1719 C 120.752 -19.6289 117.188 -16.3086 110.938 -16.3086 Z"/>
  </g>
  <g id="Regular-L" transform="matrix(1 0 0 1 1378.04 1556)">
   <path d="M 20.4102 26.1719 L 59.375 26.1719 C 61.1328 31.3477 66.0645 35.1074 71.7773 35.1074 C 77.5391 35.1074 82.4707 31.3477 84.2285 26.1719 L 123.193 26.1719 C 125.586 26.1719 127.539 24.2188 127.539 21.8262 C 127.539 19.4824 125.586 17.5293 123.193 17.5293 L 84.082 17.5293 C 82.7637 13.8672 79.7852 10.9375 76.123 9.61914 L 76.123 -6.88477 L 108.496 -6.88477 C 121.143 -6.88477 127.539 -13.2812 127.539 -25.6836 L 127.539 -79.9805 C 127.539 -92.3828 121.143 -98.7793 108.496 -98.7793 L 35.0586 -98.7793 C 22.4121 -98.7793 16.0645 -92.3828 16.0645 -79.9805 L 16.0645 -25.6836 C 16.0645 -13.2812 22.4121 -6.88477 35.0586 -6.88477 L 67.4805 -6.88477 L 67.4805 9.61914 C 63.7695 10.9375 60.8398 13.8672 59.4727 17.5293 L 20.4102 17.5293 C 18.0176 17.5293 16.0645 19.4824 16.0645 21.8262 C 16.0645 24.2188 18.0176 26.1719 20.4102 26.1719 Z M 35.2539 -15.5273 C 28.5645 -15.5273 24.707 -19.1406 24.707 -26.1719 L 24.707 -79.4922 C 24.707 -86.5234 28.5645 -90.1367 35.2539 -90.1367 L 108.35 -90.1367 C 115.039 -90.1367 118.896 -86.5234 118.896 -79.4922 L 118.896 -26.1719 C 118.896 -19.1406 115.039 -15.5273 108.35 -15.5273 Z"/>
  </g>
  <g id="Light-L" transform="matrix(1 0 0 1 1083.68 1556)">
   <path d="M 19.3848 23.6816 L 58.3008 23.6816 C 59.668 28.5645 64.1602 32.1777 69.4336 32.1777 C 74.707 32.1777 79.248 28.5645 80.6152 23.6816 L 119.531 23.6816 C 121.338 23.6816 122.852 22.168 122.852 20.3613 C 122.852 18.5547 121.338 17.041 119.531 17.041 L 80.4688 17.041 C 79.248 13.4766 76.3672 10.6445 72.7539 9.52148 L 72.7539 -8.10547 L 104.883 -8.10547 C 116.748 -8.10547 122.852 -14.2578 122.852 -25.9277 L 122.852 -78.8086 C 122.852 -90.4785 116.748 -96.6309 104.883 -96.6309 L 34.0332 -96.6309 C 22.168 -96.6309 16.0645 -90.4785 16.0645 -78.8086 L 16.0645 -25.9277 C 16.0645 -14.2578 22.168 -8.10547 34.0332 -8.10547 L 66.1621 -8.10547 L 66.1621 9.52148 C 62.5488 10.6445 59.6191 13.4766 58.4473 17.041 L 19.3848 17.041 C 17.5781 17.041 16.0645 18.5547 16.0645 20.3613 C 16.0645 22.168 17.5781 23.6816 19.3848 23.6816 Z M 34.1797 -14.6973 C 26.9043 -14.6973 22.7051 -18.6523 22.7051 -26.2695 L 22.7051 -78.4668 C 22.7051 -86.084 26.9043 -90.0391 34.1797 -90.0391 L 104.688 -90.0391 C 112.012 -90.0391 116.211 -86.084 116.211 -78.4668 L 116.211 -26.2695 C 116.211 -18.6523 112.012 -14.6973 104.688 -14.6973 Z"/>
  </g>
  <g id="Thin-L" transform="matrix(1 0 0 1 790.089 1556)">
   <path d="M 18.0176 20.3613 L 56.9336 20.3613 C 57.7148 24.8535 61.6699 28.3203 66.3574 28.3203 C 70.9961 28.3203 74.9512 24.8535 75.7324 20.3613 L 114.648 20.3613 C 115.723 20.3613 116.602 19.4824 116.602 18.4082 C 116.602 17.334 115.723 16.4551 114.648 16.4551 L 75.5859 16.4551 C 74.707 12.9395 71.8262 10.2051 68.3105 9.42383 L 68.3105 -9.66797 L 100 -9.66797 C 110.889 -9.66797 116.602 -15.5273 116.602 -26.2695 L 116.602 -77.2461 C 116.602 -87.9883 110.889 -93.8477 100 -93.8477 L 32.666 -93.8477 C 21.7773 -93.8477 16.0645 -87.9883 16.0645 -77.2461 L 16.0645 -26.2695 C 16.0645 -15.5273 21.7773 -9.66797 32.666 -9.66797 L 64.4043 -9.66797 L 64.4043 9.42383 C 60.8398 10.2051 58.0078 12.9395 57.0801 16.4551 L 18.0176 16.4551 C 16.9434 16.4551 16.0645 17.334 16.0645 18.4082 C 16.0645 19.4824 16.9434 20.3613 18.0176 20.3613 Z M 32.8125 -13.623 C 24.707 -13.623 19.9707 -18.0176 19.9707 -26.4648 L 19.9707 -77.0508 C 19.9707 -85.498 24.707 -89.8926 32.8125 -89.8926 L 99.8535 -89.8926 C 108.008 -89.8926 112.695 -85.498 112.695 -77.0508 L 112.695 -26.4648 C 112.695 -18.0176 108.008 -13.623 99.8535 -13.623 Z"/>
  </g>
  <g id="Ultralight-L" transform="matrix(1 0 0 1 494.965 1556)">
   <path d="M 17.334 18.7012 L 56.2988 18.7012 C 56.7383 22.9492 60.4004 26.3184 64.7461 26.3184 C 69.0918 26.3184 72.7539 22.9492 73.1934 18.7012 L 112.158 18.7012 C 112.891 18.7012 113.428 18.1152 113.428 17.3828 C 113.428 16.6992 112.891 16.1133 112.158 16.1133 L 73.0957 16.1133 C 72.3633 12.6953 69.5312 9.96094 66.0156 9.42383 L 66.0156 -10.498 L 97.5586 -10.498 C 107.91 -10.498 113.428 -16.2109 113.428 -26.416 L 113.428 -76.4648 C 113.428 -86.6699 107.91 -92.3828 97.5586 -92.3828 L 31.9824 -92.3828 C 21.582 -92.3828 16.0645 -86.6699 16.0645 -76.4648 L 16.0645 -26.416 C 16.0645 -16.2109 21.582 -10.498 31.9824 -10.498 L 63.4766 -10.498 L 63.4766 9.42383 C 60.0098 9.96094 57.1289 12.6953 56.4453 16.1133 L 17.334 16.1133 C 16.6504 16.1133 16.0645 16.6992 16.0645 17.3828 C 16.0645 18.1152 16.6504 18.7012 17.334 18.7012 Z M 32.1289 -13.0371 C 23.584 -13.0371 18.6035 -17.6758 18.6035 -26.5625 L 18.6035 -76.3184 C 18.6035 -85.2539 23.584 -89.8438 32.1289 -89.8438 L 97.3633 -89.8438 C 105.957 -89.8438 110.889 -85.2539 110.889 -76.3184 L 110.889 -26.5625 C 110.889 -17.6758 105.957 -13.0371 97.3633 -13.0371 Z"/>
  </g>
  <g id="Black-M" transform="matrix(1 0 0 1 2867.04 1126)">
   <path d="M 21.1426 22.8027 L 52.8809 22.8027 C 55.7617 27.2461 60.7422 30.2246 66.3574 30.2246 C 71.9727 30.2246 76.9531 27.2461 79.834 22.8027 L 111.621 22.8027 C 116.357 22.8027 120.264 18.8965 120.264 14.1113 C 120.264 9.32617 116.357 5.41992 111.621 5.41992 L 79.6387 5.41992 C 78.4668 3.61328 76.8555 2.05078 75.0488 0.878906 L 75.0488 -5.95703 L 100.732 -5.95703 C 112.988 -5.95703 120.264 -13.2324 120.264 -25.4883 L 120.264 -72.8027 C 120.264 -85.0586 112.988 -92.334 100.732 -92.334 L 31.9824 -92.334 C 19.7266 -92.334 12.4512 -85.0586 12.4512 -72.8027 L 12.4512 -25.4883 C 12.4512 -13.2324 19.7266 -5.95703 31.9824 -5.95703 L 57.7148 -5.95703 L 57.7148 0.830078 C 55.8594 2.00195 54.2969 3.56445 53.0762 5.41992 L 21.1426 5.41992 C 16.3574 5.41992 12.4512 9.32617 12.4512 14.1113 C 12.4512 18.8965 16.3574 22.8027 21.1426 22.8027 Z M 34.9121 -24.2676 C 32.0801 -24.2676 30.7617 -25.3418 30.7617 -28.418 L 30.7617 -69.873 C 30.7617 -72.9492 32.0801 -74.0723 34.9121 -74.0723 L 97.8027 -74.0723 C 100.635 -74.0723 101.953 -72.9492 101.953 -69.873 L 101.953 -28.418 C 101.953 -25.3418 100.635 -24.2676 97.8027 -24.2676 Z"/>
  </g>
  <g id="Heavy-M" transform="matrix(1 0 0 1 2572.55 1126)">
   <path d="M 20.0195 20.6543 L 51.3672 20.6543 C 53.9551 25.0488 58.7402 28.0273 64.1602 28.0273 C 69.5801 28.0273 74.3164 25.0488 76.9043 20.6543 L 108.301 20.6543 C 112.451 20.6543 115.82 17.2852 115.82 13.0859 C 115.82 8.93555 112.451 5.51758 108.301 5.51758 L 76.8066 5.51758 C 75.5371 3.4668 73.7793 1.75781 71.7285 0.488281 L 71.7285 -7.51953 L 97.3145 -7.51953 C 109.082 -7.51953 115.82 -14.2578 115.82 -26.0254 L 115.82 -72.2656 C 115.82 -84.0332 109.082 -90.7715 97.3145 -90.7715 L 31.0059 -90.7715 C 19.1895 -90.7715 12.4512 -84.0332 12.4512 -72.2656 L 12.4512 -26.0254 C 12.4512 -14.2578 19.1895 -7.51953 31.0059 -7.51953 L 56.6406 -7.51953 L 56.6406 0.488281 C 54.541 1.70898 52.7832 3.4668 51.5137 5.51758 L 20.0195 5.51758 C 15.8691 5.51758 12.4512 8.93555 12.4512 13.0859 C 12.4512 17.2852 15.8691 20.6543 20.0195 20.6543 Z M 33.252 -23.3398 C 29.9805 -23.3398 28.2715 -24.8047 28.2715 -28.3691 L 28.2715 -69.9707 C 28.2715 -73.4863 29.9805 -74.9512 33.252 -74.9512 L 95.0195 -74.9512 C 98.3398 -74.9512 100 -73.4863 100 -69.9707 L 100 -28.3691 C 100 -24.8047 98.3398 -23.3398 95.0195 -23.3398 Z"/>
  </g>
  <g id="Bold-M" transform="matrix(1 0 0 1 2278.31 1126)">
   <path d="M 18.75 18.3105 L 49.707 18.3105 C 51.9531 22.6074 56.4941 25.5859 61.6699 25.5859 C 66.8457 25.5859 71.3867 22.6074 73.6328 18.3105 L 104.59 18.3105 C 108.057 18.3105 110.889 15.4297 110.889 11.9629 C 110.889 8.49609 108.057 5.66406 104.59 5.66406 L 73.5352 5.66406 C 72.2656 3.32031 70.3125 1.41602 67.9688 0.146484 L 67.9688 -9.27734 L 93.457 -9.27734 C 104.688 -9.27734 110.889 -15.4297 110.889 -26.6113 L 110.889 -71.6797 C 110.889 -82.8613 104.688 -89.0137 93.457 -89.0137 L 29.8828 -89.0137 C 18.6523 -89.0137 12.4512 -82.8613 12.4512 -71.6797 L 12.4512 -26.6113 C 12.4512 -15.4297 18.6523 -9.27734 29.8828 -9.27734 L 55.3711 -9.27734 L 55.3711 0.146484 C 53.0273 1.36719 51.0742 3.32031 49.8047 5.66406 L 18.75 5.66406 C 15.2832 5.66406 12.4512 8.49609 12.4512 11.9629 C 12.4512 15.4297 15.2832 18.3105 18.75 18.3105 Z M 31.3965 -22.3633 C 27.5879 -22.3633 25.5371 -24.1699 25.5371 -28.2715 L 25.5371 -70.0195 C 25.5371 -74.0723 27.5879 -75.9277 31.3965 -75.9277 L 91.9434 -75.9277 C 95.752 -75.9277 97.8027 -74.0723 97.8027 -70.0195 L 97.8027 -28.2715 C 97.8027 -24.1699 95.752 -22.3633 91.9434 -22.3633 Z"/>
  </g>
  <g id="Semibold-M" transform="matrix(1 0 0 1 1983.31 1126)">
   <path d="M 17.9199 16.6504 L 48.584 16.6504 C 50.5859 20.8984 54.9805 23.877 59.9609 23.877 C 64.9414 23.877 69.3359 20.8984 71.3379 16.6504 L 102.051 16.6504 C 105.029 16.6504 107.471 14.209 107.471 11.1816 C 107.471 8.20312 105.029 5.76172 102.051 5.76172 L 71.2891 5.76172 C 70.0195 3.22266 67.9688 1.17188 65.4297 -0.0488281 L 65.4297 -10.498 L 90.8203 -10.498 C 101.66 -10.498 107.471 -16.2598 107.471 -27.002 L 107.471 -71.2891 C 107.471 -82.0312 101.66 -87.793 90.8203 -87.793 L 29.1016 -87.793 C 18.2617 -87.793 12.4512 -82.0312 12.4512 -71.2891 L 12.4512 -27.002 C 12.4512 -16.2598 18.2617 -10.498 29.1016 -10.498 L 54.541 -10.498 L 54.541 -0.0976562 C 52.002 1.17188 49.9023 3.22266 48.6328 5.76172 L 17.9199 5.76172 C 14.8926 5.76172 12.4512 8.20312 12.4512 11.1816 C 12.4512 14.209 14.8926 16.6504 17.9199 16.6504 Z M 30.127 -21.6309 C 25.9277 -21.6309 23.6328 -23.7793 23.6328 -28.2227 L 23.6328 -70.0684 C 23.6328 -74.5117 25.9277 -76.6113 30.127 -76.6113 L 89.7949 -76.6113 C 93.9941 -76.6113 96.2891 -74.5117 96.2891 -70.0684 L 96.2891 -28.2227 C 96.2891 -23.7793 93.9941 -21.6309 89.7949 -21.6309 Z"/>
  </g>
  <g id="Medium-M" transform="matrix(1 0 0 1 1687.89 1126)">
   <path d="M 17.2363 15.3809 L 47.7051 15.3809 C 49.5605 19.6289 53.8086 22.6074 58.6426 22.6074 C 63.5254 22.6074 67.7734 19.6289 69.6289 15.3809 L 100.098 15.3809 C 102.734 15.3809 104.883 13.2324 104.883 10.5957 C 104.883 8.00781 102.734 5.81055 100.098 5.81055 L 69.5312 5.81055 C 68.3105 3.125 66.1621 0.976562 63.4766 -0.195312 L 63.4766 -11.377 L 88.8184 -11.377 C 99.4141 -11.377 104.883 -16.8457 104.883 -27.2949 L 104.883 -70.9473 C 104.883 -81.3965 99.4141 -86.8652 88.8184 -86.8652 L 28.5156 -86.8652 C 17.9199 -86.8652 12.4512 -81.3965 12.4512 -70.9473 L 12.4512 -27.2949 C 12.4512 -16.8457 17.9199 -11.377 28.5156 -11.377 L 53.9062 -11.377 L 53.9062 -0.244141 C 51.1719 0.976562 49.0234 3.125 47.8027 5.81055 L 17.2363 5.81055 C 14.5996 5.81055 12.4512 8.00781 12.4512 10.5957 C 12.4512 13.2324 14.5996 15.3809 17.2363 15.3809 Z M 29.1504 -21.1426 C 24.707 -21.1426 22.168 -23.4863 22.168 -28.1738 L 22.168 -70.1172 C 22.168 -74.8047 24.707 -77.1484 29.1504 -77.1484 L 88.1836 -77.1484 C 92.627 -77.1484 95.166 -74.8047 95.166 -70.1172 L 95.166 -28.1738 C 95.166 -23.4863 92.627 -21.1426 88.1836 -21.1426 Z"/>
  </g>
  <g id="Regular-M" transform="matrix(1 0 0 1 1392.86 1126)">
   <path d="M 16.3574 13.7695 L 46.6309 13.7695 C 48.2422 17.9199 52.2949 20.9473 56.9824 20.9473 C 61.6699 20.9473 65.7227 17.9199 67.2852 13.7695 L 97.5586 13.7695 C 99.707 13.7695 101.514 12.0117 101.514 9.86328 C 101.514 7.66602 99.707 5.9082 97.5586 5.9082 L 67.2363 5.9082 C 66.1133 3.02734 63.8184 0.732422 60.8887 -0.390625 L 60.8887 -12.5977 L 86.1816 -12.5977 C 96.3867 -12.5977 101.514 -17.6758 101.514 -27.6855 L 101.514 -70.5566 C 101.514 -80.6152 96.3867 -85.6934 86.1816 -85.6934 L 27.7832 -85.6934 C 17.5293 -85.6934 12.4512 -80.6152 12.4512 -70.5566 L 12.4512 -27.6855 C 12.4512 -17.6758 17.5293 -12.5977 27.7832 -12.5977 L 53.0273 -12.5977 L 53.0273 -0.390625 C 50.1465 0.732422 47.8516 3.02734 46.7285 5.9082 L 16.3574 5.9082 C 14.209 5.9082 12.4512 7.66602 12.4512 9.86328 C 12.4512 12.0117 14.209 13.7695 16.3574 13.7695 Z M 27.8809 -20.459 C 23.0957 -20.459 20.3125 -23.0469 20.3125 -28.125 L 20.3125 -70.1172 C 20.3125 -75.1953 23.0957 -77.832 27.8809 -77.832 L 86.0352 -77.832 C 90.8691 -77.832 93.6523 -75.1953 93.6523 -70.1172 L 93.6523 -28.125 C 93.6523 -23.0469 90.8691 -20.459 86.0352 -20.459 Z"/>
  </g>
  <g id="Light-M" transform="matrix(1 0 0 1 1098.25 1126)">
   <path d="M 15.4785 11.5234 L 45.6543 11.5234 C 46.875 15.4297 50.5859 18.3105 54.8828 18.3105 C 59.1797 18.3105 62.8418 15.4297 64.0625 11.5234 L 94.2871 11.5234 C 95.9473 11.5234 97.3145 10.1562 97.3145 8.49609 C 97.3145 6.88477 95.9473 5.51758 94.2871 5.51758 L 63.9648 5.51758 C 62.9883 2.68555 60.7422 0.439453 57.9102 -0.488281 L 57.9102 -13.6719 L 82.9102 -13.6719 C 92.4316 -13.6719 97.3145 -18.5547 97.3145 -27.9297 L 97.3145 -69.5312 C 97.3145 -78.9062 92.4316 -83.7891 82.9102 -83.7891 L 26.8555 -83.7891 C 17.2852 -83.7891 12.4512 -78.9062 12.4512 -69.5312 L 12.4512 -27.9297 C 12.4512 -18.5547 17.2852 -13.6719 26.8555 -13.6719 L 51.8555 -13.6719 L 51.8555 -0.488281 C 49.0234 0.439453 46.7773 2.68555 45.752 5.51758 L 15.4785 5.51758 C 13.8184 5.51758 12.4512 6.88477 12.4512 8.49609 C 12.4512 10.1562 13.8184 11.5234 15.4785 11.5234 Z M 26.9531 -19.6777 C 21.582 -19.6777 18.5059 -22.6074 18.5059 -28.2227 L 18.5059 -69.1895 C 18.5059 -74.8535 21.582 -77.7344 26.9531 -77.7344 L 82.7637 -77.7344 C 88.1836 -77.7344 91.2598 -74.8535 91.2598 -69.1895 L 91.2598 -28.2227 C 91.2598 -22.6074 88.1836 -19.6777 82.7637 -19.6777 Z"/>
  </g>
  <g id="Thin-M" transform="matrix(1 0 0 1 804.323 1126)">
   <path d="M 14.2578 8.59375 L 44.4336 8.59375 C 45.166 12.1094 48.3398 14.8438 52.0996 14.8438 C 55.8105 14.8438 59.0332 12.1094 59.7656 8.59375 L 89.8926 8.59375 C 90.918 8.59375 91.748 7.76367 91.748 6.73828 C 91.748 5.76172 90.918 4.93164 89.8926 4.93164 L 59.6191 4.93164 C 58.8867 2.24609 56.6406 0.0488281 53.9062 -0.585938 L 53.9062 -15.0879 L 78.5645 -15.0879 C 87.207 -15.0879 91.748 -19.6777 91.748 -28.2227 L 91.748 -68.1152 C 91.748 -76.6602 87.207 -81.25 78.5645 -81.25 L 25.6348 -81.25 C 16.9922 -81.25 12.4512 -76.6602 12.4512 -68.1152 L 12.4512 -28.2227 C 12.4512 -19.6777 16.9922 -15.0879 25.6348 -15.0879 L 50.293 -15.0879 L 50.293 -0.585938 C 47.5098 0.0488281 45.3125 2.24609 44.5312 4.93164 L 14.2578 4.93164 C 13.2812 4.93164 12.4512 5.76172 12.4512 6.73828 C 12.4512 7.76367 13.2812 8.59375 14.2578 8.59375 Z M 25.7324 -18.7012 C 19.6289 -18.7012 16.0645 -22.0215 16.0645 -28.418 L 16.0645 -67.9688 C 16.0645 -74.3164 19.6289 -77.6367 25.7324 -77.6367 L 78.418 -77.6367 C 84.5703 -77.6367 88.0859 -74.3164 88.0859 -67.9688 L 88.0859 -28.418 C 88.0859 -22.0215 84.5703 -18.7012 78.418 -18.7012 Z"/>
  </g>
  <g id="Ultralight-M" transform="matrix(1 0 0 1 509.052 1126)">
   <path d="M 13.623 7.08008 L 43.7988 7.08008 C 44.2871 10.4004 47.2168 13.0859 50.6836 13.0859 C 54.1016 13.0859 57.0801 10.4004 57.5195 7.08008 L 87.6953 7.08008 C 88.3301 7.08008 88.8672 6.54297 88.8672 5.85938 C 88.8672 5.22461 88.3301 4.6875 87.6953 4.6875 L 57.373 4.6875 C 56.7871 2.00195 54.5898 -0.146484 51.8555 -0.634766 L 51.8555 -15.8203 L 76.3184 -15.8203 C 84.5215 -15.8203 88.8672 -20.3125 88.8672 -28.3691 L 88.8672 -67.4316 C 88.8672 -75.4883 84.5215 -79.9805 76.3184 -79.9805 L 25 -79.9805 C 16.7969 -79.9805 12.4512 -75.4883 12.4512 -67.4316 L 12.4512 -28.3691 C 12.4512 -20.3125 16.7969 -15.8203 25 -15.8203 L 49.4629 -15.8203 L 49.4629 -0.634766 C 46.7773 -0.146484 44.5312 2.00195 43.9453 4.6875 L 13.623 4.6875 C 12.9883 4.6875 12.4512 5.22461 12.4512 5.85938 C 12.4512 6.54297 12.9883 7.08008 13.623 7.08008 Z M 25.0977 -18.2129 C 18.6035 -18.2129 14.8438 -21.7285 14.8438 -28.4668 L 14.8438 -67.2852 C 14.8438 -74.0723 18.6035 -77.5879 25.0977 -77.5879 L 76.2207 -77.5879 C 82.7148 -77.5879 86.4746 -74.0723 86.4746 -67.2852 L 86.4746 -28.4668 C 86.4746 -21.7285 82.7148 -18.2129 76.2207 -18.2129 Z"/>
  </g>
  <g id="Black-S" transform="matrix(1 0 0 1 2881.54 696)">
   <path d="M 16.5039 10.1074 L 41.3574 10.1074 C 43.5547 13.5742 47.4609 15.918 51.8555 15.918 C 56.25 15.918 60.1562 13.5742 62.3535 10.1074 L 87.2559 10.1074 C 90.918 10.1074 93.9453 7.08008 93.9453 3.36914 C 93.9453 -0.341797 90.918 -3.36914 87.2559 -3.36914 L 62.2559 -3.36914 C 61.2793 -4.78516 60.0586 -6.05469 58.5938 -6.98242 L 58.5938 -12.4023 L 78.7109 -12.4023 C 88.2812 -12.4023 93.9453 -18.0664 93.9453 -27.6367 L 93.9453 -64.6484 C 93.9453 -74.2188 88.2812 -79.8828 78.7109 -79.8828 L 25 -79.8828 C 15.4297 -79.8828 9.76562 -74.2188 9.76562 -64.6484 L 9.76562 -27.6367 C 9.76562 -18.0664 15.4297 -12.4023 25 -12.4023 L 45.166 -12.4023 L 45.166 -7.03125 C 43.7012 -6.05469 42.4316 -4.83398 41.4551 -3.36914 L 16.5039 -3.36914 C 12.793 -3.36914 9.76562 -0.341797 9.76562 3.36914 C 9.76562 7.08008 12.793 10.1074 16.5039 10.1074 Z M 27.2461 -26.5625 C 25 -26.5625 23.9258 -27.4414 23.9258 -29.8828 L 23.9258 -62.4023 C 23.9258 -64.8438 25 -65.7227 27.2461 -65.7227 L 76.4648 -65.7227 C 78.7109 -65.7227 79.7852 -64.8438 79.7852 -62.4023 L 79.7852 -29.8828 C 79.7852 -27.4414 78.7109 -26.5625 76.4648 -26.5625 Z"/>
  </g>
  <g id="Heavy-S" transform="matrix(1 0 0 1 2586.3 696)">
   <path d="M 15.7227 8.74023 L 40.2832 8.74023 C 42.334 12.207 46.0938 14.5508 50.3906 14.5508 C 54.6875 14.5508 58.4473 12.207 60.498 8.74023 L 85.1074 8.74023 C 88.3301 8.74023 91.0156 6.05469 91.0156 2.73438 C 91.0156 -0.537109 88.3301 -3.22266 85.1074 -3.22266 L 60.4004 -3.22266 C 59.4238 -4.88281 58.0078 -6.25 56.3965 -7.22656 L 56.3965 -13.4766 L 76.4648 -13.4766 C 85.7422 -13.4766 91.0156 -18.75 91.0156 -28.0273 L 91.0156 -64.3555 C 91.0156 -73.584 85.7422 -78.9062 76.4648 -78.9062 L 24.3652 -78.9062 C 15.0391 -78.9062 9.76562 -73.584 9.76562 -64.3555 L 9.76562 -28.0273 C 9.76562 -18.75 15.0391 -13.4766 24.3652 -13.4766 L 44.4336 -13.4766 L 44.4336 -7.22656 C 42.7734 -6.25 41.4062 -4.88281 40.3809 -3.22266 L 15.7227 -3.22266 C 12.4512 -3.22266 9.76562 -0.537109 9.76562 2.73438 C 9.76562 6.05469 12.4512 8.74023 15.7227 8.74023 Z M 26.0742 -25.9766 C 23.5352 -25.9766 22.2656 -27.0996 22.2656 -29.834 L 22.2656 -62.5488 C 22.2656 -65.2832 23.5352 -66.4062 26.0742 -66.4062 L 74.707 -66.4062 C 77.2461 -66.4062 78.5645 -65.2832 78.5645 -62.5488 L 78.5645 -29.834 C 78.5645 -27.0996 77.2461 -25.9766 74.707 -25.9766 Z"/>
  </g>
  <g id="Bold-S" transform="matrix(1 0 0 1 2291.22 696)">
   <path d="M 14.8926 7.17773 L 39.1602 7.17773 C 40.9668 10.5957 44.6289 12.9883 48.7793 12.9883 C 52.9297 12.9883 56.543 10.5957 58.3496 7.17773 L 82.666 7.17773 C 85.4492 7.17773 87.7441 4.88281 87.7441 2.05078 C 87.7441 -0.78125 85.4492 -3.07617 82.666 -3.07617 L 58.3008 -3.07617 C 57.2754 -4.93164 55.7617 -6.49414 53.9062 -7.4707 L 53.9062 -14.6973 L 73.9258 -14.6973 C 82.8613 -14.6973 87.7441 -19.5312 87.7441 -28.418 L 87.7441 -64.0137 C 87.7441 -72.9004 82.8613 -77.7832 73.9258 -77.7832 L 23.6328 -77.7832 C 14.6484 -77.7832 9.76562 -72.9004 9.76562 -64.0137 L 9.76562 -28.418 C 9.76562 -19.5312 14.6484 -14.6973 23.6328 -14.6973 L 43.6523 -14.6973 L 43.6523 -7.4707 C 41.7969 -6.49414 40.2344 -4.93164 39.209 -3.07617 L 14.8926 -3.07617 C 12.0605 -3.07617 9.76562 -0.78125 9.76562 2.05078 C 9.76562 4.88281 12.0605 7.17773 14.8926 7.17773 Z M 24.8047 -25.293 C 21.9238 -25.293 20.3613 -26.6602 20.3613 -29.7363 L 20.3613 -62.7441 C 20.3613 -65.7715 21.9238 -67.1875 24.8047 -67.1875 L 72.7539 -67.1875 C 75.6348 -67.1875 77.1484 -65.7715 77.1484 -62.7441 L 77.1484 -29.7363 C 77.1484 -26.6602 75.6348 -25.293 72.7539 -25.293 Z"/>
  </g>
  <g id="Semibold-S" transform="matrix(1 0 0 1 1995.63 696)">
   <path d="M 14.3066 6.10352 L 38.3789 6.10352 C 40.0391 9.52148 43.6035 11.9141 47.6562 11.9141 C 51.6602 11.9141 55.2246 9.52148 56.8848 6.10352 L 80.957 6.10352 C 83.4473 6.10352 85.498 4.05273 85.498 1.5625 C 85.498 -0.927734 83.4473 -2.97852 80.957 -2.97852 L 56.8359 -2.97852 C 55.8594 -4.98047 54.1992 -6.64062 52.1973 -7.61719 L 52.1973 -15.5273 L 72.168 -15.5273 C 80.9082 -15.5273 85.498 -20.0684 85.498 -28.7109 L 85.498 -63.8184 C 85.498 -72.4609 80.9082 -77.002 72.168 -77.002 L 23.0957 -77.002 C 14.3555 -77.002 9.76562 -72.4609 9.76562 -63.8184 L 9.76562 -28.7109 C 9.76562 -20.0684 14.3555 -15.5273 23.0957 -15.5273 L 43.1152 -15.5273 L 43.1152 -7.66602 C 41.0645 -6.64062 39.4531 -4.98047 38.4277 -2.97852 L 14.3066 -2.97852 C 11.8164 -2.97852 9.76562 -0.927734 9.76562 1.5625 C 9.76562 4.05273 11.8164 6.10352 14.3066 6.10352 Z M 23.877 -24.8047 C 20.8008 -24.8047 19.0918 -26.416 19.0918 -29.6875 L 19.0918 -62.8418 C 19.0918 -66.1133 20.8008 -67.7246 23.877 -67.7246 L 71.3867 -67.7246 C 74.5117 -67.7246 76.2207 -66.1133 76.2207 -62.8418 L 76.2207 -29.6875 C 76.2207 -26.416 74.5117 -24.8047 71.3867 -24.8047 Z"/>
  </g>
  <g id="Medium-S" transform="matrix(1 0 0 1 1699.78 696)">
   <path d="M 13.8672 5.32227 L 37.793 5.32227 C 39.3555 8.69141 42.8223 11.084 46.7773 11.084 C 50.7324 11.084 54.1992 8.69141 55.7617 5.32227 L 79.6875 5.32227 C 81.9336 5.32227 83.7891 3.4668 83.7891 1.2207 C 83.7891 -1.02539 81.9336 -2.88086 79.6875 -2.88086 L 55.7617 -2.88086 C 54.7363 -5.0293 53.0273 -6.73828 50.8789 -7.76367 L 50.8789 -16.1621 L 70.8496 -16.1621 C 79.3945 -16.1621 83.7891 -20.5078 83.7891 -28.9551 L 83.7891 -63.623 C 83.7891 -72.0703 79.3945 -76.416 70.8496 -76.416 L 22.7051 -76.416 C 14.1602 -76.416 9.76562 -72.0703 9.76562 -63.623 L 9.76562 -28.9551 C 9.76562 -20.5078 14.1602 -16.1621 22.7051 -16.1621 L 42.6758 -16.1621 L 42.6758 -7.76367 C 40.5762 -6.78711 38.8184 -5.0293 37.8418 -2.88086 L 13.8672 -2.88086 C 11.6211 -2.88086 9.76562 -1.02539 9.76562 1.2207 C 9.76562 3.4668 11.6211 5.32227 13.8672 5.32227 Z M 23.1934 -24.4629 C 19.9219 -24.4629 18.0664 -26.1719 18.0664 -29.6387 L 18.0664 -62.9395 C 18.0664 -66.4062 19.9219 -68.1152 23.1934 -68.1152 L 70.3613 -68.1152 C 73.6328 -68.1152 75.4883 -66.4062 75.4883 -62.9395 L 75.4883 -29.6387 C 75.4883 -26.1719 73.6328 -24.4629 70.3613 -24.4629 Z"/>
  </g>
  <g id="Regular-S" transform="matrix(1 0 0 1 1404.17 696)">
   <path d="M 13.2812 4.24805 L 37.0605 4.24805 C 38.4766 7.61719 41.7969 10.0586 45.6543 10.0586 C 49.5605 10.0586 52.8809 7.61719 54.2969 4.24805 L 78.0762 4.24805 C 79.9805 4.24805 81.5918 2.63672 81.5918 0.732422 C 81.5918 -1.2207 79.9805 -2.7832 78.0762 -2.7832 L 54.2969 -2.7832 C 53.3203 -5.07812 51.4648 -6.93359 49.1699 -7.86133 L 49.1699 -16.9434 L 69.1406 -16.9434 C 77.4414 -16.9434 81.5918 -21.0449 81.5918 -29.248 L 81.5918 -63.4277 C 81.5918 -71.6309 77.4414 -75.6836 69.1406 -75.6836 L 22.2168 -75.6836 C 13.8672 -75.6836 9.76562 -71.6309 9.76562 -63.4277 L 9.76562 -29.248 C 9.76562 -21.0449 13.8672 -16.9434 22.2168 -16.9434 L 42.1387 -16.9434 L 42.1387 -7.86133 C 39.8438 -6.93359 38.0371 -5.07812 37.0605 -2.7832 L 13.2812 -2.7832 C 11.377 -2.7832 9.76562 -1.2207 9.76562 0.732422 C 9.76562 2.63672 11.377 4.24805 13.2812 4.24805 Z M 22.3145 -24.0234 C 18.7988 -24.0234 16.7969 -25.9277 16.7969 -29.5898 L 16.7969 -63.0371 C 16.7969 -66.748 18.7988 -68.6523 22.3145 -68.6523 L 69.043 -68.6523 C 72.5098 -68.6523 74.5117 -66.748 74.5117 -63.0371 L 74.5117 -29.5898 C 74.5117 -25.9277 72.5098 -24.0234 69.043 -24.0234 Z"/>
  </g>
  <g id="Light-S" transform="matrix(1 0 0 1 1109.33 696)">
   <path d="M 12.5 2.24609 L 36.1816 2.24609 C 37.2559 5.41992 40.2832 7.71484 43.7988 7.71484 C 47.3145 7.71484 50.3418 5.41992 51.4648 2.24609 L 75.1465 2.24609 C 76.6113 2.24609 77.832 1.02539 77.832 -0.439453 C 77.832 -1.95312 76.6113 -3.17383 75.1465 -3.17383 L 51.3672 -3.17383 C 50.5371 -5.37109 48.7793 -7.17773 46.5332 -7.95898 L 46.5332 -17.9199 L 66.2109 -17.9199 C 73.9746 -17.9199 77.832 -21.8262 77.832 -29.4434 L 77.832 -62.5 C 77.832 -70.1172 73.9746 -73.9746 66.2109 -73.9746 L 21.3867 -73.9746 C 13.6719 -73.9746 9.76562 -70.1172 9.76562 -62.5 L 9.76562 -29.4434 C 9.76562 -21.8262 13.6719 -17.9199 21.3867 -17.9199 L 41.1133 -17.9199 L 41.1133 -7.95898 C 38.8672 -7.17773 37.0605 -5.37109 36.2305 -3.17383 L 12.5 -3.17383 C 10.9863 -3.17383 9.76562 -1.95312 9.76562 -0.439453 C 9.76562 1.02539 10.9863 2.24609 12.5 2.24609 Z M 21.4844 -23.3398 C 17.4805 -23.3398 15.1855 -25.4883 15.1855 -29.6875 L 15.1855 -62.207 C 15.1855 -66.4062 17.4805 -68.5547 21.4844 -68.5547 L 66.1133 -68.5547 C 70.1172 -68.5547 72.4121 -66.4062 72.4121 -62.207 L 72.4121 -29.6875 C 72.4121 -25.4883 70.1172 -23.3398 66.1133 -23.3398 Z"/>
  </g>
  <g id="Thin-S" transform="matrix(1 0 0 1 815.065 696)">
   <path d="M 11.4258 -0.341797 L 35.0586 -0.341797 C 35.6934 2.49023 38.3301 4.6875 41.3574 4.6875 C 44.3848 4.6875 46.9727 2.49023 47.6562 -0.341797 L 71.2891 -0.341797 C 72.168 -0.341797 72.9492 -1.07422 72.9492 -2.00195 C 72.9492 -2.88086 72.168 -3.66211 71.2891 -3.66211 L 47.5586 -3.66211 C 46.9238 -5.81055 45.166 -7.51953 43.0176 -8.10547 L 43.0176 -19.1895 L 62.4023 -19.1895 C 69.3359 -19.1895 72.9492 -22.8516 72.9492 -29.6875 L 72.9492 -61.2793 C 72.9492 -68.1152 69.3359 -71.7773 62.4023 -71.7773 L 20.3125 -71.7773 C 13.3789 -71.7773 9.76562 -68.1152 9.76562 -61.2793 L 9.76562 -29.6875 C 9.76562 -22.8516 13.3789 -19.1895 20.3125 -19.1895 L 39.6973 -19.1895 L 39.6973 -8.10547 C 37.5488 -7.51953 35.791 -5.81055 35.1562 -3.66211 L 11.4258 -3.66211 C 10.498 -3.66211 9.76562 -2.88086 9.76562 -2.00195 C 9.76562 -1.07422 10.498 -0.341797 11.4258 -0.341797 Z M 20.4102 -22.4609 C 15.7715 -22.4609 13.0859 -25 13.0859 -29.834 L 13.0859 -61.084 C 13.0859 -65.9668 15.7715 -68.457 20.4102 -68.457 L 62.3047 -68.457 C 66.9434 -68.457 69.6289 -65.9668 69.6289 -61.084 L 69.6289 -29.834 C 69.6289 -25 66.9434 -22.4609 62.3047 -22.4609 Z"/>
  </g>
  <g id="Ultralight-S" transform="matrix(1 0 0 1 519.623 696)">
   <path d="M 10.8887 -1.70898 L 34.4727 -1.70898 C 34.9121 0.976562 37.3047 3.07617 40.0879 3.07617 C 42.8711 3.07617 45.2637 0.976562 45.6543 -1.70898 L 69.2871 -1.70898 C 69.9219 -1.70898 70.4102 -2.19727 70.4102 -2.7832 C 70.4102 -3.41797 69.9219 -3.90625 69.2871 -3.90625 L 45.5566 -3.90625 C 45.0684 -6.00586 43.3105 -7.66602 41.2109 -8.10547 L 41.2109 -19.8242 L 60.4004 -19.8242 C 66.9434 -19.8242 70.4102 -23.3887 70.4102 -29.7852 L 70.4102 -60.6445 C 70.4102 -67.0898 66.9434 -70.6055 60.4004 -70.6055 L 19.7754 -70.6055 C 13.2324 -70.6055 9.76562 -67.0898 9.76562 -60.6445 L 9.76562 -29.7852 C 9.76562 -23.3887 13.2324 -19.8242 19.7754 -19.8242 L 38.9648 -19.8242 L 38.9648 -8.10547 C 36.8652 -7.66602 35.1074 -6.00586 34.5703 -3.90625 L 10.8887 -3.90625 C 10.2539 -3.90625 9.76562 -3.41797 9.76562 -2.7832 C 9.76562 -2.19727 10.2539 -1.70898 10.8887 -1.70898 Z M 19.873 -22.0215 C 14.8438 -22.0215 11.9629 -24.707 11.9629 -29.9316 L 11.9629 -60.5469 C 11.9629 -65.7227 14.8438 -68.4082 19.873 -68.4082 L 60.3027 -68.4082 C 65.332 -68.4082 68.2129 -65.7227 68.2129 -60.5469 L 68.2129 -29.9316 C 68.2129 -24.707 65.332 -22.0215 60.3027 -22.0215 Z"/>
  </g>
 </g>
</svg>
