<?xml version="1.0" encoding="UTF-8"?>
<!--Generator: Apple Native CoreSVG 123-->
<!DOCTYPE svg
PUBLIC "-//W3C//DTD SVG 1.1//EN"
       "http://www.w3.org/Graphics/SVG/1.1/DTD/svg11.dtd">
<svg version="1.1" xmlns="http://www.w3.org/2000/svg" xmlns:xlink="http://www.w3.org/1999/xlink" width="3300" height="2200">
 <!--glyph: "uni10023D.medium", point size: 100.000000, font version: "Version 15.0d7e11", template writer version: "5"-->
 <g id="Notes">
  <rect height="2200" id="artboard" style="fill:white;opacity:1" width="3300" x="0" y="0"/>
  <line id="" style="fill:none;stroke:black;opacity:1;stroke-width:0.5;" x1="263" x2="3036" y1="292" y2="292"/>
  <text style="stroke:none;fill:black;font-family:-apple-system,&quot;SF Pro Display&quot;,&quot;SF Pro Text&quot;,Helvetica,sans-serif;font-weight:bold;" transform="matrix(1 0 0 1 263 322)">Weight/Scale Variations</text>
  <text style="stroke:none;fill:black;font-family:-apple-system,&quot;SF Pro Display&quot;,&quot;SF Pro Text&quot;,Helvetica,sans-serif;text-anchor:middle;" transform="matrix(1 0 0 1 559.711 322)">Ultralight</text>
  <text style="stroke:none;fill:black;font-family:-apple-system,&quot;SF Pro Display&quot;,&quot;SF Pro Text&quot;,Helvetica,sans-serif;text-anchor:middle;" transform="matrix(1 0 0 1 856.422 322)">Thin</text>
  <text style="stroke:none;fill:black;font-family:-apple-system,&quot;SF Pro Display&quot;,&quot;SF Pro Text&quot;,Helvetica,sans-serif;text-anchor:middle;" transform="matrix(1 0 0 1 1153.13 322)">Light</text>
  <text style="stroke:none;fill:black;font-family:-apple-system,&quot;SF Pro Display&quot;,&quot;SF Pro Text&quot;,Helvetica,sans-serif;text-anchor:middle;" transform="matrix(1 0 0 1 1449.84 322)">Regular</text>
  <text style="stroke:none;fill:black;font-family:-apple-system,&quot;SF Pro Display&quot;,&quot;SF Pro Text&quot;,Helvetica,sans-serif;text-anchor:middle;" transform="matrix(1 0 0 1 1746.56 322)">Medium</text>
  <text style="stroke:none;fill:black;font-family:-apple-system,&quot;SF Pro Display&quot;,&quot;SF Pro Text&quot;,Helvetica,sans-serif;text-anchor:middle;" transform="matrix(1 0 0 1 2043.27 322)">Semibold</text>
  <text style="stroke:none;fill:black;font-family:-apple-system,&quot;SF Pro Display&quot;,&quot;SF Pro Text&quot;,Helvetica,sans-serif;text-anchor:middle;" transform="matrix(1 0 0 1 2339.98 322)">Bold</text>
  <text style="stroke:none;fill:black;font-family:-apple-system,&quot;SF Pro Display&quot;,&quot;SF Pro Text&quot;,Helvetica,sans-serif;text-anchor:middle;" transform="matrix(1 0 0 1 2636.69 322)">Heavy</text>
  <text style="stroke:none;fill:black;font-family:-apple-system,&quot;SF Pro Display&quot;,&quot;SF Pro Text&quot;,Helvetica,sans-serif;text-anchor:middle;" transform="matrix(1 0 0 1 2933.4 322)">Black</text>
  <line id="" style="fill:none;stroke:black;opacity:1;stroke-width:0.5;" x1="263" x2="3036" y1="1903" y2="1903"/>
  <g id="" transform="matrix(1 0 0 1 263 1933)">
   <path d="M 9.24805 0.830078 C 13.5547 0.830078 17.1387 -2.74414 17.1387 -7.05078 C 17.1387 -11.3574 13.5449 -14.9316 9.23828 -14.9316 C 4.94141 -14.9316 1.36719 -11.3574 1.36719 -7.05078 C 1.36719 -2.74414 4.95117 0.830078 9.24805 0.830078 Z M 9.24805 -0.654297 C 5.70312 -0.654297 2.87109 -3.49609 2.87109 -7.05078 C 2.87109 -10.6055 5.69336 -13.4473 9.23828 -13.4473 C 12.793 -13.4473 15.6348 -10.6055 15.6445 -7.05078 C 15.6543 -3.49609 12.8027 -0.654297 9.24805 -0.654297 Z M 9.22852 -3.42773 C 9.69727 -3.42773 9.9707 -3.74023 9.9707 -4.25781 L 9.9707 -6.31836 L 12.1973 -6.31836 C 12.6953 -6.31836 13.0371 -6.57227 13.0371 -7.04102 C 13.0371 -7.51953 12.7148 -7.7832 12.1973 -7.7832 L 9.9707 -7.7832 L 9.9707 -10.0098 C 9.9707 -10.5273 9.69727 -10.8496 9.22852 -10.8496 C 8.75977 -10.8496 8.50586 -10.5078 8.50586 -10.0098 L 8.50586 -7.7832 L 6.29883 -7.7832 C 5.78125 -7.7832 5.44922 -7.51953 5.44922 -7.04102 C 5.44922 -6.57227 5.80078 -6.31836 6.29883 -6.31836 L 8.50586 -6.31836 L 8.50586 -4.25781 C 8.50586 -3.75977 8.75977 -3.42773 9.22852 -3.42773 Z"/>
  </g>
  <g id="" transform="matrix(1 0 0 1 281.506 1933)">
   <path d="M 11.709 2.91016 C 17.1582 2.91016 21.6699 -1.60156 21.6699 -7.05078 C 21.6699 -12.4902 17.1484 -17.0117 11.6992 -17.0117 C 6.25977 -17.0117 1.74805 -12.4902 1.74805 -7.05078 C 1.74805 -1.60156 6.26953 2.91016 11.709 2.91016 Z M 11.709 1.25 C 7.09961 1.25 3.41797 -2.44141 3.41797 -7.05078 C 3.41797 -11.6504 7.08984 -15.3516 11.6992 -15.3516 C 16.3086 -15.3516 20 -11.6504 20.0098 -7.05078 C 20.0195 -2.44141 16.3184 1.25 11.709 1.25 Z M 11.6895 -2.41211 C 12.207 -2.41211 12.5195 -2.77344 12.5195 -3.33984 L 12.5195 -6.23047 L 15.5762 -6.23047 C 16.123 -6.23047 16.5039 -6.51367 16.5039 -7.03125 C 16.5039 -7.55859 16.1426 -7.86133 15.5762 -7.86133 L 12.5195 -7.86133 L 12.5195 -10.9277 C 12.5195 -11.5039 12.207 -11.8555 11.6895 -11.8555 C 11.1719 -11.8555 10.8789 -11.4844 10.8789 -10.9277 L 10.8789 -7.86133 L 7.83203 -7.86133 C 7.26562 -7.86133 6.89453 -7.55859 6.89453 -7.03125 C 6.89453 -6.51367 7.28516 -6.23047 7.83203 -6.23047 L 10.8789 -6.23047 L 10.8789 -3.33984 C 10.8789 -2.79297 11.1719 -2.41211 11.6895 -2.41211 Z"/>
  </g>
  <g id="" transform="matrix(1 0 0 1 304.924 1933)">
   <path d="M 14.9707 5.67383 C 21.9336 5.67383 27.6953 -0.078125 27.6953 -7.04102 C 27.6953 -14.0039 21.9238 -19.7559 14.9609 -19.7559 C 8.00781 -19.7559 2.25586 -14.0039 2.25586 -7.04102 C 2.25586 -0.078125 8.01758 5.67383 14.9707 5.67383 Z M 14.9707 3.85742 C 8.93555 3.85742 4.08203 -1.00586 4.08203 -7.04102 C 4.08203 -13.0762 8.92578 -17.9395 14.9609 -17.9395 C 21.0059 -17.9395 25.8594 -13.0762 25.8691 -7.04102 C 25.8789 -1.00586 21.0156 3.85742 14.9707 3.85742 Z M 14.9512 -1.06445 C 15.5176 -1.06445 15.8691 -1.45508 15.8691 -2.06055 L 15.8691 -6.13281 L 20.1074 -6.13281 C 20.6934 -6.13281 21.1133 -6.46484 21.1133 -7.02148 C 21.1133 -7.59766 20.7227 -7.93945 20.1074 -7.93945 L 15.8691 -7.93945 L 15.8691 -12.1875 C 15.8691 -12.8027 15.5176 -13.1934 14.9512 -13.1934 C 14.3848 -13.1934 14.0625 -12.7832 14.0625 -12.1875 L 14.0625 -7.93945 L 9.83398 -7.93945 C 9.21875 -7.93945 8.80859 -7.59766 8.80859 -7.02148 C 8.80859 -6.46484 9.23828 -6.13281 9.83398 -6.13281 L 14.0625 -6.13281 L 14.0625 -2.06055 C 14.0625 -1.47461 14.3848 -1.06445 14.9512 -1.06445 Z"/>
  </g>
  <text style="stroke:none;fill:black;font-family:-apple-system,&quot;SF Pro Display&quot;,&quot;SF Pro Text&quot;,Helvetica,sans-serif;font-weight:bold;" transform="matrix(1 0 0 1 263 1953)">Design Variations</text>
  <text style="stroke:none;fill:black;font-family:-apple-system,&quot;SF Pro Display&quot;,&quot;SF Pro Text&quot;,Helvetica,sans-serif;" transform="matrix(1 0 0 1 263 1971)">Symbols are supported in up to nine weights and three scales.</text>
  <text style="stroke:none;fill:black;font-family:-apple-system,&quot;SF Pro Display&quot;,&quot;SF Pro Text&quot;,Helvetica,sans-serif;" transform="matrix(1 0 0 1 263 1989)">For optimal layout with text and other symbols, vertically align</text>
  <text style="stroke:none;fill:black;font-family:-apple-system,&quot;SF Pro Display&quot;,&quot;SF Pro Text&quot;,Helvetica,sans-serif;" transform="matrix(1 0 0 1 263 2007)">symbols with the adjacent text.</text>
  <rect height="14" id="" style="fill:#00AEEF;stroke:none;opacity:0.4;" width="3" x="776" y="1919"/>
  <g id="" transform="matrix(1 0 0 1 779 1933)">
   <path d="M 10.5273 0 L 12.373 0 L 7.17773 -14.0918 L 5.43945 -14.0918 L 0.244141 0 L 2.08984 0 L 3.50586 -4.0332 L 9.11133 -4.0332 Z M 6.2793 -11.9531 L 6.33789 -11.9531 L 8.59375 -5.52734 L 4.02344 -5.52734 Z"/>
  </g>
  <rect height="14" id="" style="fill:#00AEEF;stroke:none;opacity:0.4;" width="3" x="791.617" y="1919"/>
  <text style="stroke:none;fill:black;font-family:-apple-system,&quot;SF Pro Display&quot;,&quot;SF Pro Text&quot;,Helvetica,sans-serif;font-weight:bold;" transform="matrix(1 0 0 1 776 1953)">Margins</text>
  <text style="stroke:none;fill:black;font-family:-apple-system,&quot;SF Pro Display&quot;,&quot;SF Pro Text&quot;,Helvetica,sans-serif;" transform="matrix(1 0 0 1 776 1971)">Leading and trailing margins on the left and right side of each symbol</text>
  <text style="stroke:none;fill:black;font-family:-apple-system,&quot;SF Pro Display&quot;,&quot;SF Pro Text&quot;,Helvetica,sans-serif;" transform="matrix(1 0 0 1 776 1989)">can be adjusted by modifying the width of the blue rectangles.</text>
  <text style="stroke:none;fill:black;font-family:-apple-system,&quot;SF Pro Display&quot;,&quot;SF Pro Text&quot;,Helvetica,sans-serif;" transform="matrix(1 0 0 1 776 2007)">Modifications are automatically applied proportionally to all</text>
  <text style="stroke:none;fill:black;font-family:-apple-system,&quot;SF Pro Display&quot;,&quot;SF Pro Text&quot;,Helvetica,sans-serif;" transform="matrix(1 0 0 1 776 2025)">scales and weights.</text>
  <g id="" transform="matrix(1 0 0 1 1289 1933)">
   <path d="M 2.83203 3.11523 L 4.375 4.6582 C 5.22461 5.48828 6.19141 5.41992 7.06055 4.46289 L 17.2754 -6.66016 C 17.7051 -6.36719 18.0957 -6.37695 18.5645 -6.47461 L 19.6094 -6.68945 L 20.3027 -5.99609 L 20.2539 -5.47852 C 20.1855 -4.95117 20.3516 -4.53125 20.8496 -4.0332 L 21.6602 -3.22266 C 22.168 -2.71484 22.8223 -2.68555 23.3008 -3.16406 L 26.5527 -6.41602 C 27.0312 -6.89453 27.0117 -7.54883 26.5039 -8.05664 L 25.6836 -8.87695 C 25.1855 -9.375 24.7754 -9.55078 24.2383 -9.47266 L 23.7109 -9.41406 L 23.0566 -10.0781 L 23.3398 -11.2207 C 23.4863 -11.7871 23.3398 -12.2559 22.7148 -12.8613 L 20.3027 -15.2539 C 16.7578 -18.7793 12.2266 -18.6719 9.11133 -15.5371 C 8.69141 -15.1074 8.64258 -14.5215 8.91602 -14.0918 C 9.15039 -13.7207 9.62891 -13.4961 10.2734 -13.6621 C 11.7871 -14.043 13.3008 -13.9258 14.7852 -12.9199 L 14.1602 -11.3379 C 13.9258 -10.752 13.9453 -10.2734 14.1797 -9.83398 L 3.01758 0.439453 C 2.08008 1.30859 1.97266 2.25586 2.83203 3.11523 Z M 10.6738 -15.1465 C 13.3398 -17.1387 16.6504 -16.8262 19.0527 -14.4141 L 21.6797 -11.8066 C 21.9141 -11.5723 21.9434 -11.3867 21.8848 -11.0938 L 21.5039 -9.53125 L 23.0762 -7.95898 L 24.043 -8.04688 C 24.3262 -8.07617 24.4141 -8.05664 24.6387 -7.83203 L 25.2637 -7.20703 L 22.5098 -4.46289 L 21.8848 -5.07812 C 21.6602 -5.30273 21.6406 -5.40039 21.6699 -5.68359 L 21.7578 -6.64062 L 20.1953 -8.20312 L 18.5742 -7.89062 C 18.291 -7.83203 18.1445 -7.83203 17.9102 -8.07617 L 15.7324 -10.2539 C 15.5078 -10.4883 15.4785 -10.625 15.6055 -10.9473 L 16.5527 -13.2227 C 14.9512 -14.7559 12.8418 -15.6055 10.8008 -14.9512 C 10.7129 -14.9219 10.6445 -14.9414 10.6152 -14.9805 C 10.5859 -15.0293 10.5859 -15.0781 10.6738 -15.1465 Z M 4.10156 2.41211 C 3.61328 1.91406 3.78906 1.61133 4.12109 1.30859 L 15.0781 -8.80859 L 16.3086 -7.57812 L 6.15234 3.34961 C 5.84961 3.68164 5.46875 3.7793 5.06836 3.37891 Z"/>
  </g>
  <text style="stroke:none;fill:black;font-family:-apple-system,&quot;SF Pro Display&quot;,&quot;SF Pro Text&quot;,Helvetica,sans-serif;font-weight:bold;" transform="matrix(1 0 0 1 1289 1953)">Exporting</text>
  <text style="stroke:none;fill:black;font-family:-apple-system,&quot;SF Pro Display&quot;,&quot;SF Pro Text&quot;,Helvetica,sans-serif;" transform="matrix(1 0 0 1 1289 1971)">Symbols should be outlined when exporting to ensure the</text>
  <text style="stroke:none;fill:black;font-family:-apple-system,&quot;SF Pro Display&quot;,&quot;SF Pro Text&quot;,Helvetica,sans-serif;" transform="matrix(1 0 0 1 1289 1989)">design is preserved when submitting to Xcode.</text>
  <text id="template-version" style="stroke:none;fill:black;font-family:-apple-system,&quot;SF Pro Display&quot;,&quot;SF Pro Text&quot;,Helvetica,sans-serif;text-anchor:end;" transform="matrix(1 0 0 1 3036 1933)">Template v.1.0</text>
  <text style="stroke:none;fill:black;font-family:-apple-system,&quot;SF Pro Display&quot;,&quot;SF Pro Text&quot;,Helvetica,sans-serif;text-anchor:end;" transform="matrix(1 0 0 1 3036 1951)">Generated from arrow.down.doc</text>
  <text style="stroke:none;fill:black;font-family:-apple-system,&quot;SF Pro Display&quot;,&quot;SF Pro Text&quot;,Helvetica,sans-serif;text-anchor:end;" transform="matrix(1 0 0 1 3036 1969)">Typeset at 100 points</text>
  <text style="stroke:none;fill:black;font-family:-apple-system,&quot;SF Pro Display&quot;,&quot;SF Pro Text&quot;,Helvetica,sans-serif;" transform="matrix(1 0 0 1 263 726)">Small</text>
  <text style="stroke:none;fill:black;font-family:-apple-system,&quot;SF Pro Display&quot;,&quot;SF Pro Text&quot;,Helvetica,sans-serif;" transform="matrix(1 0 0 1 263 1156)">Medium</text>
  <text style="stroke:none;fill:black;font-family:-apple-system,&quot;SF Pro Display&quot;,&quot;SF Pro Text&quot;,Helvetica,sans-serif;" transform="matrix(1 0 0 1 263 1586)">Large</text>
 </g>
 <g id="Guides">
  <g id="H-reference" style="fill:#27AAE1;stroke:none;" transform="matrix(1 0 0 1 339 696)">
   <path d="M 54.9316 0 L 57.666 0 L 30.5664 -70.459 L 28.0762 -70.459 L 0.976562 0 L 3.66211 0 L 12.9395 -24.4629 L 45.7031 -24.4629 Z M 29.1992 -67.0898 L 29.4434 -67.0898 L 44.8242 -26.709 L 13.8184 -26.709 Z"/>
  </g>
  <line id="Baseline-S" style="fill:none;stroke:#27AAE1;opacity:1;stroke-width:0.577;" x1="263" x2="3036" y1="696" y2="696"/>
  <line id="Capline-S" style="fill:none;stroke:#27AAE1;opacity:1;stroke-width:0.577;" x1="263" x2="3036" y1="625.541" y2="625.541"/>
  <g id="H-reference" style="fill:#27AAE1;stroke:none;" transform="matrix(1 0 0 1 339 1126)">
   <path d="M 54.9316 0 L 57.666 0 L 30.5664 -70.459 L 28.0762 -70.459 L 0.976562 0 L 3.66211 0 L 12.9395 -24.4629 L 45.7031 -24.4629 Z M 29.1992 -67.0898 L 29.4434 -67.0898 L 44.8242 -26.709 L 13.8184 -26.709 Z"/>
  </g>
  <line id="Baseline-M" style="fill:none;stroke:#27AAE1;opacity:1;stroke-width:0.577;" x1="263" x2="3036" y1="1126" y2="1126"/>
  <line id="Capline-M" style="fill:none;stroke:#27AAE1;opacity:1;stroke-width:0.577;" x1="263" x2="3036" y1="1055.54" y2="1055.54"/>
  <g id="H-reference" style="fill:#27AAE1;stroke:none;" transform="matrix(1 0 0 1 339 1556)">
   <path d="M 54.9316 0 L 57.666 0 L 30.5664 -70.459 L 28.0762 -70.459 L 0.976562 0 L 3.66211 0 L 12.9395 -24.4629 L 45.7031 -24.4629 Z M 29.1992 -67.0898 L 29.4434 -67.0898 L 44.8242 -26.709 L 13.8184 -26.709 Z"/>
  </g>
  <line id="Baseline-L" style="fill:none;stroke:#27AAE1;opacity:1;stroke-width:0.577;" x1="263" x2="3036" y1="1556" y2="1556"/>
  <line id="Capline-L" style="fill:none;stroke:#27AAE1;opacity:1;stroke-width:0.577;" x1="263" x2="3036" y1="1485.54" y2="1485.54"/>
  <rect height="119.336" id="left-margin" style="fill:#00AEEF;stroke:none;opacity:0.4;" width="12.4512" x="1396.33" y="1030.79"/>
  <rect height="119.336" id="right-margin" style="fill:#00AEEF;stroke:none;opacity:0.4;" width="12.4512" x="1490.91" y="1030.79"/>
 </g>
 <g id="Symbols">
  <g id="Black-L" transform="matrix(1 0 0 1 2859.65 1556)">
   <path d="M 39.8926 35.2539 L 107.617 35.2539 C 122.803 35.2539 131.445 26.5625 131.445 11.377 L 131.445 -45.3613 C 131.445 -56.4453 129.688 -62.207 122.559 -69.3359 L 95.4102 -96.7285 C 88.3789 -103.809 82.4707 -105.615 71.7285 -105.615 L 39.8926 -105.615 C 24.707 -105.615 16.0645 -96.9727 16.0645 -81.7383 L 16.0645 11.377 C 16.0645 26.6113 24.707 35.2539 39.8926 35.2539 Z M 42.7246 15.0391 C 38.1836 15.0391 36.3281 12.8418 36.3281 8.64258 L 36.3281 -79.0039 C 36.3281 -83.252 38.1836 -85.4004 42.7246 -85.4004 L 65.332 -85.4004 L 65.332 -58.1055 C 65.332 -45.2637 71.2891 -39.2578 84.1309 -39.2578 L 111.23 -39.2578 L 111.23 8.64258 C 111.23 12.8418 109.326 15.0391 104.785 15.0391 Z M 85.4492 -55.2246 C 82.666 -55.2246 81.25 -56.6406 81.25 -59.4238 L 81.25 -84.4238 L 110.254 -55.2246 Z M 81.7383 -26.123 C 81.7383 -30.5664 78.1738 -33.4961 73.7793 -33.4961 C 69.3359 -33.4961 65.7715 -30.5664 65.7715 -26.123 L 65.7715 -19.1895 L 66.5527 -11.1816 L 63.9648 -14.1602 L 61.9629 -16.3086 C 60.791 -17.7246 58.8379 -18.8477 56.9336 -18.8477 C 53.0273 -18.8477 50.0977 -16.0156 50.0977 -12.3047 C 50.0977 -10.2051 50.6836 -8.69141 52.4902 -7.12891 L 67.2363 6.05469 C 69.1406 7.8125 71.1426 8.93555 73.7793 8.93555 C 76.3672 8.93555 78.3691 7.8125 80.2734 6.05469 L 95.0195 -7.12891 C 96.8262 -8.69141 97.4121 -10.2051 97.4121 -12.3047 C 97.4121 -16.0156 94.4824 -18.8477 90.5762 -18.8477 C 88.7207 -18.8477 86.6211 -17.7246 85.5957 -16.3086 L 83.5938 -14.1602 L 80.957 -11.1816 L 81.7383 -19.1895 Z"/>
  </g>
  <g id="Heavy-L" transform="matrix(1 0 0 1 2564.18 1556)">
   <path d="M 38.7207 34.5215 L 106.348 34.5215 C 120.898 34.5215 128.955 26.3672 128.955 11.7676 L 128.955 -45.3125 C 128.955 -55.5176 127.393 -60.6934 120.898 -67.2363 L 91.6016 -96.8262 C 85.2051 -103.271 79.8828 -104.883 70.1172 -104.883 L 38.7207 -104.883 C 24.1699 -104.883 16.0645 -96.7285 16.0645 -82.1289 L 16.0645 11.7676 C 16.0645 26.416 24.1211 34.5215 38.7207 34.5215 Z M 40.9668 16.9922 C 35.8887 16.9922 33.5938 14.502 33.5938 9.66797 L 33.5938 -80.0293 C 33.5938 -84.8145 35.8887 -87.3535 41.0156 -87.3535 L 65.0879 -87.3535 L 65.0879 -57.7148 C 65.0879 -46.1426 70.5078 -40.7227 82.0801 -40.7227 L 111.475 -40.7227 L 111.475 9.66797 C 111.475 14.502 109.18 16.9922 104.053 16.9922 Z M 83.3008 -54.7852 C 80.5176 -54.7852 79.1504 -56.1523 79.1504 -58.9355 L 79.1504 -86.2305 L 110.303 -54.7852 Z M 79.5898 -27.832 C 79.5898 -31.7383 76.416 -34.4238 72.5098 -34.4238 C 68.6035 -34.4238 65.4297 -31.7383 65.4297 -27.832 L 65.4297 -16.6016 L 66.1133 -7.86133 L 62.4512 -11.8652 L 59.5703 -14.8438 C 58.5449 -16.1133 56.7871 -17.041 55.0781 -17.041 C 51.5625 -17.041 48.9746 -14.5508 48.9746 -11.1816 C 48.9746 -9.22852 49.5605 -7.86133 51.123 -6.49414 L 66.7969 7.71484 C 68.5547 9.27734 70.2637 10.2539 72.5098 10.2539 C 74.7559 10.2539 76.5137 9.27734 78.2227 7.71484 L 93.8965 -6.49414 C 95.459 -7.86133 96.0938 -9.22852 96.0938 -11.1816 C 96.0938 -14.5508 93.4082 -17.041 89.9414 -17.041 C 88.2324 -17.041 86.4258 -16.1133 85.4492 -14.8438 L 82.6172 -11.8652 L 78.9062 -7.86133 L 79.5898 -16.6016 Z"/>
  </g>
  <g id="Bold-L" transform="matrix(1 0 0 1 2268.86 1556)">
   <path d="M 37.4023 33.6914 L 104.883 33.6914 C 118.701 33.6914 126.172 26.123 126.172 12.2559 L 126.172 -45.3125 C 126.172 -54.4922 124.854 -58.9844 119.043 -64.8438 L 87.3535 -96.875 C 81.6895 -102.637 76.9531 -104.053 68.3594 -104.053 L 37.4023 -104.053 C 23.584 -104.053 16.0645 -96.4844 16.0645 -82.5684 L 16.0645 12.2559 C 16.0645 26.1719 23.5352 33.6914 37.4023 33.6914 Z M 39.0137 19.2383 C 33.252 19.2383 30.5176 16.3086 30.5176 10.791 L 30.5176 -81.1523 C 30.5176 -86.5723 33.252 -89.5996 39.0625 -89.5996 L 64.7949 -89.5996 L 64.7949 -57.2266 C 64.7949 -47.0703 69.6777 -42.2852 79.7363 -42.2852 L 111.719 -42.2852 L 111.719 10.791 C 111.719 16.3086 108.984 19.2383 103.223 19.2383 Z M 80.8594 -54.3457 C 78.0762 -54.3457 76.8066 -55.6152 76.8066 -58.3984 L 76.8066 -88.2324 L 110.4 -54.3457 Z M 77.1973 -29.7363 C 77.1973 -33.1055 74.4141 -35.4492 71.1426 -35.4492 C 67.8223 -35.4492 65.0391 -33.1055 65.0391 -29.7363 L 65.0391 -13.6719 L 65.625 -4.15039 L 60.7422 -9.27734 L 56.9824 -13.1836 C 56.0059 -14.3066 54.4922 -15.0391 53.0273 -15.0391 C 49.9512 -15.0391 47.7051 -12.8906 47.7051 -9.91211 C 47.7051 -8.20312 48.291 -6.98242 49.6094 -5.81055 L 66.3574 9.57031 C 67.8711 10.9375 69.2871 11.7188 71.1426 11.7188 C 72.9492 11.7188 74.3652 10.9375 75.8789 9.57031 L 92.627 -5.81055 C 93.9453 -6.98242 94.5312 -8.20312 94.5312 -9.91211 C 94.5312 -12.8906 92.2363 -15.0391 89.209 -15.0391 C 87.7441 -15.0391 86.1816 -14.3066 85.2539 -13.1836 L 81.4941 -9.27734 L 76.6113 -4.15039 L 77.1973 -13.6719 Z"/>
  </g>
  <g id="Semibold-L" transform="matrix(1 0 0 1 1973.1 1556)">
   <path d="M 36.4746 33.1055 L 103.857 33.1055 C 117.188 33.1055 124.268 25.9766 124.268 12.5488 L 124.268 -45.3125 C 124.268 -53.8086 123.096 -57.8125 117.725 -63.2324 L 84.4238 -96.9238 C 79.248 -102.197 74.9512 -103.467 67.1387 -103.467 L 36.4746 -103.467 C 23.1445 -103.467 16.0645 -96.3379 16.0645 -82.9102 L 16.0645 12.5488 C 16.0645 26.0254 23.0957 33.1055 36.4746 33.1055 Z M 37.6465 20.8008 C 31.4453 20.8008 28.418 17.5781 28.418 11.5723 L 28.418 -81.9336 C 28.418 -87.793 31.4453 -91.1133 37.6953 -91.1133 L 64.5996 -91.1133 L 64.5996 -56.9336 C 64.5996 -47.7539 69.0918 -43.4082 78.125 -43.4082 L 111.914 -43.4082 L 111.914 11.5723 C 111.914 17.5781 108.838 20.8008 102.637 20.8008 Z M 79.1992 -54.0039 C 76.416 -54.0039 75.2441 -55.2246 75.2441 -58.0078 L 75.2441 -89.6484 L 110.449 -54.0039 Z M 75.5371 -31.0547 C 75.5371 -33.9844 73.0957 -36.1816 70.166 -36.1816 C 67.2363 -36.1816 64.7949 -33.9844 64.7949 -31.0547 L 64.7949 -11.6211 L 65.2832 -1.5625 L 59.6191 -7.51953 L 55.1758 -12.0605 C 54.2969 -13.0371 52.9297 -13.6719 51.6113 -13.6719 C 48.8281 -13.6719 46.8262 -11.7188 46.8262 -9.0332 C 46.8262 -7.4707 47.4121 -6.34766 48.584 -5.32227 L 66.0156 10.8398 C 67.3828 12.1094 68.6035 12.6953 70.166 12.6953 C 71.6797 12.6953 72.9492 12.1094 74.3164 10.8398 L 91.6992 -5.32227 C 92.9199 -6.34766 93.5059 -7.4707 93.5059 -9.0332 C 93.5059 -11.7188 91.4551 -13.6719 88.7207 -13.6719 C 87.4023 -13.6719 85.9863 -13.0371 85.1562 -12.0605 L 80.7617 -7.51953 L 75 -1.5625 L 75.5371 -11.6211 Z"/>
  </g>
  <g id="Medium-L" transform="matrix(1 0 0 1 1677.12 1556)">
   <path d="M 35.791 32.666 L 103.076 32.666 C 116.064 32.666 122.803 25.8789 122.803 12.793 L 122.803 -45.3125 C 122.803 -53.2715 121.729 -56.9336 116.748 -61.9629 L 82.2266 -96.9727 C 77.4414 -101.855 73.4375 -103.027 66.2109 -103.027 L 35.791 -103.027 C 22.8516 -103.027 16.0645 -96.1914 16.0645 -83.1055 L 16.0645 12.793 C 16.0645 25.9277 22.8027 32.666 35.791 32.666 Z M 36.6211 21.9727 C 30.127 21.9727 26.8066 18.5059 26.8066 12.1582 L 26.8066 -82.5195 C 26.8066 -88.7207 30.127 -92.2852 36.6699 -92.2852 L 64.4531 -92.2852 L 64.4531 -56.6895 C 64.4531 -48.2422 68.6035 -44.2383 76.9043 -44.2383 L 112.061 -44.2383 L 112.061 12.1582 C 112.061 18.5059 108.74 21.9727 102.197 21.9727 Z M 77.9297 -53.7598 C 75.1465 -53.7598 74.0234 -54.9316 74.0234 -57.7148 L 74.0234 -90.6738 L 110.449 -53.7598 Z M 74.2676 -32.0801 C 74.2676 -34.7168 72.0215 -36.7188 69.4336 -36.7188 C 66.7969 -36.7188 64.5996 -34.7168 64.5996 -32.0801 L 64.5996 -10.1074 L 65.0391 0.390625 L 58.6914 -6.15234 L 53.8086 -11.1816 C 52.9785 -12.1094 51.709 -12.6465 50.5371 -12.6465 C 47.998 -12.6465 46.1426 -10.8887 46.1426 -8.39844 C 46.1426 -6.88477 46.7285 -5.9082 47.8027 -4.93164 L 65.7715 11.8164 C 67.041 12.9395 68.1152 13.4766 69.4336 13.4766 C 70.752 13.4766 71.8262 12.9395 73.0957 11.8164 L 91.0645 -4.93164 C 92.1387 -5.9082 92.7246 -6.88477 92.7246 -8.39844 C 92.7246 -10.8887 90.8203 -12.6465 88.3301 -12.6465 C 87.1094 -12.6465 85.8398 -12.1094 85.0586 -11.1816 L 80.1758 -6.15234 L 73.8281 0.390625 L 74.2676 -10.1074 Z"/>
  </g>
  <g id="Regular-L" transform="matrix(1 0 0 1 1381.36 1556)">
   <path d="M 34.8633 32.1289 L 102.1 32.1289 C 114.6 32.1289 120.898 25.6836 120.898 13.1348 L 120.898 -45.3125 C 120.898 -52.5879 120.02 -55.7617 115.479 -60.3516 L 79.2969 -97.0215 C 75 -101.465 71.4844 -102.441 64.9902 -102.441 L 34.8633 -102.441 C 22.4609 -102.441 16.0645 -96.0449 16.0645 -83.4473 L 16.0645 13.1348 C 16.0645 25.7324 22.3633 32.1289 34.8633 32.1289 Z M 35.3027 23.4863 C 28.3203 23.4863 24.707 19.7754 24.707 12.9395 L 24.707 -83.252 C 24.707 -89.9414 28.3203 -93.7988 35.3516 -93.7988 L 64.2578 -93.7988 L 64.2578 -56.3965 C 64.2578 -48.9258 68.0176 -45.3125 75.3418 -45.3125 L 112.256 -45.3125 L 112.256 12.9395 C 112.256 19.7754 108.643 23.4863 101.611 23.4863 Z M 76.2695 -53.4668 C 73.5352 -53.4668 72.4121 -54.541 72.4121 -57.3242 L 72.4121 -92.0898 L 110.547 -53.4668 Z M 72.6074 -33.3984 C 72.6074 -35.5957 70.7031 -37.4023 68.5059 -37.4023 C 66.2598 -37.4023 64.3555 -35.5957 64.3555 -33.3984 L 64.3555 -8.10547 L 64.6973 2.92969 L 57.5684 -4.39453 L 52.002 -10.0586 C 51.2695 -10.8398 50.1465 -11.2793 49.1211 -11.2793 C 46.875 -11.2793 45.2637 -9.7168 45.2637 -7.51953 C 45.2637 -6.20117 45.8984 -5.27344 46.7773 -4.44336 L 65.4297 13.0859 C 66.5527 14.1113 67.4316 14.502 68.5059 14.502 C 69.5312 14.502 70.4102 14.1113 71.5332 13.0859 L 90.1855 -4.44336 C 91.0645 -5.27344 91.6992 -6.20117 91.6992 -7.51953 C 91.6992 -9.7168 90.0391 -11.2793 87.8418 -11.2793 C 86.7676 -11.2793 85.6934 -10.8398 84.9609 -10.0586 L 79.3945 -4.39453 L 72.2656 2.92969 L 72.6074 -8.10547 Z"/>
  </g>
  <g id="Light-L" transform="matrix(1 0 0 1 1085.43 1556)">
   <path d="M 33.9355 31.7871 L 101.514 31.7871 C 113.281 31.7871 119.336 25.6836 119.336 13.8184 L 119.336 -46.2402 C 119.336 -52.3926 118.506 -55.127 114.697 -58.9844 L 76.5625 -97.4121 C 72.9004 -101.123 69.9219 -102.051 64.3066 -102.051 L 33.9355 -102.051 C 22.2168 -102.051 16.0645 -95.9473 16.0645 -84.082 L 16.0645 13.8184 C 16.0645 25.6836 22.1191 31.7871 33.9355 31.7871 Z M 34.2285 25.1953 C 26.6113 25.1953 22.7051 21.1914 22.7051 13.6719 L 22.7051 -83.9355 C 22.7051 -91.2598 26.6113 -95.459 34.2773 -95.459 L 64.4531 -95.459 L 64.4531 -56.8848 C 64.4531 -50.0488 67.9199 -46.875 74.4629 -46.875 L 112.744 -46.875 L 112.744 13.6719 C 112.744 21.1914 108.789 25.1953 101.172 25.1953 Z M 75.0977 -53.1738 C 72.0215 -53.1738 70.752 -54.3945 70.752 -57.5195 L 70.752 -94.043 L 111.328 -53.1738 Z M 70.8984 -34.9121 C 70.8984 -36.6211 69.4336 -38.0371 67.7246 -38.0371 C 65.9668 -38.0371 64.502 -36.6211 64.502 -34.9121 L 64.502 -6.29883 L 64.7949 5.76172 L 55.2246 -3.95508 L 49.8535 -9.47266 C 49.2676 -10.0586 48.3887 -10.4492 47.5586 -10.4492 C 45.8496 -10.4492 44.5801 -9.17969 44.5801 -7.42188 C 44.5801 -6.20117 45.2148 -5.51758 45.9961 -4.78516 L 65.332 13.8672 C 66.1621 14.5996 66.8945 14.9414 67.7246 14.9414 C 68.5059 14.9414 69.2383 14.5996 70.0684 13.8672 L 89.4531 -4.78516 C 90.2344 -5.51758 90.8203 -6.20117 90.8203 -7.42188 C 90.8203 -9.17969 89.502 -10.4492 87.8418 -10.4492 C 86.9629 -10.4492 86.1328 -10.0586 85.5957 -9.47266 L 80.1758 -3.95508 L 70.6055 5.76172 L 70.8984 -6.29883 Z"/>
  </g>
  <g id="Thin-L" transform="matrix(1 0 0 1 789.747 1556)">
   <path d="M 32.666 31.3477 L 100.732 31.3477 C 111.572 31.3477 117.285 25.6348 117.285 14.7461 L 117.285 -47.4609 C 117.285 -52.1484 116.455 -54.2969 113.672 -57.1289 L 72.9004 -97.9492 C 70.1172 -100.732 67.9199 -101.562 63.3789 -101.562 L 32.666 -101.562 C 21.9238 -101.562 16.0645 -95.8496 16.0645 -84.9609 L 16.0645 14.7461 C 16.0645 25.6348 21.7773 31.3477 32.666 31.3477 Z M 32.8613 27.4414 C 24.3652 27.4414 19.9707 23.0469 19.9707 14.5996 L 19.9707 -84.8145 C 19.9707 -92.9688 24.3652 -97.6562 32.8613 -97.6562 L 64.7461 -97.6562 L 64.7461 -57.5195 C 64.7461 -51.5137 67.7246 -48.9746 73.291 -48.9746 L 113.379 -48.9746 L 113.379 14.5996 C 113.379 23.0469 108.984 27.4414 100.537 27.4414 Z M 73.584 -52.832 C 69.9707 -52.832 68.6035 -54.1992 68.6035 -57.8125 L 68.6035 -96.6797 L 112.354 -52.832 Z M 68.6035 -36.9141 C 68.6035 -37.9883 67.7246 -38.8184 66.6992 -38.8184 C 65.625 -38.8184 64.7461 -37.9883 64.7461 -36.9141 L 64.7461 -3.90625 L 64.9414 9.57031 L 52.0996 -3.41797 L 46.9727 -8.69141 C 46.6797 -9.0332 46.0938 -9.27734 45.5566 -9.27734 C 44.4824 -9.27734 43.6523 -8.44727 43.6523 -7.32422 C 43.6523 -6.25 44.2871 -5.81055 44.9219 -5.22461 L 65.2344 14.8926 C 65.6738 15.2832 66.2109 15.5762 66.6992 15.5762 C 67.1875 15.5762 67.6758 15.2832 68.1152 14.8926 L 88.4766 -5.22461 C 89.0625 -5.81055 89.6973 -6.25 89.6973 -7.32422 C 89.6973 -8.44727 88.8672 -9.27734 87.793 -9.27734 C 87.2559 -9.27734 86.6699 -9.0332 86.377 -8.69141 L 81.25 -3.41797 L 68.4082 9.57031 L 68.6035 -3.90625 Z"/>
  </g>
  <g id="Ultralight-L" transform="matrix(1 0 0 1 493.549 1556)">
   <path d="M 31.9824 31.1523 L 100.293 31.1523 C 110.693 31.1523 116.26 25.5859 116.26 15.2344 L 116.26 -48.1445 C 116.26 -52.002 115.43 -53.9062 113.135 -56.2012 L 71.0449 -98.1934 C 68.7012 -100.537 66.8945 -101.318 62.8906 -101.318 L 31.9824 -101.318 C 21.7773 -101.318 16.0645 -95.8008 16.0645 -85.4492 L 16.0645 15.2344 C 16.0645 25.5859 21.6309 31.1523 31.9824 31.1523 Z M 32.1289 28.5645 C 23.2422 28.5645 18.6035 23.9746 18.6035 15.0391 L 18.6035 -85.2539 C 18.6035 -93.8477 23.2422 -98.7793 32.1289 -98.7793 L 64.8438 -98.7793 L 64.8438 -57.8613 C 64.8438 -52.2949 67.6758 -50 72.7051 -50 L 113.672 -50 L 113.672 15.0391 C 113.672 23.9746 109.082 28.5645 100.195 28.5645 Z M 72.8027 -52.6367 C 68.9453 -52.6367 67.4805 -54.1016 67.4805 -57.9102 L 67.4805 -97.998 L 112.891 -52.6367 Z M 67.4316 -37.9395 C 67.4316 -38.6719 66.8945 -39.2578 66.1621 -39.2578 C 65.4297 -39.2578 64.8438 -38.6719 64.8438 -37.9395 L 64.8438 -2.68555 L 64.9902 11.5234 L 50.5371 -3.125 L 45.5078 -8.30078 C 45.3125 -8.44727 44.9219 -8.69141 44.5312 -8.69141 C 43.7988 -8.69141 43.1641 -8.05664 43.1641 -7.27539 C 43.1641 -6.25 43.8477 -6.00586 44.3359 -5.46875 L 65.1855 15.4297 C 65.3809 15.625 65.8203 15.8691 66.1621 15.8691 C 66.4551 15.8691 66.8945 15.625 67.1387 15.4297 L 87.9395 -5.46875 C 88.4766 -6.00586 89.1113 -6.25 89.1113 -7.27539 C 89.1113 -8.05664 88.5254 -8.69141 87.793 -8.69141 C 87.4023 -8.69141 86.9629 -8.44727 86.8164 -8.30078 L 81.7871 -3.125 L 67.334 11.5234 L 67.4316 -2.68555 Z"/>
  </g>
  <g id="Black-M" transform="matrix(1 0 0 1 2874.98 1126)">
   <path d="M 31.9824 20.2148 L 84.8633 20.2148 C 97.1191 20.2148 104.395 12.9395 104.395 0.683594 L 104.395 -43.6035 C 104.395 -52.7832 102.734 -57.8613 96.7773 -63.7695 L 77.5879 -83.0078 C 71.582 -88.9648 66.6016 -90.625 57.3242 -90.625 L 31.9824 -90.625 C 19.7266 -90.625 12.4512 -83.3496 12.4512 -71.0938 L 12.4512 0.683594 C 12.4512 12.9395 19.7266 20.2148 31.9824 20.2148 Z M 34.9121 1.9043 C 31.8359 1.9043 30.7617 0.585938 30.7617 -2.24609 L 30.7617 -68.1641 C 30.7617 -70.9961 31.8359 -72.3145 34.9121 -72.3145 L 51.0742 -72.3145 L 51.0742 -53.7598 C 51.0742 -42.4316 56.2012 -37.3047 67.5293 -37.3047 L 86.1328 -37.3047 L 86.1328 -2.24609 C 86.1328 0.585938 85.0098 1.9043 81.9336 1.9043 Z M 68.5547 -51.123 C 66.1621 -51.123 64.8926 -52.3926 64.8926 -54.7852 L 64.8926 -71.9727 L 85.791 -51.123 Z M 65.332 -26.6602 C 65.332 -30.5664 62.2559 -32.959 58.4473 -32.959 C 54.5898 -32.959 51.5137 -30.5664 51.5137 -26.6602 L 51.5137 -25.3906 L 52.1973 -19.5312 L 50.3418 -21.7773 L 50 -22.2656 C 49.0723 -23.4375 47.4609 -24.4629 45.8008 -24.4629 C 42.4805 -24.4629 39.9902 -22.0703 39.9902 -18.9453 C 39.9902 -17.0898 40.4785 -15.8691 42.041 -14.4531 L 52.6367 -5.07812 C 54.1992 -3.61328 56.0059 -2.53906 58.4473 -2.53906 C 60.8398 -2.53906 62.6465 -3.61328 64.209 -5.07812 L 74.8047 -14.4531 C 76.3672 -15.8691 76.9043 -17.0898 76.9043 -18.9453 C 76.9043 -22.0703 74.3652 -24.4629 71.0449 -24.4629 C 69.4824 -24.4629 67.627 -23.4375 66.8457 -22.2656 L 66.5527 -21.7773 L 64.6484 -19.5312 L 65.332 -25.3906 Z"/>
  </g>
  <g id="Heavy-M" transform="matrix(1 0 0 1 2579.41 1126)">
   <path d="M 30.957 19.4824 L 83.5938 19.4824 C 95.3125 19.4824 102.1 12.7441 102.1 0.976562 L 102.1 -43.3105 C 102.1 -51.8555 100.635 -56.3477 95.166 -61.8164 L 74.1211 -83.0078 C 68.7012 -88.4277 64.1602 -89.8926 55.8105 -89.8926 L 30.957 -89.8926 C 19.1895 -89.8926 12.4512 -83.1055 12.4512 -71.3379 L 12.4512 0.976562 C 12.4512 12.7441 19.1895 19.4824 30.957 19.4824 Z M 33.252 3.66211 C 29.7363 3.66211 28.2715 2.00195 28.2715 -1.31836 L 28.2715 -69.0918 C 28.2715 -72.3633 29.7363 -74.0723 33.3008 -74.0723 L 50.7324 -74.0723 L 50.7324 -53.2227 C 50.7324 -43.1152 55.4199 -38.4277 65.4785 -38.4277 L 86.2793 -38.4277 L 86.2793 -1.31836 C 86.2793 2.00195 84.8145 3.66211 81.25 3.66211 Z M 66.4551 -50.7324 C 64.209 -50.7324 63.0371 -51.9043 63.0371 -54.1504 L 63.0371 -73.4375 L 85.6445 -50.7324 Z M 63.4277 -28.125 C 63.4277 -31.5918 60.6934 -33.7891 57.2754 -33.7891 C 53.8574 -33.7891 51.123 -31.5918 51.123 -28.125 L 51.123 -22.998 L 51.709 -16.6504 L 49.3164 -19.3848 L 47.998 -20.8008 C 47.1191 -21.875 45.6543 -22.7539 44.1895 -22.7539 C 41.1621 -22.7539 38.916 -20.6055 38.916 -17.7246 C 38.916 -16.0645 39.4043 -14.8926 40.7715 -13.6719 L 52.1973 -3.4668 C 53.6133 -2.14844 55.2246 -1.2207 57.2754 -1.2207 C 59.3262 -1.2207 60.8887 -2.14844 62.3535 -3.4668 L 73.7305 -13.6719 C 75.1465 -14.8926 75.6348 -16.0645 75.6348 -17.7246 C 75.6348 -20.6055 73.3398 -22.7539 70.3613 -22.7539 C 68.9453 -22.7539 67.2852 -21.875 66.5039 -20.8008 L 65.2832 -19.3848 L 62.8418 -16.6504 L 63.4277 -22.998 Z"/>
  </g>
  <g id="Bold-M" transform="matrix(1 0 0 1 2284 1126)">
   <path d="M 29.7852 18.7012 L 82.1777 18.7012 C 93.3105 18.7012 99.5117 12.5 99.5117 1.26953 L 99.5117 -43.0664 C 99.5117 -50.7812 98.291 -54.6875 93.3594 -59.668 L 70.3125 -82.959 C 65.4785 -87.8418 61.4258 -89.0625 54.0527 -89.0625 L 29.7852 -89.0625 C 18.6035 -89.0625 12.4512 -82.8613 12.4512 -71.6309 L 12.4512 1.26953 C 12.4512 12.5 18.6035 18.7012 29.7852 18.7012 Z M 31.4453 5.61523 C 27.3926 5.61523 25.5371 3.56445 25.5371 -0.244141 L 25.5371 -70.1172 C 25.5371 -73.9258 27.3926 -75.9766 31.4453 -75.9766 L 50.3906 -75.9766 L 50.3906 -52.5391 C 50.3906 -43.7988 54.4922 -39.6973 63.2324 -39.6973 L 86.4258 -39.6973 L 86.4258 -0.244141 C 86.4258 3.56445 84.5703 5.61523 80.4688 5.61523 Z M 64.1602 -50.3418 C 62.0117 -50.3418 60.9863 -51.3184 60.9863 -53.5156 L 60.9863 -75.0488 L 85.498 -50.3418 Z M 61.2793 -29.7852 C 61.2793 -32.7637 58.8867 -34.7656 55.957 -34.7656 C 53.0273 -34.7656 50.6348 -32.7637 50.6348 -29.7852 L 50.6348 -20.3125 L 51.1719 -13.4277 L 48.1445 -16.6992 L 45.752 -19.1406 C 44.9707 -20.1172 43.6523 -20.8008 42.3828 -20.8008 C 39.6973 -20.8008 37.7441 -18.9453 37.7441 -16.3574 C 37.7441 -14.8926 38.1836 -13.8672 39.4043 -12.8418 L 51.709 -1.66016 C 52.9785 -0.439453 54.2969 0.244141 55.957 0.244141 C 57.666 0.244141 58.9355 -0.439453 60.2539 -1.66016 L 72.5586 -12.8418 C 73.7305 -13.8672 74.2188 -14.8926 74.2188 -16.3574 C 74.2188 -18.9453 72.2168 -20.8008 69.5801 -20.8008 C 68.3105 -20.8008 66.8945 -20.1172 66.1621 -19.1406 L 63.8184 -16.6992 L 60.791 -13.4277 L 61.2793 -20.3125 Z"/>
  </g>
  <g id="Semibold-M" transform="matrix(1 0 0 1 1988.19 1126)">
   <path d="M 29.0039 18.1152 L 81.1523 18.1152 C 91.9434 18.1152 97.7051 12.3047 97.7051 1.46484 L 97.7051 -42.8223 C 97.7051 -50.0488 96.6797 -53.5156 92.1387 -58.1543 L 67.6758 -82.959 C 63.2324 -87.4512 59.5215 -88.5254 52.8809 -88.5254 L 29.0039 -88.5254 C 18.2129 -88.5254 12.4512 -82.666 12.4512 -71.8262 L 12.4512 1.46484 C 12.4512 12.3535 18.2129 18.1152 29.0039 18.1152 Z M 30.1758 6.93359 C 25.7324 6.93359 23.6328 4.6875 23.6328 0.439453 L 23.6328 -70.8496 C 23.6328 -75 25.7324 -77.3438 30.1758 -77.3438 L 50.1465 -77.3438 L 50.1465 -52.0996 C 50.1465 -44.3359 53.9062 -40.625 61.6211 -40.625 L 86.5234 -40.625 L 86.5234 0.439453 C 86.5234 4.6875 84.375 6.93359 79.9805 6.93359 Z M 62.5488 -50.0488 C 60.498 -50.0488 59.5703 -50.9766 59.5703 -53.0273 L 59.5703 -76.1719 L 85.4004 -50.0488 Z M 59.8145 -30.957 C 59.8145 -33.5449 57.666 -35.4004 55.0781 -35.4004 C 52.4902 -35.4004 50.3418 -33.5449 50.3418 -30.957 L 50.3418 -18.457 L 50.7812 -11.1816 L 47.3633 -14.8438 L 44.2383 -18.0176 C 43.457 -18.8965 42.2852 -19.4824 41.1133 -19.4824 C 38.7207 -19.4824 36.9141 -17.7734 36.9141 -15.4297 C 36.9141 -14.1113 37.4023 -13.1348 38.4277 -12.2559 L 51.3672 -0.390625 C 52.5879 0.683594 53.6621 1.26953 55.0781 1.26953 C 56.4941 1.26953 57.5684 0.683594 58.7891 -0.390625 L 71.7285 -12.2559 C 72.7539 -13.1348 73.2422 -14.1113 73.2422 -15.4297 C 73.2422 -17.7734 71.4355 -19.4824 69.043 -19.4824 C 67.8711 -19.4824 66.6504 -18.8965 65.918 -18.0176 L 62.8418 -14.8438 L 59.375 -11.1816 L 59.8145 -18.457 Z"/>
  </g>
  <g id="Medium-M" transform="matrix(1 0 0 1 1692.16 1126)">
   <path d="M 28.3691 17.7246 L 80.4199 17.7246 C 90.918 17.7246 96.3379 12.1582 96.3379 1.61133 L 96.3379 -42.6758 C 96.3379 -49.5117 95.459 -52.6367 91.2109 -56.9824 L 65.6738 -82.9102 C 61.5234 -87.1094 58.1055 -88.0859 51.9531 -88.0859 L 28.3691 -88.0859 C 17.9199 -88.0859 12.4512 -82.5684 12.4512 -72.0215 L 12.4512 1.61133 C 12.4512 12.207 17.9199 17.7246 28.3691 17.7246 Z M 29.1992 7.95898 C 24.5117 7.95898 22.168 5.51758 22.168 0.976562 L 22.168 -71.3867 C 22.168 -75.8301 24.5117 -78.3691 29.248 -78.3691 L 49.9512 -78.3691 L 49.9512 -51.7578 C 49.9512 -44.6777 53.418 -41.2598 60.4492 -41.2598 L 86.6211 -41.2598 L 86.6211 0.976562 C 86.6211 5.51758 84.2773 7.95898 79.541 7.95898 Z M 61.377 -49.8047 C 59.3262 -49.8047 58.4473 -50.6836 58.4473 -52.6855 L 58.4473 -77.0508 L 85.3027 -49.8047 Z M 58.6914 -31.7871 C 58.6914 -34.1797 56.7383 -35.9375 54.3945 -35.9375 C 52.0508 -35.9375 50.0977 -34.1797 50.0977 -31.7871 L 50.0977 -17.041 L 50.4883 -9.52148 L 46.7285 -13.4277 L 43.0664 -17.1875 C 42.334 -17.9688 41.2109 -18.5059 40.1855 -18.5059 C 37.9395 -18.5059 36.2793 -16.8945 36.2793 -14.7461 C 36.2793 -13.5254 36.7676 -12.5977 37.6953 -11.7676 L 51.123 0.537109 C 52.2461 1.5625 53.1738 2.05078 54.3945 2.05078 C 55.6152 2.05078 56.543 1.5625 57.666 0.537109 L 71.0938 -11.7676 C 72.0215 -12.5977 72.5098 -13.5254 72.5098 -14.7461 C 72.5098 -16.8945 70.8496 -18.5059 68.6035 -18.5059 C 67.5781 -18.5059 66.4551 -17.9688 65.7227 -17.1875 L 62.0605 -13.4277 L 58.3008 -9.52148 L 58.6914 -17.041 Z"/>
  </g>
  <g id="Regular-M" transform="matrix(1 0 0 1 1396.33 1126)">
   <path d="M 27.5879 17.1387 L 79.4434 17.1387 C 89.5508 17.1387 94.5801 12.0117 94.5801 1.85547 L 94.5801 -42.4805 C 94.5801 -48.7793 93.8477 -51.5137 89.9414 -55.5176 L 63.0371 -82.9102 C 59.3262 -86.7188 56.25 -87.5488 50.7812 -87.5488 L 27.5879 -87.5488 C 17.5293 -87.5488 12.4512 -82.373 12.4512 -72.2168 L 12.4512 1.85547 C 12.4512 12.0605 17.4805 17.1387 27.5879 17.1387 Z M 27.9297 9.27734 C 22.9004 9.27734 20.3125 6.5918 20.3125 1.70898 L 20.3125 -72.0703 C 20.3125 -76.9043 22.9004 -79.6875 27.9785 -79.6875 L 49.707 -79.6875 L 49.707 -51.3184 C 49.707 -45.166 52.7832 -42.1387 58.8867 -42.1387 L 86.7188 -42.1387 L 86.7188 1.70898 C 86.7188 6.5918 84.1309 9.27734 79.0527 9.27734 Z M 59.7656 -49.5117 C 57.8125 -49.5117 57.0801 -50.293 57.0801 -52.2461 L 57.0801 -78.1738 L 85.2051 -49.5117 Z M 57.2266 -32.959 C 57.2266 -34.9609 55.5176 -36.5723 53.5156 -36.5723 C 51.5137 -36.5723 49.8047 -34.9609 49.8047 -32.959 L 49.8047 -15.2344 L 50.0977 -7.27539 L 45.9473 -11.5723 L 41.5527 -16.0645 C 40.8691 -16.7969 39.8438 -17.1875 38.916 -17.1875 C 36.9141 -17.1875 35.498 -15.7715 35.498 -13.8184 C 35.498 -12.6953 35.9375 -11.8652 36.7188 -11.1816 L 50.7812 1.75781 C 51.8066 2.68555 52.5879 3.02734 53.5156 3.02734 C 54.4434 3.02734 55.2246 2.68555 56.25 1.75781 L 70.3125 -11.1816 C 71.0938 -11.8652 71.5332 -12.6953 71.5332 -13.8184 C 71.5332 -15.7715 70.0684 -17.1875 68.1152 -17.1875 C 67.1387 -17.1875 66.1621 -16.7969 65.4785 -16.0645 L 61.084 -11.5723 L 56.9336 -7.27539 L 57.2266 -15.2344 Z"/>
  </g>
  <g id="Light-M" transform="matrix(1 0 0 1 1100.33 1126)">
   <path d="M 26.709 16.8457 L 78.9062 16.8457 C 88.3789 16.8457 93.1641 11.9629 93.1641 2.49023 L 93.1641 -43.3594 C 93.1641 -48.6328 92.4805 -50.9277 89.2578 -54.248 L 60.5469 -83.252 C 57.4219 -86.4258 54.8828 -87.207 50.1465 -87.207 L 26.709 -87.207 C 17.334 -87.207 12.4512 -82.3242 12.4512 -72.8027 L 12.4512 2.49023 C 12.4512 12.0117 17.2852 16.8457 26.709 16.8457 Z M 27.002 10.8398 C 21.3867 10.8398 18.5059 7.86133 18.5059 2.34375 L 18.5059 -72.6562 C 18.5059 -78.0762 21.3867 -81.1523 27.0508 -81.1523 L 49.8535 -81.1523 L 49.8535 -51.7578 C 49.8535 -46.1914 52.6855 -43.5547 58.1055 -43.5547 L 87.1582 -43.5547 L 87.1582 2.34375 C 87.1582 7.86133 84.2285 10.8398 78.6133 10.8398 Z M 58.7402 -49.2676 C 56.4941 -49.2676 55.5664 -50.1465 55.5664 -52.4414 L 55.5664 -79.9316 L 85.9375 -49.2676 Z M 55.7129 -34.2773 C 55.7129 -35.8398 54.3945 -37.1094 52.832 -37.1094 C 51.2695 -37.1094 49.9512 -35.8398 49.9512 -34.2773 L 49.9512 -13.623 L 50.1953 -4.73633 L 43.8477 -11.1816 L 39.5996 -15.5273 C 39.0625 -16.0645 38.2812 -16.4062 37.5488 -16.4062 C 35.9863 -16.4062 34.8633 -15.2832 34.8633 -13.7207 C 34.8633 -12.7441 35.3516 -12.1094 35.9863 -11.4746 L 50.6836 2.44141 C 51.4648 3.17383 52.0996 3.4668 52.832 3.4668 C 53.5645 3.4668 54.1992 3.17383 54.9316 2.44141 L 69.6289 -11.4746 C 70.3125 -12.1094 70.752 -12.7441 70.752 -13.7207 C 70.752 -15.2832 69.5801 -16.4062 68.0664 -16.4062 C 67.334 -16.4062 66.5527 -16.0645 66.0645 -15.5273 L 61.8164 -11.1816 L 55.4688 -4.73633 L 55.7129 -13.623 Z"/>
  </g>
  <g id="Thin-M" transform="matrix(1 0 0 1 804.518 1126)">
   <path d="M 25.5859 16.4551 L 78.2227 16.4551 C 86.8164 16.4551 91.3574 11.9629 91.3574 3.32031 L 91.3574 -44.4336 C 91.3574 -48.3887 90.7227 -50.1953 88.3301 -52.6367 L 57.3242 -83.7402 C 54.9316 -86.084 53.0762 -86.7676 49.3164 -86.7676 L 25.5859 -86.7676 C 17.041 -86.7676 12.4512 -82.2266 12.4512 -73.584 L 12.4512 3.32031 C 12.4512 11.9629 16.9434 16.4551 25.5859 16.4551 Z M 25.7324 12.8418 C 19.3848 12.8418 16.0645 9.52148 16.0645 3.17383 L 16.0645 -73.4863 C 16.0645 -79.5898 19.3848 -83.1543 25.7812 -83.1543 L 50.0977 -83.1543 L 50.0977 -52.3926 C 50.0977 -47.5098 52.5391 -45.4102 57.0801 -45.4102 L 87.7441 -45.4102 L 87.7441 3.17383 C 87.7441 9.52148 84.4238 12.8418 78.0273 12.8418 Z M 57.373 -48.9258 C 54.6875 -48.9258 53.6133 -50 53.6133 -52.6367 L 53.6133 -82.2754 L 86.8652 -48.9258 Z M 53.6621 -36.084 C 53.6621 -37.0605 52.8809 -37.8418 51.9043 -37.8418 C 50.9277 -37.8418 50.1465 -37.0605 50.1465 -36.084 L 50.1465 -11.4746 L 50.293 -1.31836 L 41.0645 -10.6934 L 37.0117 -14.8438 C 36.7188 -15.1367 36.2305 -15.3809 35.7422 -15.3809 C 34.7656 -15.3809 34.0332 -14.6484 34.0332 -13.623 C 34.0332 -12.7441 34.5215 -12.4023 35.0098 -11.9141 L 50.5859 3.36914 C 50.9766 3.75977 51.4648 4.00391 51.9043 4.00391 C 52.3438 4.00391 52.7832 3.75977 53.2227 3.36914 L 68.75 -11.9141 C 69.2871 -12.4023 69.7754 -12.7441 69.7754 -13.623 C 69.7754 -14.6484 68.9941 -15.3809 68.0664 -15.3809 C 67.5781 -15.3809 67.041 -15.1367 66.748 -14.8438 L 62.7441 -10.6934 L 53.5156 -1.31836 L 53.6621 -11.4746 Z"/>
  </g>
  <g id="Ultralight-M" transform="matrix(1 0 0 1 508.295 1126)">
   <path d="M 25 16.2598 L 77.8809 16.2598 C 86.0352 16.2598 90.3809 11.9141 90.3809 3.71094 L 90.3809 -45.0195 C 90.3809 -48.291 89.7949 -49.8047 87.8418 -51.7578 L 55.6152 -83.9355 C 53.6621 -85.9375 52.1484 -86.5234 48.877 -86.5234 L 25 -86.5234 C 16.9434 -86.5234 12.4512 -82.1777 12.4512 -73.9746 L 12.4512 3.71094 C 12.4512 11.9141 16.7969 16.2598 25 16.2598 Z M 25.0977 13.8672 C 18.3594 13.8672 14.8438 10.3516 14.8438 3.61328 L 14.8438 -73.877 C 14.8438 -80.3711 18.3594 -84.1309 25.0977 -84.1309 L 50.2441 -84.1309 L 50.2441 -52.6855 C 50.2441 -48.1934 52.4414 -46.3867 56.543 -46.3867 L 87.9883 -46.3867 L 87.9883 3.61328 C 87.9883 10.3516 84.5215 13.8672 77.7344 13.8672 Z M 56.6406 -48.7793 C 53.7598 -48.7793 52.6367 -49.9023 52.6367 -52.7832 L 52.6367 -83.4961 L 87.3535 -48.7793 Z M 52.6367 -37.0117 C 52.6367 -37.6953 52.0996 -38.2324 51.416 -38.2324 C 50.7812 -38.2324 50.2441 -37.6953 50.2441 -37.0117 L 50.2441 -10.3516 L 50.3418 0.390625 L 39.6484 -10.4492 L 35.6934 -14.4531 C 35.5469 -14.6484 35.1562 -14.8438 34.8145 -14.8438 C 34.1309 -14.8438 33.5938 -14.3066 33.5938 -13.5742 C 33.5938 -12.7441 34.082 -12.5 34.5215 -12.1094 L 50.5371 3.85742 C 50.7812 4.10156 51.123 4.29688 51.416 4.29688 C 51.709 4.29688 52.0996 4.10156 52.3438 3.85742 L 68.3105 -12.1094 C 68.75 -12.5 69.2383 -12.7441 69.2383 -13.5742 C 69.2383 -14.3066 68.7012 -14.8438 68.0664 -14.8438 C 67.6758 -14.8438 67.334 -14.6484 67.1387 -14.4531 L 63.2324 -10.4492 L 52.4902 0.390625 L 52.6367 -10.3516 Z"/>
  </g>
  <g id="Black-S" transform="matrix(1 0 0 1 2887.7 696)">
   <path d="M 25 8.1543 L 66.4062 8.1543 C 75.9766 8.1543 81.6406 2.49023 81.6406 -7.08008 L 81.6406 -41.748 C 81.6406 -48.9258 80.3711 -52.832 75.7324 -57.4707 L 60.5469 -72.6562 C 55.9082 -77.2949 52.002 -78.5645 44.8242 -78.5645 L 25 -78.5645 C 15.4297 -78.5645 9.76562 -72.9004 9.76562 -63.3301 L 9.76562 -7.08008 C 9.76562 2.49023 15.4297 8.1543 25 8.1543 Z M 27.2461 -6.00586 C 24.8047 -6.00586 23.9258 -7.08008 23.9258 -9.32617 L 23.9258 -61.084 C 23.9258 -63.3301 24.8047 -64.4043 27.2461 -64.4043 L 39.9902 -64.4043 L 39.9902 -49.707 C 39.9902 -40.918 43.9941 -36.9141 52.7832 -36.9141 L 67.4805 -36.9141 L 67.4805 -9.32617 C 67.4805 -7.08008 66.6016 -6.00586 64.1602 -6.00586 Z M 53.5645 -47.6562 C 51.709 -47.6562 50.7324 -48.6328 50.7324 -50.4883 L 50.7324 -64.1113 L 67.1875 -47.6562 Z M 51.0742 -28.6133 C 51.0742 -31.6406 48.6816 -33.4961 45.7031 -33.4961 C 42.7246 -33.4961 40.332 -31.6406 40.332 -28.6133 L 40.332 -27.3438 L 40.8691 -22.7539 L 39.4043 -24.5117 L 39.0625 -24.9512 C 38.3301 -25.8789 37.0605 -26.6602 35.791 -26.6602 C 33.2031 -26.6602 31.25 -24.8047 31.25 -22.3633 C 31.25 -20.9473 31.6406 -19.9707 32.8613 -18.8965 L 41.2109 -11.4746 C 42.4316 -10.3516 43.8477 -9.52148 45.7031 -9.52148 C 47.5586 -9.52148 48.9746 -10.3516 50.1953 -11.4746 L 58.5449 -18.8965 C 59.7656 -19.9707 60.1562 -20.9473 60.1562 -22.3633 C 60.1562 -24.8047 58.2031 -26.6602 55.6152 -26.6602 C 54.3945 -26.6602 52.9785 -25.8789 52.3438 -24.9512 L 52.0508 -24.5117 L 50.5371 -22.7539 L 51.0742 -27.3438 Z"/>
  </g>
  <g id="Heavy-S" transform="matrix(1 0 0 1 2591.79 696)">
   <path d="M 24.3164 7.61719 L 65.4785 7.61719 C 74.7559 7.61719 80.0293 2.34375 80.0293 -6.93359 L 80.0293 -41.4551 C 80.0293 -48.1934 78.9062 -51.7578 74.5605 -56.1035 L 58.2031 -72.6074 C 53.9062 -76.9043 50.293 -78.0273 43.7012 -78.0273 L 24.3164 -78.0273 C 15.0391 -78.0273 9.76562 -72.7539 9.76562 -63.4766 L 9.76562 -6.93359 C 9.76562 2.34375 15.0391 7.61719 24.3164 7.61719 Z M 26.0742 -4.83398 C 23.3887 -4.83398 22.2656 -6.15234 22.2656 -8.69141 L 22.2656 -61.7188 C 22.2656 -64.2578 23.3887 -65.5762 26.123 -65.5762 L 39.6973 -65.5762 L 39.6973 -49.2188 C 39.6973 -41.3086 43.4082 -37.6465 51.3184 -37.6465 L 67.5293 -37.6465 L 67.5293 -8.69141 C 67.5293 -6.15234 66.4062 -4.83398 63.6719 -4.83398 Z M 52.0996 -47.4121 C 50.3418 -47.4121 49.4629 -48.291 49.4629 -50 L 49.4629 -65.0391 L 66.9922 -47.4121 Z M 49.8047 -29.5898 C 49.8047 -32.3242 47.6074 -34.082 44.873 -34.082 C 42.1875 -34.082 39.9902 -32.3242 39.9902 -29.5898 L 39.9902 -25.6836 L 40.4785 -20.8496 L 38.8672 -22.7051 L 37.7441 -23.877 C 37.0605 -24.7559 35.8398 -25.4395 34.7168 -25.4395 C 32.3242 -25.4395 30.5176 -23.7305 30.5176 -21.4355 C 30.5176 -20.166 30.9082 -19.2383 31.9824 -18.2617 L 40.8691 -10.3027 C 42.041 -9.27734 43.2617 -8.54492 44.873 -8.54492 C 46.5332 -8.54492 47.7539 -9.27734 48.9258 -10.3027 L 57.8125 -18.2617 C 58.8867 -19.2383 59.2773 -20.166 59.2773 -21.4355 C 59.2773 -23.7305 57.4707 -25.4395 55.0781 -25.4395 C 53.9551 -25.4395 52.6855 -24.7559 52.0508 -23.877 L 50.9766 -22.7051 L 49.3164 -20.8496 L 49.8047 -25.6836 Z"/>
  </g>
  <g id="Bold-S" transform="matrix(1 0 0 1 2295.98 696)">
   <path d="M 23.5352 7.08008 L 64.4531 7.08008 C 73.3398 7.08008 78.2227 2.14844 78.2227 -6.78711 L 78.2227 -41.1133 C 78.2227 -47.4121 77.2949 -50.5371 73.291 -54.5898 L 55.5664 -72.5586 C 51.6602 -76.5137 48.3887 -77.4414 42.4805 -77.4414 L 23.5352 -77.4414 C 14.6484 -77.4414 9.76562 -72.5586 9.76562 -63.623 L 9.76562 -6.78711 C 9.76562 2.14844 14.6484 7.08008 23.5352 7.08008 Z M 24.8047 -3.56445 C 21.7773 -3.56445 20.3613 -5.07812 20.3613 -7.95898 L 20.3613 -62.4512 C 20.3613 -65.332 21.7773 -66.8457 24.8047 -66.8457 L 39.4043 -66.8457 L 39.4043 -48.6816 C 39.4043 -41.748 42.7246 -38.4277 49.6582 -38.4277 L 67.627 -38.4277 L 67.627 -7.95898 C 67.627 -5.07812 66.2109 -3.56445 63.1348 -3.56445 Z M 50.4395 -47.1191 C 48.8281 -47.1191 48.0957 -47.8516 48.0957 -49.4629 L 48.0957 -66.0645 L 66.7969 -47.1191 Z M 48.3398 -30.7129 C 48.3398 -33.1055 46.3867 -34.7656 43.9941 -34.7656 C 41.6016 -34.7656 39.6484 -33.1055 39.6484 -30.7129 L 39.6484 -23.8281 L 40.0391 -18.6523 L 38.2324 -20.7031 L 36.2793 -22.7051 C 35.5957 -23.4863 34.5215 -24.0723 33.4961 -24.0723 C 31.2988 -24.0723 29.6875 -22.5098 29.6875 -20.4102 C 29.6875 -19.2871 30.0781 -18.4082 31.0059 -17.5781 L 40.5273 -9.0332 C 41.6016 -8.05664 42.627 -7.4707 43.9941 -7.4707 C 45.3613 -7.4707 46.3867 -8.05664 47.4609 -9.0332 L 56.9824 -17.5781 C 57.9102 -18.4082 58.3008 -19.2871 58.3008 -20.4102 C 58.3008 -22.5098 56.6406 -24.0723 54.4922 -24.0723 C 53.4668 -24.0723 52.3438 -23.4863 51.709 -22.7051 L 49.8047 -20.7031 L 47.9492 -18.6523 L 48.3398 -23.8281 Z"/>
  </g>
  <g id="Semibold-S" transform="matrix(1 0 0 1 1999.91 696)">
   <path d="M 22.998 6.64062 L 63.7695 6.64062 C 72.4121 6.64062 76.9531 2.00195 76.9531 -6.68945 L 76.9531 -40.918 C 76.9531 -46.875 76.1719 -49.707 72.4121 -53.5645 L 53.7598 -72.5098 C 50.0977 -76.2207 47.0703 -77.0508 41.6016 -77.0508 L 22.998 -77.0508 C 14.3555 -77.0508 9.76562 -72.4121 9.76562 -63.7207 L 9.76562 -6.68945 C 9.76562 2.05078 14.3555 6.64062 22.998 6.64062 Z M 23.9258 -2.63672 C 20.6543 -2.63672 19.0918 -4.3457 19.0918 -7.4707 L 19.0918 -62.9395 C 19.0918 -66.0645 20.6543 -67.7734 23.9258 -67.7734 L 39.209 -67.7734 L 39.209 -48.291 C 39.209 -42.041 42.2363 -39.0137 48.4863 -39.0137 L 67.6758 -39.0137 L 67.6758 -7.4707 C 67.6758 -4.3457 66.0645 -2.63672 62.793 -2.63672 Z M 49.3164 -46.875 C 47.8027 -46.875 47.1191 -47.6074 47.1191 -49.1211 L 47.1191 -66.748 L 66.6504 -46.875 Z M 47.3633 -31.4453 C 47.3633 -33.6426 45.5078 -35.2051 43.3594 -35.2051 C 41.2109 -35.2051 39.4043 -33.6426 39.4043 -31.4453 L 39.4043 -22.5586 L 39.7461 -17.1875 L 37.793 -19.2871 L 35.2539 -21.875 C 34.6191 -22.6562 33.5938 -23.0957 32.666 -23.0957 C 30.6152 -23.0957 29.1016 -21.6797 29.1016 -19.7266 C 29.1016 -18.6523 29.4922 -17.8223 30.3223 -17.0898 L 40.2832 -8.1543 C 41.3086 -7.22656 42.1875 -6.73828 43.3594 -6.73828 C 44.5312 -6.73828 45.4102 -7.22656 46.4844 -8.1543 L 56.3965 -17.0898 C 57.2754 -17.8223 57.6172 -18.6523 57.6172 -19.7266 C 57.6172 -21.6797 56.1035 -23.0957 54.1016 -23.0957 C 53.125 -23.0957 52.0996 -22.6562 51.4648 -21.875 L 48.9746 -19.2871 L 46.9727 -17.1875 L 47.3633 -22.5586 Z"/>
  </g>
  <g id="Medium-S" transform="matrix(1 0 0 1 1703.66 696)">
   <path d="M 22.5586 6.34766 L 63.2324 6.34766 C 71.6797 6.34766 76.0254 1.9043 76.0254 -6.5918 L 76.0254 -40.7227 C 76.0254 -46.4844 75.293 -49.0723 71.7285 -52.7344 L 52.3926 -72.4609 C 48.9258 -75.9766 46.0449 -76.7578 40.918 -76.7578 L 22.5586 -76.7578 C 14.1113 -76.7578 9.76562 -72.3145 9.76562 -63.8184 L 9.76562 -6.5918 C 9.76562 1.95312 14.1113 6.34766 22.5586 6.34766 Z M 23.2422 -1.95312 C 19.8242 -1.95312 18.0664 -3.80859 18.0664 -7.08008 L 18.0664 -63.3301 C 18.0664 -66.6016 19.8242 -68.457 23.291 -68.457 L 39.0625 -68.457 L 39.0625 -47.998 C 39.0625 -42.2363 41.8945 -39.4043 47.6562 -39.4043 L 67.6758 -39.4043 L 67.6758 -7.08008 C 67.6758 -3.80859 65.9668 -1.95312 62.5 -1.95312 Z M 48.4863 -46.7285 C 47.0215 -46.7285 46.3867 -47.3633 46.3867 -48.8281 L 46.3867 -67.2852 L 66.5527 -46.7285 Z M 46.582 -32.0312 C 46.582 -34.0332 44.873 -35.5469 42.8711 -35.5469 C 40.8691 -35.5469 39.209 -34.0332 39.209 -32.0312 L 39.209 -21.6309 L 39.502 -16.0645 L 37.4512 -18.2617 L 34.4727 -21.2891 C 33.8379 -21.9727 32.9102 -22.4121 32.0312 -22.4121 C 30.0781 -22.4121 28.7109 -21.0449 28.7109 -19.1895 C 28.7109 -18.1641 29.0527 -17.3828 29.7852 -16.748 L 40.0879 -7.4707 C 41.0645 -6.5918 41.8457 -6.20117 42.8711 -6.20117 C 43.8965 -6.20117 44.7266 -6.5918 45.7031 -7.4707 L 55.957 -16.748 C 56.7383 -17.3828 57.0801 -18.1641 57.0801 -19.1895 C 57.0801 -21.0449 55.6641 -22.4121 53.7598 -22.4121 C 52.832 -22.4121 51.9043 -21.9727 51.2695 -21.2891 L 48.3398 -18.2617 L 46.2891 -16.0645 L 46.582 -21.6309 Z"/>
  </g>
  <g id="Regular-S" transform="matrix(1 0 0 1 1407.56 696)">
   <path d="M 22.0215 5.95703 L 62.5 5.95703 C 70.7031 5.95703 74.8047 1.80664 74.8047 -6.49414 L 74.8047 -40.5273 C 74.8047 -45.8984 74.2188 -48.2422 70.8496 -51.709 L 50.5859 -72.4121 C 47.4121 -75.6836 44.7754 -76.3672 40.0879 -76.3672 L 22.0215 -76.3672 C 13.8184 -76.3672 9.76562 -72.2168 9.76562 -63.916 L 9.76562 -6.49414 C 9.76562 1.85547 13.8184 5.95703 22.0215 5.95703 Z M 22.3633 -1.07422 C 18.7012 -1.07422 16.7969 -3.07617 16.7969 -6.5918 L 16.7969 -63.8184 C 16.7969 -67.334 18.7012 -69.3359 22.4121 -69.3359 L 38.8672 -69.3359 L 38.8672 -47.6074 C 38.8672 -42.5293 41.4551 -39.9414 46.5332 -39.9414 L 67.7246 -39.9414 L 67.7246 -6.5918 C 67.7246 -3.07617 65.8203 -1.07422 62.1582 -1.07422 Z M 47.3633 -46.5332 C 45.9961 -46.5332 45.4102 -47.1191 45.4102 -48.4863 L 45.4102 -68.0176 L 66.4062 -46.5332 Z M 45.6055 -32.7637 C 45.6055 -34.5703 44.043 -36.0352 42.2852 -36.0352 C 40.4785 -36.0352 38.916 -34.5703 38.916 -32.7637 L 38.916 -20.3613 L 39.209 -14.5996 L 37.0117 -16.8945 L 33.4961 -20.459 C 32.8613 -21.1426 31.9824 -21.4844 31.2012 -21.4844 C 29.3945 -21.4844 28.125 -20.2148 28.125 -18.5059 C 28.125 -17.5781 28.4668 -16.8457 29.1504 -16.2598 L 39.8438 -6.5918 C 40.7715 -5.76172 41.4062 -5.46875 42.2852 -5.46875 C 43.1152 -5.46875 43.7988 -5.76172 44.7266 -6.5918 L 55.4199 -16.2598 C 56.1035 -16.8457 56.4453 -17.5781 56.4453 -18.5059 C 56.4453 -20.2148 55.127 -21.4844 53.3691 -21.4844 C 52.5391 -21.4844 51.6602 -21.1426 51.0742 -20.459 L 47.5098 -16.8945 L 45.3125 -14.5996 L 45.6055 -20.3613 Z"/>
  </g>
  <g id="Light-S" transform="matrix(1 0 0 1 1111.48 696)">
   <path d="M 21.2891 5.71289 L 62.0605 5.71289 C 69.6777 5.71289 73.5352 1.75781 73.5352 -5.95703 L 73.5352 -41.2598 C 73.5352 -45.752 72.998 -47.7539 70.2148 -50.6348 L 48.3887 -72.7051 C 45.752 -75.4395 43.5547 -76.0742 39.5508 -76.0742 L 21.2891 -76.0742 C 13.6719 -76.0742 9.76562 -72.168 9.76562 -64.4531 L 9.76562 -5.95703 C 9.76562 1.80664 13.623 5.71289 21.2891 5.71289 Z M 21.5332 0.244141 C 17.3828 0.244141 15.1855 -1.95312 15.1855 -6.05469 L 15.1855 -64.3555 C 15.1855 -68.3594 17.3828 -70.6543 21.582 -70.6543 L 39.0137 -70.6543 L 39.0137 -48.0469 C 39.0137 -43.457 41.3574 -41.2109 45.8008 -41.2109 L 68.1152 -41.2109 L 68.1152 -6.05469 C 68.1152 -1.95312 65.9668 0.244141 61.7676 0.244141 Z M 46.4355 -46.3379 C 44.7754 -46.3379 44.1406 -46.9727 44.1406 -48.6328 L 44.1406 -69.5801 L 67.041 -46.3379 Z M 44.2383 -33.9844 C 44.2383 -35.3516 43.0664 -36.5234 41.6504 -36.5234 C 40.2832 -36.5234 39.0625 -35.3516 39.0625 -33.9844 L 39.0625 -18.8965 L 39.3066 -12.3047 L 35.1562 -16.5527 L 31.7871 -20.0195 C 31.2988 -20.5078 30.6152 -20.752 29.9805 -20.752 C 28.5645 -20.752 27.5879 -19.7754 27.5879 -18.4082 C 27.5879 -17.5781 27.9297 -17.041 28.4668 -16.5039 L 39.7461 -5.95703 C 40.4785 -5.32227 41.0156 -5.07812 41.6504 -5.07812 C 42.334 -5.07812 42.8711 -5.32227 43.5547 -5.95703 L 54.834 -16.5039 C 55.3711 -17.041 55.7617 -17.5781 55.7617 -18.4082 C 55.7617 -19.7754 54.6875 -20.752 53.3691 -20.752 C 52.6855 -20.752 52.002 -20.5078 51.5625 -20.0195 L 48.1445 -16.5527 L 44.043 -12.3047 L 44.2383 -18.8965 Z"/>
  </g>
  <g id="Thin-S" transform="matrix(1 0 0 1 815.578 696)">
   <path d="M 20.2637 5.37109 L 61.4258 5.37109 C 68.3594 5.37109 71.9238 1.75781 71.9238 -5.22461 L 71.9238 -42.2363 C 71.9238 -45.6055 71.4355 -47.1191 69.3848 -49.1699 L 45.5078 -73.1445 C 43.5547 -75.1465 41.9434 -75.6836 38.8184 -75.6836 L 20.2637 -75.6836 C 13.4277 -75.6836 9.76562 -72.0703 9.76562 -65.1367 L 9.76562 -5.22461 C 9.76562 1.75781 13.3789 5.37109 20.2637 5.37109 Z M 20.4102 2.05078 C 15.5762 2.05078 13.0859 -0.488281 13.0859 -5.32227 L 13.0859 -65.0391 C 13.0859 -69.6777 15.5762 -72.3633 20.459 -72.3633 L 39.209 -72.3633 L 39.209 -48.5352 C 39.209 -44.6289 41.2109 -42.8711 44.9219 -42.8711 L 68.6035 -42.8711 L 68.6035 -5.32227 C 68.6035 -0.488281 66.1133 2.05078 61.2793 2.05078 Z M 45.2148 -46.0449 C 43.2129 -46.0449 42.3828 -46.8262 42.3828 -48.8281 L 42.3828 -71.6309 L 67.8711 -46.0449 Z M 42.4316 -35.5469 C 42.4316 -36.4258 41.6992 -37.1582 40.8691 -37.1582 C 39.9902 -37.1582 39.2578 -36.4258 39.2578 -35.5469 L 39.2578 -17.041 L 39.4043 -9.32617 L 32.7148 -16.1133 L 29.4922 -19.3848 C 29.248 -19.6777 28.8086 -19.873 28.3691 -19.873 C 27.4902 -19.873 26.8555 -19.2383 26.8555 -18.3105 C 26.8555 -17.627 27.1973 -17.2852 27.6367 -16.8457 L 39.6484 -5.17578 C 40.0391 -4.78516 40.4297 -4.58984 40.8691 -4.58984 C 41.2598 -4.58984 41.6504 -4.78516 42.041 -5.17578 L 54.0527 -16.8457 C 54.4922 -17.2852 54.8828 -17.627 54.8828 -18.3105 C 54.8828 -19.2383 54.1992 -19.873 53.3203 -19.873 C 52.8809 -19.873 52.4414 -19.6777 52.1973 -19.3848 L 48.9746 -16.1133 L 42.2852 -9.32617 L 42.4316 -17.041 Z"/>
  </g>
  <g id="Ultralight-S" transform="matrix(1 0 0 1 519.281 696)">
   <path d="M 19.7266 5.17578 L 61.084 5.17578 C 67.627 5.17578 71.0938 1.70898 71.0938 -4.83398 L 71.0938 -42.7734 C 71.0938 -45.459 70.6055 -46.7773 68.9453 -48.4375 L 44.043 -73.3398 C 42.3828 -75 41.1133 -75.4883 38.4277 -75.4883 L 19.7266 -75.4883 C 13.3301 -75.4883 9.76562 -72.0215 9.76562 -65.4785 L 9.76562 -4.83398 C 9.76562 1.70898 13.2324 5.17578 19.7266 5.17578 Z M 19.873 2.97852 C 14.6484 2.97852 11.9629 0.244141 11.9629 -4.93164 L 11.9629 -65.3809 C 11.9629 -70.4102 14.6484 -73.291 19.873 -73.291 L 39.3066 -73.291 L 39.3066 -48.8281 C 39.3066 -45.2148 41.1133 -43.7012 44.4336 -43.7012 L 68.8965 -43.7012 L 68.8965 -4.93164 C 68.8965 0.244141 66.2109 2.97852 60.9863 2.97852 Z M 44.5801 -45.8984 C 42.3828 -45.8984 41.5039 -46.7285 41.5039 -48.9258 L 41.5039 -72.7051 L 68.3105 -45.8984 Z M 41.5039 -36.377 C 41.5039 -36.9629 41.0156 -37.4512 40.4297 -37.4512 C 39.8438 -37.4512 39.3555 -36.9629 39.3555 -36.377 L 39.3555 -16.0645 L 39.4531 -7.76367 L 31.4453 -15.8691 L 28.3203 -19.043 C 28.1738 -19.2383 27.832 -19.3848 27.5391 -19.3848 C 26.9531 -19.3848 26.4648 -18.8965 26.4648 -18.2617 C 26.4648 -17.627 26.8555 -17.3828 27.1973 -17.041 L 39.5996 -4.73633 C 39.8438 -4.49219 40.1367 -4.3457 40.4297 -4.3457 C 40.7227 -4.3457 41.0156 -4.49219 41.2598 -4.73633 L 53.6621 -17.041 C 54.0039 -17.3828 54.3945 -17.627 54.3945 -18.2617 C 54.3945 -18.8965 53.9062 -19.3848 53.3203 -19.3848 C 52.9785 -19.3848 52.6855 -19.2383 52.4902 -19.043 L 49.4141 -15.8691 L 41.4062 -7.76367 L 41.5039 -16.0645 Z"/>
  </g>
 </g>
</svg>
